<svg width="374" height="236" viewBox="0 0 374 236" fill="none" xmlns="http://www.w3.org/2000/svg">
<path d="M234.336 225.952C233.913 226.754 233.739 227.664 233.836 228.566C233.886 229.027 234.612 229.027 234.562 228.566C234.467 227.793 234.606 227.01 234.962 226.317C235.175 225.903 234.549 225.536 234.336 225.952Z" fill="#50AA50"/>
<path d="M232.22 226.533C231.993 227.339 231.972 228.188 232.156 229.004C232.256 229.459 232.955 229.267 232.856 228.81C232.703 228.121 232.724 227.404 232.918 226.725C233.044 226.276 232.342 226.083 232.22 226.533Z" fill="#50AA50"/>
<path d="M236.287 225.062C236.748 225.062 236.754 224.336 236.287 224.336C235.82 224.336 235.819 225.062 236.287 225.062Z" fill="#50AA50"/>
<path d="M238.342 228.567V229.212C238.342 229.679 239.067 229.679 239.067 229.212V228.567C239.067 228.1 238.342 228.1 238.342 228.567Z" fill="#50AA50"/>
<path d="M250.589 229.69V230.013C250.589 230.475 251.315 230.475 251.315 230.013V229.69C251.315 229.229 250.589 229.223 250.589 229.69Z" fill="#50AA50"/>
<path d="M249.244 228.823L249.406 228.984C249.735 229.315 250.248 228.802 249.918 228.471L249.757 228.311C249.426 227.98 248.913 228.493 249.244 228.823Z" fill="#50AA50"/>
<path d="M43.1831 212.836H18.6364C18.5067 212.841 18.3773 212.819 18.2561 212.772C18.1349 212.726 18.0243 212.655 17.931 212.565C17.8376 212.475 17.7633 212.367 17.7126 212.247C17.6619 212.128 17.6357 211.999 17.6357 211.869C17.6357 211.739 17.6619 211.611 17.7126 211.491C17.7633 211.372 17.8376 211.264 17.931 211.174C18.0243 211.083 18.1349 211.013 18.2561 210.966C18.3773 210.92 18.5067 210.898 18.6364 210.902H43.1831C43.3128 210.898 43.4422 210.92 43.5634 210.966C43.6846 211.013 43.7952 211.083 43.8886 211.174C43.9819 211.264 44.0562 211.372 44.1069 211.491C44.1576 211.611 44.1838 211.739 44.1838 211.869C44.1838 211.999 44.1576 212.128 44.1069 212.247C44.0562 212.367 43.9819 212.475 43.8886 212.565C43.7952 212.655 43.6846 212.726 43.5634 212.772C43.4422 212.819 43.3128 212.841 43.1831 212.836Z" fill="#405B91"/>
<path d="M259.337 127.687H258.636C258.636 127.408 258.525 127.141 258.328 126.943C258.131 126.746 257.863 126.635 257.584 126.635C257.306 126.635 257.038 126.746 256.841 126.943C256.644 127.141 256.533 127.408 256.533 127.687H255.826C255.82 127.453 255.861 127.22 255.947 127.002C256.032 126.784 256.16 126.586 256.324 126.418C256.487 126.25 256.682 126.117 256.898 126.026C257.114 125.935 257.345 125.888 257.579 125.888C257.813 125.888 258.045 125.935 258.261 126.026C258.476 126.117 258.672 126.25 258.835 126.418C258.998 126.586 259.127 126.784 259.212 127.002C259.297 127.22 259.338 127.453 259.332 127.687H259.337Z" fill="white"/>
<path d="M261.845 86.857H261.143C261.143 86.5781 261.032 86.3106 260.835 86.1134C260.638 85.9161 260.37 85.8053 260.091 85.8053C259.813 85.8053 259.545 85.9161 259.348 86.1134C259.151 86.3106 259.04 86.5781 259.04 86.857H258.339C258.333 86.623 258.374 86.3901 258.459 86.1721C258.545 85.9541 258.673 85.7555 258.836 85.5878C259 85.4202 259.195 85.2869 259.411 85.196C259.626 85.105 259.858 85.0581 260.092 85.0581C260.326 85.0581 260.558 85.105 260.773 85.196C260.989 85.2869 261.184 85.4202 261.348 85.5878C261.511 85.7555 261.639 85.9541 261.725 86.1721C261.81 86.3901 261.851 86.623 261.845 86.857Z" fill="white"/>
<path d="M174.573 228.739H141.209L141.775 227.396C143.966 222.207 144.189 217.761 143.856 212.684L143.789 211.657L171.92 211.57L171.927 212.533C171.951 215.815 172.839 223.268 174.175 227.479L174.573 228.739ZM144.089 226.808H171.966C170.892 222.749 170.162 216.882 170.018 213.513L145.846 213.587C146.075 218.087 145.8 222.183 144.089 226.808Z" fill="#0D1840"/>
<path d="M131.616 213.492C106.287 213.492 85.7685 213.354 84.8681 213.031C82.6995 212.259 79.8656 209.254 79.8276 207.121C79.7457 202.509 79.5474 196.22 79.3169 188.939C78.6251 166.99 77.674 136.933 78.9064 120.296C79.1301 117.265 81.6342 114.923 84.626 114.923H84.7217L230.753 115.141C233.842 115.194 236.318 117.687 236.391 120.817C236.506 125.675 236.66 130.64 236.82 135.674C237.488 156.747 238.179 178.538 235.845 199.144C235.754 199.951 235.714 200.853 235.672 201.782C235.474 206.106 235.23 211.487 229.659 212.586C226.936 213.125 172.891 213.492 131.616 213.492ZM84.6375 116.48C83.5731 116.487 82.5506 116.896 81.7751 117.625C80.9996 118.354 80.5283 119.35 80.4559 120.412C79.2304 136.964 80.1781 166.978 80.8698 188.89C81.1004 196.176 81.2999 202.469 81.3817 207.095C81.4059 208.441 83.6541 210.949 85.3892 211.568C88.5021 212.203 225.789 211.734 229.358 211.063C233.732 210.199 233.929 205.885 234.119 201.712C234.163 200.747 234.206 199.814 234.302 198.969C236.622 178.477 235.932 156.741 235.265 135.724C235.106 130.688 234.948 125.718 234.837 120.855C234.784 118.562 232.982 116.738 230.732 116.697L84.7079 116.48H84.6375Z" fill="#0D1840"/>
<path fill-rule="evenodd" clip-rule="evenodd" d="M226.668 120.17L89.0793 119.989C86.604 119.952 84.5276 121.649 84.342 123.867C82.7994 142.286 84.9011 180.716 85.2124 196.183C85.2424 197.69 87.7027 199.95 89.4782 200.509C91.5638 201.169 222.317 200.671 225.511 200.113C231.251 199.11 230.274 193.233 230.755 189.47C233.478 168.197 231.805 145.075 231.263 124.268C231.202 122.015 229.175 120.208 226.668 120.17Z" fill="#AFAFAF"/>
<path d="M186.508 234.033H129.26C126.987 234.033 125.801 232.247 125.801 230.48C125.801 228.714 126.99 226.923 129.26 226.923H186.508C188.78 226.923 189.966 228.71 189.966 230.476C189.966 232.241 188.78 234.033 186.508 234.033ZM129.26 228.477C127.761 228.477 127.354 229.736 127.354 230.48C127.354 231.224 127.755 232.479 129.26 232.479H186.508C188.012 232.479 188.415 231.219 188.415 230.476C188.415 229.732 188.012 228.477 186.508 228.477H129.26Z" fill="#0D1840"/>
<path d="M89.3912 208.074C91.9622 208.074 91.9668 204.078 89.3912 204.078C86.8156 204.078 86.8156 208.074 89.3912 208.074Z" fill="#415B91"/>
<path d="M97.4459 208.074C100.017 208.074 100.02 204.078 97.4459 204.078C94.8715 204.078 94.8703 208.074 97.4459 208.074Z" fill="#415B91"/>
<path d="M105.501 208.074C108.073 208.074 108.077 204.078 105.501 204.078C102.925 204.078 102.927 208.074 105.501 208.074Z" fill="#415B91"/>
<path d="M157.885 118.981C159.091 118.981 159.093 117.107 157.885 117.107C156.676 117.107 156.676 118.981 157.885 118.981Z" fill="#415B91"/>
<path d="M319.338 230.235H299.611L307.199 205.311H311.752L319.338 230.235Z" fill="#B6D0FB"/>
<path d="M320.969 230.235H297.982V233.082H320.969V230.235Z" fill="#B6D0FB"/>
<path d="M301.508 224.004L299.611 230.235H319.338L317.441 224.004H301.508Z" fill="#415B91"/>
<path d="M303.406 217.773H315.545L313.649 211.542H305.303L303.406 217.773Z" fill="#415B91"/>
<path d="M327.405 232.919H331.786V215.968H354.257V232.919H358.638V215.968H363.274V202.435H359.576V201.184H353.197V202.435H333.283V201.184H326.905V202.435H322.845V215.968H327.405V232.919ZM361.851 203.845V203.902L359.153 214.553H354.337L357.052 203.849L361.851 203.845ZM349.293 214.553H344.479L347.192 203.845H352.006L349.293 214.553ZM339.435 214.553H334.62L337.338 203.849H342.152L339.435 214.553ZM327.473 203.845H332.288L329.576 214.553H324.76L327.473 203.845Z" fill="#AFAFAF"/>
<path d="M112.109 67.2077L113.42 65.8966C113.483 65.8336 113.534 65.7586 113.568 65.676C113.603 65.5933 113.62 65.5047 113.62 65.4152C113.62 65.3257 113.603 65.2371 113.568 65.1544C113.534 65.0718 113.483 64.9968 113.42 64.9338L112.277 63.7922C112.147 63.6488 112.062 63.4693 112.035 63.2772C112.008 63.085 112.039 62.8891 112.125 62.7151L113.056 60.4539C113.118 60.2694 113.236 60.1083 113.391 59.9914C113.547 59.8746 113.735 59.8075 113.929 59.7989H115.544C115.723 59.7989 115.896 59.7277 116.023 59.6008C116.151 59.474 116.223 59.3018 116.224 59.122V57.262C116.224 57.1727 116.206 57.0842 116.172 57.0016C116.138 56.9191 116.088 56.8441 116.025 56.781C115.962 56.7179 115.887 56.6679 115.804 56.6339C115.721 56.5999 115.633 56.5825 115.544 56.5828H113.929C113.735 56.5743 113.548 56.5074 113.392 56.3908C113.236 56.2741 113.119 56.1132 113.056 55.929L112.125 53.67C112.039 53.4953 112.008 53.2987 112.035 53.1058C112.062 52.9129 112.146 52.7326 112.277 52.5884L113.42 51.4479C113.483 51.3853 113.534 51.3106 113.568 51.2283C113.603 51.1459 113.621 51.0575 113.621 50.9682C113.621 50.879 113.603 50.7906 113.568 50.7082C113.534 50.6259 113.483 50.5512 113.42 50.4885L112.109 49.1717C111.981 49.0442 111.809 48.9726 111.628 48.9726C111.448 48.9726 111.275 49.0442 111.148 49.1717L110.004 50.3144C109.861 50.4453 109.681 50.5302 109.489 50.5582C109.298 50.5861 109.102 50.5558 108.927 50.4712L106.665 49.5384C106.481 49.4754 106.32 49.3582 106.204 49.2022C106.087 49.0463 106.021 48.8588 106.012 48.6643V47.0499C106.012 46.8696 105.94 46.6967 105.813 46.5691C105.685 46.4415 105.513 46.3693 105.332 46.3684H103.477C103.297 46.369 103.124 46.441 102.996 46.5687C102.868 46.6964 102.796 46.8694 102.796 47.0499V48.6643C102.787 48.8589 102.721 49.0464 102.604 49.2023C102.487 49.3583 102.326 49.4754 102.142 49.5384L99.8801 50.4712C99.7058 50.5561 99.51 50.5865 99.3181 50.5585C99.1263 50.5305 98.9473 50.4455 98.8044 50.3144L97.6596 49.1728C97.5969 49.1095 97.5223 49.0593 97.44 49.025C97.3578 48.9908 97.2696 48.9731 97.1806 48.9731C97.0915 48.9731 97.0033 48.9908 96.9211 49.025C96.8388 49.0593 96.7642 49.1095 96.7015 49.1728L95.3849 50.4943C95.3218 50.5573 95.2719 50.6321 95.2377 50.7144C95.2036 50.7967 95.1861 50.8849 95.1861 50.974C95.1861 51.0631 95.2036 51.1513 95.2377 51.2336C95.2719 51.316 95.3218 51.3907 95.3849 51.4537L96.5274 52.5941C96.6591 52.7379 96.7444 52.9181 96.7719 53.1111C96.7995 53.3041 96.7681 53.5009 96.6819 53.6758L95.7515 55.9348C95.6884 56.119 95.5713 56.2799 95.4154 56.3965C95.2595 56.5131 95.0721 56.5801 94.8776 56.5886H93.2635C93.0834 56.5886 92.9107 56.6601 92.7834 56.7875C92.656 56.9149 92.5845 57.0876 92.5845 57.2678V59.1278C92.5857 59.3073 92.6577 59.4791 92.7848 59.6059C92.912 59.7326 93.084 59.804 93.2635 59.8047H94.8776C95.0722 59.8132 95.2598 59.8803 95.4157 59.9972C95.5716 60.114 95.6886 60.2752 95.7515 60.4596L96.6819 62.7209C96.768 62.895 96.7994 63.0911 96.7718 63.2834C96.7442 63.4757 96.659 63.6551 96.5274 63.7979L95.3849 64.9395C95.2574 65.0673 95.1858 65.2404 95.1858 65.421C95.1858 65.6015 95.2574 65.7746 95.3849 65.9024L96.7015 67.2135C96.7639 67.2773 96.8384 67.3281 96.9207 67.3627C97.0029 67.3973 97.0913 67.4152 97.1806 67.4152C97.2698 67.4152 97.3582 67.3973 97.4404 67.3627C97.5227 67.3281 97.5972 67.2773 97.6596 67.2135L98.8044 66.0731C98.9476 65.9416 99.1272 65.8567 99.3196 65.8293C99.512 65.8019 99.7082 65.8334 99.8824 65.9197L102.142 66.8503C102.326 66.9129 102.487 67.0297 102.604 67.1855C102.721 67.3413 102.788 67.5287 102.796 67.7232V69.3376C102.796 69.5179 102.868 69.6907 102.996 69.818C103.124 69.9453 103.297 70.0168 103.477 70.0168H105.332C105.512 70.0161 105.685 69.9444 105.812 69.8172C105.94 69.69 106.012 69.5176 106.012 69.3376V67.7232C106.02 67.5288 106.087 67.3414 106.204 67.1856C106.32 67.0298 106.481 66.9129 106.665 66.8503L108.927 65.9197C109.101 65.8337 109.297 65.8023 109.489 65.8297C109.681 65.8571 109.861 65.9419 110.004 66.0731L111.148 67.2135C111.211 67.2769 111.286 67.3272 111.369 67.3612C111.451 67.3953 111.54 67.4126 111.629 67.4121C111.719 67.4115 111.807 67.3932 111.89 67.3581C111.972 67.323 112.047 67.2719 112.109 67.2077ZM104.404 63.6169C103.331 63.6169 102.282 63.2986 101.39 62.7023C100.498 62.1061 99.8022 61.2585 99.3915 60.267C98.9809 59.2754 98.8734 58.1843 99.0828 57.1316C99.2921 56.0789 99.8088 55.112 100.568 54.3531C101.326 53.5942 102.293 53.0773 103.346 52.8679C104.398 52.6585 105.489 52.766 106.48 53.1767C107.472 53.5875 108.319 54.283 108.915 55.1754C109.512 56.0678 109.83 57.117 109.83 58.1903C109.829 59.6294 109.258 61.0095 108.24 62.0271C107.223 63.0448 105.843 63.6166 104.404 63.6169Z" fill="#AFAFAF"/>
<path d="M124.654 72.3369L124.323 71.2345C124.29 71.1275 124.216 71.0379 124.118 70.985C124.019 70.9322 123.904 70.9203 123.796 70.952L122.84 71.2425C122.723 71.2732 122.6 71.2675 122.486 71.2263C122.373 71.1852 122.274 71.1104 122.204 71.0119L121.24 69.8438C121.159 69.7548 121.106 69.6435 121.089 69.5244C121.071 69.4052 121.09 69.2835 121.142 69.175L121.614 68.2928C121.641 68.2439 121.657 68.1901 121.663 68.1346C121.669 68.0791 121.664 68.0229 121.649 67.9694C121.633 67.9158 121.607 67.8659 121.572 67.8225C121.537 67.779 121.493 67.7429 121.444 67.7163L120.43 67.1731C120.381 67.1462 120.327 67.1292 120.271 67.1233C120.215 67.1174 120.159 67.1227 120.105 67.1388C120.052 67.1549 120.002 67.1815 119.958 67.2171C119.915 67.2527 119.879 67.2966 119.853 67.3461L119.379 68.2283C119.318 68.3319 119.227 68.4146 119.118 68.4656C119.009 68.5166 118.887 68.5336 118.768 68.5142L117.259 68.362C117.139 68.3584 117.023 68.3181 116.926 68.2466C116.829 68.1751 116.756 68.0758 116.717 67.9619L116.426 67.0036C116.41 66.9507 116.384 66.9014 116.349 66.8586C116.314 66.8159 116.271 66.7805 116.222 66.7545C116.174 66.7285 116.12 66.7125 116.065 66.7074C116.01 66.7022 115.955 66.7081 115.902 66.7246L114.8 67.0532C114.693 67.0862 114.603 67.1604 114.55 67.2596C114.497 67.3588 114.485 67.4749 114.518 67.5825L114.809 68.5384C114.84 68.6552 114.834 68.7786 114.793 68.8921C114.752 69.0056 114.677 69.1038 114.579 69.1738L113.408 70.1378C113.32 70.2194 113.209 70.2725 113.091 70.2901C112.972 70.3078 112.85 70.2893 112.742 70.237L111.858 69.7631C111.809 69.7369 111.756 69.7206 111.701 69.7151C111.646 69.7096 111.59 69.7151 111.538 69.7312C111.485 69.7473 111.436 69.7736 111.393 69.8088C111.35 69.844 111.315 69.8872 111.289 69.936L110.744 70.9473C110.69 71.0466 110.678 71.1631 110.711 71.2712C110.743 71.3793 110.817 71.4702 110.916 71.5239L111.8 72.0013C111.904 72.0617 111.987 72.1524 112.038 72.2611C112.089 72.3699 112.106 72.4916 112.086 72.6102L111.936 74.1173C111.932 74.238 111.891 74.3545 111.82 74.4515C111.748 74.5486 111.648 74.6214 111.534 74.6604L110.576 74.9533C110.523 74.969 110.473 74.9951 110.43 75.03C110.387 75.065 110.352 75.1081 110.326 75.1569C110.299 75.2057 110.283 75.2592 110.278 75.3143C110.272 75.3694 110.278 75.4251 110.294 75.478L110.628 76.5781C110.643 76.6313 110.669 76.6809 110.704 76.7239C110.739 76.767 110.783 76.8026 110.832 76.8288C110.881 76.855 110.934 76.8712 110.989 76.8764C111.045 76.8817 111.1 76.8759 111.153 76.8594L112.113 76.57C112.229 76.5412 112.351 76.5477 112.464 76.5888C112.576 76.6299 112.674 76.7036 112.744 76.8006L113.707 77.9722C113.789 78.0607 113.842 78.1719 113.86 78.2911C113.878 78.4104 113.86 78.5323 113.807 78.641L113.334 79.5232C113.28 79.6227 113.269 79.7393 113.301 79.8474C113.334 79.9555 113.408 80.0462 113.508 80.0997L114.52 80.6405C114.569 80.6673 114.623 80.6841 114.678 80.69C114.734 80.6959 114.79 80.6908 114.844 80.6749C114.897 80.6591 114.947 80.6328 114.99 80.5976C115.034 80.5624 115.07 80.519 115.096 80.4699L115.57 79.5854C115.631 79.4817 115.722 79.3989 115.831 79.3477C115.94 79.2964 116.062 79.2792 116.181 79.2983L117.687 79.4517C117.808 79.4556 117.925 79.4962 118.022 79.568C118.12 79.6399 118.193 79.7397 118.232 79.8541L118.522 80.81C118.537 80.8632 118.564 80.9127 118.599 80.9556C118.634 80.9986 118.677 81.0342 118.726 81.0604C118.775 81.0865 118.828 81.1027 118.883 81.1081C118.939 81.1134 118.994 81.1077 119.047 81.0914L120.148 80.7593C120.255 80.7265 120.344 80.6533 120.397 80.5555C120.451 80.4577 120.463 80.343 120.433 80.2358L120.143 79.2775C120.112 79.1607 120.118 79.0374 120.159 78.9238C120.2 78.8103 120.275 78.7121 120.373 78.6422L121.543 77.6793C121.632 77.5975 121.743 77.5441 121.863 77.5261C121.982 77.508 122.104 77.526 122.213 77.5778L123.094 78.0506C123.143 78.078 123.197 78.0953 123.253 78.1015C123.308 78.1078 123.365 78.1028 123.418 78.0869C123.472 78.071 123.522 78.0445 123.565 78.0089C123.609 77.9734 123.644 77.9295 123.671 77.8799L124.214 76.8652C124.24 76.816 124.257 76.7619 124.263 76.7062C124.269 76.6505 124.263 76.5942 124.247 76.5405C124.231 76.4869 124.204 76.437 124.168 76.3938C124.133 76.3505 124.089 76.3148 124.039 76.2886L123.156 75.8135C123.053 75.753 122.97 75.6625 122.919 75.554C122.869 75.4455 122.852 75.3241 122.872 75.2058L123.025 73.6941C123.029 73.574 123.07 73.4581 123.141 73.3613C123.212 73.2645 123.311 73.1912 123.424 73.151L124.383 72.8615C124.488 72.8271 124.575 72.7528 124.626 72.6547C124.677 72.5565 124.687 72.4424 124.654 72.3369ZM120.439 75.4918C120.125 76.0781 119.644 76.558 119.057 76.8708C118.47 77.1837 117.804 77.3155 117.142 77.2496C116.481 77.1837 115.853 76.9229 115.34 76.5004C114.826 76.0778 114.45 75.5125 114.257 74.8758C114.065 74.2391 114.066 73.5596 114.26 72.9234C114.454 72.2872 114.832 71.7228 115.346 71.3016C115.861 70.8803 116.489 70.6211 117.151 70.5569C117.813 70.4926 118.479 70.6261 119.065 70.9404C119.454 71.149 119.798 71.4321 120.078 71.7737C120.357 72.1154 120.567 72.5087 120.694 72.9314C120.822 73.354 120.865 73.7977 120.821 74.237C120.777 74.6763 120.648 75.1027 120.439 75.4918Z" fill="#AFAFAF"/>
<path d="M179.557 93.5787H149.163C149.033 93.5831 148.903 93.5615 148.782 93.5149C148.661 93.4683 148.55 93.3978 148.457 93.3076C148.364 93.2174 148.289 93.1092 148.239 92.9897C148.188 92.8702 148.162 92.7416 148.162 92.6118C148.162 92.4819 148.188 92.3534 148.239 92.2338C148.289 92.1143 148.364 92.0062 148.457 91.9159C148.55 91.8257 148.661 91.7552 148.782 91.7086C148.903 91.6621 149.033 91.6404 149.163 91.6449H179.557C179.807 91.6535 180.045 91.7592 180.219 91.9396C180.393 92.1199 180.491 92.361 180.491 92.6118C180.491 92.8626 180.393 93.1036 180.219 93.284C180.045 93.4643 179.807 93.57 179.557 93.5787Z" fill="#405B91"/>
<path d="M117.68 107.388H68.5858C68.3352 107.38 68.0977 107.274 67.9235 107.094C67.7492 106.913 67.6519 106.672 67.6519 106.422C67.6519 106.171 67.7492 105.93 67.9235 105.749C68.0977 105.569 68.3352 105.463 68.5858 105.455H117.68C117.81 105.45 117.939 105.472 118.061 105.518C118.182 105.565 118.292 105.636 118.386 105.726C118.479 105.816 118.553 105.924 118.604 106.044C118.655 106.163 118.681 106.292 118.681 106.422C118.681 106.551 118.655 106.68 118.604 106.8C118.553 106.919 118.479 107.027 118.386 107.117C118.292 107.208 118.182 107.278 118.061 107.325C117.939 107.371 117.81 107.393 117.68 107.388Z" fill="#405B91"/>
<path d="M353.071 133.534H303.978C303.848 133.539 303.719 133.517 303.598 133.471C303.476 133.424 303.366 133.354 303.273 133.263C303.179 133.173 303.105 133.065 303.054 132.946C303.003 132.826 302.977 132.697 302.977 132.568C302.977 132.438 303.003 132.309 303.054 132.19C303.105 132.07 303.179 131.962 303.273 131.872C303.366 131.782 303.476 131.711 303.598 131.664C303.719 131.618 303.848 131.596 303.978 131.601H353.071C353.322 131.609 353.559 131.715 353.734 131.895C353.908 132.076 354.005 132.317 354.005 132.568C354.005 132.818 353.908 133.059 353.734 133.24C353.559 133.42 353.322 133.526 353.071 133.534Z" fill="#0D1840"/>
<path d="M372.371 235.001H0.933912C0.683301 234.992 0.445848 234.886 0.271621 234.706C0.0973937 234.526 0 234.285 0 234.034C0 233.783 0.0973937 233.542 0.271621 233.362C0.445848 233.181 0.683301 233.076 0.933912 233.067H372.371C372.501 233.063 372.63 233.084 372.751 233.131C372.872 233.177 372.983 233.248 373.076 233.338C373.17 233.428 373.244 233.536 373.295 233.656C373.345 233.775 373.372 233.904 373.372 234.034C373.372 234.164 373.345 234.292 373.295 234.412C373.244 234.531 373.17 234.639 373.076 234.73C372.983 234.82 372.872 234.89 372.751 234.937C372.63 234.983 372.501 235.005 372.371 235.001Z" fill="#0D1840"/>
<path d="M236.123 81.4328C234.749 81.4333 233.401 81.7964 232.212 82.4855C231.024 83.1745 230.039 84.1651 229.357 85.357C228.674 86.5489 228.318 87.9 228.325 89.2736C228.332 90.6472 228.701 91.9946 229.396 93.1797L229.525 93.3965L221.628 101.293C221.394 101.535 221.257 101.854 221.241 102.19C221.241 102.587 221.437 102.991 221.836 103.389C222.26 103.813 222.705 104.028 223.156 104.028C223.491 104.023 223.816 103.913 224.085 103.712L231.961 95.8319L232.179 95.9611C233.212 96.5669 234.372 96.9263 235.567 97.0114C236.762 97.0966 237.961 96.9051 239.07 96.4519C240.179 95.9986 241.169 95.2959 241.963 94.3981C242.757 93.5003 243.333 92.4317 243.647 91.2751C243.961 90.1186 244.004 88.9052 243.773 87.7292C243.543 86.5532 243.044 85.4462 242.316 84.4942C241.588 83.5421 240.651 82.7706 239.577 82.2394C238.503 81.7083 237.321 81.4319 236.123 81.4316V81.4328ZM236.123 94.7157C235.396 94.7262 234.675 94.5922 234 94.3213C233.326 94.0505 232.712 93.6482 232.194 93.138C231.677 92.6277 231.266 92.0196 230.985 91.3491C230.704 90.6785 230.56 89.9589 230.56 89.232C230.56 88.5051 230.704 87.7854 230.985 87.1149C231.266 86.4443 231.677 85.8362 232.194 85.326C232.712 84.8157 233.326 84.4135 234 84.1426C234.675 83.8718 235.396 83.7377 236.123 83.7483C236.849 83.7377 237.571 83.8718 238.245 84.1426C238.92 84.4135 239.534 84.8157 240.051 85.326C240.569 85.8362 240.98 86.4443 241.26 87.1149C241.541 87.7854 241.685 88.5051 241.685 89.232C241.685 89.9589 241.541 90.6785 241.26 91.3491C240.98 92.0196 240.569 92.6277 240.051 93.138C239.534 93.6482 238.92 94.0505 238.245 94.3213C237.571 94.5922 236.849 94.7262 236.123 94.7157Z" fill="#AFAFAF"/>
<path d="M233.229 90.3731H238.879V88.9282H233.229V90.3731Z" fill="#B6D0FB"/>
<path d="M109.144 233.209C108.887 233.209 108.642 233.107 108.46 232.926C108.279 232.745 108.177 232.499 108.177 232.242V157.761C108.177 157.504 108.278 157.258 108.46 157.077C108.641 156.895 108.887 156.793 109.144 156.793C109.4 156.793 109.646 156.895 109.828 157.077C110.009 157.258 110.111 157.504 110.111 157.761V232.242C110.111 232.499 110.009 232.745 109.827 232.926C109.646 233.107 109.4 233.209 109.144 233.209Z" fill="#405B91"/>
<path d="M126.449 233.209C126.193 233.209 125.947 233.107 125.765 232.926C125.584 232.745 125.482 232.499 125.482 232.242V157.761C125.482 157.504 125.584 157.258 125.765 157.077C125.946 156.895 126.192 156.793 126.449 156.793C126.706 156.793 126.952 156.895 127.133 157.077C127.314 157.258 127.416 157.504 127.416 157.761V232.242C127.416 232.499 127.314 232.745 127.133 232.926C126.951 233.107 126.705 233.209 126.449 233.209Z" fill="#405B91"/>
<path d="M126.449 163.817H109.144C109.014 163.821 108.885 163.8 108.763 163.753C108.642 163.707 108.532 163.636 108.438 163.546C108.345 163.456 108.271 163.348 108.22 163.228C108.169 163.108 108.143 162.98 108.143 162.85C108.143 162.72 108.169 162.592 108.22 162.472C108.271 162.353 108.345 162.244 108.438 162.154C108.532 162.064 108.642 161.993 108.763 161.947C108.885 161.9 109.014 161.879 109.144 161.883H126.449C126.579 161.879 126.708 161.9 126.829 161.947C126.951 161.993 127.061 162.064 127.154 162.154C127.248 162.244 127.322 162.353 127.373 162.472C127.424 162.592 127.45 162.72 127.45 162.85C127.45 162.98 127.424 163.108 127.373 163.228C127.322 163.348 127.248 163.456 127.154 163.546C127.061 163.636 126.951 163.707 126.829 163.753C126.708 163.8 126.579 163.821 126.449 163.817Z" fill="#405B91"/>
<path d="M126.449 172.327H109.144C108.887 172.327 108.641 172.225 108.46 172.043C108.278 171.862 108.177 171.616 108.177 171.359C108.177 171.103 108.278 170.857 108.46 170.675C108.641 170.494 108.887 170.392 109.144 170.392H126.449C126.706 170.392 126.952 170.494 127.133 170.675C127.314 170.857 127.416 171.103 127.416 171.359C127.416 171.616 127.314 171.862 127.133 172.043C126.952 172.225 126.706 172.327 126.449 172.327Z" fill="#405B91"/>
<path d="M126.449 180.836H109.144C109.014 180.84 108.885 180.819 108.763 180.772C108.642 180.726 108.532 180.655 108.438 180.565C108.345 180.475 108.271 180.367 108.22 180.247C108.169 180.127 108.143 179.999 108.143 179.869C108.143 179.739 108.169 179.611 108.22 179.491C108.271 179.372 108.345 179.263 108.438 179.173C108.532 179.083 108.642 179.013 108.763 178.966C108.885 178.919 109.014 178.898 109.144 178.902H126.449C126.579 178.898 126.708 178.919 126.829 178.966C126.951 179.013 127.061 179.083 127.154 179.173C127.248 179.263 127.322 179.372 127.373 179.491C127.424 179.611 127.45 179.739 127.45 179.869C127.45 179.999 127.424 180.127 127.373 180.247C127.322 180.367 127.248 180.475 127.154 180.565C127.061 180.655 126.951 180.726 126.829 180.772C126.708 180.819 126.579 180.84 126.449 180.836Z" fill="#405B91"/>
<path d="M126.449 189.345H109.144C109.014 189.349 108.885 189.328 108.763 189.281C108.642 189.234 108.532 189.164 108.438 189.074C108.345 188.983 108.271 188.875 108.22 188.756C108.169 188.636 108.143 188.508 108.143 188.378C108.143 188.248 108.169 188.119 108.22 188C108.271 187.88 108.345 187.772 108.438 187.682C108.532 187.592 108.642 187.521 108.763 187.475C108.885 187.428 109.014 187.406 109.144 187.411H126.449C126.579 187.406 126.708 187.428 126.829 187.475C126.951 187.521 127.061 187.592 127.154 187.682C127.248 187.772 127.322 187.88 127.373 188C127.424 188.119 127.45 188.248 127.45 188.378C127.45 188.508 127.424 188.636 127.373 188.756C127.322 188.875 127.248 188.983 127.154 189.074C127.061 189.164 126.951 189.234 126.829 189.281C126.708 189.328 126.579 189.349 126.449 189.345Z" fill="#405B91"/>
<path d="M126.449 197.854H109.144C109.014 197.858 108.885 197.836 108.763 197.79C108.642 197.743 108.532 197.673 108.438 197.582C108.345 197.492 108.271 197.384 108.22 197.265C108.169 197.145 108.143 197.017 108.143 196.887C108.143 196.757 108.169 196.628 108.22 196.509C108.271 196.389 108.345 196.281 108.438 196.191C108.532 196.101 108.642 196.03 108.763 195.984C108.885 195.937 109.014 195.915 109.144 195.92H126.449C126.579 195.915 126.708 195.937 126.829 195.984C126.951 196.03 127.061 196.101 127.154 196.191C127.248 196.281 127.322 196.389 127.373 196.509C127.424 196.628 127.45 196.757 127.45 196.887C127.45 197.017 127.424 197.145 127.373 197.265C127.322 197.384 127.248 197.492 127.154 197.582C127.061 197.673 126.951 197.743 126.829 197.79C126.708 197.836 126.579 197.858 126.449 197.854Z" fill="#405B91"/>
<path d="M126.449 206.363H109.144C109.014 206.367 108.885 206.345 108.763 206.299C108.642 206.252 108.532 206.182 108.438 206.091C108.345 206.001 108.271 205.893 108.22 205.774C108.169 205.654 108.143 205.526 108.143 205.396C108.143 205.266 108.169 205.137 108.22 205.018C108.271 204.898 108.345 204.79 108.438 204.7C108.532 204.61 108.642 204.539 108.763 204.493C108.885 204.446 109.014 204.424 109.144 204.429H126.449C126.579 204.424 126.708 204.446 126.829 204.493C126.951 204.539 127.061 204.61 127.154 204.7C127.248 204.79 127.322 204.898 127.373 205.018C127.424 205.137 127.45 205.266 127.45 205.396C127.45 205.526 127.424 205.654 127.373 205.774C127.322 205.893 127.248 206.001 127.154 206.091C127.061 206.182 126.951 206.252 126.829 206.299C126.708 206.345 126.579 206.367 126.449 206.363Z" fill="#405B91"/>
<path d="M126.449 214.873H109.144C108.887 214.873 108.641 214.771 108.46 214.589C108.278 214.408 108.177 214.162 108.177 213.905C108.177 213.649 108.278 213.403 108.46 213.221C108.641 213.04 108.887 212.938 109.144 212.938H126.449C126.706 212.938 126.952 213.04 127.133 213.221C127.314 213.403 127.416 213.649 127.416 213.905C127.416 214.162 127.314 214.408 127.133 214.589C126.952 214.771 126.706 214.873 126.449 214.873Z" fill="#405B91"/>
<path d="M126.449 223.381H109.144C109.014 223.385 108.885 223.363 108.763 223.317C108.642 223.27 108.532 223.2 108.438 223.11C108.345 223.019 108.271 222.911 108.22 222.792C108.169 222.672 108.143 222.544 108.143 222.414C108.143 222.284 108.169 222.155 108.22 222.036C108.271 221.916 108.345 221.808 108.438 221.718C108.532 221.628 108.642 221.557 108.763 221.511C108.885 221.464 109.014 221.442 109.144 221.447H126.449C126.579 221.442 126.708 221.464 126.829 221.511C126.951 221.557 127.061 221.628 127.154 221.718C127.248 221.808 127.322 221.916 127.373 222.036C127.424 222.155 127.45 222.284 127.45 222.414C127.45 222.544 127.424 222.672 127.373 222.792C127.322 222.911 127.248 223.019 127.154 223.11C127.061 223.2 126.951 223.27 126.829 223.317C126.708 223.363 126.579 223.385 126.449 223.381Z" fill="#405B91"/>
<path d="M67.7519 161.373C67.4955 161.373 67.2498 161.271 67.0686 161.09C66.8875 160.908 66.7857 160.662 66.7857 160.406V156.641C66.7813 156.511 66.8029 156.382 66.8495 156.261C66.8961 156.139 66.9666 156.029 67.0568 155.935C67.147 155.842 67.2551 155.768 67.3746 155.717C67.4941 155.666 67.6226 155.64 67.7524 155.64C67.8823 155.64 68.0108 155.666 68.1303 155.717C68.2498 155.768 68.3579 155.842 68.4481 155.935C68.5383 156.029 68.6088 156.139 68.6554 156.261C68.702 156.382 68.7236 156.511 68.7192 156.641V160.406C68.7192 160.663 68.6172 160.909 68.4358 161.09C68.2544 161.272 68.0084 161.373 67.7519 161.373Z" fill="#405B91"/>
<path d="M69.6316 159.49H65.8674C65.7376 159.495 65.6083 159.473 65.4871 159.427C65.3659 159.38 65.2553 159.309 65.1619 159.219C65.0685 159.129 64.9943 159.021 64.9436 158.901C64.8928 158.782 64.8667 158.653 64.8667 158.523C64.8667 158.394 64.8928 158.265 64.9436 158.145C64.9943 158.026 65.0685 157.918 65.1619 157.828C65.2553 157.737 65.3659 157.667 65.4871 157.62C65.6083 157.574 65.7376 157.552 65.8674 157.556H69.6316C69.7614 157.552 69.8907 157.574 70.0119 157.62C70.1331 157.667 70.2437 157.737 70.3371 157.828C70.4305 157.918 70.5047 158.026 70.5555 158.145C70.6062 158.265 70.6323 158.394 70.6323 158.523C70.6323 158.653 70.6062 158.782 70.5555 158.901C70.5047 159.021 70.4305 159.129 70.3371 159.219C70.2437 159.309 70.1331 159.38 70.0119 159.427C69.8907 159.473 69.7614 159.495 69.6316 159.49Z" fill="#405B91"/>
<path d="M154.707 26.6869C154.45 26.6866 154.205 26.5846 154.023 26.4031C153.842 26.2217 153.741 25.9758 153.741 25.7194V21.9545C153.736 21.8247 153.758 21.6953 153.804 21.5741C153.851 21.4529 153.921 21.3423 154.012 21.2489C154.102 21.1555 154.21 21.0812 154.329 21.0305C154.449 20.9798 154.577 20.9536 154.707 20.9536C154.837 20.9536 154.966 20.9798 155.085 21.0305C155.205 21.0812 155.313 21.1555 155.403 21.2489C155.493 21.3423 155.564 21.4529 155.61 21.5741C155.657 21.6953 155.678 21.8247 155.674 21.9545V25.7194C155.674 25.976 155.572 26.2221 155.391 26.4036C155.209 26.585 154.963 26.6869 154.707 26.6869Z" fill="#405B91"/>
<path d="M156.59 24.8038H152.826C152.575 24.7951 152.338 24.6894 152.163 24.5091C151.989 24.3287 151.892 24.0877 151.892 23.8369C151.892 23.5861 151.989 23.345 152.163 23.1647C152.338 22.9843 152.575 22.8786 152.826 22.87H156.59C156.72 22.8655 156.849 22.8872 156.97 22.9337C157.092 22.9803 157.202 23.0508 157.295 23.141C157.389 23.2313 157.463 23.3394 157.514 23.4589C157.565 23.5785 157.591 23.707 157.591 23.8369C157.591 23.9667 157.565 24.0953 157.514 24.2148C157.463 24.3343 157.389 24.4424 157.295 24.5327C157.202 24.6229 157.092 24.6934 156.97 24.74C156.849 24.7865 156.72 24.8082 156.59 24.8038Z" fill="#405B91"/>
<path d="M185.189 221.64C185.099 221.64 185.009 221.628 184.923 221.604L181.304 220.566C181.057 220.495 180.848 220.33 180.723 220.106C180.599 219.881 180.568 219.617 180.638 219.37C180.709 219.123 180.874 218.914 181.098 218.79C181.323 218.665 181.587 218.634 181.834 218.705L185.454 219.742C185.679 219.806 185.873 219.949 186 220.145C186.127 220.34 186.18 220.576 186.147 220.807C186.115 221.038 186 221.25 185.824 221.403C185.648 221.556 185.422 221.641 185.189 221.64Z" fill="#405B91"/>
<path d="M182.861 222.934C182.772 222.933 182.682 222.921 182.596 222.897C182.474 222.862 182.36 222.804 182.26 222.725C182.161 222.646 182.078 222.548 182.016 222.437C181.954 222.326 181.915 222.204 181.901 222.077C181.886 221.951 181.897 221.823 181.932 221.701L182.97 218.08C183.001 217.955 183.058 217.837 183.136 217.734C183.215 217.631 183.313 217.545 183.425 217.48C183.537 217.416 183.661 217.375 183.789 217.359C183.918 217.343 184.048 217.353 184.172 217.389C184.297 217.424 184.413 217.484 184.513 217.565C184.614 217.646 184.698 217.747 184.759 217.861C184.82 217.975 184.858 218.1 184.87 218.229C184.882 218.358 184.868 218.488 184.829 218.611L183.792 222.232C183.734 222.434 183.612 222.612 183.444 222.739C183.276 222.865 183.072 222.934 182.861 222.934Z" fill="#405B91"/>
<path d="M166.17 107.906C166.08 107.906 165.991 107.893 165.904 107.868L162.284 106.83C162.042 106.755 161.84 106.589 161.72 106.367C161.599 106.144 161.571 105.883 161.64 105.64C161.71 105.397 161.872 105.191 162.091 105.066C162.311 104.94 162.571 104.906 162.815 104.97L166.435 106.008C166.66 106.072 166.854 106.215 166.981 106.411C167.109 106.606 167.161 106.841 167.129 107.073C167.097 107.304 166.982 107.516 166.806 107.669C166.629 107.822 166.404 107.906 166.17 107.906Z" fill="#405B91"/>
<path d="M163.844 109.199C163.694 109.199 163.547 109.164 163.413 109.097C163.279 109.03 163.163 108.933 163.073 108.814C162.983 108.694 162.922 108.556 162.894 108.409C162.866 108.262 162.873 108.11 162.914 107.966L163.951 104.346C164.027 104.105 164.194 103.904 164.415 103.785C164.637 103.666 164.897 103.638 165.139 103.707C165.381 103.776 165.586 103.937 165.712 104.155C165.837 104.373 165.873 104.632 165.811 104.876L164.773 108.497C164.716 108.699 164.594 108.877 164.426 109.004C164.259 109.13 164.054 109.199 163.844 109.199Z" fill="#405B91"/>
<path d="M173.132 81.7646C178.377 76.5183 178.377 68.0124 173.132 62.7662C167.887 57.5199 159.382 57.5199 154.137 62.7662C148.892 68.0124 148.892 76.5183 154.137 81.7646C159.382 87.0109 167.887 87.0109 173.132 81.7646Z" fill="#AFAFAF"/>
<path d="M163.634 82.3299C169.191 82.3299 173.697 77.8239 173.697 72.2654C173.697 66.707 169.191 62.2009 163.634 62.2009C158.076 62.2009 153.571 66.707 153.571 72.2654C153.571 77.8239 158.076 82.3299 163.634 82.3299Z" fill="white"/>
<path d="M163.634 82.7185C161.567 82.7185 159.546 82.1054 157.827 80.9568C156.109 79.8082 154.769 78.1757 153.978 76.2656C153.187 74.3555 152.98 72.2538 153.383 70.2261C153.787 68.1984 154.782 66.3358 156.244 64.8739C157.705 63.412 159.568 62.4164 161.595 62.0131C163.622 61.6098 165.724 61.8168 167.633 62.608C169.543 63.3991 171.175 64.7389 172.324 66.4579C173.472 68.1769 174.085 70.198 174.085 72.2654C174.082 75.0368 172.98 77.6938 171.02 79.6535C169.061 81.6131 166.405 82.7154 163.634 82.7185ZM163.634 62.5906C161.721 62.5906 159.85 63.158 158.26 64.2211C156.669 65.2842 155.429 66.7952 154.697 68.563C153.965 70.3308 153.773 72.2761 154.147 74.1528C154.52 76.0295 155.441 77.7534 156.794 79.1065C158.147 80.4595 159.87 81.3809 161.747 81.7542C163.623 82.1275 165.568 81.9359 167.335 81.2037C169.103 80.4714 170.614 79.2314 171.677 77.6404C172.739 76.0494 173.307 74.1789 173.307 72.2654C173.304 69.7004 172.284 67.2414 170.47 65.4277C168.657 63.614 166.198 62.5937 163.634 62.5906Z" fill="#405B91"/>
<path d="M163.634 72.655C163.583 72.655 163.532 72.6449 163.485 72.6253C163.438 72.6058 163.395 72.577 163.358 72.5409C163.322 72.5047 163.293 72.4617 163.274 72.4144C163.254 72.3671 163.244 72.3164 163.244 72.2653V67.1419C163.241 67.089 163.249 67.0361 163.268 66.9864C163.286 66.9366 163.314 66.8912 163.35 66.8527C163.387 66.8143 163.431 66.7836 163.479 66.7627C163.528 66.7418 163.58 66.731 163.633 66.731C163.686 66.731 163.739 66.7418 163.787 66.7627C163.836 66.7836 163.88 66.8143 163.916 66.8527C163.953 66.8912 163.981 66.9366 163.999 66.9864C164.017 67.0361 164.025 67.089 164.022 67.1419V72.2653C164.022 72.3684 163.982 72.4674 163.909 72.5404C163.836 72.6135 163.737 72.6547 163.634 72.655Z" fill="#405B91"/>
<path d="M169.636 72.655H163.634C163.531 72.655 163.432 72.6139 163.359 72.5408C163.286 72.4678 163.245 72.3686 163.245 72.2652C163.245 72.1619 163.286 72.0627 163.359 71.9896C163.432 71.9166 163.531 71.8755 163.634 71.8755H169.636C169.74 71.8755 169.839 71.9166 169.912 71.9896C169.985 72.0627 170.026 72.1619 170.026 72.2652C170.026 72.3686 169.985 72.4678 169.912 72.5408C169.839 72.6139 169.74 72.655 169.636 72.655Z" fill="#405B91"/>
<path d="M164.03 63.3378C164.03 63.4165 164.007 63.4935 163.963 63.5589C163.919 63.6244 163.857 63.6754 163.784 63.7054C163.712 63.7355 163.632 63.7433 163.554 63.7279C163.477 63.7124 163.406 63.6744 163.351 63.6187C163.295 63.5629 163.257 63.4919 163.242 63.4147C163.227 63.3374 163.235 63.2574 163.265 63.1847C163.296 63.1121 163.347 63.05 163.412 63.0064C163.478 62.9629 163.555 62.9397 163.634 62.9399C163.686 62.9399 163.737 62.9502 163.786 62.9702C163.834 62.9903 163.878 63.0196 163.914 63.0565C163.951 63.0935 163.98 63.1374 164 63.1856C164.02 63.2339 164.03 63.2856 164.03 63.3378Z" fill="#405B91"/>
<path d="M170.227 66.2334C170.171 66.2888 170.1 66.3265 170.023 66.3417C169.947 66.357 169.867 66.3491 169.794 66.319C169.722 66.289 169.66 66.2381 169.617 66.1729C169.573 66.1077 169.55 66.031 169.55 65.9526C169.55 65.8742 169.573 65.7975 169.617 65.7323C169.66 65.6671 169.722 65.6162 169.794 65.5862C169.867 65.5561 169.947 65.5482 170.023 65.5635C170.1 65.5787 170.171 65.6164 170.227 65.6718C170.264 65.7086 170.293 65.7523 170.313 65.8005C170.333 65.8487 170.343 65.9004 170.343 65.9526C170.343 66.0048 170.333 66.0565 170.313 66.1047C170.293 66.1529 170.264 66.1966 170.227 66.2334Z" fill="#405B91"/>
<path d="M172.56 72.6631C172.481 72.6631 172.404 72.6398 172.339 72.596C172.273 72.5523 172.222 72.4902 172.192 72.4175C172.162 72.3448 172.154 72.2648 172.17 72.1876C172.185 72.1105 172.223 72.0396 172.278 71.984C172.334 71.9283 172.405 71.8904 172.482 71.8751C172.559 71.8597 172.639 71.8676 172.712 71.8977C172.785 71.9278 172.847 71.9788 172.89 72.0442C172.934 72.1097 172.957 72.1866 172.957 72.2653C172.957 72.3707 172.915 72.4717 172.841 72.5462C172.766 72.6208 172.665 72.6628 172.56 72.6631Z" fill="#405B91"/>
<path d="M169.665 78.8612C169.609 78.8057 169.572 78.735 169.556 78.6581C169.541 78.5812 169.549 78.5014 169.579 78.429C169.609 78.3566 169.66 78.2947 169.725 78.2511C169.79 78.2076 169.867 78.1843 169.945 78.1843C170.024 78.1843 170.101 78.2076 170.166 78.2511C170.231 78.2947 170.282 78.3566 170.312 78.429C170.342 78.5014 170.35 78.5812 170.335 78.6581C170.319 78.735 170.282 78.8057 170.226 78.8612C170.189 78.8983 170.146 78.9277 170.098 78.9478C170.049 78.9678 169.998 78.9782 169.945 78.9782C169.893 78.9782 169.842 78.9678 169.793 78.9478C169.745 78.9277 169.701 78.8983 169.665 78.8612Z" fill="#405B91"/>
<path d="M163.236 81.193C163.236 81.1143 163.259 81.0374 163.303 80.972C163.347 80.9065 163.409 80.8556 163.481 80.8254C163.554 80.7953 163.634 80.7875 163.711 80.8028C163.788 80.8182 163.859 80.8561 163.915 80.9117C163.971 80.9673 164.008 81.0382 164.024 81.1154C164.039 81.1926 164.031 81.2726 164.001 81.3452C163.971 81.4179 163.92 81.4801 163.855 81.5238C163.789 81.5675 163.712 81.5908 163.634 81.5908C163.581 81.591 163.53 81.5808 163.481 81.5609C163.433 81.5409 163.389 81.5116 163.352 81.4747C163.315 81.4377 163.286 81.3938 163.266 81.3454C163.246 81.2971 163.236 81.2453 163.236 81.193Z" fill="#405B91"/>
<path d="M157.042 78.2975C157.097 78.2421 157.168 78.2044 157.245 78.1892C157.322 78.174 157.402 78.1819 157.474 78.2119C157.547 78.242 157.608 78.2928 157.652 78.358C157.695 78.4232 157.719 78.4999 157.719 78.5783C157.719 78.6567 157.695 78.7334 157.652 78.7986C157.608 78.8638 157.547 78.9147 157.474 78.9447C157.402 78.9748 157.322 78.9827 157.245 78.9674C157.168 78.9522 157.097 78.9145 157.042 78.8591C157.005 78.8223 156.976 78.7786 156.955 78.7304C156.935 78.6822 156.925 78.6305 156.925 78.5783C156.925 78.5261 156.935 78.4744 156.955 78.4262C156.976 78.378 157.005 78.3343 157.042 78.2975Z" fill="#405B91"/>
<path d="M154.708 71.8674C154.787 71.8674 154.864 71.8908 154.929 71.9345C154.995 71.9782 155.046 72.0403 155.076 72.113C155.106 72.1857 155.114 72.2657 155.098 72.3429C155.083 72.42 155.045 72.4909 154.99 72.5466C154.934 72.6022 154.863 72.6401 154.786 72.6554C154.709 72.6708 154.629 72.6629 154.556 72.6328C154.483 72.6027 154.421 72.5517 154.378 72.4863C154.334 72.4208 154.311 72.3439 154.311 72.2653C154.311 72.1598 154.352 72.0586 154.427 71.984C154.502 71.9093 154.603 71.8674 154.708 71.8674Z" fill="#405B91"/>
<path d="M157.598 65.6716C157.653 65.7272 157.691 65.7978 157.706 65.8748C157.721 65.9517 157.713 66.0314 157.683 66.1038C157.653 66.1763 157.602 66.2382 157.537 66.2817C157.472 66.3253 157.395 66.3485 157.317 66.3485C157.239 66.3485 157.162 66.3253 157.097 66.2817C157.032 66.2382 156.981 66.1763 156.951 66.1038C156.921 66.0314 156.913 65.9517 156.928 65.8748C156.943 65.7978 156.981 65.7272 157.036 65.6716C157.073 65.6346 157.117 65.6052 157.165 65.5851C157.213 65.565 157.265 65.5547 157.317 65.5547C157.369 65.5547 157.421 65.565 157.469 65.5851C157.517 65.6052 157.561 65.6346 157.598 65.6716Z" fill="#405B91"/>
<path d="M183.283 67.1349H177.643C177.59 67.1378 177.537 67.1298 177.487 67.1116C177.438 67.0933 177.392 67.0651 177.354 67.0287C177.315 66.9923 177.285 66.9484 177.264 66.8997C177.243 66.8511 177.232 66.7987 177.232 66.7457C177.232 66.6927 177.243 66.6403 177.264 66.5917C177.285 66.543 177.315 66.4991 177.354 66.4627C177.392 66.4263 177.438 66.3981 177.487 66.3798C177.537 66.3616 177.59 66.3537 177.643 66.3565H183.283C183.382 66.362 183.476 66.4053 183.545 66.4777C183.613 66.5501 183.651 66.646 183.651 66.7457C183.651 66.8454 183.613 66.9413 183.545 67.0137C183.476 67.0861 183.382 67.1295 183.283 67.1349Z" fill="#405B91"/>
<path d="M183.283 78.1753H177.643C177.54 78.1753 177.44 78.1342 177.367 78.0611C177.294 77.988 177.253 77.8889 177.253 77.7855C177.253 77.6821 177.294 77.583 177.367 77.5099C177.44 77.4368 177.54 77.3958 177.643 77.3958H183.283C183.386 77.3958 183.485 77.4368 183.558 77.5099C183.632 77.583 183.673 77.6821 183.673 77.7855C183.673 77.8889 183.632 77.988 183.558 78.0611C183.485 78.1342 183.386 78.1753 183.283 78.1753Z" fill="#405B91"/>
<path d="M190.294 72.6563H179.758C179.659 72.6509 179.565 72.6075 179.496 72.5351C179.428 72.4627 179.39 72.3668 179.39 72.2671C179.39 72.1674 179.428 72.0715 179.496 71.9991C179.565 71.9267 179.659 71.8834 179.758 71.8779H190.294C190.393 71.8834 190.487 71.9267 190.555 71.9991C190.624 72.0715 190.662 72.1674 190.662 72.2671C190.662 72.3668 190.624 72.4627 190.555 72.5351C190.487 72.6075 190.393 72.6509 190.294 72.6563Z" fill="#405B91"/>
<path d="M208.676 217.773H202.446V224.004H208.676V217.773Z" fill="white"/>
<path d="M209.159 224.489H201.961V217.29H209.159V224.489ZM202.933 223.521H208.196V218.257H202.933V223.521Z" fill="#415B91"/>
<path d="M216.56 219.144H210.92C210.817 219.144 210.717 219.103 210.644 219.03C210.571 218.957 210.53 218.857 210.53 218.754C210.53 218.651 210.571 218.552 210.644 218.478C210.717 218.405 210.817 218.364 210.92 218.364H216.56C216.663 218.364 216.763 218.405 216.836 218.478C216.909 218.552 216.95 218.651 216.95 218.754C216.95 218.857 216.909 218.957 216.836 219.03C216.763 219.103 216.663 219.144 216.56 219.144Z" fill="#405B91"/>
<path d="M218.679 223.414H211.057C210.766 223.414 210.531 223.239 210.531 223.024C210.531 222.81 210.762 222.635 211.057 222.635H218.679C218.97 222.635 219.205 222.809 219.205 223.024C219.205 223.24 218.97 223.414 218.679 223.414Z" fill="#405B91"/>
<path d="M221.455 221.157H210.92C210.82 221.152 210.727 221.108 210.658 221.036C210.59 220.964 210.552 220.868 210.552 220.768C210.552 220.668 210.59 220.572 210.658 220.5C210.727 220.428 210.82 220.384 210.92 220.379H221.455C221.555 220.384 221.649 220.428 221.717 220.5C221.786 220.572 221.824 220.668 221.824 220.768C221.824 220.868 221.786 220.964 221.717 221.036C221.649 221.108 221.555 221.152 221.455 221.157Z" fill="#405B91"/>
<path d="M65.6505 132.567H71.8809V126.335H65.6505V132.567Z" fill="white"/>
<path d="M72.3635 133.051H65.167V125.854H72.3635V133.051ZM66.1377 132.084H71.3996V126.821H66.1377V132.084Z" fill="#415B91"/>
<path d="M57.7651 127.706H63.4052C63.458 127.709 63.511 127.701 63.5607 127.683C63.6104 127.665 63.6559 127.637 63.6943 127.6C63.7328 127.564 63.7634 127.52 63.7843 127.471C63.8052 127.423 63.816 127.37 63.816 127.317C63.816 127.264 63.8052 127.212 63.7843 127.163C63.7634 127.115 63.7328 127.071 63.6943 127.034C63.6559 126.998 63.6104 126.97 63.5607 126.951C63.511 126.933 63.458 126.925 63.4052 126.928H57.7651C57.7122 126.925 57.6593 126.933 57.6096 126.951C57.5599 126.97 57.5144 126.998 57.476 127.034C57.4375 127.071 57.4069 127.115 57.386 127.163C57.365 127.212 57.3542 127.264 57.3542 127.317C57.3542 127.37 57.365 127.423 57.386 127.471C57.4069 127.52 57.4375 127.564 57.476 127.6C57.5144 127.637 57.5599 127.665 57.6096 127.683C57.6593 127.701 57.7122 127.709 57.7651 127.706Z" fill="#405B91"/>
<path d="M55.6463 131.977H63.2682C63.5588 131.977 63.7951 131.802 63.7951 131.587C63.7951 131.371 63.5588 131.198 63.2682 131.198H55.6463C55.3558 131.198 55.1206 131.372 55.1206 131.587C55.1206 131.801 55.3558 131.977 55.6463 131.977Z" fill="#405B91"/>
<path d="M52.8716 129.721H63.4057C63.4586 129.724 63.5115 129.716 63.5612 129.698C63.6109 129.68 63.6564 129.651 63.6949 129.615C63.7333 129.578 63.7639 129.535 63.7849 129.486C63.8058 129.437 63.8166 129.385 63.8166 129.332C63.8166 129.279 63.8058 129.227 63.7849 129.178C63.7639 129.129 63.7333 129.085 63.6949 129.049C63.6564 129.012 63.6109 128.984 63.5612 128.966C63.5115 128.948 63.4586 128.94 63.4057 128.943H52.8716C52.8187 128.94 52.7658 128.948 52.7161 128.966C52.6664 128.984 52.6209 129.012 52.5824 129.049C52.544 129.085 52.5134 129.129 52.4924 129.178C52.4715 129.227 52.4607 129.279 52.4607 129.332C52.4607 129.385 52.4715 129.437 52.4924 129.486C52.5134 129.535 52.544 129.578 52.5824 129.615C52.6209 129.651 52.6664 129.68 52.7161 129.698C52.7658 129.716 52.8187 129.724 52.8716 129.721Z" fill="#405B91"/>
<path d="M257.585 149.75H255.651V232.923H257.585V149.75Z" fill="#0D1840"/>
<path d="M256.831 140.654H256.405C253.237 140.654 250.668 143.223 250.668 146.392V154.076C250.668 157.245 253.237 159.814 256.405 159.814H256.831C259.999 159.814 262.568 157.245 262.568 154.076V146.392C262.568 143.223 259.999 140.654 256.831 140.654Z" fill="#AFAFAF"/>
<path d="M264.404 154.249L266.444 154.577C266.906 154.65 267.098 153.952 266.638 153.878L264.596 153.549C264.135 153.477 263.944 154.175 264.404 154.249Z" fill="#3F5B91"/>
<path d="M264.334 149.816C264.863 149.725 265.402 149.707 265.937 149.761C266.398 149.805 266.398 149.08 265.937 149.036C265.337 148.981 264.734 149.009 264.142 149.117C263.68 149.198 263.878 149.897 264.334 149.816Z" fill="#3F5B91"/>
<path d="M264.113 145.78L265.678 145.158C266.106 144.989 265.919 144.286 265.485 144.459L263.92 145.08C263.491 145.25 263.678 145.951 264.113 145.78Z" fill="#3F5B91"/>
<path d="M246.332 154.924C246.864 154.851 247.388 154.726 247.896 154.551C248.336 154.4 248.148 153.699 247.704 153.851C247.196 154.026 246.672 154.151 246.139 154.224C245.678 154.288 245.875 154.987 246.332 154.924Z" fill="#3F5B91"/>
<path d="M245.392 149.768C246.057 149.786 246.718 149.887 247.358 150.069C247.809 150.196 248.001 149.493 247.552 149.37C246.848 149.172 246.122 149.062 245.392 149.043C244.93 149.03 244.93 149.756 245.392 149.768Z" fill="#3F5B91"/>
<path d="M246.026 143.802L247.592 144.301C248.038 144.443 248.228 143.743 247.785 143.602L246.219 143.102C245.773 142.96 245.583 143.66 246.026 143.802Z" fill="#3F5B91"/>
<path d="M252.106 234.049L253.395 222.933H259.679L261.13 233.889L252.106 234.049Z" fill="#0D1840"/>
<path d="M52.4123 191.881L53.7012 192.045C54.1624 192.104 54.1624 191.379 53.7012 191.32L52.4123 191.155C51.9511 191.096 51.9511 191.823 52.4123 191.881Z" fill="#50AA50"/>
<path d="M54.3088 186.177V186.822C54.3088 187.283 55.034 187.283 55.034 186.822V186.177C55.034 185.71 54.3088 185.71 54.3088 186.177Z" fill="#50AA50"/>
<path d="M56.817 192.828L57.7612 192.302C58.1682 192.072 57.8038 191.449 57.3946 191.676L56.4515 192.202C56.0434 192.433 56.4088 193.055 56.817 192.828Z" fill="#50AA50"/>
<path d="M53.0923 201.173L54.2279 200.379C54.6084 200.113 54.2464 199.484 53.8624 199.752L52.7268 200.546C52.3464 200.813 52.7084 201.441 53.0923 201.173Z" fill="#50AA50"/>
<path d="M50.3775 194.936L51.1845 195.253C51.6192 195.423 51.8071 194.722 51.3771 194.553L50.57 194.236C50.1354 194.067 49.9475 194.768 50.3775 194.936Z" fill="#50AA50"/>
<path d="M55.6386 198.303C55.7149 198.31 55.7888 198.333 55.8549 198.372C55.9209 198.41 55.9774 198.464 56.0202 198.527C56.3176 198.887 56.8272 198.371 56.5332 198.014C56.4236 197.882 56.2871 197.775 56.1328 197.7C55.9786 197.625 55.8101 197.583 55.6386 197.578C55.1774 197.545 55.1774 198.27 55.6386 198.303Z" fill="#50AA50"/>
<path d="M57.2296 201.717C57.1481 202.195 57.2095 202.686 57.406 203.129C57.5882 203.558 58.213 203.189 58.032 202.764C57.9169 202.495 57.8809 202.198 57.9283 201.909C57.9998 201.448 57.3011 201.255 57.2296 201.717Z" fill="#50AA50"/>
<path d="M61.0183 201.849L61.6604 202.021C62.1112 202.136 62.3038 201.445 61.853 201.321L61.2108 201.151C60.76 201.029 60.5675 201.727 61.0183 201.849Z" fill="#50AA50"/>
<path d="M63.3329 194.719C63.3127 194.917 63.3417 195.117 63.4173 195.301C63.493 195.485 63.6129 195.648 63.7664 195.775C64.1215 196.073 64.6368 195.564 64.2794 195.261C64.1958 195.201 64.1307 195.118 64.0916 195.022C64.0525 194.926 64.0409 194.821 64.0581 194.719C64.1007 194.258 63.3756 194.258 63.3329 194.719Z" fill="#50AA50"/>
<path d="M62.4127 189.537C62.3164 189.668 62.2498 189.819 62.2176 189.978C62.1853 190.137 62.1882 190.302 62.2259 190.46C62.3066 190.921 63.0053 190.724 62.9246 190.267C62.9114 190.201 62.915 190.133 62.9352 190.069C62.9553 190.005 62.9913 189.947 63.0399 189.901C63.3166 189.525 62.6871 189.163 62.4138 189.535L62.4127 189.537Z" fill="#50AA50"/>
<path d="M66.3955 191.657V192.301C66.3955 192.763 67.1207 192.769 67.1207 192.301V191.657C67.1207 191.195 66.3955 191.19 66.3955 191.657Z" fill="#50AA50"/>
<path d="M59.644 190.52L60.1283 190.842C60.5168 191.102 60.8811 190.474 60.4937 190.215L60.0107 189.894C59.621 189.634 59.2578 190.262 59.644 190.52Z" fill="#50AA50"/>
<path d="M60.8591 184.502C60.9956 184.652 61.0769 184.845 61.0897 185.048C61.1255 185.509 61.8506 185.515 61.8149 185.048C61.7918 184.656 61.6371 184.282 61.3756 183.988C61.0724 183.633 60.5617 184.149 60.8637 184.502H60.8591Z" fill="#50AA50"/>
<path d="M62.6877 182.308V183.276C62.6877 183.737 63.4129 183.737 63.4129 183.276V182.308C63.4129 181.847 62.6877 181.847 62.6877 182.308Z" fill="#50AA50"/>
<path d="M67.172 186.569C67.2769 186.685 67.3818 186.789 67.4856 186.9C67.8084 187.238 68.3203 186.725 67.9986 186.387L67.685 186.057C67.3622 185.718 66.8503 186.231 67.172 186.569Z" fill="#50AA50"/>
<path d="M67.8915 182.247L68.8554 182.303C69.3165 182.329 69.3165 181.604 68.8554 181.577L67.8915 181.522C67.4304 181.495 67.4304 182.221 67.8915 182.247Z" fill="#50AA50"/>
<path d="M68.9189 176.44C69.1333 176.655 69.3482 176.87 69.5634 177.084C69.8931 177.415 70.4062 176.902 70.0764 176.572L69.4319 175.927C69.1011 175.597 68.588 176.109 68.9189 176.44Z" fill="#50AA50"/>
<path d="M71.7134 174.571V175.7C71.7134 176.161 72.4385 176.161 72.4385 175.7V174.571C72.4385 174.11 71.7134 174.11 71.7134 174.571Z" fill="#50AA50"/>
<path d="M73.0277 181.359L73.3471 180.874C73.6042 180.483 72.977 180.12 72.721 180.508L72.4005 180.994C72.1434 181.384 72.7706 181.748 73.0277 181.359Z" fill="#50AA50"/>
<path d="M70.5681 188.482L71.3751 188.167C71.8052 188 71.6184 187.299 71.1814 187.469L70.3744 187.783C69.9444 187.951 70.1311 188.652 70.5669 188.482H70.5681Z" fill="#50AA50"/>
<path d="M73.7811 187.471L74.5881 187.304C75.0493 187.209 74.8521 186.51 74.3956 186.605L73.5885 186.771C73.1274 186.865 73.3257 187.565 73.7811 187.471Z" fill="#50AA50"/>
<path d="M71.7134 190.851V191.012C71.7134 191.479 72.4385 191.48 72.4385 191.012V190.851C72.4385 190.39 71.7134 190.39 71.7134 190.851Z" fill="#50AA50"/>
<path d="M65.481 201.957L65.9652 201.635C66.3514 201.377 65.9882 200.748 65.5986 201.008L65.1155 201.33C64.7293 201.588 65.0913 202.216 65.481 201.957Z" fill="#50AA50"/>
<path d="M65.0635 204.629C65.3357 204.364 65.6775 204.181 66.0493 204.101C66.5035 203.995 66.311 203.294 65.8567 203.401C65.3641 203.516 64.9123 203.764 64.5505 204.117C64.2127 204.44 64.7257 204.952 65.0635 204.629Z" fill="#50AA50"/>
<path d="M62.0767 205.065C62.1309 205.173 62.1851 205.28 62.2404 205.387C62.4514 205.803 63.0774 205.437 62.8664 205.02C62.8111 204.914 62.7512 204.807 62.7027 204.7C62.4906 204.284 61.8646 204.65 62.0767 205.065Z" fill="#50AA50"/>
<path d="M59.3136 205.846C59.6969 206.053 60.1418 206.114 60.5669 206.02C61.028 205.927 60.8297 205.228 60.3732 205.32C60.1381 205.373 59.8918 205.337 59.6814 205.22C59.2675 205.004 58.9009 205.63 59.3148 205.846H59.3136Z" fill="#50AA50"/>
<path d="M65.3085 198.966L66.7566 198.785C67.2177 198.728 67.2177 198.002 66.7566 198.06L65.3085 198.241C64.8474 198.299 64.8474 199.024 65.3085 198.966Z" fill="#50AA50"/>
<path d="M130.256 167.183L153.67 146.01C154.823 144.964 153.113 143.259 151.96 144.301L128.545 165.473C127.392 166.518 129.102 168.224 130.255 167.183H130.256Z" fill="#D7E7FF"/>
<path d="M156.717 177.982L180.132 156.813C181.284 155.767 179.575 154.061 178.423 155.104L155.008 176.275C153.856 177.321 155.565 179.027 156.717 177.985V177.982Z" fill="#D7E7FF"/>
<path d="M127.968 185.98L177.043 138.117C178.159 137.03 176.45 135.321 175.335 136.408L126.259 184.271C125.144 185.359 126.854 187.067 127.968 185.98Z" fill="#D7E7FF"/>
<path d="M202.973 37.1467H201.92V104.695H202.973V37.1467Z" fill="#0D1840"/>
<path d="M206.732 104.691C206.732 105.539 206.481 106.368 206.01 107.073C205.539 107.778 204.869 108.328 204.086 108.652C203.303 108.977 202.441 109.062 201.609 108.896C200.778 108.731 200.014 108.322 199.414 107.723C198.815 107.123 198.407 106.359 198.241 105.528C198.076 104.696 198.161 103.834 198.485 103.05C198.81 102.267 199.359 101.597 200.064 101.126C200.769 100.655 201.598 100.404 202.445 100.404C203.582 100.404 204.672 100.856 205.476 101.66C206.28 102.464 206.732 103.554 206.732 104.691Z" fill="#0D1840"/>
<path d="M202.505 119.081C202.434 119.081 201.034 119.067 200.013 118.043C199.331 117.362 198.985 116.417 198.985 115.233C198.985 115.083 199.045 114.938 199.152 114.832C199.258 114.726 199.402 114.666 199.553 114.666C199.703 114.666 199.847 114.726 199.954 114.832C200.06 114.938 200.12 115.083 200.12 115.233C200.12 116.105 200.35 116.78 200.812 117.24C201.503 117.925 202.491 117.942 202.502 117.942C203.271 117.942 204.009 117.636 204.553 117.092C205.097 116.548 205.402 115.81 205.402 115.041C205.402 114.271 205.097 113.533 204.553 112.989C204.009 112.445 203.271 112.139 202.502 112.139C202.351 112.139 202.207 112.08 202.101 111.973C201.994 111.867 201.935 111.723 201.935 111.572V108.419C201.935 108.269 201.994 108.125 202.101 108.018C202.207 107.912 202.351 107.852 202.502 107.852C202.652 107.852 202.796 107.912 202.903 108.018C203.009 108.125 203.069 108.269 203.069 108.419V111.044C204.081 111.186 205.002 111.707 205.645 112.502C206.288 113.296 206.605 114.305 206.533 115.325C206.461 116.345 206.005 117.299 205.257 117.995C204.508 118.692 203.524 119.078 202.502 119.077L202.505 119.081Z" fill="#0D1840"/>
<path d="M179.993 121.721C179.87 121.699 179.759 121.635 179.679 121.539C179.6 121.442 179.557 121.321 179.558 121.196C179.56 121.072 179.605 120.952 179.687 120.858C179.769 120.763 179.882 120.702 180.005 120.683L203.211 117.26C203.344 117.251 203.475 117.291 203.579 117.375C203.682 117.458 203.751 117.577 203.77 117.709C203.789 117.84 203.758 117.974 203.683 118.083C203.607 118.193 203.493 118.27 203.363 118.298L180.159 121.717C180.104 121.727 180.048 121.728 179.993 121.721Z" fill="#415B91"/>
<path d="M224.535 129.444C224.482 129.435 224.43 129.418 224.382 129.392L203.044 118.25C202.92 118.185 202.827 118.074 202.785 117.941C202.743 117.808 202.756 117.664 202.821 117.54C202.885 117.416 202.996 117.323 203.129 117.282C203.262 117.24 203.407 117.252 203.53 117.317L224.868 128.46C224.98 128.517 225.067 128.613 225.114 128.73C225.161 128.846 225.165 128.976 225.125 129.095C225.084 129.214 225.003 129.315 224.895 129.379C224.786 129.443 224.659 129.466 224.535 129.444Z" fill="#415B91"/>
<path d="M222.794 173.994L165.963 164.118C165.255 163.995 164.578 163.734 163.971 163.349C163.364 162.964 162.839 162.464 162.425 161.876C162.012 161.288 161.718 160.625 161.56 159.923C161.403 159.222 161.385 158.496 161.509 157.788L167.195 125.06C167.318 124.352 167.579 123.675 167.963 123.068C168.348 122.461 168.849 121.935 169.436 121.521C170.024 121.108 170.687 120.814 171.388 120.656C172.09 120.499 172.815 120.481 173.523 120.605L230.354 130.481C231.783 130.73 233.056 131.537 233.891 132.724C234.726 133.91 235.056 135.381 234.807 136.811L229.122 169.539C228.874 170.969 228.067 172.242 226.881 173.077C225.694 173.913 224.224 174.243 222.794 173.994Z" fill="white"/>
<path d="M223.569 174.775C223.201 174.775 222.833 174.743 222.469 174.679L166.04 164.878C165.212 164.734 164.42 164.428 163.71 163.979C163 163.529 162.385 162.943 161.902 162.256C161.418 161.568 161.074 160.792 160.89 159.972C160.706 159.151 160.686 158.303 160.83 157.475L166.446 125.147C166.739 123.475 167.682 121.988 169.07 121.011C170.457 120.034 172.175 119.647 173.848 119.935L230.277 129.743C231.105 129.887 231.897 130.192 232.607 130.642C233.317 131.092 233.931 131.677 234.415 132.364C234.899 133.052 235.243 133.828 235.427 134.648C235.611 135.468 235.632 136.317 235.488 137.145L229.872 169.474C229.611 170.957 228.836 172.301 227.684 173.27C226.531 174.239 225.075 174.772 223.569 174.775ZM172.749 121.285C171.584 121.287 170.457 121.699 169.565 122.45C168.674 123.2 168.075 124.241 167.874 125.389L162.259 157.717C162.034 159.011 162.332 160.341 163.088 161.415C163.843 162.489 164.994 163.218 166.288 163.443L222.718 173.245C224.012 173.467 225.342 173.167 226.415 172.411C227.488 171.654 228.217 170.503 228.443 169.209L234.058 136.881C234.283 135.587 233.985 134.258 233.229 133.184C232.474 132.111 231.323 131.381 230.03 131.156L173.599 121.354C173.318 121.307 173.034 121.283 172.749 121.285Z" fill="#0D1840"/>
<path d="M222.368 170.455L167.561 160.929C167.109 160.851 166.676 160.684 166.288 160.439C165.9 160.193 165.565 159.873 165.3 159.498C165.036 159.123 164.848 158.699 164.748 158.251C164.647 157.802 164.636 157.339 164.715 156.887L169.903 127C170.062 126.086 170.577 125.273 171.335 124.739C172.093 124.205 173.032 123.994 173.946 124.153L228.754 133.679C229.207 133.757 229.639 133.924 230.027 134.17C230.415 134.416 230.75 134.736 231.014 135.111C231.279 135.487 231.466 135.911 231.567 136.359C231.667 136.807 231.678 137.27 231.6 137.723L226.411 167.608C226.253 168.522 225.738 169.335 224.979 169.869C224.221 170.403 223.282 170.614 222.368 170.455Z" fill="#0D1840"/>
<path d="M222.87 171.213C222.617 171.212 222.366 171.191 222.117 171.148L167.565 161.666C167.001 161.568 166.463 161.361 165.98 161.055C165.498 160.749 165.08 160.351 164.751 159.884C164.422 159.417 164.188 158.889 164.063 158.331C163.939 157.774 163.925 157.197 164.023 156.634L169.171 126.998C169.368 125.861 170.009 124.849 170.953 124.185C171.896 123.521 173.065 123.259 174.202 123.456L228.753 132.943C229.89 133.141 230.901 133.782 231.565 134.726C232.23 135.669 232.492 136.838 232.296 137.975L227.148 167.61C226.973 168.619 226.448 169.533 225.665 170.193C224.883 170.853 223.893 171.216 222.87 171.219V171.213ZM222.364 169.714C222.739 169.779 223.124 169.77 223.495 169.687C223.867 169.604 224.219 169.448 224.531 169.229C224.842 169.009 225.108 168.731 225.312 168.409C225.515 168.087 225.654 167.728 225.719 167.352L230.866 137.717C230.997 136.959 230.822 136.18 230.38 135.551C229.938 134.922 229.264 134.494 228.506 134.361L173.954 124.88C173.196 124.75 172.418 124.926 171.789 125.369C171.161 125.811 170.733 126.485 170.599 127.242L165.451 156.877C165.32 157.635 165.495 158.414 165.938 159.043C166.381 159.672 167.055 160.1 167.812 160.232L222.364 169.714Z" fill="#0D1840"/>
<path d="M196.369 165.936L210.551 152.936L218.399 169.765L196.369 165.936Z" fill="white"/>
<path d="M219.227 170.4L195.316 166.249L210.708 152.139L219.227 170.4ZM197.42 165.628L217.568 169.13L210.39 153.739L197.42 165.628Z" fill="#415B91"/>
<path d="M168.326 161.062L193.469 138.016L207.383 167.851L168.326 161.062Z" fill="white"/>
<path d="M208.212 168.486L167.272 161.371L193.628 137.209L208.212 168.486ZM169.375 160.76L206.551 167.217L193.307 138.818L169.375 160.76Z" fill="#415B91"/>
<path d="M223.365 142.385C223.247 143.07 222.927 143.705 222.448 144.209C221.968 144.713 221.35 145.063 220.671 145.215C219.993 145.368 219.284 145.316 218.635 145.065C217.986 144.815 217.426 144.378 217.026 143.809C216.625 143.24 216.402 142.565 216.385 141.87C216.368 141.174 216.558 140.489 216.93 139.902C217.302 139.314 217.84 138.85 218.476 138.568C219.112 138.287 219.817 138.2 220.503 138.319C221.421 138.479 222.239 138.997 222.775 139.759C223.312 140.522 223.524 141.466 223.365 142.385Z" fill="white"/>
<path d="M219.909 145.784C219.325 145.785 218.749 145.657 218.219 145.411C217.69 145.166 217.221 144.807 216.845 144.36C216.469 143.914 216.195 143.391 216.042 142.828C215.89 142.264 215.862 141.674 215.961 141.099C216.092 140.349 216.434 139.653 216.947 139.091C217.46 138.529 218.122 138.125 218.857 137.927C219.591 137.728 220.367 137.744 221.093 137.971C221.819 138.198 222.465 138.628 222.955 139.21C223.446 139.792 223.76 140.501 223.861 141.256C223.962 142.01 223.845 142.777 223.525 143.467C223.205 144.158 222.695 144.742 222.055 145.153C221.414 145.563 220.67 145.782 219.909 145.784ZM219.895 138.75C219.318 138.752 218.753 138.918 218.267 139.23C217.781 139.542 217.394 139.986 217.151 140.51C216.909 141.034 216.821 141.616 216.898 142.188C216.975 142.761 217.213 143.299 217.586 143.741C217.958 144.182 218.449 144.508 219 144.68C219.551 144.852 220.14 144.863 220.697 144.712C221.254 144.561 221.757 144.254 222.146 143.828C222.535 143.401 222.794 142.872 222.893 142.303C223.029 141.51 222.846 140.696 222.383 140.039C221.92 139.381 221.215 138.934 220.423 138.796C220.249 138.765 220.072 138.749 219.895 138.749V138.75Z" fill="#415B91"/>
<path d="M245.92 34.874H193.218V40.6743H245.92V34.874Z" fill="#AFAFAF"/>
<path d="M291.719 154.798H274.223V0.0773926H291.719V154.798ZM275.954 153.069H289.988V1.80824H275.954V153.069Z" fill="#0D1840"/>
<path d="M291.499 17.0605H274.436V0H291.499V17.0605ZM276.196 15.3066H289.746V1.75391H276.196V15.3066Z" fill="#0D1840"/>
<path d="M275.94 0.255409L274.7 1.49561L290.003 16.802L291.243 15.5618L275.94 0.255409Z" fill="#0D1840"/>
<path d="M290.003 0.255858L274.7 15.5623L275.94 16.8025L291.243 1.49606L290.003 0.255858Z" fill="#0D1840"/>
<path d="M291.499 32.3658H274.436V15.3064H291.499V32.3658ZM276.196 30.613H289.746V17.0603H276.196V30.613Z" fill="#0D1840"/>
<path d="M275.939 15.5625L274.699 16.8027L290.002 32.1091L291.242 30.8689L275.939 15.5625Z" fill="#0D1840"/>
<path d="M290.003 15.5625L274.7 30.8689L275.94 32.1091L291.243 16.8027L290.003 15.5625Z" fill="#0D1840"/>
<path d="M291.499 47.6727H274.436V30.6133H291.499V47.6727ZM276.196 45.9199H289.746V32.366H276.196V45.9199Z" fill="#0D1840"/>
<path d="M275.939 30.867L274.699 32.1072L290.002 47.4136L291.242 46.1734L275.939 30.867Z" fill="#0D1840"/>
<path d="M290.012 30.8838L274.709 46.1902L275.949 47.4304L291.252 32.124L290.012 30.8838Z" fill="#0D1840"/>
<path d="M291.499 62.979H274.436V45.9197H291.499V62.979ZM276.196 61.2251H289.746V47.6724H276.196V61.2251Z" fill="#0D1840"/>
<path d="M275.94 46.1748L274.7 47.415L290.003 62.7214L291.243 61.4812L275.94 46.1748Z" fill="#0D1840"/>
<path d="M290.003 46.1753L274.7 61.4817L275.94 62.7219L291.243 47.4155L290.003 46.1753Z" fill="#0D1840"/>
<path d="M291.499 78.2848H274.436V61.2185H291.499V78.2848ZM276.196 76.5309H289.746V62.9793H276.196V76.5309Z" fill="#0D1840"/>
<path d="M275.94 61.4817L274.7 62.7219L290.003 78.0283L291.243 76.7881L275.94 61.4817Z" fill="#0D1840"/>
<path d="M290.011 61.4966L274.708 76.803L275.948 78.0432L291.251 62.7368L290.011 61.4966Z" fill="#0D1840"/>
<path d="M291.499 93.5924H274.436V76.5261H291.499V93.5924ZM276.196 91.8385H289.746V78.2846H276.196V91.8385Z" fill="#0D1840"/>
<path d="M275.938 76.7854L274.698 78.0256L290.001 93.332L291.241 92.0918L275.938 76.7854Z" fill="#0D1840"/>
<path d="M290.011 76.8044L274.708 92.1108L275.948 93.351L291.251 78.0446L290.011 76.8044Z" fill="#0D1840"/>
<path d="M291.499 108.898H274.436V91.8386H291.499V108.898ZM276.196 107.145H289.746V93.5925H276.196V107.145Z" fill="#0D1840"/>
<path d="M275.939 92.0943L274.699 93.3345L290.002 108.641L291.242 107.401L275.939 92.0943Z" fill="#0D1840"/>
<path d="M290.011 92.1103L274.708 107.417L275.948 108.657L291.251 93.3505L290.011 92.1103Z" fill="#0D1840"/>
<path d="M291.499 124.205H274.436V107.145H291.499V124.205ZM276.196 122.45H289.746V108.898H276.196V122.45Z" fill="#0D1840"/>
<path d="M275.94 107.4L274.7 108.64L290.003 123.947L291.243 122.706L275.94 107.4Z" fill="#0D1840"/>
<path d="M290.01 107.417L274.707 122.724L275.947 123.964L291.25 108.658L290.01 107.417Z" fill="#0D1840"/>
<path d="M291.499 139.516H274.436V122.449H291.499V139.516ZM276.196 137.762H289.746V124.205H276.196V137.762Z" fill="#0D1840"/>
<path d="M275.941 122.708L274.701 123.948L290.005 139.254L291.245 138.014L275.941 122.708Z" fill="#0D1840"/>
<path d="M290.011 122.723L274.708 138.03L275.948 139.27L291.251 123.963L290.011 122.723Z" fill="#0D1840"/>
<path d="M291.499 154.817H274.436V137.757H291.499V154.817ZM276.196 153.064H289.746V139.516H276.196V153.064Z" fill="#0D1840"/>
<path d="M275.938 138.009L274.698 139.25L290.001 154.556L291.241 153.316L275.938 138.009Z" fill="#0D1840"/>
<path d="M290.003 138.009L274.697 153.313L275.936 154.553L291.243 139.25L290.003 138.009Z" fill="#0D1840"/>
<path d="M321.951 32.1365H304.894V15.0759H321.951V32.1365ZM306.647 30.3826H320.197V16.8298H306.647V30.3826Z" fill="#0D1840"/>
<path d="M320.457 15.3355L305.156 30.6445L306.396 31.8845L321.697 16.5754L320.457 15.3355Z" fill="#0D1840"/>
<path d="M306.389 15.3313L305.149 16.5715L320.453 31.8779L321.693 30.6377L306.389 15.3313Z" fill="#0D1840"/>
<path d="M306.647 32.1365H289.591V15.0759H306.647V32.1365ZM291.344 30.3826H304.893V16.8298H291.344V30.3826Z" fill="#0D1840"/>
<path d="M305.154 15.3377L289.853 30.6467L291.093 31.8867L306.394 16.5776L305.154 15.3377Z" fill="#0D1840"/>
<path d="M291.086 15.3294L289.846 16.5696L305.15 31.876L306.39 30.6358L291.086 15.3294Z" fill="#0D1840"/>
<path d="M291.344 32.1365H274.281V15.0759H291.344V32.1365ZM276.041 30.3826H289.591V16.8298H276.041V30.3826Z" fill="#0D1840"/>
<path d="M276.04 32.1365H258.983V15.0759H276.04V32.1365ZM260.736 30.3826H274.286V16.8298H260.736V30.3826Z" fill="#0D1840"/>
<path d="M274.543 15.3328L259.24 30.6392L260.479 31.8794L275.783 16.573L274.543 15.3328Z" fill="#0D1840"/>
<path d="M260.478 15.3299L259.239 16.5701L274.542 31.8765L275.782 30.6363L260.478 15.3299Z" fill="#0D1840"/>
<path d="M260.736 32.1365H243.673V15.0759H260.736V32.1365ZM245.432 30.3826H258.983V16.8298H245.432V30.3826Z" fill="#0D1840"/>
<path d="M259.24 15.331L243.937 30.6375L245.177 31.8777L260.48 16.5712L259.24 15.331Z" fill="#0D1840"/>
<path d="M245.177 15.3333L243.937 16.5735L259.24 31.8799L260.48 30.6397L245.177 15.3333Z" fill="#0D1840"/>
<path d="M245.433 32.1365H228.377V15.0759H245.433V32.1365ZM230.129 30.3826H243.68V16.8298H230.129V30.3826Z" fill="#0D1840"/>
<path d="M229.253 32.1365H213.95C213.776 32.137 213.606 32.0858 213.461 31.9893C213.316 31.8928 213.204 31.7555 213.137 31.5947C213.071 31.434 213.054 31.2571 213.088 31.0866C213.123 30.9162 213.207 30.7598 213.33 30.6374L228.633 15.3308L229.874 16.5704L216.066 30.3826H228.89L243.937 15.3331L245.176 16.5727L229.874 31.8794C229.709 32.0436 229.486 32.1361 229.253 32.1365Z" fill="#0D1840"/>
<path d="M229.872 15.3301L228.632 16.5703L243.935 31.8767L245.175 30.6365L229.872 15.3301Z" fill="#0D1840"/>
<path d="M291.757 171.857H274.223V154.798H291.757V171.857ZM276.025 170.105H289.952V156.552H276.025V170.105Z" fill="#0D1840"/>
<path d="M290.219 171.6L274.488 156.295L275.763 155.054L291.493 170.361L290.219 171.6Z" fill="#0D1840"/>
<path d="M275.763 171.6L274.488 170.361L290.219 155.054L291.493 156.295L275.763 171.6Z" fill="#0D1840"/>
<path d="M291.757 233.083H274.223V216.023H291.757V233.083ZM276.025 231.329H289.952V217.776H276.025V231.329Z" fill="#0D1840"/>
<path d="M290.219 232.826L274.488 217.519L275.763 216.28L291.493 231.586L290.219 232.826Z" fill="#0D1840"/>
<path d="M275.763 232.826L274.488 231.586L290.219 216.28L291.493 217.519L275.763 232.826Z" fill="#0D1840"/>
<path d="M291.757 185.714H274.223V168.654H291.757V185.714ZM276.025 183.96H289.952V170.407H276.025V183.96Z" fill="#0D1840"/>
<path d="M290.219 185.456L274.488 170.15L275.763 168.91L291.493 184.217L290.219 185.456Z" fill="#0D1840"/>
<path d="M275.763 185.456L274.488 184.217L290.219 168.91L291.493 170.15L275.763 185.456Z" fill="#0D1840"/>
<path d="M291.757 201.02H274.223V183.959H291.757V201.02ZM276.025 199.266H289.952V185.713H276.025V199.266Z" fill="#0D1840"/>
<path d="M290.219 200.763L274.488 185.456L275.763 184.217L291.493 199.522L290.219 200.763Z" fill="#0D1840"/>
<path d="M275.763 200.763L274.488 199.522L290.219 184.217L291.493 185.456L275.763 200.763Z" fill="#0D1840"/>
<path d="M291.757 216.326H274.223V199.266H291.757V216.326ZM276.025 214.573H289.952V201.02H276.025V214.573Z" fill="#0D1840"/>
<path d="M290.219 216.069L274.488 200.763L275.763 199.522L291.493 214.829L290.219 216.069Z" fill="#0D1840"/>
<path d="M275.763 216.069L274.488 214.829L290.219 199.522L291.493 200.763L275.763 216.069Z" fill="#0D1840"/>
<path d="M96.0871 92.8349C97.9537 92.8349 97.956 89.9336 96.0871 89.9336C94.2183 89.9336 94.2171 92.8349 96.0871 92.8349Z" fill="#405B91"/>
<path d="M253.369 62.5331C255.235 62.5331 255.239 59.6318 253.369 59.6318C251.499 59.6318 251.499 62.5331 253.369 62.5331Z" fill="#405B91"/>
<path d="M318.472 166.333H319.121C319.88 166.333 320.607 165.665 320.571 164.882C320.536 164.099 319.928 163.432 319.121 163.432H318.476C317.718 163.432 316.992 164.098 317.026 164.882C317.061 165.666 317.664 166.333 318.476 166.333H318.472Z" fill="#405B91"/>
<path d="M38.7185 187.608C40.5839 187.608 40.5874 184.707 38.7185 184.707C36.8496 184.707 36.8485 187.608 38.7185 187.608Z" fill="#405B91"/>
<path d="M177.306 48.3495C179.173 48.3495 179.175 45.4482 177.306 45.4482C175.438 45.4482 175.436 48.3495 177.306 48.3495Z" fill="#405B91"/>
</svg>
