<svg width="373" height="215" viewBox="0 0 373 215" fill="none" xmlns="http://www.w3.org/2000/svg">
<path d="M234.104 204.956C233.682 205.758 233.508 206.668 233.605 207.569C233.654 208.03 234.38 208.03 234.329 207.569C234.235 206.797 234.374 206.014 234.729 205.321C234.942 204.907 234.317 204.54 234.104 204.956Z" fill="#50AA50"/>
<path d="M236.052 204.066C236.513 204.066 236.519 203.341 236.052 203.341C235.586 203.341 235.585 204.066 236.052 204.066Z" fill="#50AA50"/>
<path d="M250.34 208.693V209.016C250.34 209.477 251.065 209.477 251.065 209.016V208.693C251.065 208.232 250.34 208.226 250.34 208.693Z" fill="#50AA50"/>
<path d="M43.1399 191.843H18.6176C18.488 191.847 18.3588 191.825 18.2377 191.779C18.1166 191.732 18.0061 191.662 17.9128 191.572C17.8196 191.481 17.7454 191.373 17.6947 191.254C17.644 191.134 17.6179 191.006 17.6179 190.876C17.6179 190.746 17.644 190.618 17.6947 190.498C17.7454 190.379 17.8196 190.271 17.9128 190.18C18.0061 190.09 18.1166 190.02 18.2377 189.973C18.3588 189.926 18.488 189.905 18.6176 189.909H43.1399C43.2695 189.905 43.3987 189.926 43.5198 189.973C43.6409 190.02 43.7514 190.09 43.8447 190.18C43.938 190.271 44.0121 190.379 44.0628 190.498C44.1135 190.618 44.1396 190.746 44.1396 190.876C44.1396 191.006 44.1135 191.134 44.0628 191.254C44.0121 191.373 43.938 191.481 43.8447 191.572C43.7514 191.662 43.6409 191.732 43.5198 191.779C43.3987 191.825 43.2695 191.847 43.1399 191.843Z" fill="#405B91"/>
<path d="M259.079 106.711H258.379C258.379 106.432 258.268 106.165 258.071 105.968C257.874 105.771 257.607 105.66 257.329 105.66C257.05 105.66 256.783 105.771 256.586 105.968C256.389 106.165 256.278 106.432 256.278 106.711H255.572C255.566 106.477 255.607 106.245 255.692 106.027C255.778 105.809 255.906 105.61 256.069 105.442C256.232 105.275 256.427 105.142 256.643 105.051C256.858 104.96 257.09 104.913 257.323 104.913C257.557 104.913 257.789 104.96 258.004 105.051C258.22 105.142 258.415 105.275 258.578 105.442C258.741 105.61 258.869 105.809 258.954 106.027C259.04 106.245 259.081 106.477 259.075 106.711H259.079Z" fill="white"/>
<path d="M261.586 65.8901H260.884C260.884 65.6112 260.774 65.3438 260.577 65.1466C260.38 64.9494 260.113 64.8386 259.834 64.8386C259.555 64.8386 259.288 64.9494 259.091 65.1466C258.894 65.3438 258.784 65.6112 258.784 65.8901H258.083C258.077 65.6561 258.118 65.4233 258.204 65.2053C258.289 64.9874 258.417 64.7888 258.58 64.6212C258.743 64.4535 258.938 64.3203 259.154 64.2294C259.369 64.1384 259.601 64.0916 259.835 64.0916C260.068 64.0916 260.3 64.1384 260.515 64.2294C260.731 64.3203 260.926 64.4535 261.089 64.6212C261.252 64.7888 261.38 64.9874 261.466 65.2053C261.551 65.4233 261.592 65.6561 261.586 65.8901Z" fill="white"/>
<path d="M226.535 206.31H184.192L184.911 204.605C187.687 198.013 187.973 192.367 187.551 185.919L187.465 184.614L223.17 184.505L223.179 185.727C223.209 189.896 224.331 199.362 226.031 204.71L226.535 206.31ZM187.849 203.851H223.228C221.865 198.696 220.939 191.243 220.755 186.965L190.079 187.059C190.367 192.784 190.018 197.984 187.849 203.851Z" fill="#0D1840"/>
<path d="M172.018 186.945C139.871 186.945 113.83 186.77 112.686 186.361C109.936 185.38 106.339 181.562 106.291 178.855C106.186 172.992 105.935 165.008 105.643 155.761C104.762 127.883 103.558 89.7003 105.121 68.5759C105.406 64.7264 108.583 61.752 112.377 61.752H112.499L297.832 62.0275C301.748 62.0955 304.895 65.2625 304.986 69.2365C305.127 75.4079 305.331 81.7154 305.53 88.1081C306.379 114.872 307.258 142.55 304.295 168.723C304.179 169.754 304.126 170.894 304.074 172.074C303.824 177.565 303.514 184.4 296.443 185.793C292.989 186.478 224.4 186.945 172.018 186.945ZM112.395 63.7268C109.612 63.7268 107.297 65.9047 107.088 68.7223C105.532 89.7452 106.735 127.865 107.614 155.698C107.907 164.952 108.159 172.943 108.264 178.821C108.294 180.529 111.143 183.715 113.35 184.502C117.296 185.309 291.534 184.712 296.064 183.86C301.617 182.762 301.866 177.289 302.106 171.985C302.163 170.759 302.221 169.573 302.337 168.5C305.283 142.471 304.41 114.867 303.561 88.1704C303.358 81.7742 303.158 75.4621 303.015 69.2849C302.949 66.3739 300.661 64.0554 297.807 64.0035L112.487 63.728L112.395 63.7268Z" fill="#0D1840"/>
<path fill-rule="evenodd" clip-rule="evenodd" d="M292.651 68.4149L118.033 68.1844C114.893 68.1371 112.257 70.293 112.021 73.1095C110.063 96.5039 112.732 145.315 113.125 164.96C113.165 166.875 116.286 169.746 118.539 170.457C121.188 171.293 287.129 170.661 291.189 169.952C298.471 168.684 297.232 161.213 297.844 156.436C301.299 129.417 299.176 100.047 298.489 73.6191C298.406 70.7576 295.834 68.4622 292.651 68.4149Z" fill="#AFAFAF"/>
<path d="M241.683 213.035H169.027C166.147 213.035 164.635 210.765 164.635 208.523C164.635 206.28 166.144 204.005 169.027 204.005H241.683C244.562 204.005 246.074 206.275 246.074 208.517C246.074 210.759 244.566 213.035 241.683 213.035ZM169.027 205.98C167.117 205.98 166.608 207.577 166.608 208.523C166.608 209.468 167.117 211.059 169.027 211.059H241.683C243.592 211.059 244.101 209.461 244.101 208.516C244.101 207.571 243.592 205.98 241.683 205.98H169.027Z" fill="#0D1840"/>
<path d="M89.3028 187.081C91.8713 187.081 91.8759 183.087 89.3028 183.087C86.7298 183.087 86.7298 187.081 89.3028 187.081Z" fill="#415B91"/>
<path d="M97.3498 187.081C99.9182 187.081 99.9216 183.087 97.3498 183.087C94.7779 183.087 94.7767 187.081 97.3498 187.081Z" fill="#415B91"/>
<path d="M105.395 187.081C107.965 187.081 107.968 183.087 105.395 183.087C102.822 183.087 102.824 187.081 105.395 187.081Z" fill="#415B91"/>
<path d="M319.021 209.239H299.315L306.894 184.32H311.443L319.021 209.239Z" fill="#B6D0FB"/>
<path d="M320.65 209.239H297.686V212.085H320.65V209.239Z" fill="#B6D0FB"/>
<path d="M301.209 203.008L299.315 209.239H319.021L317.127 203.008H301.209Z" fill="#415B91"/>
<path d="M303.106 196.78H315.233L313.338 190.549H305L303.106 196.78Z" fill="#415B91"/>
<path d="M327.081 211.921H331.457V194.974H353.905V211.921H358.282V194.974H362.913V181.444H359.22V180.193H352.847V181.444H332.952V180.193H326.581V181.444H322.525V194.974H327.081V211.921ZM361.492 182.854V182.91L358.797 193.559H353.986L356.698 182.857L361.492 182.854ZM348.947 193.559H344.137L346.847 182.854H351.657L348.947 193.559ZM339.098 193.559H334.288L337.003 182.857H341.813L339.098 193.559ZM327.149 182.854H331.958L329.249 193.559H324.439L327.149 182.854Z" fill="#AFAFAF"/>
<path d="M111.998 46.2447L113.308 44.9338C113.371 44.8708 113.422 44.7958 113.456 44.7132C113.491 44.6306 113.508 44.542 113.508 44.4525C113.508 44.363 113.491 44.2744 113.456 44.1918C113.422 44.1092 113.371 44.0342 113.308 43.9712L112.167 42.8298C112.036 42.6865 111.951 42.507 111.924 42.3149C111.897 42.1228 111.929 41.927 112.014 41.753L112.944 39.4922C113.007 39.3078 113.124 39.1467 113.279 39.0299C113.435 38.913 113.623 38.8459 113.817 38.8374H115.429C115.609 38.8374 115.781 38.7662 115.909 38.6394C116.036 38.5125 116.108 38.3404 116.109 38.1606V36.301C116.109 36.2117 116.092 36.1232 116.058 36.0407C116.023 35.9582 115.973 35.8832 115.91 35.8201C115.847 35.757 115.772 35.707 115.69 35.673C115.607 35.639 115.519 35.6216 115.429 35.622H113.817C113.623 35.6135 113.435 35.5465 113.28 35.4299C113.124 35.3133 113.007 35.1524 112.944 34.9683L112.014 32.7098C111.929 32.535 111.897 32.3385 111.924 32.1456C111.951 31.9528 112.036 31.7725 112.167 31.6283L113.308 30.4881C113.371 30.4255 113.422 30.3508 113.456 30.2685C113.491 30.1862 113.508 30.0978 113.508 30.0085C113.508 29.9193 113.491 29.8309 113.456 29.7486C113.422 29.6662 113.371 29.5916 113.308 29.5289L111.998 28.2123C111.871 28.0849 111.698 28.0133 111.518 28.0133C111.338 28.0133 111.165 28.0849 111.038 28.2123L109.895 29.3549C109.752 29.4857 109.573 29.5706 109.381 29.5985C109.19 29.6265 108.994 29.5962 108.819 29.5116L106.56 28.579C106.376 28.516 106.215 28.3988 106.099 28.2429C105.982 28.087 105.916 27.8995 105.908 27.7051V26.091C105.907 25.9107 105.835 25.7379 105.708 25.6103C105.581 25.4827 105.408 25.4106 105.228 25.4097H103.375C103.195 25.4103 103.022 25.4823 102.894 25.6099C102.767 25.7376 102.695 25.9105 102.694 26.091V27.7051C102.686 27.8996 102.619 28.0871 102.503 28.243C102.386 28.3989 102.225 28.516 102.041 28.579L99.7816 29.5116C99.6074 29.5964 99.4118 29.6268 99.2201 29.5989C99.0285 29.5709 98.8497 29.4859 98.707 29.3549L97.5633 28.2135C97.5006 28.1502 97.4261 28.1 97.3439 28.0657C97.2618 28.0315 97.1737 28.0138 97.0847 28.0138C96.9957 28.0138 96.9076 28.0315 96.8255 28.0657C96.7433 28.1 96.6688 28.1502 96.6061 28.2135L95.2908 29.5347C95.2278 29.5977 95.1779 29.6724 95.1438 29.7547C95.1097 29.837 95.0922 29.9252 95.0922 30.0143C95.0922 30.1034 95.1097 30.1916 95.1438 30.2739C95.1779 30.3562 95.2278 30.431 95.2908 30.4939L96.4322 31.6341C96.5638 31.7778 96.6489 31.958 96.6765 32.1509C96.704 32.3439 96.6727 32.5407 96.5865 32.7155L95.6571 34.974C95.594 35.1582 95.477 35.3191 95.3213 35.4357C95.1656 35.5523 94.9783 35.6192 94.784 35.6277H93.1715C92.9916 35.6277 92.8191 35.6993 92.6919 35.8266C92.5646 35.954 92.4932 36.1267 92.4932 36.3068V38.1664C92.4944 38.3459 92.5663 38.5177 92.6933 38.6444C92.8203 38.7711 92.9922 38.8425 93.1715 38.8431H94.784C94.9785 38.8517 95.1658 38.9188 95.3215 39.0356C95.4773 39.1524 95.5942 39.3136 95.6571 39.498L96.5865 41.7588C96.6726 41.9328 96.7039 42.1289 96.6764 42.3212C96.6488 42.5134 96.5637 42.6928 96.4322 42.8356L95.2908 43.9769C95.1634 44.1047 95.0919 44.2778 95.0919 44.4583C95.0919 44.6387 95.1634 44.8119 95.2908 44.9396L96.6061 46.2504C96.6685 46.3143 96.7429 46.365 96.8251 46.3996C96.9072 46.4342 96.9955 46.4521 97.0847 46.4521C97.1739 46.4521 97.2621 46.4342 97.3443 46.3996C97.4265 46.365 97.5009 46.3143 97.5633 46.2504L98.707 45.1102C98.85 44.9788 99.0294 44.8939 99.2216 44.8665C99.4139 44.8391 99.6099 44.8707 99.7838 44.9569L102.041 45.8873C102.225 45.9499 102.386 46.0667 102.503 46.2225C102.619 46.3782 102.686 46.5656 102.694 46.76V48.374C102.695 48.5544 102.767 48.7271 102.895 48.8543C103.022 48.9816 103.195 49.0531 103.375 49.0531H105.228C105.408 49.0525 105.58 48.9808 105.708 48.8536C105.835 48.7264 105.907 48.5541 105.908 48.374V46.76C105.916 46.5657 105.982 46.3783 106.099 46.2226C106.215 46.0668 106.376 45.9499 106.56 45.8873L108.819 44.9569C108.993 44.8709 109.189 44.8395 109.381 44.8669C109.573 44.8943 109.752 44.9791 109.895 45.1102L111.038 46.2504C111.101 46.3138 111.176 46.3641 111.259 46.3981C111.341 46.4322 111.43 46.4495 111.519 46.449C111.609 46.4484 111.697 46.4301 111.779 46.395C111.862 46.3599 111.936 46.3088 111.998 46.2447ZM104.301 42.6546C103.229 42.6546 102.181 42.3364 101.29 41.7402C100.398 41.144 99.7037 40.2967 99.2935 39.3053C98.8832 38.3139 98.7759 37.2231 98.985 36.1706C99.1942 35.1182 99.7104 34.1514 100.468 33.3927C101.226 32.6339 102.192 32.1172 103.244 31.9078C104.295 31.6985 105.385 31.8059 106.375 32.2166C107.366 32.6272 108.212 33.3226 108.808 34.2148C109.403 35.1071 109.721 36.156 109.721 37.2291C109.721 38.6679 109.15 40.0477 108.133 41.0651C107.117 42.0826 105.739 42.6543 104.301 42.6546Z" fill="#AFAFAF"/>
<path d="M124.53 51.3728L124.199 50.2706C124.166 50.1637 124.092 50.0741 123.994 50.0213C123.895 49.9684 123.78 49.9565 123.673 49.9882L122.718 50.2787C122.601 50.3093 122.478 50.3037 122.364 50.2625C122.251 50.2213 122.152 50.1466 122.082 50.0481L121.119 48.8802C121.038 48.7912 120.986 48.68 120.968 48.5609C120.951 48.4417 120.969 48.3201 121.021 48.2116L121.492 47.3296C121.519 47.2806 121.536 47.2269 121.542 47.1714C121.548 47.1159 121.543 47.0598 121.527 47.0062C121.512 46.9527 121.485 46.9028 121.45 46.8593C121.415 46.8159 121.372 46.7798 121.323 46.7532L120.31 46.2102C120.26 46.1832 120.207 46.1662 120.151 46.1603C120.095 46.1544 120.039 46.1597 119.985 46.1758C119.932 46.1919 119.882 46.2185 119.839 46.2541C119.795 46.2897 119.76 46.3335 119.734 46.3831L119.26 47.265C119.199 47.3686 119.108 47.4513 118.999 47.5023C118.89 47.5533 118.768 47.5703 118.65 47.551L117.142 47.3988C117.022 47.3952 116.906 47.3549 116.809 47.2834C116.712 47.2119 116.64 47.1126 116.601 46.9987L116.309 46.0407C116.294 45.9878 116.268 45.9385 116.233 45.8957C116.198 45.8529 116.155 45.8176 116.106 45.7916C116.058 45.7656 116.004 45.7496 115.949 45.7445C115.895 45.7393 115.839 45.7452 115.787 45.7617L114.685 46.0903C114.578 46.1233 114.488 46.1974 114.435 46.2966C114.382 46.3957 114.371 46.5118 114.403 46.6194L114.695 47.5752C114.725 47.6919 114.719 47.8153 114.678 47.9287C114.637 48.0422 114.563 48.1404 114.464 48.2104L113.295 49.1742C113.207 49.2558 113.096 49.3088 112.978 49.3265C112.859 49.3442 112.738 49.3257 112.63 49.2734L111.746 48.7995C111.698 48.7734 111.644 48.7571 111.589 48.7516C111.534 48.7461 111.479 48.7516 111.426 48.7677C111.373 48.7837 111.324 48.8101 111.282 48.8453C111.239 48.8804 111.204 48.9236 111.178 48.9725L110.634 49.9836C110.58 50.0828 110.568 50.1992 110.6 50.3073C110.632 50.4154 110.706 50.5063 110.805 50.56L111.689 51.0373C111.792 51.0977 111.875 51.1883 111.926 51.2971C111.977 51.4058 111.994 51.5275 111.974 51.646L111.824 53.1528C111.82 53.2735 111.78 53.39 111.708 53.487C111.636 53.584 111.537 53.6568 111.422 53.6958L110.465 53.9887C110.412 54.0044 110.363 54.0305 110.32 54.0654C110.277 54.1003 110.242 54.1434 110.215 54.1922C110.189 54.241 110.173 54.2945 110.168 54.3496C110.162 54.4047 110.168 54.4603 110.184 54.5133L110.517 55.6131C110.533 55.6663 110.559 55.7159 110.594 55.7589C110.629 55.802 110.672 55.8376 110.721 55.8638C110.77 55.89 110.823 55.9061 110.879 55.9114C110.934 55.9167 110.989 55.9109 111.042 55.8944L112.001 55.605C112.117 55.5762 112.239 55.5828 112.351 55.6238C112.464 55.6649 112.561 55.7386 112.632 55.8356L113.594 57.0069C113.675 57.0955 113.729 57.2066 113.747 57.3258C113.764 57.4451 113.746 57.567 113.694 57.6756L113.22 58.5576C113.167 58.6571 113.156 58.7737 113.188 58.8818C113.221 58.9898 113.295 59.0805 113.394 59.134L114.406 59.6747C114.455 59.7015 114.508 59.7183 114.564 59.7242C114.619 59.7301 114.675 59.725 114.729 59.7091C114.782 59.6933 114.832 59.667 114.876 59.6318C114.919 59.5966 114.955 59.5532 114.981 59.5041L115.455 58.6198C115.516 58.5162 115.607 58.4333 115.716 58.3821C115.825 58.3309 115.946 58.3137 116.065 58.3328L117.569 58.4861C117.69 58.49 117.807 58.5306 117.904 58.6024C118.002 58.6743 118.075 58.774 118.114 58.8884L118.403 59.8442C118.419 59.8973 118.445 59.9468 118.48 59.9898C118.515 60.0327 118.559 60.0683 118.607 60.0944C118.656 60.1206 118.71 60.1368 118.765 60.1421C118.82 60.1475 118.876 60.1418 118.929 60.1255L120.028 59.7935C120.135 59.7606 120.224 59.6875 120.277 59.5897C120.33 59.4919 120.343 59.3772 120.313 59.2701L120.023 58.312C119.992 58.1952 119.998 58.0719 120.039 57.9584C120.08 57.8449 120.155 57.7466 120.253 57.6768L121.422 56.7141C121.511 56.6323 121.622 56.579 121.741 56.5609C121.86 56.5428 121.982 56.5608 122.091 56.6127L122.971 57.0853C123.02 57.1127 123.074 57.13 123.13 57.1363C123.185 57.1425 123.241 57.1375 123.295 57.1216C123.349 57.1057 123.399 57.0792 123.442 57.0437C123.485 57.0081 123.521 56.9643 123.547 56.9147L124.09 55.9002C124.116 55.851 124.133 55.7969 124.139 55.7412C124.145 55.6855 124.139 55.6292 124.123 55.5756C124.107 55.522 124.08 55.4721 124.045 55.4288C124.009 55.3856 123.965 55.3499 123.916 55.3237L123.033 54.8487C122.93 54.7882 122.848 54.6977 122.797 54.5892C122.746 54.4808 122.729 54.3594 122.749 54.2412L122.902 52.7297C122.907 52.6097 122.947 52.4938 123.018 52.397C123.089 52.3002 123.188 52.227 123.301 52.1867L124.259 51.8973C124.364 51.863 124.451 51.7887 124.502 51.6906C124.552 51.5924 124.562 51.4783 124.53 51.3728ZM120.319 54.5271C120.005 55.1132 119.525 55.593 118.938 55.9058C118.352 56.2186 117.686 56.3504 117.025 56.2845C116.364 56.2186 115.738 55.9579 115.225 55.5354C114.712 55.113 114.335 54.5477 114.143 53.9112C113.951 53.2746 113.952 52.5953 114.146 51.9592C114.339 51.3232 114.717 50.7589 115.231 50.3377C115.745 49.9165 116.373 49.6574 117.034 49.5932C117.695 49.5289 118.36 49.6624 118.946 49.9766C119.335 50.1851 119.678 50.4682 119.958 50.8098C120.237 51.1513 120.447 51.5446 120.574 51.9672C120.701 52.3898 120.745 52.8333 120.701 53.2725C120.657 53.7118 120.527 54.1381 120.319 54.5271Z" fill="#AFAFAF"/>
<path d="M254.554 38.8361H224.191C224.061 38.8405 223.932 38.8189 223.811 38.7723C223.69 38.7257 223.58 38.6552 223.486 38.565C223.393 38.4748 223.319 38.3667 223.268 38.2472C223.217 38.1277 223.191 37.9992 223.191 37.8694C223.191 37.7395 223.217 37.611 223.268 37.4915C223.319 37.372 223.393 37.2639 223.486 37.1737C223.58 37.0835 223.69 37.013 223.811 36.9664C223.932 36.9199 224.061 36.8982 224.191 36.9027H254.554C254.684 36.8982 254.813 36.9199 254.934 36.9664C255.055 37.013 255.165 37.0835 255.259 37.1737C255.352 37.2639 255.426 37.372 255.477 37.4915C255.528 37.611 255.554 37.7395 255.554 37.8694C255.554 37.9992 255.528 38.1277 255.477 38.2472C255.426 38.3667 255.352 38.4748 255.259 38.565C255.165 38.6552 255.055 38.7257 254.934 38.7723C254.813 38.8189 254.684 38.8405 254.554 38.8361Z" fill="#405B91"/>
<path d="M85.0489 78.9035H36.0043C35.8747 78.9079 35.7455 78.8862 35.6244 78.8397C35.5033 78.7931 35.3929 78.7226 35.2996 78.6324C35.2063 78.5422 35.1321 78.4341 35.0814 78.3146C35.0307 78.1951 35.0046 78.0666 35.0046 77.9368C35.0046 77.8069 35.0307 77.6784 35.0814 77.5589C35.1321 77.4394 35.2063 77.3313 35.2996 77.2411C35.3929 77.1509 35.5033 77.0804 35.6244 77.0338C35.7455 76.9873 35.8747 76.9656 36.0043 76.9701H85.0489C85.1785 76.9656 85.3077 76.9873 85.4288 77.0338C85.5499 77.0804 85.6604 77.1509 85.7537 77.2411C85.8469 77.3313 85.9211 77.4394 85.9718 77.5589C86.0225 77.6784 86.0486 77.8069 86.0486 77.9368C86.0486 78.0666 86.0225 78.1951 85.9718 78.3146C85.9211 78.4341 85.8469 78.5422 85.7537 78.6324C85.6604 78.7226 85.5499 78.7931 85.4288 78.8397C85.3077 78.8862 85.1785 78.9079 85.0489 78.9035Z" fill="#405B91"/>
<path d="M352.721 112.558H303.676C303.547 112.562 303.417 112.541 303.296 112.494C303.175 112.447 303.065 112.377 302.972 112.287C302.878 112.197 302.804 112.088 302.753 111.969C302.703 111.849 302.677 111.721 302.677 111.591C302.677 111.461 302.703 111.333 302.753 111.213C302.804 111.094 302.878 110.986 302.972 110.895C303.065 110.805 303.175 110.735 303.296 110.688C303.417 110.642 303.547 110.62 303.676 110.624H352.721C352.971 110.633 353.208 110.739 353.383 110.919C353.557 111.099 353.654 111.34 353.654 111.591C353.654 111.842 353.557 112.083 353.383 112.263C353.208 112.443 352.971 112.549 352.721 112.558Z" fill="#0D1840"/>
<path d="M372.001 214.003H0.932985C0.682623 213.994 0.445406 213.888 0.271351 213.708C0.097297 213.528 0 213.287 0 213.036C0 212.785 0.097297 212.544 0.271351 212.364C0.445406 212.183 0.682623 212.078 0.932985 212.069H372.001C372.131 212.065 372.26 212.086 372.381 212.133C372.502 212.179 372.613 212.25 372.706 212.34C372.799 212.43 372.874 212.538 372.924 212.658C372.975 212.778 373.001 212.906 373.001 213.036C373.001 213.166 372.975 213.294 372.924 213.414C372.874 213.533 372.799 213.641 372.706 213.732C372.613 213.822 372.502 213.892 372.381 213.939C372.26 213.985 372.131 214.007 372.001 214.003Z" fill="#0D1840"/>
<path d="M232.999 69.405H238.643V67.9604H232.999V69.405Z" fill="#B6D0FB"/>
<path d="M67.6843 140.39C67.4282 140.39 67.1827 140.288 67.0017 140.107C66.8207 139.925 66.7191 139.679 66.7191 139.423V135.659C66.7146 135.529 66.7363 135.4 66.7828 135.279C66.8293 135.157 66.8997 135.047 66.9899 134.953C67.08 134.86 67.1879 134.786 67.3074 134.735C67.4268 134.684 67.5551 134.658 67.6848 134.658C67.8145 134.658 67.9429 134.684 68.0623 134.735C68.1817 134.786 68.2897 134.86 68.3798 134.953C68.47 135.047 68.5404 135.157 68.5869 135.279C68.6334 135.4 68.6551 135.529 68.6506 135.659V139.423C68.6506 139.68 68.5488 139.926 68.3676 140.107C68.1863 140.288 67.9405 140.39 67.6843 140.39Z" fill="#405B91"/>
<path d="M69.5625 138.508H65.8019C65.6723 138.513 65.5431 138.491 65.422 138.444C65.3009 138.398 65.1905 138.327 65.0972 138.237C65.0039 138.147 64.9297 138.039 64.879 137.919C64.8284 137.8 64.8022 137.671 64.8022 137.541C64.8022 137.412 64.8284 137.283 64.879 137.164C64.9297 137.044 65.0039 136.936 65.0972 136.846C65.1905 136.756 65.3009 136.685 65.422 136.639C65.5431 136.592 65.6723 136.57 65.8019 136.575H69.5625C69.6921 136.57 69.8213 136.592 69.9424 136.639C70.0635 136.685 70.1739 136.756 70.2672 136.846C70.3605 136.936 70.4347 137.044 70.4854 137.164C70.536 137.283 70.5621 137.412 70.5621 137.541C70.5621 137.671 70.536 137.8 70.4854 137.919C70.4347 138.039 70.3605 138.147 70.2672 138.237C70.1739 138.327 70.0635 138.398 69.9424 138.444C69.8213 138.491 69.6921 138.513 69.5625 138.508Z" fill="#405B91"/>
<path d="M154.555 5.73211C154.299 5.73181 154.053 5.62977 153.872 5.4484C153.691 5.26704 153.589 5.02118 153.589 4.76484V1.00066C153.585 0.870906 153.607 0.741572 153.653 0.620374C153.7 0.499176 153.77 0.388594 153.86 0.295216C153.95 0.201838 154.058 0.127581 154.178 0.0768615C154.297 0.0261425 154.425 0 154.555 0C154.685 0 154.813 0.0261425 154.933 0.0768615C155.052 0.127581 155.16 0.201838 155.25 0.295216C155.34 0.388594 155.411 0.499176 155.457 0.620374C155.504 0.741572 155.525 0.870906 155.521 1.00066V4.76484C155.521 5.02138 155.419 5.26741 155.238 5.44881C155.057 5.63021 154.811 5.73211 154.555 5.73211Z" fill="#405B91"/>
<path d="M156.434 3.8495H152.673C152.423 3.84084 152.186 3.7352 152.012 3.55486C151.838 3.37451 151.74 3.13356 151.74 2.8828C151.74 2.63205 151.838 2.39109 152.012 2.21074C152.186 2.0304 152.423 1.92476 152.673 1.9161H156.434C156.563 1.91162 156.693 1.93331 156.814 1.97987C156.935 2.02643 157.045 2.09692 157.138 2.18713C157.232 2.27734 157.306 2.38542 157.357 2.50494C157.407 2.62446 157.433 2.75297 157.433 2.8828C157.433 3.01264 157.407 3.14114 157.357 3.26066C157.306 3.38017 157.232 3.48826 157.138 3.57847C157.045 3.66868 156.935 3.73916 156.814 3.78572C156.693 3.83229 156.563 3.85398 156.434 3.8495Z" fill="#405B91"/>
<path d="M183.101 46.1721H177.466C177.413 46.175 177.36 46.167 177.311 46.1488C177.261 46.1305 177.216 46.1023 177.177 46.0659C177.139 46.0295 177.108 45.9856 177.087 45.937C177.066 45.8883 177.056 45.8359 177.056 45.783C177.056 45.73 177.066 45.6776 177.087 45.629C177.108 45.5803 177.139 45.5365 177.177 45.5C177.216 45.4636 177.261 45.4354 177.311 45.4172C177.36 45.3989 177.413 45.391 177.466 45.3939H183.101C183.2 45.3993 183.294 45.4427 183.362 45.515C183.431 45.5874 183.469 45.6833 183.469 45.783C183.469 45.8827 183.431 45.9786 183.362 46.0509C183.294 46.1233 183.2 46.1667 183.101 46.1721Z" fill="#405B91"/>
<path d="M183.102 57.2098H177.468C177.364 57.2098 177.265 57.1687 177.192 57.0956C177.119 57.0226 177.078 56.9234 177.078 56.8201C177.078 56.7167 177.119 56.6176 177.192 56.5446C177.265 56.4715 177.364 56.4304 177.468 56.4304H183.102C183.205 56.4304 183.304 56.4715 183.377 56.5446C183.45 56.6176 183.491 56.7167 183.491 56.8201C183.491 56.9234 183.45 57.0226 183.377 57.0956C183.304 57.1687 183.205 57.2098 183.102 57.2098Z" fill="#405B91"/>
<path d="M190.106 51.692H179.581C179.482 51.6866 179.388 51.6432 179.32 51.5709C179.251 51.4985 179.213 51.4026 179.213 51.3029C179.213 51.2032 179.251 51.1074 179.32 51.035C179.388 50.9626 179.482 50.9192 179.581 50.9138H190.106C190.206 50.9192 190.299 50.9626 190.368 51.035C190.436 51.1074 190.474 51.2032 190.474 51.3029C190.474 51.4026 190.436 51.4985 190.368 51.5709C190.299 51.6432 190.206 51.6866 190.106 51.692Z" fill="#405B91"/>
<path d="M65.5844 111.591H71.8086V105.361H65.5844V111.591Z" fill="white"/>
<path d="M72.2926 112.074H65.1033V104.878H72.2926V112.074ZM66.0731 111.107H71.3297V105.845H66.0731V111.107Z" fill="#415B91"/>
<path d="M57.709 106.731H63.3435C63.3963 106.734 63.4492 106.726 63.4988 106.707C63.5485 106.689 63.5939 106.661 63.6324 106.625C63.6708 106.588 63.7014 106.544 63.7223 106.496C63.7432 106.447 63.754 106.395 63.754 106.342C63.754 106.289 63.7432 106.236 63.7223 106.188C63.7014 106.139 63.6708 106.095 63.6324 106.059C63.5939 106.022 63.5485 105.994 63.4988 105.976C63.4492 105.958 63.3963 105.95 63.3435 105.952H57.709C57.6562 105.95 57.6034 105.958 57.5537 105.976C57.504 105.994 57.4586 106.022 57.4202 106.059C57.3818 106.095 57.3512 106.139 57.3303 106.188C57.3094 106.236 57.2986 106.289 57.2986 106.342C57.2986 106.395 57.3094 106.447 57.3303 106.496C57.3512 106.544 57.3818 106.588 57.4202 106.625C57.4586 106.661 57.504 106.689 57.5537 106.707C57.6034 106.726 57.6562 106.734 57.709 106.731Z" fill="#405B91"/>
<path d="M55.5911 111H63.2055C63.4957 111 63.7318 110.826 63.7318 110.61C63.7318 110.395 63.4957 110.222 63.2055 110.222H55.5911C55.3009 110.222 55.0659 110.396 55.0659 110.61C55.0659 110.825 55.3009 111 55.5911 111Z" fill="#405B91"/>
<path d="M52.8184 108.745H63.3421C63.395 108.748 63.4478 108.74 63.4975 108.722C63.5471 108.704 63.5926 108.675 63.631 108.639C63.6694 108.603 63.7 108.559 63.7209 108.51C63.7418 108.461 63.7526 108.409 63.7526 108.356C63.7526 108.303 63.7418 108.251 63.7209 108.202C63.7 108.153 63.6694 108.109 63.631 108.073C63.5926 108.037 63.5471 108.008 63.4975 107.99C63.4478 107.972 63.395 107.964 63.3421 107.967H52.8184C52.7656 107.964 52.7127 107.972 52.6631 107.99C52.6134 108.008 52.568 108.037 52.5296 108.073C52.4912 108.109 52.4606 108.153 52.4397 108.202C52.4188 108.251 52.408 108.303 52.408 108.356C52.408 108.409 52.4188 108.461 52.4397 108.51C52.4606 108.559 52.4912 108.603 52.5296 108.639C52.568 108.675 52.6134 108.704 52.6631 108.722C52.7127 108.74 52.7656 108.748 52.8184 108.745Z" fill="#405B91"/>
<path d="M52.3599 170.892L53.6476 171.057C54.1083 171.115 54.1083 170.39 53.6476 170.331L52.3599 170.166C51.8992 170.108 51.8992 170.834 52.3599 170.892Z" fill="#50AA50"/>
<path d="M54.2546 165.189V165.834C54.2546 166.295 54.9791 166.295 54.9791 165.834V165.189C54.9791 164.722 54.2546 164.722 54.2546 165.189Z" fill="#50AA50"/>
<path d="M56.7612 171.839L57.7045 171.313C58.1111 171.083 57.7471 170.46 57.3383 170.687L56.3961 171.213C55.9884 171.444 56.3535 172.066 56.7612 171.839Z" fill="#50AA50"/>
<path d="M53.0398 180.183L54.1743 179.388C54.5543 179.122 54.1927 178.494 53.8092 178.761L52.6747 179.556C52.2946 179.822 52.6562 180.45 53.0398 180.183Z" fill="#50AA50"/>
<path d="M50.3279 173.947L51.1342 174.264C51.5684 174.433 51.7561 173.732 51.3265 173.564L50.5203 173.247C50.0861 173.077 49.8983 173.778 50.3279 173.947Z" fill="#50AA50"/>
<path d="M55.5828 177.313C55.6591 177.319 55.7329 177.342 55.7989 177.381C55.8649 177.42 55.9213 177.473 55.9641 177.536C56.2612 177.896 56.7703 177.381 56.4766 177.023C56.367 176.891 56.2307 176.784 56.0766 176.709C55.9225 176.634 55.7542 176.593 55.5828 176.588C55.1221 176.554 55.1221 177.279 55.5828 177.313Z" fill="#50AA50"/>
<path d="M57.1737 180.725C57.0923 181.203 57.1536 181.694 57.3499 182.137C57.5319 182.566 58.1561 182.197 57.9753 181.772C57.8602 181.503 57.8243 181.207 57.8716 180.918C57.943 180.457 57.2451 180.264 57.1737 180.725Z" fill="#50AA50"/>
<path d="M60.9567 180.858L61.5983 181.03C62.0486 181.145 62.241 180.453 61.7906 180.33L61.1491 180.159C60.6987 180.038 60.5064 180.736 60.9567 180.858Z" fill="#50AA50"/>
<path d="M63.2704 173.73C63.2502 173.928 63.2792 174.128 63.3547 174.312C63.4303 174.496 63.5501 174.658 63.7034 174.785C64.0582 175.083 64.573 174.574 64.216 174.272C64.1324 174.211 64.0674 174.128 64.0284 174.032C63.9893 173.937 63.9777 173.832 63.9948 173.73C64.0375 173.269 63.313 173.269 63.2704 173.73Z" fill="#50AA50"/>
<path d="M62.3519 168.549C62.2557 168.68 62.1892 168.83 62.157 168.989C62.1248 169.149 62.1276 169.313 62.1653 169.471C62.246 169.932 62.9439 169.735 62.8633 169.279C62.8501 169.213 62.8538 169.145 62.8739 169.08C62.894 169.016 62.93 168.958 62.9785 168.912C63.2549 168.536 62.6261 168.174 62.3531 168.546L62.3519 168.549Z" fill="#50AA50"/>
<path d="M66.3289 170.668V171.312C66.3289 171.773 67.0533 171.78 67.0533 171.312V170.668C67.0533 170.207 66.3289 170.201 66.3289 170.668Z" fill="#50AA50"/>
<path d="M59.5867 169.531L60.0705 169.853C60.4586 170.113 60.8226 169.485 60.4356 169.227L59.953 168.905C59.5637 168.646 59.2009 169.273 59.5867 169.531Z" fill="#50AA50"/>
<path d="M60.799 163.514C60.9353 163.665 61.0165 163.858 61.0293 164.061C61.065 164.522 61.7895 164.528 61.7538 164.061C61.7308 163.668 61.5762 163.295 61.315 163.001C61.0121 162.646 60.5018 163.161 60.8036 163.514H60.799Z" fill="#50AA50"/>
<path d="M62.626 161.321V162.288C62.626 162.749 63.3504 162.749 63.3504 162.288V161.321C63.3504 160.86 62.626 160.86 62.626 161.321Z" fill="#50AA50"/>
<path d="M67.1048 165.581C67.2096 165.696 67.3144 165.801 67.418 165.912C67.7405 166.25 68.2519 165.737 67.9306 165.399L67.6173 165.069C67.2948 164.73 66.7834 165.243 67.1048 165.581Z" fill="#50AA50"/>
<path d="M67.8245 161.26L68.7874 161.315C69.2481 161.342 69.2481 160.617 68.7874 160.59L67.8245 160.535C67.3638 160.508 67.3638 161.234 67.8245 161.26Z" fill="#50AA50"/>
<path d="M68.8509 155.454C69.0651 155.669 69.2798 155.884 69.4948 156.098C69.8242 156.429 70.3367 155.916 70.0073 155.586L69.3635 154.941C69.0329 154.611 68.5203 155.123 68.8509 155.454Z" fill="#50AA50"/>
<path d="M71.6431 153.585V154.714C71.6431 155.175 72.3675 155.175 72.3675 154.714V153.585C72.3675 153.124 71.6431 153.124 71.6431 153.585Z" fill="#50AA50"/>
<path d="M72.9552 160.372L73.2743 159.887C73.5311 159.496 72.9046 159.133 72.6489 159.522L72.3287 160.007C72.0718 160.398 72.6984 160.761 72.9552 160.372Z" fill="#50AA50"/>
<path d="M70.4986 167.494L71.3048 167.179C71.7344 167.012 71.5478 166.311 71.1113 166.48L70.3051 166.795C69.8755 166.962 70.0621 167.663 70.4974 167.494H70.4986Z" fill="#50AA50"/>
<path d="M73.7091 166.483L74.5153 166.315C74.976 166.221 74.7791 165.522 74.323 165.617L73.5167 165.783C73.056 165.877 73.2541 166.577 73.7091 166.483Z" fill="#50AA50"/>
<path d="M71.6431 169.862V170.023C71.6431 170.49 72.3675 170.491 72.3675 170.023V169.862C72.3675 169.401 71.6431 169.401 71.6431 169.862Z" fill="#50AA50"/>
<path d="M65.4167 180.965L65.9004 180.644C66.2863 180.386 65.9235 179.757 65.5342 180.017L65.0516 180.339C64.6658 180.597 65.0274 181.225 65.4167 180.965Z" fill="#50AA50"/>
<path d="M64.9997 183.638C65.2716 183.372 65.613 183.189 65.9844 183.11C66.4382 183.004 66.2459 182.303 65.7921 182.41C65.2999 182.525 64.8486 182.772 64.4871 183.126C64.1497 183.449 64.6622 183.96 64.9997 183.638Z" fill="#50AA50"/>
<path d="M62.0142 184.074C62.0683 184.181 62.1224 184.288 62.1777 184.395C62.3885 184.811 63.0139 184.445 62.8031 184.029C62.7478 183.923 62.6879 183.815 62.6396 183.708C62.4276 183.292 61.8022 183.659 62.0142 184.074Z" fill="#50AA50"/>
<path d="M59.2561 184.854C59.639 185.061 60.0834 185.122 60.5081 185.028C60.9688 184.935 60.7707 184.236 60.3146 184.328C60.0797 184.381 59.8337 184.345 59.6235 184.228C59.21 184.013 58.8438 184.639 59.2572 184.854H59.2561Z" fill="#50AA50"/>
<path d="M65.2437 177.976L66.6903 177.795C67.151 177.737 67.151 177.012 66.6903 177.07L65.2437 177.251C64.783 177.308 64.783 178.034 65.2437 177.976Z" fill="#50AA50"/>
<path d="M181.269 123.495L210.984 96.6038C212.452 95.2757 210.277 93.1095 208.814 94.4318L179.099 121.323C177.63 122.651 179.806 124.817 181.267 123.495H181.269Z" fill="#D7E7FF"/>
<path d="M214.854 137.214L244.57 110.323C246.038 108.995 243.862 106.829 242.401 108.151L212.685 135.042C211.218 136.371 213.392 138.537 214.855 137.214H214.854Z" fill="#D7E7FF"/>
<path d="M178.36 147.371L240.643 86.5795C242.059 85.196 239.889 83.0275 238.473 84.4086L176.192 145.2C174.775 146.584 176.945 148.752 178.36 147.371Z" fill="#D7E7FF"/>
<path d="M245.676 13.9189H193.026V19.718H245.676V13.9189Z" fill="#AFAFAF"/>
<path d="M95.993 71.8662C97.8577 71.8662 97.86 68.9656 95.993 68.9656C94.126 68.9656 94.1248 71.8662 95.993 71.8662Z" fill="#405B91"/>
<path d="M253.117 41.5708C254.982 41.5708 254.986 38.6702 253.117 38.6702C251.249 38.6702 251.249 41.5708 253.117 41.5708Z" fill="#405B91"/>
<path d="M318.156 145.349H318.804C319.562 145.349 320.289 144.681 320.253 143.899C320.218 143.116 319.611 142.448 318.804 142.448H318.161C317.403 142.448 316.677 143.115 316.712 143.899C316.746 144.683 317.349 145.349 318.161 145.349H318.156Z" fill="#405B91"/>
<path d="M38.6793 166.62C40.5428 166.62 40.5463 163.719 38.6793 163.719C36.8122 163.719 36.8111 166.62 38.6793 166.62Z" fill="#405B91"/>
<path d="M177.131 27.3902C178.996 27.3902 178.998 24.4895 177.131 24.4895C175.264 24.4895 175.263 27.3902 177.131 27.3902Z" fill="#405B91"/>
<path d="M208.418 38.5986C186.573 38.5986 168.865 56.3231 168.865 78.1888V102.335H180.274V78.4816C180.274 62.9177 192.875 50.312 208.418 50.312C223.967 50.312 236.561 62.9234 236.561 78.4816V91.7398H247.972V78.1865C247.972 56.3231 230.262 38.5986 208.418 38.5986Z" fill="#EFEFEF"/>
<path d="M210.538 38.5986H208.422C190.538 38.5986 172.34 56.3231 172.34 78.1888L172.067 102.335H180.278V78.4816C180.278 62.9177 192.878 50.312 208.422 50.312H206.348C229.889 48.8582 240.034 62.9234 240.034 78.4816V91.7398H247.971V76.0721C247.971 55.3755 231.209 38.5986 210.538 38.5986Z" fill="white"/>
<path d="M248.628 83.6813C248.628 80.6607 248.743 77.609 248.483 74.5965C248.055 69.5944 246.678 64.7199 244.426 60.2338C240.031 51.5465 232.628 44.7564 223.599 41.1305C205.367 33.8523 183.692 41.27 173.704 58.161C170.854 62.99 169.063 68.3709 168.45 73.9463C168.066 77.4534 168.207 81.0123 168.207 84.5344C168.207 84.7938 169.522 84.5932 169.522 84.1816C169.522 81.4942 169.44 78.7919 169.568 76.1114C169.803 71.2152 170.949 66.4059 172.947 61.9309C176.796 53.3234 183.761 46.2217 192.337 42.2984C201.358 38.1722 211.847 37.8344 221.172 41.1628C230.059 44.3367 237.649 50.7767 242.268 59.0083C244.832 63.5822 246.459 68.6216 247.056 73.8321C247.44 77.2124 247.313 80.6411 247.313 84.0375C247.313 84.2958 248.628 84.0963 248.628 83.6847V83.6813Z" fill="#637082"/>
<path d="M180.939 83.8817C180.939 78.5957 180.837 73.4503 182.742 68.4087C185.226 61.8292 190.214 56.2908 196.546 53.2183C210.034 46.6734 226.653 53.0638 233.104 66.3854C234.813 69.9225 235.763 73.7787 235.893 77.7056C235.964 79.8316 235.91 81.9713 235.91 84.0915C235.91 84.3221 237.225 84.133 237.225 83.7387C237.225 81.8007 237.251 79.8615 237.225 77.9235C237.175 74.1051 236.352 70.3365 234.806 66.8454C231.832 60.2251 226.452 54.9864 219.758 52.1934C206.283 46.5927 189.958 52.3606 183.017 65.206C181.035 68.8872 179.895 72.9626 179.677 77.1384C179.551 79.4961 179.637 81.8745 179.637 84.2344C179.637 84.465 180.953 84.2759 180.953 83.8817H180.939Z" fill="#637082"/>
<path d="M222.386 155.442H194.448C176.078 155.442 161.186 140.536 161.186 122.148V93.6085C161.186 91.8552 161.882 90.1738 163.121 88.934C164.359 87.6943 166.039 86.9978 167.791 86.9978H249.044C250.796 86.9981 252.475 87.6947 253.714 88.9344C254.952 90.174 255.648 91.8553 255.649 93.6085V122.148C255.649 140.536 240.756 155.442 222.386 155.442Z" fill="#445277"/>
<path d="M225.539 153.335H195.451C178.821 153.335 165.341 139.846 165.341 123.196V92.6758C165.341 91.1701 165.939 89.726 167.002 88.6612C168.066 87.5964 169.508 86.9981 171.012 86.9978H249.974C251.479 86.9978 252.921 87.596 253.985 88.6608C255.049 89.7257 255.647 91.1699 255.647 92.6758V123.196C255.649 139.842 242.167 153.335 225.539 153.335Z" fill="#405B91"/>
<path d="M249.354 140.909C243.8 149.072 234.956 154.433 225.032 155.03C221.707 155.231 218.338 155.086 215.011 155.086H199.657C195.778 155.086 191.885 155.237 188.056 154.487C173.375 151.605 162.372 138.502 161.864 123.576C161.581 115.313 161.845 107.001 161.845 98.7333C161.845 95.3577 161.038 90.5939 164.138 88.3043C165.845 87.0465 168.199 87.3543 170.208 87.3543H247.34C247.945 87.3543 248.55 87.344 249.154 87.3543C251.707 87.3981 253.964 88.9811 254.724 91.4609C255.078 92.6138 254.99 93.8555 254.99 95.0475V116.376C254.99 120.318 255.193 124.341 254.496 128.237C253.684 132.775 251.896 137.066 249.357 140.904C249.038 141.386 250.35 141.25 250.577 140.911C254.457 135.042 256.307 128.434 256.307 121.427V94.2371C256.307 92.6588 256.28 91.1773 255.433 89.7523C254.219 87.7106 252.05 86.6787 249.727 86.6395C244.008 86.5519 238.28 86.6395 232.565 86.6395H172.991C171.2 86.6395 169.406 86.613 167.615 86.6395C165.416 86.6718 163.282 87.5307 161.892 89.2912C160.74 90.7427 160.526 92.4224 160.526 94.1956V121.378C160.526 126.889 161.406 132.215 163.849 137.203C167.044 143.71 172.271 148.998 178.736 152.267C183.773 154.803 189.207 155.8 194.807 155.8H221.758C228.932 155.8 235.932 153.935 241.861 149.805C245.281 147.399 248.231 144.388 250.568 140.919C250.9 140.442 249.584 140.568 249.354 140.909Z" fill="#637082"/>
<path d="M216.687 137.952H200.148L204.095 119.045C202.893 118.365 201.893 117.376 201.199 116.18C200.505 114.985 200.143 113.626 200.148 112.243C200.148 107.958 203.553 104.485 207.75 104.485C211.947 104.485 215.351 107.958 215.351 112.243C215.351 115.175 213.756 117.726 212.737 119.045L216.687 137.952Z" fill="#EFEFEF"/>
<path d="M215.527 135.749H204.802C204.66 135.749 204.521 135.718 204.393 135.657C204.265 135.597 204.152 135.509 204.062 135.4C203.972 135.291 203.907 135.164 203.872 135.027C203.836 134.89 203.832 134.747 203.858 134.608L206.639 119.949C206.67 119.771 206.652 119.588 206.586 119.42C206.52 119.252 206.409 119.106 206.264 118.997C204.681 117.785 203.642 115.744 203.642 113.429C203.642 109.709 206.327 106.693 209.638 106.693C212.949 106.693 215.635 109.709 215.635 113.429C215.635 115.758 214.583 117.81 213.792 119.019C213.656 119.227 213.605 119.48 213.652 119.725L216.475 134.608C216.501 134.747 216.497 134.89 216.461 135.028C216.426 135.165 216.361 135.293 216.27 135.402C216.179 135.511 216.066 135.599 215.937 135.659C215.809 135.719 215.669 135.75 215.527 135.749Z" fill="white"/>
<path d="M204.602 118.673C200.131 116.013 199.404 109.258 203.864 106.16C208.186 103.163 213.952 106.324 214.618 111.31C214.985 114.063 213.787 116.408 212.355 118.64C211.981 119.217 212.141 119.513 212.28 120.178L213.937 128.114L215.564 135.909C215.685 136.486 215.984 137.217 215.219 137.474C214.504 137.714 213.297 137.474 212.55 137.474H203.57C202.679 137.474 201.187 137.89 201.105 136.508C201.078 136.047 201.336 135.43 201.423 134.981L204.763 118.999C204.897 118.357 203.552 118.52 203.431 119.101C202.297 124.529 201.164 129.957 200.029 135.386C199.889 136.059 199.588 136.869 199.902 137.528C200.398 138.573 201.618 138.43 202.577 138.43H212.428C214.144 138.43 217.45 138.903 217.01 136.164C216.57 133.425 215.875 130.728 215.311 128.026C214.709 125.144 214.044 122.262 213.504 119.379C213.484 119.273 213.414 119.114 213.427 119.009C213.45 118.804 213.461 119.016 213.457 119.029C213.609 118.636 214.033 118.205 214.255 117.847C214.626 117.243 214.949 116.61 215.22 115.955C216.193 113.575 216.342 110.922 215.197 108.577C212.927 103.923 206.771 102.635 202.717 105.782C198.126 109.347 198.62 116.481 203.588 119.436C204.078 119.719 205.233 119.047 204.602 118.673Z" fill="#637082"/>
</svg>
