<svg width="15" height="14" viewBox="0 0 15 14" fill="none" xmlns="http://www.w3.org/2000/svg">
<path d="M5.41756 0.5H2.08328C1.67299 0.500397 1.27963 0.652729 0.989561 0.923553C0.699493 1.19438 0.536416 1.56156 0.536133 1.9445V5.0555C0.536416 5.43844 0.699493 5.80562 0.989561 6.07645C1.27963 6.34727 1.67299 6.4996 2.08328 6.5H5.41756C5.82785 6.4996 6.22121 6.34727 6.51128 6.07645C6.80135 5.80562 6.96442 5.43844 6.9647 5.0555V1.9445C6.96442 1.56156 6.80135 1.19438 6.51128 0.923553C6.22121 0.652729 5.82785 0.500397 5.41756 0.5ZM5.89328 5.0555C5.89328 5.1733 5.84317 5.28629 5.75397 5.36963C5.66478 5.45298 5.54378 5.49987 5.41756 5.5H2.08328C1.95706 5.49987 1.83606 5.45298 1.74686 5.36963C1.65766 5.28629 1.60756 5.1733 1.60756 5.0555V1.9445C1.60756 1.8267 1.65766 1.71371 1.74686 1.63037C1.83606 1.54702 1.95706 1.50013 2.08328 1.5H5.41756C5.54378 1.50013 5.66478 1.54702 5.75397 1.63037C5.84317 1.71371 5.89328 1.8267 5.89328 1.9445V5.0555Z" fill="white"/>
<path d="M12.9176 0.5H9.58328C9.17299 0.500397 8.77963 0.652729 8.48956 0.923553C8.19949 1.19438 8.03642 1.56156 8.03613 1.9445V5.0555C8.03642 5.43844 8.19949 5.80562 8.48956 6.07645C8.77963 6.34727 9.17299 6.4996 9.58328 6.5H12.9176C13.3279 6.4996 13.7212 6.34727 14.0113 6.07645C14.3013 5.80562 14.4644 5.43844 14.4647 5.0555V1.9445C14.4644 1.56156 14.3013 1.19438 14.0113 0.923553C13.7212 0.652729 13.3279 0.500397 12.9176 0.5ZM13.3933 5.0555C13.3933 5.1733 13.3432 5.28629 13.254 5.36963C13.1648 5.45298 13.0438 5.49987 12.9176 5.5H9.58328C9.45706 5.49987 9.33606 5.45298 9.24686 5.36963C9.15766 5.28629 9.10756 5.1733 9.10756 5.0555V1.9445C9.10756 1.8267 9.15766 1.71371 9.24686 1.63037C9.33606 1.54702 9.45706 1.50013 9.58328 1.5H12.9176C13.0438 1.50013 13.1648 1.54702 13.254 1.63037C13.3432 1.71371 13.3933 1.8267 13.3933 1.9445V5.0555Z" fill="white"/>
<path d="M12.9176 7.5H9.58328C9.17299 7.5004 8.77963 7.65273 8.48956 7.92355C8.19949 8.19438 8.03642 8.56156 8.03613 8.9445V12.0555C8.03642 12.4384 8.19949 12.8056 8.48956 13.0764C8.77963 13.3473 9.17299 13.4996 9.58328 13.5H12.9176C13.3279 13.4996 13.7212 13.3473 14.0113 13.0764C14.3013 12.8056 14.4644 12.4384 14.4647 12.0555V8.9445C14.4644 8.56156 14.3013 8.19438 14.0113 7.92355C13.7212 7.65273 13.3279 7.5004 12.9176 7.5ZM13.3933 12.0555C13.3933 12.1733 13.3432 12.2863 13.254 12.3696C13.1648 12.453 13.0438 12.4999 12.9176 12.5H9.58328C9.45706 12.4999 9.33606 12.453 9.24686 12.3696C9.15766 12.2863 9.10756 12.1733 9.10756 12.0555V8.9445C9.10756 8.8267 9.15766 8.71371 9.24686 8.63037C9.33606 8.54702 9.45706 8.50013 9.58328 8.5H12.9176C13.0438 8.50013 13.1648 8.54702 13.254 8.63037C13.3432 8.71371 13.3933 8.8267 13.3933 8.9445V12.0555Z" fill="white"/>
<path d="M5.41756 7.5H2.08328C1.67299 7.5004 1.27963 7.65273 0.989561 7.92355C0.699493 8.19438 0.536416 8.56156 0.536133 8.9445V12.0555C0.536416 12.4384 0.699493 12.8056 0.989561 13.0764C1.27963 13.3473 1.67299 13.4996 2.08328 13.5H5.41756C5.82785 13.4996 6.22121 13.3473 6.51128 13.0764C6.80135 12.8056 6.96442 12.4384 6.9647 12.0555V8.9445C6.96442 8.56156 6.80135 8.19438 6.51128 7.92355C6.22121 7.65273 5.82785 7.5004 5.41756 7.5ZM5.89328 12.0555C5.89328 12.1733 5.84317 12.2863 5.75397 12.3696C5.66478 12.453 5.54378 12.4999 5.41756 12.5H2.08328C1.95706 12.4999 1.83606 12.453 1.74686 12.3696C1.65766 12.2863 1.60756 12.1733 1.60756 12.0555V8.9445C1.60756 8.8267 1.65766 8.71371 1.74686 8.63037C1.83606 8.54702 1.95706 8.50013 2.08328 8.5H5.41756C5.54378 8.50013 5.66478 8.54702 5.75397 8.63037C5.84317 8.71371 5.89328 8.8267 5.89328 8.9445V12.0555Z" fill="white"/>
</svg>
