<svg width="16" height="15" viewBox="0 0 16 15" fill="none" xmlns="http://www.w3.org/2000/svg">
<path d="M3.81621 2.57764C3.74958 2.6134 3.69751 2.64261 3.64456 2.67009C2.51428 3.25445 1.38386 3.83824 0.253296 4.42144C0.112968 4.4934 0.00176513 4.57756 0 4.74938C0 4.92949 0.114292 5.01584 0.262122 5.08823C0.924047 5.41181 1.57979 5.73975 2.23775 6.06682C2.28893 6.09212 2.33792 6.12134 2.40543 6.1584C2.33395 6.19809 2.28761 6.226 2.23995 6.25086C1.58185 6.59043 0.923899 6.92971 0.266094 7.2687C0.122235 7.3424 0.00132379 7.42482 0.00132379 7.60624C0.00132379 7.7955 0.130178 7.87749 0.280656 7.95119C0.89095 8.25078 1.49948 8.5543 2.10845 8.85695C2.1592 8.88225 2.20818 8.91016 2.27305 8.94417C2.20818 8.9808 2.16626 9.00566 2.12301 9.02878C1.49021 9.36893 0.857707 9.7085 0.225496 10.0475C0.0953171 10.1168 0.00485414 10.2071 0.00485414 10.3628C0.00485414 10.5259 0.0997297 10.6183 0.238293 10.6864C1.01539 11.0697 1.79117 11.4561 2.56783 11.8394C2.78097 11.9449 2.97601 11.8948 3.06339 11.719C3.15076 11.5433 3.07398 11.3619 2.85995 11.2542C2.57091 11.1085 2.28011 10.9668 1.99019 10.8229L1.04496 10.3536C1.66011 10.0231 2.2554 9.7069 2.84627 9.38245C2.89297 9.35172 2.94753 9.33471 3.00361 9.3334C3.05969 9.33209 3.115 9.34653 3.16312 9.37503C4.51212 10.0497 5.86642 10.7134 7.21365 11.3915C7.42458 11.4975 7.59536 11.4918 7.80144 11.3885C9.15441 10.7095 10.5122 10.0409 11.8665 9.365C11.9079 9.34009 11.9556 9.32731 12.004 9.32815C12.0525 9.329 12.0997 9.34345 12.1401 9.3698C12.4998 9.56953 12.8643 9.76229 13.2261 9.95504C13.4649 10.0837 13.7023 10.2136 13.9604 10.3541L13.5116 10.5782C11.5568 11.549 9.60232 12.5206 7.64832 13.4931C7.60463 13.5194 7.55436 13.5331 7.5032 13.5326C7.45204 13.5322 7.40203 13.5176 7.35883 13.4905C7.18232 13.3919 6.99698 13.3069 6.81517 13.2166C6.39772 13.009 5.98012 12.8019 5.56237 12.5952C5.43616 12.5328 5.29407 12.5079 5.19258 12.6109C5.11792 12.6924 5.07155 12.7954 5.06019 12.9048C5.04607 13.0513 5.16522 13.1302 5.28966 13.1922C5.99571 13.5442 6.70059 13.8972 7.40429 14.251H7.60242C7.61326 14.2398 7.62524 14.2297 7.63817 14.2209L12.7981 11.6645C13.4565 11.3383 14.1147 11.0117 14.7728 10.6846C14.9851 10.5787 15.0667 10.3907 14.9639 10.2193C14.9121 10.1437 14.8418 10.0822 14.7596 10.0405C14.091 9.67594 13.4194 9.31703 12.7297 8.94548C12.7985 8.90972 12.8497 8.88181 12.9018 8.85608C13.5196 8.5482 14.1383 8.24075 14.7578 7.93374C14.8951 7.86615 14.9974 7.78024 15.0023 7.6167C15.0076 7.44488 14.9026 7.35199 14.7614 7.28004C14.3951 7.09295 14.0301 6.90325 13.6648 6.71312L12.5902 6.16189C12.6653 6.12046 12.7151 6.09037 12.7668 6.06421C13.4199 5.73975 14.0721 5.41356 14.7265 5.09215C14.873 5.02064 14.9935 4.93821 14.9961 4.75811C14.9988 4.578 14.8814 4.49165 14.7362 4.41708C13.9234 3.99901 13.1101 3.57876 12.2963 3.15633L11.1821 2.57938L10.8639 3.15372L13.9384 4.74154C13.8801 4.77511 13.8404 4.79997 13.7985 4.8209C11.7412 5.84224 9.68337 6.86226 7.62493 7.88098C7.59084 7.89745 7.55377 7.90704 7.51589 7.90922C7.47801 7.91139 7.44007 7.90609 7.40429 7.89362C5.31555 6.86299 3.22828 5.82886 1.14248 4.79125C1.12351 4.78209 1.10585 4.77032 1.06084 4.74328L4.15644 3.14325L3.81621 2.57764ZM7.63596 10.7374C7.59741 10.7612 7.55306 10.7742 7.50761 10.7752C7.46217 10.7761 7.41732 10.7648 7.37781 10.7426C5.30613 9.71083 3.23387 8.68223 1.16102 7.65682C1.13277 7.64243 1.10585 7.62586 1.05776 7.59882L1.78675 7.22204C2.19538 7.01053 2.60622 6.80208 3.0122 6.5849C3.05312 6.55998 3.10026 6.54678 3.14833 6.54678C3.19641 6.54678 3.24354 6.55998 3.28447 6.5849C4.6039 7.24297 5.92643 7.89319 7.24454 8.55605C7.32229 8.60041 7.41049 8.62376 7.50026 8.62376C7.59004 8.62376 7.67824 8.60041 7.75599 8.55605C9.06969 7.89798 10.3878 7.24777 11.7019 6.59363C11.7475 6.56628 11.7999 6.552 11.8532 6.55238C11.9065 6.55277 11.9586 6.5678 12.0038 6.59581C12.6 6.91067 13.2001 7.21768 13.7985 7.52818C13.8426 7.54998 13.8823 7.57571 13.9401 7.60885C13.5055 7.8269 13.0893 8.03317 12.6732 8.23944C10.9931 9.07064 9.31342 9.90329 7.63419 10.7374H7.63596Z" fill="#343A40"/>
<path d="M11.3545 3.40909L7.50082 1.48068L3.86774 3.28655L3.57031 2.70218L7.5017 0.748047L11.6537 2.8256L11.3545 3.40909Z" fill="#343A40"/>
</svg>
