<svg width="15" height="15" viewBox="0 0 15 15" fill="#fff" xmlns="http://www.w3.org/2000/svg">
<path d="M8.63714 13.75H6.36214C6.06847 13.75 5.81437 13.5456 5.75152 13.2588L5.49714 12.0813C5.1578 11.9326 4.83603 11.7466 4.53777 11.5269L3.38964 11.8925C3.10964 11.9818 2.80526 11.8639 2.65839 11.6094L1.51839 9.64C1.37314 9.38532 1.42318 9.06405 1.63902 8.86563L2.52964 8.05313C2.48914 7.68507 2.48914 7.31368 2.52964 6.94562L1.63902 6.135C1.42286 5.93648 1.3728 5.61483 1.51839 5.36L2.65589 3.38937C2.80276 3.13481 3.10714 3.01696 3.38714 3.10625L4.53527 3.47187C4.68781 3.35885 4.8466 3.25452 5.01089 3.15938C5.16861 3.07043 5.33092 2.9899 5.49714 2.91812L5.75214 1.74187C5.81469 1.45498 6.06851 1.25031 6.36214 1.25H8.63714C8.93078 1.25031 9.1846 1.45498 9.24714 1.74187L9.50464 2.91875C9.68014 2.99595 9.85104 3.08317 10.0165 3.18C10.1709 3.26926 10.32 3.36712 10.4634 3.47312L11.6121 3.1075C11.892 3.01854 12.196 3.13635 12.3428 3.39062L13.4803 5.36125C13.6255 5.61593 13.5755 5.9372 13.3596 6.13562L12.469 6.94812C12.5095 7.31618 12.5095 7.68757 12.469 8.05562L13.3596 8.86812C13.5755 9.06655 13.6255 9.38782 13.4803 9.6425L12.3428 11.6131C12.196 11.8674 11.892 11.9852 11.6121 11.8962L10.4634 11.5306C10.318 11.6377 10.167 11.7368 10.0109 11.8275C9.84703 11.9224 9.67802 12.0082 9.50464 12.0844L9.24714 13.2588C9.18435 13.5454 8.93059 13.7498 8.63714 13.75ZM4.76214 10.1431L5.27464 10.5181C5.39018 10.6032 5.51059 10.6815 5.63527 10.7525C5.75258 10.8204 5.87337 10.8822 5.99714 10.9375L6.58027 11.1931L6.86589 12.5H8.13464L8.42027 11.1925L9.00339 10.9369C9.25796 10.8246 9.49958 10.685 9.72402 10.5206L10.2371 10.1456L11.5128 10.5519L12.1471 9.45312L11.1578 8.55125L11.2278 7.91875C11.2585 7.6421 11.2585 7.3629 11.2278 7.08625L11.1578 6.45375L12.1478 5.55L11.5128 4.45062L10.2371 4.85687L9.72402 4.48187C9.49951 4.31669 9.25792 4.1761 9.00339 4.0625L8.42027 3.80687L8.13464 2.5H6.86589L6.57902 3.8075L5.99714 4.0625C5.87327 4.1169 5.75247 4.17804 5.63527 4.24563C5.51135 4.31646 5.39158 4.39429 5.27652 4.47875L4.76339 4.85375L3.48839 4.4475L2.85277 5.55L3.84214 6.45062L3.77214 7.08375C3.7414 7.3604 3.7414 7.6396 3.77214 7.91625L3.84214 8.54875L2.85277 9.45063L3.48714 10.5494L4.76214 10.1431ZM7.49714 10C6.11643 10 4.99714 8.88071 4.99714 7.5C4.99714 6.11929 6.11643 5 7.49714 5C8.87786 5 9.99714 6.11929 9.99714 7.5C9.99542 8.88 8.87714 9.99828 7.49714 10ZM7.49714 6.25C6.81427 6.25069 6.25832 6.79928 6.24854 7.48209C6.23875 8.1649 6.77875 8.72919 7.46132 8.74945C8.1439 8.76971 8.71641 8.23844 8.74714 7.55625V7.80625V7.5C8.74714 6.80964 8.1875 6.25 7.49714 6.25Z" fill="#fff"/>
</svg>
