<svg width="17" height="16" viewBox="0 0 17 16" fill="none" xmlns="http://www.w3.org/2000/svg">
<path d="M0.499296 7.49919C0.528701 7.49919 0.532512 7.48067 0.533057 7.45698C0.534146 7.37857 0.535961 7.29998 0.538502 7.2212C0.537676 7.18347 0.544148 7.14594 0.557561 7.11066C0.564696 7.086 0.567821 7.06036 0.566817 7.0347C0.56954 6.99713 0.569269 6.95929 0.57308 6.92171C0.576819 6.90315 0.5821 6.88494 0.58887 6.86726C0.592727 6.85447 0.595371 6.84134 0.596767 6.82805C0.598945 6.79348 0.596767 6.75835 0.601395 6.72378C0.605302 6.70193 0.610669 6.68038 0.61746 6.65925C0.622336 6.64207 0.626154 6.62462 0.628894 6.60698C0.634612 6.56123 0.628894 6.51495 0.656121 6.47084C0.667011 6.45206 0.661838 6.42374 0.664288 6.39978C0.666739 6.37582 0.664289 6.34996 0.683892 6.32818C0.693421 6.31837 0.690425 6.29687 0.692876 6.28053C0.698321 6.24405 0.695054 6.20675 0.720102 6.17162C0.731537 6.15583 0.725547 6.12779 0.72827 6.10546C0.730992 6.08314 0.72827 6.06816 0.745968 6.05101C0.755769 6.04257 0.754408 6.02052 0.756586 6.00445C0.760398 5.97723 0.756586 5.94782 0.781362 5.92468C0.789257 5.91706 0.787896 5.89936 0.789529 5.88602C0.793341 5.85689 0.785991 5.82449 0.814579 5.8027C0.807228 5.7507 0.848883 5.71204 0.852422 5.66276C0.854056 5.64234 0.852423 5.62002 0.873387 5.6064C0.874612 5.60547 0.875614 5.60428 0.87632 5.60292C0.877027 5.60155 0.877421 5.60004 0.877472 5.59851C0.872843 5.54405 0.913411 5.50458 0.916951 5.45366C0.916594 5.44482 0.919178 5.4361 0.924301 5.42889C0.931612 5.42127 0.93731 5.41226 0.941053 5.40238C0.944796 5.39251 0.946505 5.38199 0.946081 5.37144C0.945141 5.36322 0.94624 5.3549 0.949279 5.34721C0.952318 5.33951 0.957204 5.33269 0.963507 5.32733C0.970224 5.31977 0.974245 5.31019 0.974941 5.3001C0.978753 5.27533 0.97712 5.24946 1.00217 5.23122C1.00843 5.22659 1.00761 5.21162 1.00925 5.20127C1.01251 5.18112 1.00734 5.15798 1.03293 5.14682C1.03647 5.14519 1.03675 5.13593 1.03784 5.12994C1.04083 5.10979 1.04001 5.08937 1.06098 5.07549C1.06942 5.06922 1.06915 5.05071 1.07214 5.03737C1.07514 5.02403 1.07078 5.00034 1.09365 4.9919C1.09719 4.99054 1.09964 4.98155 1.09991 4.97611C1.10262 4.95455 1.11057 4.93399 1.12305 4.91621C1.14024 4.8811 1.15462 4.84468 1.16607 4.80731C1.1716 4.79598 1.17778 4.78498 1.18459 4.77436C1.18879 4.76659 1.19234 4.75849 1.1952 4.75013C1.20038 4.73379 1.19738 4.71337 1.21835 4.70493C1.21965 4.7041 1.22075 4.70298 1.22155 4.70166C1.22235 4.70034 1.22284 4.69885 1.22298 4.69731C1.21944 4.65729 1.25619 4.63224 1.26164 4.59439C1.26818 4.57196 1.27829 4.55072 1.29159 4.5315C1.30847 4.4991 1.32589 4.46697 1.34332 4.43458C1.34522 4.43104 1.35148 4.4275 1.35121 4.4245C1.34577 4.38666 1.38525 4.36787 1.38824 4.33302C1.39015 4.31233 1.42173 4.30579 1.41819 4.28047C1.45004 4.26332 1.44896 4.22602 1.46611 4.19879C1.48811 4.17179 1.50391 4.14028 1.51239 4.1065C1.5143 4.09179 1.53036 4.07927 1.53962 4.06484C1.54888 4.05041 1.54561 4.03435 1.56331 4.024C1.57716 4.01402 1.58686 3.99929 1.59053 3.98262C1.59843 3.94749 1.63382 3.92816 1.63736 3.89086C1.63954 3.86881 1.67276 3.86663 1.66704 3.84077C1.69781 3.82661 1.69236 3.78631 1.71986 3.76726C1.74028 3.75255 1.74409 3.71743 1.76179 3.69701C1.79337 3.66053 1.80072 3.60825 1.84347 3.57939C1.84777 3.57529 1.85071 3.56997 1.85191 3.56415C1.86072 3.53292 1.87993 3.50564 1.90636 3.48682C1.90982 3.48416 1.91231 3.48043 1.91344 3.4762C1.92079 3.44054 1.94747 3.41957 1.97089 3.39452C1.9867 3.37338 2.00012 3.35055 2.01091 3.32646C2.01497 3.31926 2.02001 3.31266 2.02588 3.30686C2.03379 3.29919 2.03862 3.2889 2.03947 3.27792C2.04032 3.26694 2.03714 3.25603 2.03051 3.24723C2.00339 3.22566 1.98477 3.19518 1.97797 3.16119C1.94339 3.14214 1.95537 3.09531 1.92542 3.07271C1.91888 3.06781 1.91861 3.05338 1.91725 3.04303C1.9174 3.03331 1.91557 3.02367 1.91187 3.01468C1.90818 3.00569 1.90269 2.99755 1.89574 2.99076C1.88648 2.98286 1.88648 2.96353 1.88376 2.9491C1.87968 2.9295 1.88376 2.90799 1.8628 2.89301C1.85517 2.88784 1.85626 2.86769 1.85517 2.85435C1.85514 2.80809 1.84769 2.76213 1.83312 2.71822C1.82493 2.68753 1.82253 2.65558 1.82604 2.62402C1.82604 2.58481 1.82604 2.5456 1.82822 2.5064C1.82703 2.49585 1.82853 2.48517 1.83258 2.47536C1.85653 2.4416 1.85055 2.40321 1.85381 2.36645C1.85599 2.34168 1.84973 2.31418 1.87532 2.29648C1.8804 2.25162 1.89291 2.20791 1.91235 2.16716C1.91943 2.14891 1.91235 2.12523 1.93713 2.11434C1.94121 2.1127 1.94121 2.10072 1.94284 2.09364C1.94611 2.07813 1.94284 2.05934 1.9649 2.05362C1.96689 2.0526 1.96858 2.05109 1.96982 2.04924C1.97106 2.04738 1.9718 2.04523 1.97198 2.043C1.97198 2.01578 1.99376 1.99808 2.00601 1.9763C2.01826 1.95452 2.02561 1.9262 2.04385 1.91204C2.07344 1.88557 2.09935 1.85527 2.1209 1.82192C2.14629 1.78762 2.17614 1.75685 2.20966 1.73044C2.24506 1.70322 2.27691 1.673 2.31258 1.64659C2.34389 1.62344 2.37765 1.6052 2.40787 1.5826C2.42429 1.56911 2.44371 1.55977 2.4645 1.55538C2.47784 1.51726 2.53039 1.53877 2.54618 1.50283C2.54669 1.50224 2.54731 1.50176 2.54802 1.50143C2.54872 1.50111 2.54949 1.50093 2.55027 1.50092C2.58842 1.49687 2.62541 1.4854 2.65917 1.46716C2.6864 1.456 2.7188 1.46553 2.74085 1.43858C2.74575 1.43259 2.761 1.43449 2.77134 1.43395L2.86664 1.43068C2.88596 1.4324 2.90526 1.42719 2.92109 1.41598C2.93013 1.41068 2.94059 1.4083 2.95104 1.40917C2.98752 1.40917 3.02373 1.40699 3.05994 1.40917C3.07587 1.41165 3.09148 1.41585 3.1065 1.4217C3.11772 1.4256 3.1293 1.42834 3.14108 1.42986C3.1743 1.43204 3.20751 1.43259 3.24073 1.43368C3.26326 1.43145 3.28576 1.4382 3.30335 1.45246C3.31451 1.46281 3.33738 1.46117 3.35508 1.46444C3.37278 1.46771 3.40137 1.46444 3.41471 1.48867C3.41547 1.48995 3.41655 1.49102 3.41783 1.49178C3.41911 1.49254 3.42057 1.49297 3.42206 1.49303C3.4629 1.48404 3.48931 1.51835 3.52361 1.52951C3.55369 1.53885 3.5815 1.55434 3.60529 1.57498C3.60938 1.57879 3.614 1.58424 3.6189 1.58478C3.65675 1.58859 3.67608 1.62072 3.70439 1.63923C3.72857 1.65193 3.75115 1.66747 3.77164 1.68552C3.79669 1.71111 3.82474 1.73398 3.85006 1.75903C3.86476 1.77346 3.87483 1.79252 3.89035 1.80586C3.92964 1.83422 3.96013 1.87311 3.97829 1.91803C3.98401 1.936 4.01587 1.93083 4.00906 1.9567C4.04227 1.97167 4.02893 2.01823 4.06188 2.03429C4.06732 2.03701 4.06651 2.05117 4.07032 2.05907C4.07413 2.06696 4.08311 2.08085 4.0891 2.09201C4.09353 2.09939 4.09709 2.10724 4.09972 2.11543C4.10381 2.13258 4.10163 2.15136 4.12069 2.1628C4.12668 2.16634 4.12804 2.17859 4.12967 2.18758C4.13403 2.21208 4.1324 2.23767 4.1569 2.25673C4.1648 2.26299 4.16262 2.28205 4.16452 2.29566C4.16833 2.32452 4.1618 2.35611 4.18766 2.38007C4.19365 2.38578 4.19229 2.40021 4.19229 2.41056C4.19229 2.53907 4.19229 2.66758 4.19229 2.79581C4.19229 2.81079 4.18059 2.82522 4.1765 2.84047C4.17201 2.85755 4.16873 2.87492 4.1667 2.89247C4.16343 2.9197 4.1667 2.94692 4.14138 2.96652C4.14023 2.96755 4.13938 2.96887 4.13893 2.97034C4.13268 3.00375 4.12148 3.03605 4.10571 3.06617C4.09902 3.08842 4.08902 3.10953 4.07604 3.12879C4.06324 3.14567 4.06596 3.17072 4.045 3.18924C4.02403 3.20775 4.02022 3.23716 4.00634 3.26057C4.00007 3.27119 3.98673 3.27718 3.97911 3.2878C3.95843 3.3252 3.93427 3.36057 3.90696 3.39344C3.8638 3.43796 3.81836 3.48022 3.77083 3.52004C3.75026 3.53513 3.7285 3.54851 3.70576 3.56006C3.69051 3.56823 3.6935 3.59709 3.66791 3.59192C3.65158 3.6235 3.60584 3.61234 3.59004 3.64637C3.59004 3.64936 3.58215 3.64964 3.57779 3.65154C3.56091 3.65835 3.53723 3.65318 3.53069 3.67877C3.49148 3.67686 3.46616 3.71226 3.42914 3.71716C3.41873 3.71683 3.40837 3.71868 3.39872 3.72257C3.38907 3.72646 3.38032 3.73231 3.37305 3.73976C3.36488 3.74901 3.34228 3.74575 3.32595 3.74847C3.30035 3.75255 3.27149 3.74384 3.2508 3.76998C3.24508 3.77706 3.2282 3.77597 3.21622 3.77678C3.08026 3.78647 2.94379 3.78647 2.80783 3.77678C2.79083 3.77304 2.77423 3.76766 2.75827 3.76072C2.7413 3.75605 2.72401 3.75259 2.70655 3.75037C2.68554 3.75189 2.6648 3.74504 2.64883 3.73132C2.64011 3.72206 2.6216 3.72342 2.60662 3.71934C2.5903 3.71791 2.57503 3.71066 2.56361 3.69892C2.55517 3.68857 2.53175 3.6902 2.51623 3.68666C2.50039 3.72268 2.47919 3.7561 2.45334 3.78577C2.43237 3.80388 2.41698 3.82758 2.40896 3.85411C2.40362 3.8747 2.39068 3.8925 2.37275 3.90393C2.35532 3.91482 2.35505 3.93116 2.34716 3.94341C2.33416 3.96481 2.32007 3.98553 2.30496 4.00549C2.30087 4.01148 2.29325 4.01638 2.29161 4.02264C2.28345 4.05613 2.25704 4.07709 2.23907 4.10432C2.2358 4.10922 2.23253 4.11439 2.22954 4.11957C2.20334 4.1699 2.17387 4.21847 2.14132 4.26495C2.12333 4.294 2.10802 4.32462 2.09558 4.35644C2.08605 4.37522 2.06836 4.38747 2.06237 4.41089C2.05638 4.4343 2.02942 4.45663 2.02071 4.48249C2.00928 4.51598 1.97796 4.53695 1.97443 4.57479C1.97443 4.58133 1.96953 4.59167 1.96462 4.59331C1.94611 4.59957 1.94584 4.61563 1.94284 4.62952C1.93985 4.6434 1.94121 4.65674 1.92242 4.66001C1.9197 4.66001 1.91671 4.66682 1.91616 4.6709C1.91208 4.69404 1.91262 4.71909 1.88594 4.7308C1.88812 4.76837 1.85517 4.79151 1.84646 4.82609C1.8372 4.85504 1.82391 4.88253 1.80698 4.90777C1.79731 4.92204 1.79022 4.93789 1.78602 4.9546C1.78263 4.96594 1.77807 4.97689 1.77241 4.98727C1.76696 4.99925 1.76124 5.01096 1.75634 5.02321C1.75144 5.03546 1.75226 5.05616 1.73374 5.06514C1.72912 5.06732 1.72694 5.07766 1.72585 5.08474C1.72231 5.10353 1.72367 5.1234 1.70189 5.1343C1.69753 5.13647 1.69672 5.14791 1.6959 5.15526C1.69484 5.17333 1.68753 5.19046 1.67521 5.20372C1.66822 5.215 1.66368 5.22761 1.66187 5.24075C1.65724 5.25709 1.66432 5.27887 1.64009 5.28567C1.63872 5.28567 1.63763 5.28785 1.63736 5.28894C1.6332 5.32571 1.62083 5.36107 1.60115 5.3924C1.5908 5.40928 1.59788 5.43596 1.57392 5.44931C1.56984 5.45148 1.57066 5.46319 1.56957 5.47081C1.5663 5.49532 1.56957 5.52146 1.54506 5.53997C1.53771 5.54514 1.53853 5.5623 1.53635 5.574C1.53254 5.59415 1.53635 5.61702 1.51375 5.63009C1.50994 5.63227 1.50885 5.64044 1.50776 5.64615C1.50259 5.67338 1.50967 5.70741 1.48054 5.72783C1.4868 5.78229 1.44052 5.8234 1.44242 5.87703C1.44306 5.88445 1.442 5.89191 1.43931 5.89885C1.43662 5.90578 1.43237 5.91201 1.4269 5.91706C1.41683 5.92659 1.41683 5.94755 1.41465 5.96361C1.41451 5.98921 1.40642 6.01414 1.39151 6.03495C1.38198 6.04557 1.38334 6.06598 1.38089 6.08205C1.37681 6.10927 1.38252 6.13786 1.35747 6.16128C1.34822 6.16999 1.35203 6.19286 1.35067 6.20947C1.35132 6.23519 1.34379 6.26045 1.32916 6.28162C1.3226 6.29337 1.31905 6.30655 1.31881 6.32001C1.31391 6.35459 1.32235 6.39134 1.29404 6.42183C1.28587 6.43055 1.28995 6.45097 1.28886 6.46594C1.2856 6.50161 1.28886 6.537 1.2649 6.56995C1.25725 6.5896 1.25427 6.61075 1.25619 6.63175C1.2532 6.67041 1.25619 6.71016 1.2325 6.74501C1.22784 6.7561 1.22588 6.76814 1.22679 6.78013C1.22488 6.81199 1.22434 6.84357 1.22243 6.87516C1.22308 6.88725 1.22104 6.89934 1.21644 6.91055C1.19466 6.94622 1.19738 6.98569 1.19493 7.02436C1.19112 7.07881 1.19493 7.13326 1.1707 7.18418C1.16564 7.19999 1.16361 7.21662 1.16471 7.23318C1.16226 7.31187 1.16063 7.39028 1.15845 7.46896C1.15968 7.484 1.15774 7.49912 1.15273 7.51334C1.13845 7.54508 1.13255 7.57995 1.13558 7.61463C1.13558 7.88054 1.13558 8.14654 1.13558 8.41263C1.13832 8.43625 1.14315 8.45957 1.15001 8.48233C1.15367 8.49837 1.15613 8.51466 1.15736 8.53107C1.15981 8.60975 1.16035 8.68844 1.16417 8.76685C1.16756 8.79192 1.17293 8.81668 1.18023 8.84091C1.18418 8.85538 1.18709 8.87012 1.18894 8.88501C1.19194 8.92721 1.19221 8.96969 1.19629 9.01162C1.20038 9.03499 1.20592 9.05809 1.2129 9.08077C1.2169 9.09514 1.21981 9.1098 1.22161 9.12461C1.22407 9.15755 1.22461 9.19104 1.22652 9.22425C1.22595 9.23628 1.22838 9.24825 1.23359 9.2591C1.24842 9.28539 1.25567 9.31526 1.25456 9.34541C1.2534 9.38314 1.26164 9.42056 1.27852 9.45432C1.28968 9.4731 1.28342 9.50169 1.28777 9.52511C1.29213 9.54852 1.30003 9.56785 1.30574 9.58909C1.31036 9.6046 1.31382 9.62044 1.31609 9.63646C1.31518 9.66946 1.32368 9.70204 1.34059 9.73039C1.3523 9.74646 1.3474 9.77423 1.35067 9.79655C1.35394 9.81888 1.34876 9.83685 1.36973 9.85373C1.37925 9.86135 1.37735 9.8845 1.37898 9.90083C1.37802 9.91286 1.37948 9.92496 1.38326 9.93641C1.38705 9.94787 1.39309 9.95845 1.40104 9.96754C1.40346 9.96941 1.40526 9.97197 1.40621 9.97489C1.41002 10.0021 1.40621 10.0334 1.41928 10.0541C1.43345 10.0745 1.44157 10.0985 1.44269 10.1233C1.4416 10.1461 1.44854 10.1685 1.4623 10.1867C1.46958 10.1997 1.47394 10.2141 1.47509 10.2289C1.47945 10.2488 1.47509 10.2722 1.49796 10.2834C1.49923 10.2841 1.50028 10.2852 1.50104 10.2865C1.5018 10.2878 1.50224 10.2892 1.50232 10.2907C1.49497 10.34 1.53799 10.3757 1.53771 10.4228C1.53771 10.4228 1.53771 10.426 1.53771 10.4271C1.56494 10.4628 1.55977 10.5118 1.58754 10.5477C1.59292 10.5568 1.59609 10.5669 1.59679 10.5774C1.60033 10.5978 1.59679 10.6207 1.62239 10.6319C1.62358 10.6327 1.62445 10.634 1.62484 10.6354C1.62804 10.6707 1.63941 10.7049 1.65805 10.7351C1.66922 10.7508 1.66132 10.7781 1.68528 10.7925C1.69182 10.7963 1.69236 10.8118 1.69372 10.8222C1.69644 10.8415 1.69644 10.8608 1.7155 10.8742C1.72122 10.878 1.72176 10.89 1.72367 10.8987C1.72721 10.9145 1.72639 10.9316 1.74518 10.9403C1.75008 10.9425 1.75226 10.9529 1.75416 10.9599C1.75907 10.9779 1.75661 11 1.78139 11.0081C1.78202 11.0085 1.78256 11.009 1.78298 11.0096C1.7834 11.0103 1.78369 11.0109 1.78384 11.0117C1.77894 11.0503 1.81733 11.0727 1.82005 11.1086C1.82218 11.117 1.82607 11.1249 1.83149 11.1317C1.83808 11.14 1.84349 11.1492 1.84755 11.159C1.85136 11.1836 1.86128 11.2069 1.87641 11.2268C1.88921 11.2434 1.88975 11.2714 1.91072 11.2864C1.91807 11.3422 1.96816 11.3787 1.97851 11.4331C2.01118 11.4517 2.00737 11.4919 2.02724 11.5197C2.04712 11.5475 2.07271 11.5742 2.07271 11.6109C2.10212 11.6275 2.09994 11.6635 2.11982 11.6866C2.13655 11.7095 2.1513 11.7337 2.16392 11.759C2.16877 11.7676 2.17404 11.7758 2.17971 11.7838C2.18325 11.7884 2.19115 11.7914 2.19169 11.7958C2.19714 11.8353 2.23417 11.8573 2.24615 11.8892C2.2652 11.9374 2.31203 11.967 2.32238 12.0188C2.34961 12.0332 2.35233 12.0634 2.36676 12.0858C2.39399 12.1269 2.43265 12.1585 2.44844 12.2064C2.45252 12.2186 2.46586 12.2282 2.47567 12.238C2.5097 12.2714 2.51895 12.3229 2.56116 12.3512C2.57432 12.3625 2.58381 12.3775 2.58838 12.3942C2.60254 12.4383 2.64039 12.4653 2.66788 12.498C2.68912 12.5233 2.7011 12.5543 2.72424 12.5796C2.73649 12.5924 2.76345 12.5982 2.76018 12.6246C2.80374 12.6474 2.81464 12.6981 2.8484 12.7299C2.87835 12.7572 2.90285 12.7904 2.93307 12.8195C2.96329 12.8486 2.98344 12.8843 3.00985 12.9162C3.03626 12.948 3.05995 12.9739 3.08608 13.0017C3.10107 13.0139 3.11526 13.0271 3.12856 13.0411C3.15279 13.0754 3.18764 13.0989 3.21432 13.1302C3.23566 13.1556 3.25897 13.1794 3.28402 13.2012C3.30036 13.2154 3.30961 13.2385 3.32704 13.2505C3.36735 13.2817 3.40488 13.3163 3.43921 13.354C3.47628 13.3871 3.51121 13.4226 3.54376 13.4601C3.56198 13.4738 3.58194 13.485 3.60311 13.4934C3.63823 13.519 3.66737 13.5522 3.70058 13.5791C3.74496 13.6153 3.78226 13.6608 3.83236 13.6908C3.86696 13.7093 3.89707 13.7353 3.92057 13.7667C3.93566 13.7832 3.95428 13.796 3.97503 13.8043C4.00035 13.8182 4.01886 13.841 4.04173 13.8563C4.06181 13.8741 4.0828 13.8908 4.10462 13.9064C4.12953 13.9171 4.15176 13.9332 4.1697 13.9535C4.18879 13.9708 4.21047 13.9851 4.23395 13.9957C4.2527 14.0045 4.2699 14.0162 4.28486 14.0305C4.30746 14.0594 4.34531 14.0643 4.36818 14.0899C4.40112 14.1261 4.45612 14.1318 4.48389 14.1751C4.48634 14.1789 4.49424 14.18 4.50023 14.1814C4.52972 14.1914 4.55616 14.2089 4.577 14.232C4.58299 14.2364 4.5896 14.2399 4.59661 14.2424C4.62473 14.2548 4.6503 14.2723 4.67202 14.2941C4.67931 14.2992 4.68742 14.3029 4.69598 14.3053C4.70932 14.3104 4.72729 14.3088 4.73083 14.3287C4.73134 14.33 4.73214 14.3312 4.73317 14.3322C4.73421 14.3332 4.73546 14.3339 4.73682 14.3344C4.79128 14.3407 4.82531 14.3888 4.87622 14.4033C4.88902 14.4403 4.94238 14.4204 4.95382 14.4591C4.98295 14.4713 5.01154 14.4847 5.04121 14.495C5.06626 14.504 5.0796 14.5348 5.11064 14.5318C5.13133 14.5642 5.17517 14.5533 5.20131 14.5821C5.21982 14.6028 5.26284 14.6015 5.28299 14.6219C5.31239 14.6543 5.36221 14.6404 5.38672 14.6764C5.38971 14.681 5.40088 14.6796 5.40795 14.6815C5.4232 14.6853 5.44199 14.6815 5.44907 14.7025C5.4507 14.7066 5.46159 14.7088 5.46867 14.7101C5.48718 14.7137 5.5076 14.7101 5.51822 14.7343C5.52067 14.7398 5.53401 14.7409 5.54245 14.7436C5.55607 14.7474 5.57404 14.7436 5.57894 14.7635C5.57894 14.767 5.58847 14.7703 5.59391 14.7708C5.61651 14.7733 5.6353 14.7896 5.65381 14.7937C5.6971 14.8032 5.73086 14.8359 5.77578 14.8378C5.78323 14.8375 5.79056 14.8398 5.79648 14.8443C5.81281 14.8639 5.83677 14.8623 5.85692 14.8716C5.8915 14.8863 5.92607 14.8988 5.96147 14.9108C5.98099 14.9203 6.00142 14.9279 6.02246 14.9334C6.03194 14.9364 6.04106 14.9404 6.04968 14.9454C6.06412 14.9527 6.07939 14.9583 6.09515 14.962C6.12047 14.9658 6.14606 14.9647 6.16539 14.9867C6.1703 14.9922 6.18228 14.9914 6.19126 14.9927C6.20896 14.9952 6.22802 14.9927 6.23972 15.0118C6.24155 15.0143 6.24429 15.0159 6.24735 15.0164C6.29799 15.0194 6.33937 15.0553 6.39083 15.0562C6.40201 15.0551 6.41329 15.0563 6.42397 15.0598C6.43465 15.0632 6.4445 15.0689 6.45291 15.0763C6.46407 15.0869 6.48667 15.0858 6.50464 15.088C6.52724 15.0885 6.54921 15.0956 6.5678 15.1084C6.58231 15.1157 6.5984 15.1193 6.61463 15.1188C6.63544 15.1181 6.65581 15.1248 6.67208 15.1378C6.68433 15.149 6.70884 15.1476 6.72653 15.1506C6.75338 15.1501 6.77975 15.1577 6.80222 15.1724C6.81584 15.1836 6.84252 15.18 6.86321 15.1817C6.89025 15.1791 6.9173 15.1865 6.93917 15.2026C6.94843 15.2111 6.96776 15.21 6.98273 15.2114C7.02003 15.2146 7.05761 15.2135 7.09164 15.2361C7.10406 15.2416 7.1176 15.2439 7.13112 15.2429C7.15998 15.2446 7.18884 15.2429 7.21715 15.247C7.23265 15.2507 7.24778 15.2558 7.26235 15.2623C7.27321 15.2666 7.28454 15.2697 7.29611 15.2715C7.3217 15.274 7.34784 15.2715 7.37316 15.2764C7.39848 15.2813 7.42761 15.2895 7.45484 15.2955C7.47392 15.3 7.4933 15.3032 7.51283 15.305C7.55204 15.3075 7.59124 15.3075 7.63072 15.3096C7.65638 15.3063 7.68232 15.3133 7.70287 15.329C7.7105 15.3363 7.72874 15.3344 7.74208 15.3347C7.80416 15.3366 7.86596 15.3374 7.92804 15.339C7.97031 15.3385 8.0124 15.3446 8.05273 15.3573C8.08204 15.3649 8.1124 15.3676 8.14258 15.3652C8.3377 15.3665 8.53283 15.3674 8.72795 15.3679C8.77315 15.3679 8.81861 15.3679 8.86408 15.3655C8.90794 15.3678 8.95184 15.3614 8.99314 15.3464C9.01184 15.3404 9.03154 15.3381 9.05113 15.3396C9.12845 15.3374 9.2055 15.3371 9.28255 15.3341C9.29976 15.3312 9.31663 15.3265 9.33292 15.3203C9.34555 15.3159 9.3586 15.3128 9.37186 15.311C9.40807 15.3086 9.44428 15.308 9.48076 15.3066C9.51985 15.3069 9.55867 15.3002 9.59538 15.2868C9.63027 15.2775 9.66629 15.2732 9.70238 15.274C9.72961 15.2718 9.75929 15.274 9.78406 15.2541C9.79488 15.2488 9.80688 15.2463 9.81891 15.247C9.84614 15.2451 9.87337 15.2448 9.90059 15.2432C9.91982 15.2428 9.93861 15.2374 9.95505 15.2274C9.97688 15.2179 10.0004 15.2128 10.0242 15.2124C10.0533 15.2081 10.0833 15.2124 10.1094 15.189C10.12 15.1792 10.144 15.1844 10.162 15.1819C10.1892 15.1784 10.2178 15.1858 10.242 15.161C10.2521 15.1506 10.2763 15.1545 10.2943 15.1515C10.3185 15.1474 10.3441 15.1515 10.364 15.1272C10.3716 15.118 10.395 15.1215 10.4114 15.1191C10.4386 15.115 10.4688 15.125 10.4892 15.0956C10.493 15.0902 10.5061 15.0905 10.5151 15.0897C10.5454 15.091 10.5753 15.0822 10.6 15.0646C10.6079 15.0578 10.6226 15.0586 10.6346 15.0567C10.6586 15.0524 10.6869 15.0605 10.7032 15.0319C10.7057 15.0278 10.7174 15.0284 10.7247 15.0276C10.752 15.024 10.7792 15.0257 10.7988 15.0003C10.8037 14.9941 10.8184 14.9949 10.8287 14.9933C10.8519 14.9903 10.8775 14.9949 10.8933 14.9696C10.8965 14.9644 10.9099 14.9652 10.9189 14.9641C10.9436 14.9609 10.97 14.9641 10.9875 14.9385C10.9918 14.932 11.0071 14.9331 11.0174 14.9306C11.0278 14.9282 11.0406 14.9282 11.0466 14.9219C11.0549 14.9142 11.0646 14.9082 11.0753 14.9043C11.086 14.9004 11.0973 14.8987 11.1086 14.8993C11.1214 14.8993 11.1359 14.9007 11.1427 14.8835C11.1454 14.8776 11.1574 14.8746 11.1658 14.8721C11.1911 14.8653 11.2203 14.8675 11.238 14.8413C11.2412 14.8364 11.2548 14.8381 11.2638 14.837C11.2861 14.8348 11.309 14.837 11.3259 14.8163C11.3311 14.81 11.3452 14.8092 11.3553 14.8089C11.3855 14.8089 11.4157 14.8089 11.446 14.8089C11.4604 14.8089 11.477 14.8076 11.4846 14.8258C11.4857 14.8277 11.4872 14.8294 11.4891 14.8306C11.4909 14.8318 11.4931 14.8325 11.4952 14.8326C11.5339 14.8261 11.5554 14.8599 11.5865 14.8716C11.6031 14.8784 11.6177 14.8894 11.6287 14.9037C11.6445 14.926 11.6587 14.9494 11.6714 14.9737C11.6736 14.9772 11.6714 14.9848 11.6741 14.9865C11.7109 15.0099 11.6992 15.0475 11.7014 15.0801C11.7035 15.1178 11.7035 15.1557 11.7014 15.1934C11.7014 15.2127 11.7068 15.2369 11.6793 15.2478C11.6766 15.2478 11.6749 15.2555 11.6747 15.2598C11.6717 15.2979 11.636 15.3143 11.6202 15.3415C11.6066 15.3633 11.5794 15.3652 11.5715 15.3886C11.5715 15.391 11.5679 15.3951 11.566 15.3951C11.5315 15.3951 11.5083 15.4224 11.4776 15.4316C11.4552 15.4376 11.4285 15.4316 11.4149 15.4588C11.4133 15.4624 11.404 15.4621 11.398 15.4629C11.3877 15.4626 11.3773 15.4643 11.3676 15.4679C11.3579 15.4716 11.349 15.4771 11.3414 15.4842C11.3338 15.4926 11.3161 15.4912 11.303 15.4948C11.29 15.4983 11.269 15.4964 11.2606 15.5155C11.2599 15.5168 11.2589 15.518 11.2578 15.5189C11.2566 15.5199 11.2552 15.5206 11.2537 15.5209C11.2072 15.5166 11.1721 15.5509 11.1291 15.5582C11.111 15.5633 11.0934 15.5701 11.0765 15.5784C11.0671 15.5827 11.0574 15.586 11.0474 15.5884C11.0218 15.5931 10.9929 15.5852 10.9755 15.6157C10.9273 15.6121 10.8889 15.6429 10.8451 15.653C10.8241 15.6581 10.8026 15.6549 10.7846 15.6753C10.7757 15.6856 10.7506 15.6818 10.7326 15.684C10.7092 15.6867 10.6836 15.6807 10.667 15.7055C10.6643 15.7093 10.6561 15.7099 10.6504 15.7112C10.6175 15.7183 10.5813 15.7134 10.554 15.7415C10.5483 15.7472 10.5336 15.7444 10.5233 15.7458C10.493 15.7493 10.4612 15.7428 10.4348 15.769C10.4255 15.7782 10.4032 15.7747 10.3866 15.7768C10.3531 15.7815 10.3196 15.7788 10.2883 15.8022C10.272 15.8147 10.2415 15.8082 10.2175 15.8109C10.198 15.8096 10.1787 15.8154 10.1631 15.8272C10.1519 15.8376 10.1293 15.8365 10.1116 15.8384C10.0726 15.8388 10.0341 15.8467 9.99806 15.8615C9.97084 15.8746 9.93599 15.8691 9.90441 15.873C9.87282 15.8768 9.84097 15.8672 9.81565 15.895C9.8102 15.901 9.7955 15.8996 9.78515 15.9002L9.69885 15.9043C9.68528 15.9035 9.6717 15.9054 9.65882 15.9097C9.60682 15.9369 9.54992 15.9326 9.49546 15.9353C9.46524 15.9353 9.43502 15.9375 9.4048 15.9394C9.39418 15.9394 9.38057 15.9394 9.37403 15.9448C9.35007 15.9674 9.32094 15.9631 9.29235 15.9636C9.20768 15.9658 9.12301 15.9666 9.03833 15.9688C9.01601 15.9688 8.99096 15.9688 8.98769 16.0009H8.0138C8.01135 15.9677 7.98494 15.9696 7.96316 15.9691C7.88148 15.9663 7.7998 15.9658 7.71812 15.9633C7.68572 15.9633 7.65169 15.9682 7.62337 15.9429C7.61684 15.9372 7.60322 15.9388 7.59261 15.9383C7.56402 15.9369 7.53516 15.9364 7.50657 15.935C7.46001 15.9326 7.41291 15.935 7.37044 15.9108C7.35778 15.906 7.34421 15.9039 7.33069 15.9048C7.30047 15.9029 7.27024 15.9024 7.24002 15.901C7.2294 15.901 7.21552 15.9032 7.20899 15.8977C7.16706 15.8629 7.11669 15.8779 7.07013 15.8705C7.05357 15.871 7.03709 15.8681 7.02167 15.8621C6.98954 15.8395 6.9536 15.8411 6.91766 15.8384C6.90133 15.8384 6.87927 15.8408 6.8692 15.8318C6.8368 15.8027 6.79868 15.8133 6.76247 15.8082C6.74455 15.8081 6.72688 15.804 6.71074 15.7962C6.69027 15.7836 6.6667 15.777 6.64268 15.7771C6.62307 15.7749 6.59693 15.7793 6.5855 15.7684C6.55827 15.7412 6.52724 15.7496 6.49701 15.745C6.48667 15.745 6.47224 15.745 6.46679 15.739C6.4431 15.7131 6.41234 15.7183 6.38266 15.714C6.37232 15.7123 6.35897 15.714 6.35271 15.7066C6.32821 15.6826 6.29826 15.6845 6.26777 15.6824C6.25198 15.6824 6.23401 15.6824 6.22502 15.6639C6.22311 15.66 6.21495 15.6579 6.2095 15.657C6.17765 15.6519 6.14253 15.6571 6.11993 15.6255C6.07555 15.6255 6.03825 15.605 5.99741 15.5928C5.97481 15.586 5.95357 15.5784 5.93206 15.5702C5.89286 15.5552 5.85229 15.543 5.812 15.5296C5.79158 15.5228 5.76653 15.5283 5.75373 15.504C5.7149 15.4966 5.6772 15.4841 5.64156 15.467C5.62416 15.4613 5.60707 15.4547 5.59037 15.4471C5.55689 15.4304 5.52199 15.4166 5.48609 15.406C5.4458 15.3932 5.41204 15.3633 5.36793 15.3625C5.36124 15.3535 5.35245 15.3463 5.34234 15.3416C5.33223 15.3368 5.3211 15.3347 5.30994 15.3352C5.30422 15.3352 5.29496 15.3325 5.29415 15.3292C5.28816 15.3066 5.26856 15.3121 5.25358 15.3072C5.24418 15.304 5.23507 15.3 5.22635 15.2952C5.21546 15.2881 5.20409 15.2817 5.19232 15.2762C5.15802 15.265 5.12725 15.2459 5.0924 15.235C5.07039 15.2277 5.04929 15.2178 5.02951 15.2056C5.01142 15.1912 4.98981 15.1818 4.96689 15.1784C4.96109 15.1771 4.95597 15.1737 4.95246 15.1689C4.93204 15.1417 4.88984 15.1517 4.87296 15.1201C4.83484 15.1201 4.81061 15.0888 4.77766 15.0763C4.74472 15.0638 4.71531 15.0344 4.67774 15.0246C4.67257 15.0246 4.66876 15.0178 4.66386 15.0148C4.65024 15.0072 4.63663 15.0003 4.62247 14.9919C4.60831 14.9835 4.59824 14.9677 4.58544 14.9669C4.54705 14.9644 4.52691 14.9309 4.49369 14.9189C4.46047 14.907 4.43706 14.8713 4.39785 14.8645C4.39377 14.8645 4.38751 14.8604 4.38723 14.8577C4.38424 14.8362 4.36681 14.8394 4.35293 14.8356C4.34598 14.8332 4.33946 14.8297 4.3336 14.8253C4.30419 14.8049 4.28105 14.7744 4.24185 14.7708C4.23888 14.7703 4.23614 14.7688 4.23395 14.7667C4.20836 14.7431 4.18658 14.7123 4.14764 14.7085C4.1434 14.7072 4.13962 14.7048 4.13675 14.7014C4.11472 14.6787 4.08869 14.6602 4.05997 14.6469C4.0534 14.6442 4.04725 14.6406 4.04173 14.6361C4.02485 14.6219 4.01097 14.6001 3.99136 14.5936C3.94399 14.5772 3.91622 14.5334 3.8702 14.516C3.85259 14.5094 3.83675 14.4987 3.82392 14.485C3.80382 14.4569 3.77515 14.4362 3.74224 14.4259C3.74018 14.4252 3.73827 14.4242 3.73663 14.4228C3.73499 14.4214 3.73366 14.4196 3.73271 14.4177C3.72427 14.3948 3.69868 14.3905 3.68397 14.3722C3.66056 14.3423 3.61673 14.3325 3.58841 14.3042C3.5718 14.2881 3.55519 14.272 3.5375 14.2571C3.52049 14.2395 3.5006 14.2249 3.47869 14.214C3.45552 14.2033 3.43506 14.1875 3.41879 14.1678C3.39156 14.1405 3.3627 14.1133 3.33248 14.091C3.28743 14.0578 3.24417 14.0223 3.20288 13.9845C3.1761 13.9611 3.15073 13.9361 3.12692 13.9097C3.11539 13.8955 3.10273 13.8823 3.08908 13.8702C3.05967 13.8443 3.03054 13.8179 3.00222 13.7907C2.97937 13.7642 2.95392 13.74 2.92626 13.7185C2.88854 13.6903 2.85411 13.6578 2.82362 13.6219C2.78169 13.581 2.74194 13.5383 2.70246 13.495C2.67959 13.4702 2.65754 13.4446 2.63276 13.4215C2.60799 13.3983 2.58974 13.3608 2.56088 13.3423C2.54373 13.3311 2.54346 13.3134 2.52821 13.3033C2.50948 13.2894 2.49311 13.2726 2.47975 13.2535C2.4547 13.2216 2.43646 13.1816 2.40569 13.1579C2.37493 13.1342 2.36186 13.101 2.32946 13.0817C2.31258 13.0716 2.30223 13.0485 2.2908 13.0313C2.2683 12.9968 2.24328 12.9639 2.21592 12.933C2.197 12.9144 2.1802 12.8938 2.16583 12.8715C2.15551 12.8496 2.14222 12.8291 2.12635 12.8108C2.09954 12.7897 2.07824 12.7624 2.06427 12.7313C2.05348 12.7128 2.04029 12.6957 2.02507 12.6807C2.00387 12.6618 1.98705 12.6386 1.97579 12.6126C1.97388 12.6055 1.9717 12.5963 1.96653 12.5927C1.92569 12.5655 1.9148 12.5157 1.88295 12.4811C1.86525 12.4623 1.85572 12.4332 1.83938 12.4144C1.80725 12.3776 1.79364 12.3297 1.7577 12.2954C1.74557 12.2857 1.73618 12.2731 1.73048 12.2586C1.72231 12.2213 1.69535 12.1971 1.67602 12.168C1.66187 12.147 1.6605 12.1182 1.63573 12.1037C1.63573 12.0678 1.60088 12.0509 1.59162 12.0193C1.58338 11.9991 1.57298 11.9798 1.56058 11.9619L1.50913 11.8802C1.49415 11.8489 1.4819 11.8168 1.46393 11.7865C1.44596 11.7563 1.41737 11.7304 1.41329 11.6918C1.41329 11.6866 1.40675 11.6825 1.40403 11.6776C1.39614 11.6637 1.38851 11.6504 1.38116 11.6357C1.37789 11.6294 1.37708 11.6177 1.37299 11.6166C1.35257 11.6115 1.35638 11.594 1.35176 11.5807C1.34882 11.5714 1.34518 11.5623 1.34087 11.5535C1.33433 11.5407 1.32562 11.529 1.31908 11.5162C1.31527 11.5083 1.31609 11.4944 1.31064 11.4919C1.29186 11.4827 1.2924 11.4661 1.28832 11.4503C1.28588 11.442 1.2825 11.4341 1.27824 11.4266C1.27117 11.4122 1.26354 11.398 1.25701 11.3836C1.25047 11.3692 1.24721 11.3588 1.24203 11.3466C1.23604 11.3351 1.23077 11.3233 1.22624 11.3112C1.21671 11.2788 1.18785 11.2548 1.18731 11.2189C1.16444 11.208 1.16444 11.1865 1.16172 11.1644C1.15988 11.1575 1.15664 11.151 1.15219 11.1454C1.1462 11.1339 1.13476 11.1228 1.13449 11.1113C1.13286 11.0697 1.08902 11.043 1.09583 10.9991C1.09583 10.9991 1.09583 10.9962 1.09338 10.9956C1.06833 10.9853 1.0735 10.9618 1.06942 10.9412C1.06697 10.9294 1.06452 10.9139 1.05662 10.9082C1.04986 10.9024 1.04453 10.8951 1.04103 10.8869C1.03754 10.8787 1.03598 10.8697 1.03647 10.8608C1.03647 10.8535 1.03647 10.8415 1.03185 10.8393C1.00462 10.8252 1.01034 10.7996 1.0068 10.7767C1.00516 10.7666 1.0038 10.7522 0.996997 10.7478C0.976304 10.7351 0.979025 10.7149 0.974941 10.6964C0.972219 10.6847 0.973037 10.6692 0.965685 10.6624C0.958006 10.6542 0.952086 10.6446 0.948292 10.634C0.944498 10.6235 0.942911 10.6123 0.943632 10.6011C0.943657 10.5906 0.940631 10.5803 0.934919 10.5714C0.91964 10.5528 0.911443 10.5294 0.911778 10.5053C0.91179 10.4947 0.908559 10.4843 0.90252 10.4756C0.894275 10.4669 0.888048 10.4565 0.884284 10.4451C0.880519 10.4337 0.87931 10.4216 0.880739 10.4097C0.880739 10.4007 0.880738 10.3885 0.875021 10.3838C0.850245 10.362 0.853512 10.3326 0.849155 10.3051C0.84725 10.2948 0.846161 10.2812 0.839354 10.2757C0.819479 10.2602 0.821929 10.239 0.818934 10.2186C0.817029 10.2039 0.818935 10.1848 0.809678 10.1758C0.794792 10.1566 0.787435 10.1326 0.788986 10.1083C0.78708 10.092 0.790618 10.0696 0.781089 10.0604C0.756313 10.0359 0.759036 10.0059 0.755496 9.97652C0.75359 9.96182 0.755498 9.94086 0.746785 9.9335C0.725004 9.91581 0.729904 9.89348 0.727181 9.8717C0.724459 9.84992 0.729359 9.8246 0.718196 9.81017C0.69587 9.78076 0.697505 9.74864 0.693693 9.71596C0.691515 9.69663 0.695599 9.67104 0.684981 9.65906C0.661294 9.63183 0.66674 9.60297 0.663472 9.57411C0.66075 9.55315 0.665922 9.52783 0.655848 9.51204C0.630255 9.47201 0.635428 9.42845 0.628622 9.38571C0.626144 9.36649 0.622691 9.3474 0.618275 9.32853C0.61283 9.30376 0.604118 9.2798 0.601123 9.25475C0.597311 9.22344 0.5984 9.19158 0.596495 9.15973C0.597355 9.14774 0.594806 9.13575 0.589143 9.12515C0.575947 9.10666 0.569769 9.08407 0.571718 9.06144C0.568995 9.01162 0.56709 8.96179 0.564095 8.91197C0.564772 8.89835 0.562352 8.88476 0.557016 8.87222C0.542221 8.84226 0.535734 8.80888 0.53823 8.77556C0.536051 8.69388 0.533873 8.6122 0.532511 8.53052C0.532511 8.50765 0.525978 8.49186 0.499023 8.49404L0.499296 7.49919ZM3.01175 3.15575V3.15357C3.02988 3.15481 3.04808 3.15481 3.06621 3.15357C3.11222 3.14731 3.16368 3.16419 3.20234 3.12226C3.20697 3.11709 3.21976 3.11981 3.22957 3.11872C3.23937 3.11763 3.24971 3.11872 3.25107 3.11545C3.26523 3.07979 3.31832 3.09803 3.32921 3.05882C3.37333 3.03594 3.41161 3.00325 3.44111 2.96326C3.46834 2.92895 3.50837 2.89928 3.51354 2.84945C3.51354 2.84673 3.51572 2.84264 3.51762 2.8421C3.54321 2.83448 3.5375 2.81215 3.54131 2.79418C3.54175 2.78376 3.54464 2.7736 3.54975 2.7645C3.56611 2.74256 3.57342 2.71518 3.57017 2.688C3.57017 2.6232 3.57398 2.55786 3.56826 2.4936C3.56109 2.45183 3.55006 2.41082 3.53532 2.37108C3.53458 2.36976 3.53343 2.36871 3.53205 2.36809C3.50319 2.34985 3.51 2.31009 3.48168 2.28831C3.46153 2.27279 3.45446 2.24039 3.43785 2.21943C3.42124 2.19847 3.39646 2.18975 3.38339 2.17015C3.36597 2.14592 3.32894 2.153 3.31832 2.12142C3.28511 2.11515 3.26387 2.0784 3.22712 2.08275C3.19744 2.0528 3.1585 2.05798 3.12175 2.05389C3.10715 2.05122 3.09296 2.04665 3.07955 2.04028C3.04162 2.02396 2.9988 2.02318 2.9603 2.0381C2.92955 2.04911 2.89735 2.05553 2.86473 2.05716C2.85166 2.05907 2.83451 2.05716 2.82689 2.06615C2.79966 2.09337 2.76181 2.09337 2.73159 2.11515C2.70666 2.13084 2.68282 2.14822 2.66026 2.16716C2.64447 2.18104 2.62895 2.19438 2.61425 2.2099C2.58974 2.23468 2.55489 2.25646 2.54509 2.28641C2.53529 2.31636 2.49772 2.34086 2.50235 2.38143C2.50253 2.38365 2.50221 2.38587 2.50141 2.38795C2.50061 2.39003 2.49935 2.39189 2.49772 2.39341C2.4724 2.40457 2.47866 2.42799 2.47594 2.44786C2.4743 2.4612 2.47594 2.47808 2.47022 2.48761C2.44299 2.52518 2.44844 2.56929 2.44789 2.60959C2.44581 2.6336 2.44906 2.65777 2.45742 2.68037C2.46871 2.70488 2.47527 2.7313 2.47675 2.75824C2.47839 2.77267 2.47839 2.79336 2.48737 2.79963C2.50398 2.81188 2.50262 2.82685 2.50752 2.84237C2.51096 2.85191 2.51544 2.86104 2.52086 2.8696C2.52631 2.8794 2.53339 2.88811 2.53856 2.89683C2.54373 2.90554 2.54264 2.91779 2.54836 2.92106C2.56306 2.92895 2.56633 2.94284 2.57559 2.95455C2.58484 2.96625 2.60526 2.96734 2.60608 2.98776C2.62949 2.98776 2.6295 3.01499 2.64583 3.02452C2.6687 3.03595 2.68667 3.05392 2.70927 3.06672C2.74793 3.08823 2.77924 3.12389 2.82906 3.12117C2.83451 3.12117 2.84322 3.12308 2.84513 3.12689C2.8582 3.15412 2.88297 3.14813 2.90475 3.15003C2.93933 3.15303 2.9769 3.15412 3.01175 3.15575Z" fill="#343A40"/>
<path d="M16.5081 8.46055C16.4888 8.47198 16.4918 8.49186 16.491 8.50928C16.4869 8.60294 16.4842 8.6966 16.4798 8.78999C16.4798 8.81967 16.4834 8.85043 16.4605 8.8763C16.4548 8.88283 16.4564 8.89644 16.4561 8.90706C16.4545 8.9479 16.4531 8.98874 16.4518 9.02931C16.4537 9.06111 16.447 9.09284 16.4322 9.12106C16.4266 9.13345 16.4241 9.14698 16.4248 9.16054C16.4221 9.19539 16.4213 9.22997 16.4188 9.26482C16.4201 9.27832 16.4178 9.29192 16.4123 9.3043C16.3878 9.33615 16.3924 9.37291 16.3894 9.40857C16.3907 9.44152 16.3838 9.47427 16.3693 9.50387C16.3565 9.5251 16.3614 9.55669 16.3578 9.58364C16.358 9.61055 16.3509 9.63699 16.3372 9.66015C16.3284 9.68085 16.325 9.70339 16.3271 9.72576C16.328 9.75303 16.321 9.77999 16.3069 9.80336C16.3006 9.81681 16.2975 9.83152 16.2977 9.84638C16.2941 9.87878 16.2977 9.91117 16.2724 9.93976C16.2615 9.95201 16.2655 9.97733 16.2634 9.99667C16.2612 10.016 16.2634 10.0405 16.243 10.0587C16.2342 10.0664 16.2359 10.086 16.2348 10.1015C16.2361 10.1287 16.2281 10.1556 16.2122 10.1777C16.2059 10.1896 16.2023 10.2027 16.2018 10.2161C16.1978 10.2387 16.2059 10.2657 16.1782 10.2793C16.1775 10.2797 16.177 10.2804 16.1767 10.2811C16.1763 10.2818 16.1762 10.2826 16.1762 10.2834C16.1839 10.3378 16.1436 10.3776 16.1379 10.4277C16.1341 10.4447 16.1282 10.4613 16.1204 10.4769C16.1204 10.4799 16.1169 10.4824 16.1163 10.4851C16.109 10.5221 16.097 10.5581 16.0807 10.5921C16.0714 10.6166 16.0758 10.6452 16.0535 10.6653C16.0472 10.6708 16.0483 10.6852 16.0469 10.6956C16.0442 10.716 16.0469 10.7378 16.0246 10.75C16.0191 10.7533 16.0189 10.7664 16.0175 10.7753C16.0134 10.7985 16.0153 10.8235 15.9903 10.8388C15.9851 10.842 15.9862 10.8554 15.984 10.8638C15.9805 10.8788 15.9868 10.8979 15.9642 10.9049C15.9601 10.9049 15.9582 10.9177 15.9568 10.9251C15.9519 10.951 15.9546 10.9795 15.9277 10.9975C15.923 11.0005 15.9236 11.0114 15.9222 11.0187C15.919 11.0359 15.9222 11.056 15.9002 11.0642C15.8995 11.0646 15.899 11.0651 15.8986 11.0657C15.8982 11.0663 15.8979 11.067 15.8977 11.0678C15.8936 11.1029 15.8705 11.1312 15.8623 11.1625C15.8528 11.1982 15.8185 11.2238 15.8245 11.2638C15.788 11.2845 15.7989 11.3302 15.7736 11.3594C15.7521 11.3844 15.7463 11.4239 15.7327 11.4555C15.7191 11.487 15.6979 11.5192 15.6805 11.551C15.6772 11.5573 15.6758 11.5649 15.6726 11.5712C15.6655 11.5856 15.6579 11.5984 15.6505 11.6136C15.647 11.6199 15.6407 11.6256 15.6402 11.6322C15.6374 11.6681 15.6075 11.6893 15.5933 11.7187C15.5909 11.7242 15.5846 11.7285 15.5843 11.7337C15.5813 11.7688 15.5402 11.7868 15.5443 11.8247C15.5078 11.8385 15.5264 11.8903 15.4899 11.9042C15.488 11.9042 15.4866 11.9093 15.4863 11.912C15.4831 11.951 15.4531 11.9744 15.4335 12.0038C15.4295 12.0083 15.4267 12.0137 15.4253 12.0196C15.4221 12.0528 15.3889 12.0697 15.3821 12.1032C15.3777 12.1241 15.3548 12.141 15.3396 12.1601C15.3366 12.1635 15.3344 12.1675 15.333 12.1718C15.3162 12.2174 15.2914 12.2596 15.2598 12.2965C15.2326 12.3335 15.2222 12.3836 15.1781 12.4095C15.1736 12.4383 15.1583 12.4643 15.1354 12.4822C15.1033 12.5165 15.0924 12.5638 15.0515 12.5938C15.0319 12.6077 15.0243 12.6384 15.0112 12.661C15.0066 12.6678 15.0012 12.6741 14.9952 12.6796C14.9832 12.6915 14.978 12.7321 14.9905 12.734C15.0164 12.7408 15.0104 12.7653 15.0237 12.7787C15.0371 12.792 15.0355 12.8162 15.0477 12.8236C15.0834 12.8446 15.0654 12.8919 15.0978 12.9137C15.1054 12.9189 15.1054 12.9358 15.1082 12.9472C15.1122 12.9641 15.1082 12.9826 15.1288 12.9946C15.1359 12.9987 15.1365 13.0158 15.1378 13.0275C15.1408 13.0507 15.1378 13.0746 15.1599 13.0929C15.1683 13.0997 15.1681 13.1179 15.1694 13.1312C15.1743 13.1805 15.1681 13.2314 15.1966 13.2766C15.1987 13.2823 15.1993 13.2884 15.1985 13.2943C15.1985 13.3548 15.1985 13.4152 15.1985 13.4757C15.1995 13.4862 15.1973 13.4968 15.1923 13.5062C15.1727 13.5334 15.1759 13.5636 15.1738 13.5933C15.1713 13.6289 15.1738 13.6654 15.1482 13.6957C15.143 13.7049 15.1405 13.7155 15.1411 13.7261C15.1386 13.7479 15.1411 13.7705 15.119 13.7863C15.1125 13.7907 15.1128 13.8056 15.1109 13.816C15.1073 13.8361 15.1109 13.8582 15.0861 13.8704C15.0798 13.8734 15.0798 13.8895 15.0768 13.8993C15.0738 13.9091 15.0782 13.9282 15.0583 13.9312C15.0569 13.9316 15.0556 13.9323 15.0545 13.9333C15.0534 13.9343 15.0526 13.9355 15.0521 13.9369C15.0496 13.9935 14.9924 14.0213 14.9802 14.073C14.9769 14.0864 14.9587 14.1002 14.9478 14.1106C14.911 14.1446 14.8895 14.1904 14.8528 14.2228C14.8315 14.2418 14.816 14.2682 14.7844 14.2772C14.7689 14.2841 14.7555 14.2951 14.7458 14.3091C14.709 14.3502 14.6603 14.3736 14.6156 14.4033C14.5998 14.4147 14.5825 14.4239 14.5642 14.4305C14.5486 14.4357 14.5369 14.4509 14.5211 14.4577C14.5054 14.4645 14.4841 14.4577 14.4776 14.4817C14.4776 14.483 14.4754 14.4849 14.4746 14.4849C14.4267 14.4781 14.3929 14.5179 14.3483 14.5231C14.3268 14.5255 14.3033 14.5212 14.2873 14.5443C14.2824 14.5514 14.2649 14.5508 14.2532 14.5517C14.226 14.5533 14.1958 14.5536 14.1669 14.5546C14.1428 14.5527 14.1186 14.5581 14.0975 14.5702C14.0868 14.5757 14.0747 14.578 14.0627 14.5767C14.0082 14.5767 13.9537 14.5903 13.9037 14.559C13.895 14.5558 13.8856 14.5548 13.8764 14.556L13.7721 14.5522C13.7618 14.5522 13.7468 14.5544 13.7414 14.5487C13.7158 14.5214 13.6815 14.5263 13.6499 14.5214C13.637 14.5179 13.6248 14.5124 13.6137 14.5051C13.6099 14.5032 13.6074 14.4961 13.6042 14.4961C13.5727 14.4914 13.5424 14.4806 13.5151 14.4643C13.4786 14.4514 13.4448 14.432 13.4152 14.4071C13.4122 14.4038 13.4082 14.4018 13.4038 14.4014C13.3651 14.4 13.3463 14.3687 13.3207 14.3469C13.3175 14.3442 13.3147 14.3398 13.3112 14.3387C13.2625 14.3243 13.2339 14.2843 13.1998 14.2513C13.1726 14.2241 13.1427 14.2034 13.1182 14.1762C13.0924 14.1458 13.0681 14.1141 13.0455 14.0812C13.0343 14.0657 13.0281 14.0444 13.0139 14.0338C12.9867 14.0131 12.9916 13.9725 12.9611 13.9551C12.957 13.9529 12.9551 13.9453 12.9543 13.9396C12.951 13.9208 12.9515 13.9001 12.9287 13.8917C12.9287 13.8484 12.8857 13.8212 12.8876 13.7762C12.8876 13.7637 12.8759 13.7507 12.871 13.7373C12.8658 13.7252 12.8621 13.7125 12.8601 13.6995C12.8607 13.6663 12.8525 13.6335 12.8364 13.6044C12.8298 13.5908 12.8271 13.5757 12.8285 13.5606C12.8285 13.4427 12.8285 13.3248 12.8285 13.2067C12.8319 13.1863 12.8374 13.1664 12.8451 13.1473C12.8505 13.1255 12.8552 13.1038 12.8584 13.0817C12.8617 13.0596 12.8584 13.0354 12.881 13.0207C12.881 13.0207 12.884 13.0185 12.884 13.0177C12.881 12.9793 12.9148 12.9518 12.9172 12.9186C12.9197 12.8854 12.9469 12.8663 12.9545 12.8369C12.9664 12.8094 12.9824 12.784 13.0022 12.7615C13.0022 12.7602 13.0046 12.7593 13.0049 12.758C13.0122 12.7334 13.0258 12.7111 13.0444 12.6934C13.0811 12.6616 13.095 12.6134 13.1342 12.581C13.1688 12.5521 13.1982 12.5148 13.2342 12.486C13.2445 12.4775 13.2535 12.468 13.2641 12.4604C13.2837 12.4468 13.3096 12.4381 13.3218 12.4198C13.3318 12.4075 13.3453 12.3985 13.3605 12.394C13.3821 12.3872 13.4018 12.3753 13.4179 12.3594C13.4315 12.3403 13.4484 12.3387 13.4661 12.3322C13.4759 12.3286 13.4833 12.3117 13.4917 12.3117C13.5285 12.3117 13.5522 12.2815 13.5851 12.275C13.6082 12.2703 13.6322 12.272 13.6485 12.2478C13.6532 12.2409 13.6711 12.2428 13.6831 12.2412C13.7136 12.2371 13.7466 12.2464 13.7716 12.2178C13.7776 12.211 13.7947 12.2126 13.8067 12.2126C13.9396 12.2126 14.0727 12.2126 14.2056 12.2126C14.2266 12.2126 14.2489 12.2126 14.2636 12.2314C14.2652 12.2336 14.2688 12.2363 14.2709 12.236C14.3224 12.2311 14.3657 12.2565 14.412 12.2712C14.4286 12.2766 14.4455 12.2755 14.4585 12.2932C14.4656 12.3027 14.4885 12.3003 14.504 12.3033C14.5186 12.2674 14.5404 12.2349 14.568 12.2077C14.582 12.1936 14.5933 12.177 14.6012 12.1587C14.6146 12.1273 14.635 12.0994 14.6608 12.077C14.6649 12.0735 14.6652 12.0659 14.6679 12.061C14.6821 12.0365 14.6951 12.012 14.7106 11.9877C14.7176 11.9752 14.7256 11.9632 14.7346 11.9521C14.7524 11.928 14.7677 11.902 14.7801 11.8747C14.7967 11.8453 14.8272 11.8255 14.8345 11.7884C14.8375 11.7718 14.8642 11.7645 14.8618 11.7416C14.8928 11.7275 14.8816 11.682 14.9162 11.6692C14.9203 11.6676 14.92 11.6553 14.9222 11.6482C14.9263 11.6346 14.9222 11.6161 14.944 11.6134C14.947 11.6134 14.9497 11.6071 14.9516 11.6033C14.9739 11.5573 14.996 11.5113 15.0183 11.4655C15.0529 11.4514 15.0371 11.4037 15.0706 11.3879C15.0758 11.3855 15.0758 11.3713 15.0777 11.3626C15.0796 11.3539 15.0777 11.3354 15.0964 11.3302C15.1008 11.3302 15.1049 11.3221 15.1065 11.3169C15.1128 11.2965 15.1101 11.2714 15.1357 11.2608C15.131 11.2216 15.1629 11.1968 15.1773 11.1658C15.1875 11.1328 15.2027 11.1016 15.2222 11.0732C15.2304 11.0642 15.2309 11.0482 15.2358 11.0359C15.2407 11.0236 15.2481 11.0087 15.2541 10.9959C15.2589 10.9872 15.263 10.9781 15.2661 10.9687C15.2704 10.9534 15.2674 10.9352 15.2868 10.9265C15.2908 10.9248 15.2936 10.9169 15.2944 10.9115C15.2986 10.89 15.3073 10.8697 15.32 10.8518C15.3367 10.8161 15.3503 10.7789 15.3605 10.7408C15.3652 10.7289 15.3709 10.7174 15.3774 10.7065C15.3796 10.7026 15.3853 10.6994 15.3853 10.6961C15.3837 10.6515 15.4177 10.6188 15.4251 10.5769C15.4281 10.5581 15.4449 10.5423 15.4523 10.5238C15.4596 10.5053 15.4523 10.4778 15.464 10.4677C15.4874 10.447 15.4817 10.4219 15.4885 10.3983C15.4953 10.3746 15.5089 10.3539 15.5157 10.3305C15.5225 10.307 15.5157 10.2809 15.543 10.2676C15.5435 10.2671 15.544 10.2664 15.5444 10.2657C15.5447 10.265 15.5449 10.2643 15.5449 10.2635C15.5438 10.2394 15.5473 10.2154 15.5552 10.1927C15.5687 10.1736 15.5771 10.1514 15.5797 10.1282C15.5799 10.1071 15.5865 10.0866 15.5985 10.0694C15.607 10.0524 15.6118 10.0339 15.6127 10.0149C15.6157 9.99449 15.6127 9.97434 15.6325 9.95746C15.6412 9.94956 15.6399 9.93023 15.6415 9.91471C15.6445 9.88504 15.6429 9.85563 15.6668 9.83058C15.6761 9.82078 15.6728 9.799 15.6756 9.78267C15.6799 9.75707 15.6731 9.72821 15.6976 9.70725C15.7069 9.69908 15.7033 9.67594 15.705 9.6596C15.7032 9.62949 15.7107 9.59956 15.7265 9.57384C15.7368 9.56023 15.7346 9.53654 15.7374 9.51721C15.7423 9.48372 15.7338 9.44751 15.7621 9.41946C15.7673 9.41456 15.7657 9.40204 15.7662 9.39224C15.7662 9.36665 15.7684 9.34105 15.7698 9.31519C15.7698 9.30484 15.7678 9.29177 15.773 9.28415C15.8068 9.23569 15.7956 9.1796 15.8022 9.12651C15.8013 9.09935 15.808 9.07248 15.8215 9.04891C15.8273 9.03661 15.8297 9.02299 15.8286 9.00943C15.8307 8.97023 15.8316 8.93102 15.8332 8.89154C15.8316 8.86741 15.8372 8.84336 15.8493 8.82239C15.8554 8.80863 15.858 8.79357 15.8569 8.77855C15.8607 8.69551 15.8623 8.61247 15.8675 8.52943C15.8694 8.49839 15.88 8.46763 15.883 8.43659C15.8876 8.39167 15.8915 8.3462 15.8917 8.30046C15.8917 8.08718 15.8917 7.87409 15.8917 7.66118C15.8925 7.60989 15.8865 7.55873 15.874 7.50898C15.8657 7.4641 15.8622 7.41848 15.8634 7.37285C15.8612 7.32602 15.8612 7.27919 15.8588 7.23236C15.8574 7.19996 15.8621 7.1662 15.8386 7.13707C15.8321 7.12917 15.8343 7.11393 15.8337 7.10195C15.8321 7.06247 15.8313 7.02326 15.8297 6.98406C15.8313 6.95992 15.8257 6.93583 15.8136 6.9149C15.8066 6.89994 15.8032 6.88351 15.8038 6.86698C15.8011 6.8384 15.8 6.80954 15.7978 6.78095C15.799 6.76893 15.7973 6.75681 15.7929 6.74555C15.7657 6.70335 15.7719 6.65571 15.7673 6.60942C15.7654 6.58764 15.7698 6.56477 15.7485 6.5468C15.7406 6.53999 15.7417 6.52148 15.7404 6.50814C15.7357 6.46539 15.7417 6.42101 15.7131 6.3829C15.7052 6.37282 15.7096 6.35349 15.7074 6.33852C15.7036 6.31129 15.7107 6.28407 15.6848 6.25983C15.6747 6.25058 15.6791 6.22553 15.6775 6.20756C15.6781 6.182 15.6708 6.15687 15.6565 6.13568C15.6475 6.11673 15.6431 6.09593 15.6437 6.07497C15.6407 6.05455 15.6437 6.03195 15.623 6.01861C15.6218 6.01778 15.6208 6.01669 15.62 6.01542C15.6193 6.01415 15.6188 6.01273 15.6186 6.01126C15.6257 5.95354 15.5819 5.90807 15.5805 5.85225C15.5821 5.84255 15.5811 5.83259 15.5775 5.82343C15.5739 5.81428 15.5679 5.80627 15.5601 5.80025C15.5577 5.79862 15.5549 5.79508 15.5552 5.7929C15.5634 5.7428 15.5217 5.70578 15.519 5.65677C15.5198 5.64775 15.5184 5.63867 15.5148 5.63032C15.5113 5.62197 15.5058 5.6146 15.4989 5.60885C15.4923 5.60422 15.4912 5.59006 15.4896 5.57999C15.4861 5.55657 15.4896 5.5318 15.4654 5.51492C15.4591 5.51056 15.4613 5.49504 15.458 5.48524C15.4517 5.46727 15.4444 5.44957 15.4373 5.43079C15.4331 5.42197 15.4296 5.41287 15.4267 5.40356C15.4226 5.38559 15.4267 5.36436 15.4044 5.35374C15.3992 5.35156 15.3981 5.33767 15.3968 5.32896C15.3932 5.30555 15.3948 5.28104 15.3695 5.2658C15.3633 5.26198 15.3644 5.24619 15.3624 5.23585C15.3605 5.2255 15.3638 5.20862 15.3456 5.20263C15.3431 5.20263 15.3393 5.19882 15.3393 5.19691C15.3393 5.15662 15.317 5.12422 15.3017 5.08801C15.2952 5.07194 15.2982 5.05288 15.278 5.04281C15.2729 5.04009 15.2721 5.02648 15.2707 5.01776C15.2685 5.00306 15.2691 4.98727 15.2511 4.98073C15.2504 4.98046 15.2498 4.98005 15.2493 4.97954C15.2488 4.97903 15.2484 4.97841 15.2481 4.97774C15.2342 4.94044 15.2209 4.90314 15.2062 4.86584C15.2024 4.85652 15.1982 4.84743 15.1934 4.83861C15.1882 4.82854 15.1828 4.81874 15.177 4.80894C15.1713 4.79913 15.1623 4.78416 15.1558 4.77164C15.1513 4.76285 15.1475 4.75375 15.1444 4.74441C15.1395 4.73107 15.1427 4.71392 15.1234 4.70765C15.1188 4.70629 15.1169 4.6954 15.115 4.68859C15.1103 4.67144 15.1103 4.65211 15.0894 4.64394C15.0872 4.64394 15.0839 4.63931 15.0845 4.63714C15.0907 4.60093 15.0551 4.58268 15.048 4.55137C15.0418 4.52712 15.0294 4.50489 15.012 4.48685C14.9954 4.46888 14.996 4.44138 14.9815 4.4294C14.9666 4.41481 14.957 4.39563 14.9543 4.37495C14.9491 4.35861 14.9225 4.35834 14.9255 4.33383C14.9279 4.31695 14.9138 4.30661 14.9018 4.29599C14.8857 4.27505 14.8724 4.25207 14.8623 4.22765C14.8523 4.21266 14.8433 4.19712 14.8351 4.18109C14.8283 4.16476 14.8274 4.14543 14.8054 4.14053C14.8 4.11315 14.7873 4.08775 14.7686 4.06701C14.752 4.04115 14.7324 4.01692 14.7155 3.99078C14.6987 3.96464 14.687 3.94205 14.6723 3.91809C14.6624 3.89775 14.6501 3.87872 14.6355 3.86145C14.6224 3.84719 14.614 3.82921 14.6115 3.81C14.6066 3.79471 14.6004 3.77986 14.593 3.76562C14.5884 3.75643 14.5854 3.74646 14.5843 3.73621C14.5843 3.6932 14.5729 3.64773 14.6064 3.61043C14.6082 3.608 14.6093 3.60505 14.6094 3.60199C14.614 3.5459 14.6581 3.51132 14.684 3.46585C14.687 3.46275 14.6907 3.46042 14.6949 3.45905C14.7214 3.44829 14.7466 3.4343 14.7697 3.41739C14.7806 3.40814 14.7932 3.40117 14.8068 3.39692C14.8204 3.39266 14.8348 3.3912 14.849 3.39261C14.8882 3.39261 14.9276 3.39261 14.9668 3.39261C14.987 3.39261 15.0099 3.38908 15.0213 3.41412C15.0232 3.41821 15.0314 3.41984 15.0371 3.42148C15.0866 3.43373 15.112 3.47593 15.146 3.50751C15.18 3.53909 15.1871 3.59273 15.229 3.61914C15.232 3.62104 15.2315 3.62785 15.2337 3.63166C15.2441 3.65795 15.2585 3.68254 15.2761 3.70463C15.2933 3.72069 15.293 3.74411 15.3064 3.75636C15.3209 3.77026 15.3316 3.78771 15.3374 3.807C15.3439 3.82524 15.3663 3.83586 15.3671 3.85846C15.4027 3.87017 15.3861 3.92108 15.4215 3.93224C15.4248 3.95605 15.4365 3.97789 15.4545 3.99378C15.4678 4.0083 15.4777 4.02559 15.4836 4.04442C15.4848 4.05372 15.488 4.06265 15.493 4.07059C15.498 4.07854 15.5046 4.0853 15.5125 4.09043C15.5108 4.12855 15.55 4.14815 15.5547 4.1849C15.5571 4.20396 15.5786 4.21867 15.5868 4.23936C15.5985 4.26985 15.6211 4.29599 15.6358 4.32539C15.6519 4.3563 15.6656 4.38844 15.6766 4.4215C15.684 4.4441 15.7039 4.45744 15.7101 4.48276C15.7231 4.51649 15.7402 4.54849 15.761 4.57806C15.7649 4.58568 15.7651 4.59494 15.7687 4.60283C15.7744 4.6159 15.7817 4.62815 15.7877 4.64095C15.7937 4.65374 15.7956 4.66273 15.8005 4.67308C15.8054 4.68342 15.8128 4.69513 15.8193 4.70602C15.8215 4.70983 15.8275 4.71283 15.8272 4.71609C15.8272 4.74332 15.846 4.76374 15.8544 4.78743C15.866 4.80946 15.8757 4.83241 15.8836 4.85604C15.8909 4.89552 15.9209 4.92465 15.9244 4.96494C15.9244 4.97229 15.9263 4.9821 15.9309 4.98564C15.9533 5.00197 15.9541 5.02593 15.9582 5.04989C15.9619 5.06028 15.9672 5.07003 15.974 5.07875C15.9783 5.08433 15.9816 5.09071 15.9835 5.09754C15.9867 5.12083 15.9944 5.14329 16.0061 5.1637C16.023 5.20554 16.0373 5.24836 16.0491 5.29193C16.0535 5.30555 16.0614 5.3178 16.0668 5.33087C16.0721 5.34293 16.0763 5.35541 16.0796 5.36817C16.0842 5.38968 16.0796 5.41445 16.1044 5.42725C16.1054 5.42832 16.1063 5.42959 16.1068 5.431C16.1074 5.4324 16.1077 5.4339 16.1076 5.43542C16.1095 5.47207 16.1196 5.50782 16.1373 5.53997C16.1496 5.56529 16.1389 5.60014 16.1681 5.62165C16.1724 5.62491 16.1716 5.6358 16.1727 5.64315C16.1768 5.67038 16.1727 5.69761 16.1964 5.72184C16.2065 5.73219 16.2027 5.75642 16.2048 5.77439C16.2043 5.79556 16.2116 5.8162 16.2253 5.83238C16.2326 5.84351 16.2364 5.85661 16.2361 5.86995C16.2358 5.89525 16.243 5.92008 16.2568 5.94128C16.268 5.95571 16.2647 5.98158 16.2669 6.00254C16.2677 6.02325 16.2736 6.04344 16.2841 6.06135C16.2935 6.08342 16.2987 6.10707 16.2993 6.13105C16.3037 6.15828 16.2993 6.18551 16.3219 6.20701C16.3303 6.21573 16.3274 6.23424 16.3293 6.2503C16.3331 6.28243 16.3276 6.31483 16.351 6.34451C16.3622 6.35894 16.3581 6.38535 16.3606 6.40631C16.3644 6.43871 16.3606 6.47166 16.384 6.50079C16.39 6.51456 16.3924 6.52967 16.3908 6.54462C16.3927 6.57185 16.3932 6.59908 16.3949 6.6263C16.3949 6.63665 16.3949 6.65026 16.3992 6.65707C16.4281 6.69219 16.4205 6.73412 16.424 6.7736C16.4238 6.81279 16.4313 6.85163 16.4461 6.88795C16.452 6.90348 16.4546 6.92008 16.4537 6.93668C16.4556 6.97888 16.4564 7.02109 16.4583 7.06356C16.4575 7.08276 16.4625 7.10176 16.4727 7.11801C16.4797 7.13298 16.4827 7.14948 16.4815 7.16593C16.4861 7.26694 16.4894 7.36822 16.494 7.46923C16.494 7.48666 16.4915 7.50653 16.5109 7.51797L16.5081 8.46055ZM14.0033 12.8318C13.9608 12.8345 13.9186 12.8361 13.8764 12.8397C13.8616 12.8394 13.847 12.8438 13.8348 12.8522C13.8241 12.8627 13.8097 12.8685 13.7947 12.8685C13.7858 12.8685 13.7708 12.8685 13.7675 12.8729C13.7536 12.9072 13.703 12.8908 13.6926 12.9273C13.6473 12.9473 13.6086 12.9798 13.581 13.021C13.5557 13.0577 13.5102 13.0825 13.5081 13.1342C13.5081 13.1381 13.5051 13.1449 13.5023 13.1454C13.4795 13.1503 13.4846 13.1702 13.4803 13.1852C13.4759 13.2001 13.471 13.2167 13.4659 13.2323C13.4586 13.2463 13.4532 13.2614 13.4501 13.2769C13.4486 13.351 13.4486 13.425 13.4501 13.4991C13.4521 13.5153 13.4564 13.5312 13.4629 13.5462C13.468 13.5614 13.4748 13.5759 13.4806 13.5908C13.4844 13.6004 13.486 13.6107 13.4904 13.62C13.4947 13.6292 13.5048 13.6445 13.5113 13.6573C13.5146 13.6638 13.5135 13.6736 13.5181 13.678C13.5522 13.7104 13.566 13.7596 13.6058 13.7869C13.6287 13.8029 13.6409 13.8315 13.6709 13.8397C13.6787 13.8433 13.6861 13.8477 13.6929 13.853C13.7237 13.8704 13.7474 13.9039 13.7871 13.9023C13.7909 13.9022 13.7947 13.9029 13.7982 13.9044C13.8017 13.9058 13.8049 13.908 13.8075 13.9107C13.8222 13.9317 13.8438 13.9298 13.8644 13.9309C13.8942 13.9334 13.9235 13.9396 13.9518 13.9491C13.988 13.9599 14.0265 13.9599 14.0627 13.9491C14.0938 13.9387 14.126 13.9323 14.1588 13.9301C14.1707 13.9301 14.1887 13.9301 14.1928 13.923C14.2053 13.9026 14.2241 13.9031 14.2429 13.8993C14.2497 13.8993 14.26 13.895 14.2617 13.89C14.2685 13.8696 14.2862 13.8707 14.3014 13.8658C14.3084 13.8641 14.3148 13.8609 14.3205 13.8566C14.3368 13.8416 14.3518 13.825 14.3681 13.8097C14.3937 13.7858 14.4269 13.7662 14.4433 13.737C14.4536 13.7188 14.477 13.7161 14.4787 13.6967C14.4817 13.6603 14.5201 13.639 14.5182 13.6012C14.5183 13.5997 14.5189 13.5982 14.5197 13.5969C14.5205 13.5956 14.5215 13.5944 14.5228 13.5936C14.547 13.5816 14.5418 13.5584 14.5443 13.5391C14.5476 13.5119 14.5443 13.4846 14.5658 13.4623C14.5699 13.4544 14.5717 13.4454 14.5707 13.4365C14.5707 13.4032 14.5707 13.37 14.5707 13.3365C14.5707 13.3292 14.5707 13.3188 14.5674 13.3148C14.5424 13.2908 14.5484 13.2603 14.5437 13.2301C14.5418 13.2167 14.5418 13.198 14.5337 13.192C14.5026 13.1696 14.5195 13.122 14.4838 13.104C14.4784 13.0566 14.4294 13.0387 14.4136 12.9981C14.3733 12.9826 14.3553 12.9393 14.3137 12.9221C14.272 12.905 14.2426 12.865 14.1925 12.8661C14.1896 12.8662 14.1866 12.8656 14.1839 12.8645C14.1811 12.8633 14.1787 12.8615 14.1767 12.8593C14.1639 12.8388 14.1432 12.8407 14.1245 12.8394C14.085 12.8356 14.0444 12.8339 14.0033 12.8318Z" fill="#343A40"/>
<path d="M11.387 6.11482C11.4116 6.11749 11.4349 6.12691 11.4545 6.14205C11.4706 6.15757 11.5 6.1622 11.522 6.17908C11.5612 6.20957 11.6141 6.22209 11.6418 6.26865C11.6794 6.2809 11.7012 6.31385 11.7298 6.33781C11.7538 6.36036 11.7763 6.38456 11.797 6.41023C11.8229 6.43936 11.8479 6.46877 11.8735 6.49817C11.8765 6.50144 11.882 6.50471 11.882 6.50797C11.882 6.53847 11.9116 6.55208 11.9182 6.57849C11.9287 6.60282 11.9418 6.62599 11.9571 6.64764C11.968 6.66997 11.9729 6.69502 11.9843 6.71517C12.0039 6.74838 12.0045 6.7884 12.0214 6.81835C12.0363 6.85024 12.0442 6.88497 12.0445 6.92018C12.0459 6.93053 12.0445 6.94414 12.0502 6.95067C12.0742 6.9779 12.0704 7.00976 12.0715 7.04079C12.0736 7.09361 12.0739 7.14643 12.0739 7.19952C12.0739 8.5358 12.0739 9.87207 12.0739 11.2083C12.0739 11.2612 12.0739 11.314 12.0717 11.3671C12.0716 11.3952 12.0658 11.423 12.0546 11.4488C12.0465 11.4745 12.0423 11.5013 12.0421 11.5283C12.0399 11.5492 12.0421 11.5705 12.023 11.5865C12.0173 11.5914 12.0167 11.6026 12.0148 11.6113C12.0091 11.6369 12.0132 11.6658 11.9857 11.6837C11.9802 11.687 11.9819 11.7006 11.98 11.7093C11.9767 11.7229 11.98 11.7412 11.9596 11.7447C11.9582 11.7453 11.9569 11.7462 11.9559 11.7473C11.9549 11.7484 11.9542 11.7498 11.9538 11.7512C11.9485 11.776 11.9379 11.7993 11.9228 11.8196C11.9072 11.8514 11.8871 11.8808 11.8632 11.907C11.846 11.926 11.8373 11.9527 11.8215 11.9734C11.8077 11.9925 11.7911 12.0095 11.7722 12.0238C11.7584 12.0339 11.7616 12.0605 11.7368 12.0586C11.7077 12.1025 11.662 12.1291 11.626 12.1659C11.6229 12.1693 11.6191 12.172 11.6149 12.1738C11.5789 12.1839 11.5563 12.2146 11.5256 12.2323C11.4948 12.25 11.4665 12.2612 11.4365 12.2754C11.43 12.2783 11.4186 12.2792 11.4169 12.2838C11.4088 12.3069 11.3897 12.3026 11.3717 12.3053C11.3538 12.308 11.3344 12.3053 11.3249 12.326C11.3249 12.3282 11.3205 12.3314 11.3184 12.3312C11.2598 12.3268 11.2141 12.3742 11.155 12.3698C11.1237 12.3674 11.0889 12.3628 11.0611 12.3897C11.0551 12.3954 11.0409 12.3935 11.0303 12.3938C10.9895 12.3938 10.9486 12.396 10.9081 12.396H6.11185C6.07401 12.396 6.03616 12.396 5.99832 12.3938C5.9779 12.3938 5.95694 12.3962 5.93978 12.3772C5.93352 12.3704 5.91719 12.3712 5.90548 12.3704C5.87961 12.3687 5.85402 12.3685 5.82843 12.3668C5.81781 12.3668 5.80338 12.3668 5.79793 12.3606C5.77888 12.3382 5.75165 12.3429 5.72851 12.3333C5.69363 12.3154 5.65583 12.3038 5.61688 12.299C5.58039 12.2634 5.52948 12.2509 5.48837 12.2212C5.46117 12.1969 5.4312 12.1758 5.39907 12.1586C5.3601 12.1393 5.32545 12.1124 5.29724 12.0793C5.25531 12.0396 5.20712 12.0006 5.18017 11.9497C5.15566 11.9037 5.10774 11.8729 5.09849 11.8182C5.09576 11.8008 5.06636 11.8027 5.07126 11.7771C5.0732 11.7682 5.07166 11.7588 5.06696 11.751C5.06225 11.7432 5.05474 11.7374 5.04594 11.7349C5.04131 11.7333 5.04104 11.7186 5.03913 11.7099C5.03587 11.6957 5.03913 11.678 5.02007 11.6726C5.01872 11.6718 5.01757 11.6708 5.01672 11.6695C5.01587 11.6682 5.01534 11.6667 5.01517 11.6652C5.01844 11.6127 4.97842 11.5718 4.97624 11.5204C4.97961 11.4856 4.97148 11.4507 4.9531 11.421C4.94602 11.4117 4.9482 11.3938 4.9482 11.3812C4.9482 11.3281 4.94629 11.2753 4.94629 11.2225C4.94629 9.87698 4.94629 8.53162 4.94629 7.18646C4.94629 7.135 4.94629 7.08354 4.94792 7.03208C4.94482 7.00345 4.95165 6.97461 4.96725 6.9504C4.97814 6.9357 4.97461 6.90983 4.97651 6.8886C4.97576 6.86463 4.98294 6.84109 4.99693 6.82162C5.00368 6.80992 5.00742 6.79673 5.00782 6.78323C5.01109 6.76445 5.00782 6.74511 5.02851 6.73123C5.03614 6.72578 5.03478 6.7089 5.03913 6.69774C5.04349 6.68658 5.0522 6.66861 5.05928 6.65418C5.06345 6.64814 5.06726 6.64187 5.07071 6.63539C5.08361 6.60415 5.10104 6.57498 5.12245 6.54881C5.12563 6.54578 5.12789 6.54191 5.12898 6.53765C5.13959 6.50532 5.15959 6.47688 5.18643 6.45597C5.21175 6.43092 5.23026 6.39907 5.25422 6.37266C5.27818 6.34625 5.30513 6.32283 5.33154 6.29887C5.35795 6.27491 5.38981 6.24741 5.41894 6.22155C5.42221 6.21883 5.42466 6.21338 5.4282 6.21284C5.46849 6.20794 5.49245 6.17635 5.52431 6.15838C5.55616 6.14042 5.59101 6.12598 5.63321 6.10638C5.63321 6.09359 5.63539 6.07289 5.63539 6.05193V5.34894C5.63539 5.31137 5.63703 5.27352 5.63811 5.23568C5.63558 5.21452 5.64123 5.19319 5.65391 5.17605C5.6596 5.16556 5.66216 5.15365 5.66126 5.14175C5.66289 5.10989 5.66371 5.07831 5.6648 5.04646C5.6622 5.01179 5.66987 4.97714 5.68685 4.94681C5.69354 4.93002 5.69678 4.91206 5.69638 4.89399C5.70155 4.85968 5.69093 4.82238 5.72115 4.79243C5.72932 4.78426 5.72551 4.7633 5.72687 4.74833C5.72528 4.72261 5.73301 4.69719 5.74865 4.67672C5.75764 4.66746 5.75601 4.64949 5.75927 4.6337C5.76336 4.61437 5.75628 4.59041 5.78133 4.57925C5.78249 4.57828 5.78343 4.57708 5.78408 4.57571C5.78474 4.57435 5.7851 4.57287 5.78514 4.57135C5.77887 4.52425 5.81481 4.48967 5.82189 4.44557C5.82666 4.43027 5.83334 4.41563 5.84177 4.40201C5.84578 4.39434 5.84906 4.38632 5.85157 4.37805C5.85565 4.35953 5.85157 4.3383 5.87471 4.32822C5.87907 4.32632 5.87961 4.31461 5.88097 4.30726C5.88424 4.28956 5.88506 4.27132 5.90384 4.26097C5.90711 4.25907 5.90847 4.25335 5.91038 4.24926C5.9229 4.21823 5.92862 4.18147 5.94931 4.15778C5.97 4.1341 5.96892 4.09516 5.99968 4.0761C6.00567 4.07284 6.00622 4.06004 6.00839 4.05133C6.01057 4.04262 6.00839 4.0241 6.02854 4.02056C6.03235 4.02056 6.03644 4.01185 6.03753 4.0064C6.04728 3.97343 6.06616 3.94389 6.09198 3.92119C6.0955 3.91639 6.098 3.91092 6.09933 3.90512C6.11059 3.87574 6.12937 3.84983 6.15378 3.82998C6.15805 3.82614 6.16124 3.82126 6.16304 3.81582C6.17466 3.78522 6.19444 3.75839 6.22022 3.73822C6.23624 3.71967 6.25029 3.69951 6.26214 3.67805C6.27655 3.65435 6.29424 3.63281 6.31469 3.61407C6.33974 3.59256 6.35907 3.56452 6.38249 3.54083C6.40971 3.51224 6.43694 3.48121 6.46716 3.45425C6.50413 3.41996 6.53912 3.3836 6.57198 3.34535C6.58464 3.33251 6.5982 3.32059 6.61255 3.30968C6.64468 3.28245 6.67299 3.2525 6.70594 3.228C6.7296 3.2144 6.75201 3.19872 6.77291 3.18117C6.78462 3.16837 6.80422 3.16266 6.81539 3.14932C6.84588 3.11283 6.89979 3.10684 6.92429 3.0641C6.9257 3.06234 6.92748 3.06091 6.9295 3.05992C6.93153 3.05894 6.93375 3.05841 6.936 3.05838C6.97112 3.0543 6.9929 3.02843 7.01768 3.00855C7.02578 3.00203 7.03501 2.99705 7.04491 2.99385C7.05743 2.98977 7.07213 2.99195 7.07594 2.97316C7.07594 2.96853 7.09092 2.96663 7.09936 2.9639C7.1127 2.95927 7.12958 2.962 7.13502 2.94185C7.13502 2.93668 7.14973 2.93423 7.15789 2.93123C7.17287 2.92606 7.19084 2.92796 7.19819 2.90754C7.2001 2.90292 7.21425 2.90319 7.22242 2.89992C7.23059 2.89665 7.24366 2.89066 7.254 2.88522C7.26435 2.87977 7.27606 2.87269 7.28777 2.86779C7.29947 2.86289 7.31908 2.86534 7.32343 2.84574C7.32343 2.84574 7.32507 2.84193 7.32561 2.84193C7.36373 2.84656 7.38796 2.8147 7.42172 2.80626C7.43978 2.80029 7.45735 2.79292 7.47427 2.78421C7.48207 2.78044 7.49017 2.77735 7.4985 2.77495C7.51674 2.77114 7.53798 2.77495 7.54887 2.75344C7.55105 2.74881 7.56248 2.748 7.56983 2.74691C7.59706 2.74228 7.62619 2.74691 7.64797 2.71968C7.65478 2.71179 7.67356 2.71315 7.68691 2.71179C7.7125 2.70906 7.73891 2.71179 7.75769 2.6881C7.75975 2.68588 7.76257 2.68451 7.76559 2.68429C7.83366 2.693 7.89029 2.64236 7.95808 2.64753C7.98382 2.65076 8.0098 2.64382 8.0305 2.6282C8.04249 2.62198 8.05598 2.61924 8.06944 2.62031C8.10892 2.6184 8.14812 2.61813 8.18733 2.61622C8.21914 2.61893 8.25107 2.61281 8.27963 2.59852C8.29216 2.59321 8.30585 2.59124 8.31938 2.59281C8.44925 2.59281 8.57939 2.59281 8.70926 2.59281C8.72691 2.59536 8.74425 2.59974 8.76099 2.60588C8.77535 2.6098 8.79001 2.61253 8.80482 2.61404C8.84403 2.61622 8.88351 2.61677 8.92271 2.61813C8.9529 2.61545 8.98314 2.62251 9.00902 2.63827C9.02182 2.6478 9.0436 2.64508 9.06157 2.64699C9.09887 2.65053 9.13726 2.64699 9.17048 2.67421C9.17837 2.68075 9.19362 2.67884 9.2056 2.67993C9.23282 2.68211 9.26005 2.67803 9.28101 2.70144C9.28755 2.70852 9.30361 2.70743 9.31559 2.70906C9.34282 2.71288 9.37222 2.70906 9.394 2.73629C9.40081 2.74419 9.4196 2.74228 9.43294 2.74419C9.45036 2.74691 9.46997 2.74419 9.48031 2.76352C9.48167 2.76624 9.48494 2.76951 9.48685 2.76951C9.52986 2.76542 9.56226 2.79374 9.59956 2.80599C9.61454 2.81089 9.63441 2.80599 9.63986 2.82832C9.63986 2.83049 9.64476 2.83376 9.64639 2.83322C9.68614 2.82505 9.70793 2.86453 9.74305 2.86943C9.75176 2.86943 9.75993 2.87923 9.76782 2.88495C9.77136 2.8874 9.77381 2.8942 9.77681 2.8942C9.80894 2.89257 9.82936 2.91735 9.85577 2.92851C9.86911 2.93395 9.88708 2.93123 9.89116 2.95111C9.89116 2.95356 9.89552 2.95737 9.89742 2.9571C9.93173 2.95301 9.94915 2.98432 9.9791 2.99412C9.99953 3.0008 10.0182 3.01207 10.0336 3.02707C10.0662 3.06028 10.1199 3.06519 10.1425 3.10875C10.1434 3.10994 10.1445 3.11094 10.1458 3.11169C10.1471 3.11243 10.1486 3.11292 10.1501 3.1131C10.1898 3.11637 10.2092 3.14714 10.2353 3.17137C10.2497 3.18441 10.2654 3.19591 10.2821 3.20567C10.3222 3.23036 10.3588 3.2602 10.391 3.29443C10.4158 3.31812 10.4436 3.3399 10.4684 3.3644C10.4931 3.38891 10.5228 3.42131 10.55 3.44908C10.5773 3.47685 10.6007 3.497 10.6249 3.52205C10.6491 3.54709 10.6742 3.57813 10.7011 3.60373C10.716 3.61845 10.7294 3.63459 10.7412 3.65192C10.7581 3.67533 10.7763 3.69738 10.794 3.71998C10.804 3.73441 10.8148 3.74822 10.8264 3.76137C10.8591 3.79485 10.8686 3.84577 10.9105 3.87245C10.9137 3.87556 10.9156 3.87972 10.916 3.88416C10.9214 3.91955 10.9475 3.94106 10.9704 3.96584C10.9723 3.96802 10.9764 3.97019 10.9761 3.97237C10.9742 4.00749 11.0102 4.02492 11.0162 4.05677C11.0183 4.06685 11.0287 4.07529 11.0352 4.084C11.0385 4.08863 11.0445 4.09353 11.0445 4.09816C11.0445 4.12293 11.0646 4.13709 11.0717 4.15615C11.078 4.17583 11.0877 4.19426 11.1003 4.2106C11.1082 4.21959 11.1038 4.24055 11.112 4.2479C11.1411 4.27322 11.1286 4.31978 11.1629 4.34184C11.1675 4.34483 11.1675 4.35545 11.1689 4.3628C11.1722 4.38022 11.1708 4.39955 11.1901 4.41017C11.1914 4.41105 11.1924 4.41219 11.1931 4.41351C11.1938 4.41483 11.1942 4.4163 11.1942 4.4178C11.2001 4.45393 11.2118 4.48887 11.2288 4.52126C11.2386 4.54494 11.2302 4.57571 11.2574 4.59341C11.2626 4.59695 11.2615 4.61029 11.2623 4.61927C11.265 4.6465 11.2607 4.67373 11.286 4.6936C11.287 4.69475 11.2877 4.6961 11.2881 4.69756C11.2885 4.69901 11.2886 4.70054 11.2884 4.70204C11.2854 4.77637 11.3369 4.84062 11.329 4.91631C11.3276 4.93074 11.3388 4.94626 11.3437 4.96124C11.3482 4.97213 11.3514 4.98357 11.3529 4.99527C11.3554 5.02821 11.3529 5.0617 11.3578 5.09465C11.3628 5.12759 11.3698 5.15917 11.3758 5.1913C11.379 5.20455 11.3811 5.21802 11.3821 5.2316C11.3845 5.30865 11.3878 5.3857 11.3881 5.46275C11.3881 5.65769 11.3881 5.85263 11.3881 6.04757L11.387 6.11482ZM8.51268 6.64792H6.13064C6.08693 6.65023 6.04312 6.65023 5.99941 6.64792C5.94632 6.64247 5.90956 6.68712 5.85919 6.68549C5.85729 6.68549 5.85375 6.68903 5.85348 6.69121C5.84994 6.70945 5.83414 6.70727 5.82162 6.71108C5.8091 6.71489 5.80066 6.71462 5.79712 6.72061C5.77806 6.75328 5.73504 6.76145 5.72034 6.79766C5.69829 6.80011 5.69856 6.82489 5.68576 6.83415C5.65991 6.85164 5.64117 6.87782 5.63294 6.90793C5.63158 6.91501 5.63022 6.92535 5.62559 6.92808C5.60163 6.94169 5.60245 6.96483 5.60027 6.98716C5.60027 6.9975 5.60027 7.01221 5.59319 7.01711C5.56869 7.03644 5.57359 7.06285 5.5725 7.08735C5.57114 7.1222 5.5725 7.15705 5.5725 7.19163C5.5725 8.5348 5.5725 9.87861 5.5725 11.2231C5.57041 11.2577 5.57104 11.2925 5.5744 11.3271C5.58274 11.3705 5.59337 11.4135 5.60626 11.4558C5.60626 11.4594 5.61334 11.461 5.61579 11.4646C5.62178 11.4727 5.63131 11.4809 5.63212 11.4899C5.63512 11.5239 5.67106 11.5397 5.67541 11.5716C5.6991 11.5792 5.70264 11.6056 5.72252 11.6206C5.74239 11.6355 5.76118 11.6462 5.77915 11.6606C5.80637 11.6829 5.83061 11.7112 5.86954 11.715C5.87362 11.715 5.87961 11.7183 5.8807 11.7213C5.8886 11.7453 5.90956 11.739 5.92644 11.7417C5.94332 11.7444 5.96647 11.7417 5.97845 11.7507C5.99681 11.764 6.01928 11.7703 6.04188 11.7687C6.07047 11.7687 6.09933 11.7687 6.12819 11.7687H10.8928C10.9217 11.7687 10.9503 11.7687 10.9791 11.7687C11.03 11.7668 11.0739 11.7314 11.1267 11.7382C11.1267 11.7382 11.1302 11.7382 11.1305 11.7363C11.1384 11.7131 11.161 11.7161 11.1779 11.709C11.1963 11.7027 11.2129 11.6921 11.2263 11.678C11.2449 11.6538 11.2808 11.6538 11.2933 11.6236C11.3293 11.6154 11.3257 11.5735 11.3521 11.5552C11.369 11.5425 11.3814 11.5248 11.3875 11.5046C11.3984 11.4673 11.4297 11.4376 11.4267 11.3957C11.427 11.3911 11.429 11.3869 11.4322 11.3837C11.4468 11.3642 11.4535 11.3399 11.451 11.3156C11.451 11.2854 11.451 11.2552 11.451 11.225V7.19952C11.4532 7.16486 11.4526 7.13008 11.4491 7.09552C11.4409 7.04461 11.4259 6.99505 11.4137 6.94496C11.4133 6.94354 11.4126 6.94221 11.4118 6.94104C11.4109 6.93987 11.4098 6.93889 11.4085 6.93815C11.3902 6.93243 11.3908 6.91637 11.387 6.90194C11.385 6.89318 11.3809 6.88504 11.375 6.87825C11.3478 6.85239 11.3287 6.81972 11.2996 6.79494C11.2623 6.76363 11.2361 6.71816 11.1825 6.7089C11.1787 6.7089 11.1727 6.70509 11.1722 6.7021C11.1675 6.68141 11.1504 6.68494 11.1362 6.68168C11.1221 6.67841 11.1142 6.67487 11.103 6.67106C11.0846 6.66222 11.0651 6.65573 11.045 6.65173C10.9955 6.64764 10.9454 6.6471 10.8955 6.6471L8.51268 6.64792ZM10.7559 6.02007C10.7587 6.00633 10.7606 5.99242 10.7616 5.97842C10.7616 5.74736 10.7607 5.51611 10.7589 5.28469C10.7575 5.26363 10.7541 5.24275 10.7488 5.22234C10.7444 5.20219 10.736 5.18259 10.7335 5.16217C10.73 5.13059 10.73 5.09873 10.7276 5.06715C10.7276 5.05517 10.7276 5.03992 10.7216 5.0323C10.6971 5.00725 10.7025 4.97785 10.6992 4.94708C10.6976 4.93238 10.6992 4.91277 10.6922 4.90352C10.6752 4.88022 10.6664 4.85199 10.6671 4.8232C10.6655 4.81149 10.6671 4.79461 10.6592 4.78889C10.6358 4.76983 10.6374 4.74479 10.6347 4.71974C10.6347 4.71103 10.6331 4.69823 10.6274 4.69442C10.6061 4.68053 10.6078 4.65902 10.6031 4.63996C10.6004 4.63174 10.5968 4.6238 10.5925 4.61628C10.586 4.60158 10.5794 4.58687 10.5735 4.5719C10.5688 4.56101 10.5658 4.5493 10.5612 4.53841C10.5566 4.52752 10.5487 4.51282 10.5424 4.50002C10.5386 4.49185 10.5378 4.47906 10.5315 4.47579C10.5119 4.46544 10.5138 4.44666 10.5073 4.43032C10.4992 4.41514 10.4901 4.4005 10.4801 4.38649C10.467 4.36198 10.4607 4.32986 10.4411 4.31379C10.4139 4.29065 10.4161 4.25035 10.3867 4.23048C10.3742 4.22293 10.3646 4.21143 10.3595 4.19781C10.3473 4.16429 10.326 4.13486 10.2979 4.11286C10.2815 4.09306 10.2676 4.07141 10.2563 4.04833C10.2533 4.04343 10.2514 4.03663 10.247 4.03336C10.2059 4.0045 10.1825 3.95876 10.1427 3.9269C10.1095 3.89823 10.0786 3.86691 10.0504 3.83324C10.0379 3.81909 10.0218 3.81092 10.0104 3.79676C9.98366 3.76459 9.95184 3.737 9.91621 3.71508C9.89507 3.70583 9.87579 3.69283 9.8593 3.67669C9.83208 3.6364 9.78225 3.62523 9.7504 3.59202C9.73959 3.57918 9.72532 3.56973 9.70929 3.56479C9.6758 3.55962 9.65701 3.5313 9.62761 3.52014C9.59031 3.50598 9.56254 3.47059 9.5187 3.46569C9.51407 3.46569 9.51081 3.45725 9.50591 3.45425C9.49818 3.44719 9.48882 3.44214 9.47868 3.43955C9.43729 3.43764 9.41116 3.39381 9.36705 3.40034C9.36487 3.40034 9.36052 3.39762 9.35997 3.39544C9.35453 3.37312 9.33492 3.37775 9.31968 3.37366C9.3096 3.37121 9.29653 3.37121 9.29054 3.36468C9.28178 3.35632 9.27137 3.34987 9.25998 3.34574C9.24859 3.34162 9.23647 3.33991 9.22438 3.34072C9.21703 3.34072 9.20587 3.34072 9.2026 3.33718C9.17946 3.3075 9.14597 3.31431 9.11548 3.30995C9.10486 3.31003 9.09445 3.307 9.08553 3.30124C9.06293 3.27728 9.03353 3.28136 9.00548 3.2781C8.98751 3.27619 8.96355 3.28 8.95321 3.26993C8.94385 3.26239 8.93309 3.25679 8.92154 3.25347C8.90999 3.25015 8.89789 3.24917 8.88596 3.2506C8.85438 3.24842 8.82252 3.24896 8.79094 3.24651C8.77258 3.24492 8.75438 3.24192 8.73649 3.23753C8.71831 3.23107 8.69951 3.22651 8.6804 3.22392C8.56714 3.22255 8.4536 3.22392 8.34034 3.22392C8.32533 3.22509 8.31046 3.22774 8.29596 3.23181C8.27148 3.23831 8.24667 3.24349 8.22163 3.24733C8.18733 3.25087 8.15221 3.25005 8.11763 3.25169C8.10701 3.25169 8.09285 3.25169 8.08686 3.25713C8.06127 3.28436 8.02833 3.27565 7.99783 3.28C7.98139 3.27974 7.96513 3.28348 7.95046 3.29089C7.93082 3.30488 7.90732 3.3124 7.88321 3.3124C7.86687 3.31431 7.84373 3.3124 7.83556 3.32111C7.81786 3.34181 7.79663 3.3399 7.77485 3.3429C7.73646 3.34807 7.70869 3.38265 7.66812 3.38237C7.66159 3.40606 7.64089 3.40143 7.62374 3.40552C7.6154 3.40774 7.60728 3.41074 7.59951 3.4145C7.58372 3.42158 7.5682 3.42975 7.55241 3.4371C7.53662 3.44445 7.52817 3.44717 7.5162 3.45262C7.50422 3.45806 7.49659 3.46351 7.48652 3.46787C7.47644 3.47222 7.46746 3.47086 7.46093 3.47603C7.42989 3.49972 7.40212 3.52804 7.36046 3.53321C7.35749 3.53387 7.35486 3.53562 7.35311 3.53811C7.33677 3.5686 7.29866 3.56697 7.27688 3.59256C7.26423 3.6052 7.24912 3.61512 7.2325 3.62169C7.21894 3.62701 7.20668 3.63518 7.19656 3.64565C7.17429 3.67235 7.14712 3.69453 7.11651 3.711C7.07849 3.73076 7.04429 3.75713 7.0155 3.78887C6.98011 3.82535 6.94335 3.86183 6.9066 3.89777C6.87287 3.93816 6.8353 3.97518 6.79442 4.00831C6.78157 4.019 6.77085 4.03203 6.76284 4.0467C6.74786 4.06957 6.73942 4.10115 6.71928 4.11586C6.6798 4.1458 6.66482 4.19236 6.63542 4.22776C6.61963 4.24627 6.59376 4.2656 6.59594 4.29746C6.5959 4.29893 6.59554 4.30037 6.59488 4.30169C6.59422 4.30301 6.59328 4.30416 6.59213 4.30508C6.563 4.3274 6.55701 4.36389 6.53768 4.39193C6.51902 4.41295 6.50641 4.43864 6.50119 4.46626C6.47696 4.47361 6.47941 4.49512 6.47533 4.51391C6.47296 4.5205 6.46986 4.5268 6.46607 4.53269C6.45697 4.54763 6.44974 4.56363 6.44456 4.58034C6.43748 4.61628 6.40536 4.64323 6.40781 4.68244C6.40781 4.68434 6.40263 4.68598 6.40154 4.68843C6.39416 4.70261 6.3877 4.71725 6.38221 4.73226C6.37813 4.74479 6.38221 4.76466 6.37486 4.7712C6.34764 4.79434 6.35335 4.82565 6.349 4.85288C6.34829 4.86327 6.34512 4.87335 6.33974 4.88228C6.32591 4.90386 6.3188 4.92907 6.31932 4.9547C6.31964 4.97722 6.31499 4.99953 6.30571 5.02005C6.29483 5.03793 6.28908 5.05847 6.2891 5.0794C6.28747 5.11125 6.28692 5.14284 6.28501 5.17469C6.28501 5.1864 6.28502 5.20192 6.27875 5.20954C6.27107 5.21974 6.26553 5.2314 6.26249 5.2438C6.25945 5.2562 6.25896 5.26909 6.26106 5.28169C6.25979 5.51312 6.25888 5.74436 6.25833 5.97542C6.2591 5.99139 6.26083 6.00731 6.26351 6.02307H6.91013C6.9115 5.99938 6.91367 5.97869 6.91367 5.958C6.91367 5.74944 6.91367 5.54089 6.91558 5.33179C6.91316 5.31105 6.91616 5.29003 6.92429 5.2708C6.93837 5.24082 6.94562 5.20809 6.94553 5.17496C6.94934 5.14148 6.94063 5.10472 6.97276 5.07831C6.97629 5.07532 6.97548 5.06688 6.97629 5.06089C6.98038 5.02576 6.97629 4.98792 7.00515 4.9596C7.00842 4.95634 7.00761 4.94817 7.00788 4.94218C7.01142 4.89834 7.05171 4.86676 7.04763 4.82048C7.04763 4.81748 7.05389 4.81449 7.05607 4.81067C7.06169 4.80125 7.06678 4.79153 7.07132 4.78154C7.07485 4.77337 7.07404 4.76112 7.08003 4.75622C7.10943 4.73199 7.10725 4.68924 7.13448 4.66447C7.15599 4.64541 7.16007 4.61573 7.17505 4.59395C7.19788 4.56688 7.21837 4.53791 7.23631 4.50737C7.24772 4.48996 7.26177 4.47444 7.27796 4.46136C7.30192 4.43604 7.32534 4.41045 7.34957 4.3854C7.3738 4.36035 7.40402 4.33094 7.43125 4.30372C7.45848 4.27649 7.48298 4.2528 7.51075 4.22966C7.52934 4.20785 7.55248 4.19038 7.57854 4.17848C7.58571 4.17712 7.59244 4.17403 7.59815 4.16949C7.62238 4.14553 7.64362 4.11803 7.67983 4.1134C7.68473 4.1134 7.68881 4.1066 7.69344 4.1036C7.71822 4.08754 7.74299 4.0712 7.76859 4.05596C7.77594 4.05133 7.78982 4.05242 7.79282 4.04697C7.80316 4.02682 7.82004 4.02682 7.83883 4.0241C7.84614 4.02365 7.85308 4.02066 7.85843 4.01566C7.86493 4.00834 7.87295 4.00252 7.88194 3.99861C7.89092 3.99471 7.90064 3.99282 7.91043 3.99306C7.92078 3.99143 7.9363 3.99089 7.94011 3.98462C7.95427 3.95958 7.97741 3.96339 7.99919 3.96121C8.00818 3.96121 8.02097 3.96121 8.02642 3.95604C8.0482 3.92745 8.08087 3.93507 8.1081 3.93017C8.11996 3.92885 8.13139 3.92495 8.14159 3.91874C8.16017 3.90562 8.18257 3.89902 8.2053 3.89995C8.23252 3.89995 8.25975 3.89995 8.28698 3.89668C8.29869 3.89529 8.3102 3.89255 8.32128 3.88851C8.33556 3.88162 8.35065 3.87659 8.36621 3.87354C8.46286 3.87218 8.55979 3.87354 8.65644 3.87354C8.66542 3.87354 8.67768 3.87354 8.68367 3.87708C8.71089 3.90431 8.74547 3.89695 8.7776 3.89913C8.81653 3.90158 8.85601 3.89723 8.88977 3.92636C8.90037 3.93227 8.91263 3.93447 8.92462 3.93262C8.97526 3.92881 9.01338 3.97509 9.06484 3.96747C9.06634 3.9677 9.06778 3.96829 9.06901 3.9692C9.07024 3.9701 9.07124 3.97128 9.07192 3.97264C9.08036 3.99388 9.10078 3.99034 9.11738 3.99606C9.13242 4.0018 9.14715 4.00835 9.16149 4.01566C9.16803 4.01866 9.17401 4.02492 9.18055 4.02546C9.21693 4.03188 9.25094 4.04785 9.27911 4.07175C9.31859 4.09897 9.36378 4.11558 9.39972 4.14934C9.43049 4.17793 9.4746 4.19236 9.50591 4.2204C9.53722 4.24845 9.57533 4.28466 9.60882 4.3176C9.64522 4.34967 9.67808 4.38554 9.70684 4.4246C9.718 4.44121 9.73951 4.4502 9.75258 4.46599C9.768 4.48628 9.78236 4.50737 9.79559 4.52915C9.80104 4.53732 9.8073 4.54522 9.81356 4.55311C9.82718 4.57081 9.84787 4.58633 9.85304 4.6062C9.86396 4.63721 9.8811 4.66565 9.90341 4.68979C9.91887 4.71548 9.93269 4.74213 9.9448 4.76956C9.95569 4.78596 9.96439 4.80372 9.97066 4.82238C9.98046 4.86268 10.0055 4.89671 10.0126 4.93728C10.0142 4.94599 10.0126 4.9577 10.0183 4.96287C10.0439 4.98792 10.0431 5.02005 10.0455 5.05136C10.0455 5.06198 10.0455 5.07668 10.0515 5.08185C10.0804 5.10663 10.0717 5.13984 10.0749 5.17006C10.0738 5.1971 10.0771 5.22415 10.0847 5.25011C10.0986 5.28017 10.1048 5.31317 10.103 5.34622C10.103 5.54878 10.1046 5.75135 10.1057 5.95391C10.1057 5.97569 10.109 5.99775 10.1109 6.02035L10.7559 6.02007ZM9.47623 6.02007C9.47786 5.99448 9.48058 5.97379 9.48086 5.95282C9.48086 5.82295 9.48086 5.69308 9.48086 5.56294C9.48086 5.49651 9.48086 5.43008 9.47786 5.36364C9.47931 5.34556 9.47622 5.32741 9.46888 5.31082C9.45688 5.28516 9.44995 5.25743 9.44846 5.22915C9.43893 5.18504 9.42477 5.14175 9.41252 5.09819C9.41167 5.09529 9.40972 5.09284 9.40707 5.09138C9.38584 5.08566 9.38856 5.06688 9.38529 5.05136C9.38366 5.04401 9.38339 5.03175 9.37985 5.03066C9.35752 5.02331 9.36106 5.00344 9.35398 4.98737C9.34743 4.97026 9.33678 4.95502 9.32294 4.943C9.29381 4.92312 9.30198 4.87738 9.26495 4.86513C9.24371 4.81585 9.19062 4.79461 9.16367 4.74942C9.15414 4.73308 9.12528 4.72845 9.11521 4.71239C9.09751 4.6838 9.06266 4.68298 9.04251 4.65793C9.0262 4.64034 9.00539 4.62754 8.98234 4.62091C8.9513 4.61056 8.92952 4.57789 8.89195 4.58388C8.89031 4.58388 8.88678 4.58061 8.88596 4.57816C8.87834 4.55801 8.85873 4.56128 8.84376 4.55774C8.82878 4.5542 8.81163 4.55774 8.80482 4.54903C8.77923 4.51853 8.74465 4.52834 8.71334 4.52425C8.69265 4.52126 8.66706 4.52425 8.65208 4.51445C8.6318 4.50141 8.60777 4.49548 8.58375 4.49757C8.53093 4.49757 8.47811 4.49757 8.42501 4.49757C8.41304 4.49757 8.39779 4.49512 8.38989 4.50165C8.35749 4.53051 8.31829 4.52044 8.28099 4.52534C8.26601 4.52725 8.24423 4.52371 8.2377 4.53215C8.21864 4.55638 8.1925 4.55257 8.16854 4.55937C8.13805 4.56754 8.11409 4.5964 8.07978 4.59259C8.07978 4.59259 8.07761 4.59477 8.07706 4.59586C8.07216 4.61682 8.05256 4.61464 8.03813 4.62118C8.03021 4.62493 8.02264 4.6294 8.01553 4.63452C7.99781 4.64999 7.97866 4.66376 7.95835 4.67563C7.91715 4.69908 7.8803 4.72948 7.84945 4.76548C7.83638 4.778 7.8244 4.79271 7.81188 4.80414C7.78683 4.82973 7.75007 4.85015 7.73755 4.88037C7.71849 4.92802 7.66921 4.95743 7.66404 5.01161C7.66355 5.01373 7.66258 5.01572 7.66121 5.01741C7.65984 5.01911 7.65811 5.02048 7.65614 5.02141C7.63354 5.02631 7.63735 5.04564 7.63381 5.06089C7.63191 5.06796 7.63381 5.08022 7.62837 5.08185C7.60114 5.09329 7.60795 5.11833 7.60386 5.1393C7.60313 5.14981 7.59945 5.15991 7.59325 5.16843C7.57782 5.1872 7.57021 5.21118 7.57201 5.23541C7.5701 5.25474 7.57364 5.27924 7.56357 5.29258C7.54705 5.31794 7.54002 5.34831 7.54369 5.37835C7.54369 5.57601 7.54369 5.77395 7.54369 5.97188C7.54369 5.98767 7.54696 6.00347 7.54859 6.02035L9.47623 6.02007Z" fill="#343A40"/>
<path d="M8.51314 0C8.6539 0 8.79439 0 8.93515 0C8.95579 0.0024691 8.97619 0.00665839 8.99614 0.0125242C9.01513 0.0168195 9.03443 0.0196413 9.05386 0.0209644C9.14316 0.023687 9.23246 0.0242316 9.3215 0.027771C9.34205 0.0304192 9.36229 0.0350698 9.38194 0.0416565C9.39625 0.045982 9.41092 0.0489895 9.42577 0.0506412C9.47233 0.0539084 9.51943 0.0539084 9.56599 0.0588092C9.5907 0.0636858 9.61507 0.0701426 9.63896 0.07814C9.65194 0.0817713 9.66526 0.0840523 9.67871 0.0849466C9.71492 0.0868524 9.7514 0.0849466 9.78761 0.0895751C9.80787 0.0934927 9.82781 0.0989539 9.84724 0.105911C9.86298 0.110158 9.87899 0.113341 9.89516 0.11544C9.94117 0.120069 9.98718 0.11544 10.0313 0.142667C10.0525 0.155191 10.0844 0.150018 10.1113 0.152468C10.1334 0.154646 10.1557 0.152468 10.1734 0.172344C10.1794 0.179422 10.1957 0.178606 10.2077 0.179695C10.2507 0.182962 10.2946 0.179695 10.3335 0.206921C10.3455 0.215361 10.3659 0.21155 10.3822 0.214C10.4067 0.217812 10.4318 0.214 10.453 0.236598C10.4623 0.2464 10.4873 0.241771 10.5053 0.243949C10.5325 0.246944 10.5598 0.241499 10.5804 0.266003C10.5867 0.273354 10.603 0.273081 10.6148 0.274715C10.6402 0.274183 10.6651 0.282346 10.6853 0.297858C10.6964 0.307931 10.7198 0.304664 10.7375 0.307115C10.7552 0.309565 10.7784 0.307115 10.7947 0.32699C10.8018 0.335975 10.8219 0.334886 10.8369 0.337336C10.8573 0.340875 10.8799 0.337336 10.8938 0.358573C10.8955 0.360751 10.8987 0.363473 10.9012 0.363201C10.9505 0.359389 10.9894 0.39315 11.0357 0.399957C11.0539 0.39942 11.0716 0.40607 11.085 0.418471C11.0926 0.425227 11.1021 0.429582 11.1122 0.430995C11.1367 0.435079 11.1639 0.430995 11.1802 0.456043C11.1824 0.459583 11.1914 0.45931 11.1974 0.460127C11.2246 0.464483 11.2546 0.460127 11.2747 0.487354C11.2793 0.493888 11.2943 0.492799 11.3047 0.494977C11.315 0.497155 11.3294 0.494977 11.3349 0.501784C11.3438 0.510676 11.3546 0.51752 11.3664 0.521845C11.3783 0.52617 11.3909 0.527871 11.4035 0.526832C11.4064 0.526989 11.4091 0.527749 11.4117 0.529063C11.4142 0.530378 11.4164 0.532216 11.4182 0.534456C11.4283 0.554059 11.4479 0.55297 11.465 0.556509C11.4822 0.560048 11.5018 0.558415 11.5113 0.578562C11.5113 0.581285 11.5159 0.584552 11.5179 0.58428C11.5587 0.57584 11.5821 0.618041 11.6197 0.619402C11.6287 0.620044 11.6371 0.6238 11.6436 0.63002C11.6577 0.643747 11.6765 0.651626 11.6962 0.652074C11.7083 0.655912 11.7197 0.661706 11.7299 0.669227C11.7359 0.673367 11.7424 0.676581 11.7493 0.678756C11.77 0.682295 11.7909 0.682568 11.8037 0.705982C11.8065 0.711428 11.8201 0.711972 11.8288 0.713333C11.8438 0.715512 11.8585 0.714967 11.8672 0.73212C11.8702 0.738109 11.8824 0.740832 11.8911 0.742193C11.9061 0.744916 11.9208 0.746005 11.9295 0.761524C11.9323 0.765088 11.9363 0.767586 11.9407 0.768603C11.9656 0.773124 11.9887 0.784754 12.0071 0.802092C12.0482 0.797191 12.0744 0.830952 12.1079 0.844837C12.1355 0.852357 12.1606 0.867004 12.1808 0.887311C12.1864 0.892411 12.1933 0.895893 12.2007 0.897384C12.2159 0.902013 12.2347 0.900379 12.2404 0.921344C12.2412 0.922661 12.2424 0.923754 12.2437 0.924516C12.245 0.925279 12.2465 0.925687 12.2481 0.9257C12.284 0.9257 12.3047 0.960822 12.3393 0.963817C12.3455 0.963817 12.3515 0.971168 12.357 0.975797C12.3624 0.980425 12.3646 0.98941 12.3676 0.989138C12.4022 0.985326 12.4188 1.01909 12.4493 1.02671C12.469 1.03193 12.4869 1.0427 12.5007 1.05775C12.5236 1.08497 12.5647 1.0779 12.5824 1.10921C12.5849 1.11329 12.5928 1.11438 12.5985 1.11601C12.6268 1.12861 12.653 1.14541 12.6763 1.16584C12.6848 1.17171 12.694 1.17655 12.7036 1.18027C12.7158 1.18517 12.7308 1.18408 12.7346 1.20205C12.7346 1.20586 12.7433 1.21049 12.7482 1.21076C12.7847 1.21457 12.8051 1.24234 12.8299 1.26331C12.8332 1.26603 12.8364 1.27039 12.8402 1.27093C12.8792 1.27801 12.9012 1.31123 12.9323 1.32811C12.9564 1.34014 12.9794 1.35436 13.0009 1.37058C13.0493 1.40979 13.1128 1.43075 13.1471 1.48711C13.1934 1.50617 13.1969 1.55872 13.2288 1.59003C13.2339 1.59493 13.2326 1.60718 13.2328 1.61725C13.2328 1.66544 13.235 1.71391 13.2348 1.7621C13.2348 1.78306 13.2383 1.80974 13.2274 1.82417C13.2032 1.85657 13.1915 1.89687 13.1634 1.92518C13.1432 1.94149 13.1213 1.95555 13.0981 1.96711C13.0911 1.97155 13.0845 1.97646 13.0782 1.98181C13.0752 1.98454 13.0725 1.99134 13.0703 1.99107C13.0137 1.98672 12.9668 2.03518 12.9089 2.02102C12.8933 2.01676 12.8781 2.01167 12.8631 2.00577C12.859 2.00414 12.8552 1.99788 12.8525 1.99842C12.8111 2.00659 12.7863 1.9712 12.7526 1.96003C12.7316 1.94912 12.7124 1.93507 12.6957 1.91838C12.6902 1.91429 12.6851 1.90721 12.6788 1.90585C12.6458 1.89932 12.6281 1.87127 12.6036 1.85303C12.599 1.84977 12.5952 1.84323 12.5906 1.84296C12.5538 1.83996 12.5361 1.80838 12.5089 1.79068C12.5054 1.78823 12.5032 1.78224 12.4996 1.7817C12.4468 1.77408 12.418 1.72235 12.3668 1.71173C12.354 1.6796 12.315 1.6845 12.2941 1.65973C12.2772 1.63985 12.2451 1.6325 12.22 1.61916C12.2126 1.6152 12.2056 1.61055 12.1991 1.60527C12.1947 1.60173 12.1914 1.59248 12.1879 1.59275C12.1528 1.59438 12.1356 1.55872 12.1024 1.55354C12.0823 1.55002 12.0642 1.53927 12.0515 1.52332C12.0308 1.49419 11.9881 1.50562 11.9698 1.47377C11.9665 1.46778 11.9538 1.46642 11.945 1.46451C11.9317 1.46152 11.9178 1.46152 11.9135 1.44409C11.9135 1.44164 11.9094 1.43783 11.9077 1.4381C11.8723 1.44137 11.8533 1.40815 11.8212 1.40189C11.8197 1.40217 11.8182 1.40217 11.8168 1.40189C11.802 1.39117 11.7866 1.38143 11.7705 1.37276C11.7553 1.36568 11.7346 1.37276 11.724 1.35179C11.7207 1.34499 11.7054 1.34444 11.6967 1.34009C11.688 1.33573 11.6769 1.32974 11.6671 1.3243C11.6573 1.31885 11.6556 1.31395 11.6488 1.31232C11.6276 1.3066 11.6036 1.30742 11.5908 1.28509C11.5481 1.287 11.5195 1.25024 11.4795 1.24371C11.4696 1.24091 11.4603 1.23619 11.4522 1.22982C11.4487 1.22764 11.446 1.22002 11.4438 1.22029C11.4013 1.22791 11.3771 1.18517 11.3373 1.18299C11.3233 1.17922 11.3101 1.17284 11.2984 1.1642C11.296 1.16284 11.2943 1.15794 11.2921 1.15821C11.257 1.15821 11.2301 1.1367 11.1993 1.12445C11.1767 1.11547 11.1481 1.122 11.1321 1.09478C11.1288 1.08906 11.1122 1.09096 11.1018 1.0896C11.0915 1.08824 11.0746 1.0896 11.0689 1.07272C11.0689 1.07027 11.0645 1.06673 11.0626 1.06701C11.0139 1.07027 10.978 1.0327 10.9322 1.02698C10.9151 1.02508 10.8949 1.02698 10.8854 1.00711C10.8847 1.00574 10.8837 1.00456 10.8825 1.00366C10.8812 1.00276 10.8798 1.00217 10.8783 1.00193C10.8239 1.0101 10.7852 0.966267 10.7343 0.963545C10.7268 0.964193 10.7194 0.963104 10.7124 0.960364C10.7055 0.957623 10.6992 0.953306 10.6943 0.947753C10.6866 0.938496 10.667 0.937135 10.6531 0.935774C10.6259 0.937635 10.599 0.92961 10.5772 0.913176C10.5696 0.906097 10.5546 0.906369 10.5429 0.904191C10.5186 0.899562 10.4928 0.904191 10.4737 0.879143C10.468 0.871247 10.4484 0.87397 10.4351 0.872064C10.4048 0.86798 10.3722 0.876965 10.3471 0.848377C10.34 0.840481 10.3213 0.843476 10.3079 0.841298C10.2788 0.836669 10.2475 0.841298 10.2241 0.814071C10.2183 0.807265 10.2015 0.809443 10.1895 0.808354C10.1546 0.804814 10.119 0.811349 10.0871 0.785211C10.0743 0.774865 10.0493 0.779494 10.0297 0.77786C9.99798 0.778963 9.96667 0.770827 9.93954 0.754445C9.92565 0.744372 9.90169 0.747639 9.88236 0.745461C9.84588 0.741377 9.80912 0.747639 9.77345 0.723135C9.75766 0.711972 9.72962 0.717417 9.70702 0.715784C9.65774 0.712517 9.60819 0.715784 9.56136 0.691824C9.5398 0.684677 9.51701 0.681991 9.49438 0.683929C9.46117 0.681751 9.42795 0.681206 9.39473 0.6793C9.38412 0.6793 9.3705 0.6793 9.3637 0.674672C9.33511 0.650168 9.30135 0.655886 9.26868 0.654796C9.19462 0.652346 9.12056 0.652074 9.04651 0.648807C9.02273 0.645942 8.99917 0.641485 8.97599 0.635466C8.95712 0.63097 8.9379 0.628056 8.91854 0.626753C8.70981 0.624575 8.50107 0.622942 8.29234 0.621853C8.22427 0.621853 8.1562 0.624303 8.08814 0.627298C8.07051 0.629866 8.05311 0.633873 8.03613 0.639277C8.01886 0.644142 8.00118 0.647423 7.98331 0.649079C7.90164 0.651802 7.81996 0.652618 7.73828 0.654796C7.72008 0.652844 7.70183 0.658015 7.68736 0.669227C7.67571 0.675883 7.66237 0.679005 7.64897 0.678211C7.60677 0.680934 7.5643 0.681751 7.5221 0.683657C7.48748 0.684134 7.45324 0.690964 7.42109 0.703804C7.39363 0.71156 7.36522 0.715409 7.33669 0.715239C7.30456 0.718779 7.2708 0.711428 7.24303 0.73702C7.23568 0.743827 7.21961 0.741649 7.20763 0.742466C7.17905 0.744099 7.15019 0.744644 7.1216 0.74655C7.10826 0.74655 7.0911 0.74655 7.08212 0.753084C7.05108 0.778405 7.01487 0.775682 6.97893 0.778677C6.95626 0.776797 6.93374 0.78372 6.91604 0.798008C6.90787 0.805903 6.89072 0.805087 6.87765 0.806448C6.84116 0.810532 6.80305 0.801819 6.77092 0.830407C6.76139 0.838847 6.74206 0.836397 6.72709 0.838575C6.69986 0.842659 6.67454 0.838575 6.65221 0.862534C6.64241 0.872608 6.61791 0.868524 6.59994 0.870702C6.5768 0.873153 6.55066 0.867163 6.53541 0.893028C6.53506 0.893693 6.53456 0.894263 6.53394 0.89469C6.53333 0.895117 6.53262 0.895387 6.53187 0.895478C6.47579 0.891667 6.43032 0.929239 6.37641 0.933868C6.35599 0.935774 6.33448 0.932234 6.32005 0.954832C6.31597 0.961094 6.30072 0.960822 6.29065 0.962728C6.26587 0.966812 6.23892 0.964361 6.22149 0.989954C6.21822 0.994583 6.2076 0.994583 6.20053 0.995672C6.1733 1.00003 6.14607 0.995672 6.12701 1.0229C6.12266 1.02889 6.10714 1.02698 6.09679 1.02807C6.07419 1.02998 6.0516 1.02807 6.03608 1.05149C6.03227 1.0572 6.02001 1.05802 6.0113 1.05993C5.99415 1.06347 5.97427 1.05993 5.9642 1.08062C5.96347 1.08195 5.96241 1.08307 5.96112 1.08388C5.95984 1.08469 5.95837 1.08516 5.95685 1.08525C5.91914 1.08929 5.8827 1.10116 5.84985 1.1201C5.82834 1.13072 5.79866 1.12255 5.78369 1.15005C5.78151 1.15413 5.76953 1.1525 5.76191 1.15359C5.7374 1.1574 5.7099 1.15086 5.69248 1.17727C5.68948 1.18163 5.67832 1.1819 5.67097 1.18217C5.63776 1.18217 5.60454 1.18381 5.57132 1.18217C5.55886 1.17929 5.54704 1.17412 5.53647 1.16693C5.53239 1.16502 5.52912 1.15903 5.52585 1.1593C5.49373 1.16148 5.4714 1.14215 5.4469 1.12636C5.40306 1.09913 5.36331 1.06809 5.34997 1.01419C5.34997 1.01119 5.34997 1.00683 5.34752 1.00575C5.30968 0.981514 5.32029 0.942308 5.31757 0.90773C5.31485 0.873153 5.31757 0.835308 5.31893 0.798825C5.31893 0.778405 5.31703 0.755534 5.34208 0.744372C5.34391 0.743118 5.34543 0.741459 5.34651 0.739522C5.3476 0.737586 5.34822 0.735426 5.34834 0.733209C5.3518 0.715991 5.35881 0.699687 5.36894 0.68534C5.37907 0.670993 5.39208 0.65892 5.40715 0.649896C5.42051 0.6402 5.4325 0.628753 5.44281 0.615863C5.45643 0.595987 5.47358 0.595987 5.49182 0.59027C5.51006 0.584552 5.52939 0.569033 5.54954 0.563043C5.56969 0.557054 5.59365 0.560048 5.60889 0.537178C5.61352 0.530099 5.63095 0.530644 5.64293 0.529555C5.66226 0.527377 5.68213 0.529555 5.69466 0.508318C5.69765 0.50369 5.70773 0.502056 5.71481 0.500967C5.72531 0.501216 5.73575 0.499315 5.74548 0.495383C5.75522 0.49145 5.76405 0.485567 5.77144 0.478097C5.7777 0.470473 5.79322 0.469929 5.80493 0.467206C5.82317 0.463122 5.84549 0.469112 5.85448 0.444336C5.85537 0.443152 5.85652 0.442192 5.85784 0.44153C5.85916 0.440869 5.86062 0.440524 5.8621 0.440524C5.91655 0.449237 5.9563 0.408125 6.00695 0.400774C6.04561 0.395056 6.08127 0.368102 6.12375 0.368646C6.14362 0.339242 6.17629 0.344415 6.20543 0.338969C6.20978 0.338969 6.21659 0.33897 6.2185 0.336247C6.24245 0.304392 6.27785 0.314193 6.3097 0.30902C6.31785 0.309498 6.32601 0.308268 6.33365 0.305408C6.34129 0.302547 6.34825 0.298121 6.35408 0.292412C6.36225 0.283155 6.38131 0.282338 6.39574 0.28016C6.42514 0.276076 6.45618 0.28016 6.47987 0.252934C6.48559 0.246944 6.49975 0.248305 6.50982 0.247216C6.53568 0.243949 6.56182 0.24885 6.58442 0.225435C6.59504 0.214272 6.62172 0.217812 6.64132 0.21645C6.66688 0.216236 6.69198 0.209588 6.71429 0.19712C6.73205 0.189154 6.75119 0.184716 6.77065 0.184051C6.80196 0.17915 6.83681 0.189768 6.86322 0.160092C6.86921 0.153557 6.88636 0.15628 6.89834 0.155191C6.94182 0.156313 6.98502 0.147951 7.02494 0.130687C7.05081 0.117074 7.08702 0.123608 7.1186 0.120069C7.15018 0.116529 7.18204 0.125786 7.20763 0.0982875C7.21335 0.0922977 7.22778 0.0939313 7.2384 0.0931145C7.26835 0.0914809 7.29857 0.0906641 7.32879 0.0887583C7.34087 0.0898045 7.35304 0.0882256 7.36446 0.0841298C7.41319 0.0569033 7.46683 0.0628931 7.51883 0.0588092C7.54606 0.056631 7.57328 0.0566311 7.60051 0.0549975C7.61171 0.055417 7.62282 0.0527818 7.63264 0.0473741C7.66776 0.0217812 7.70778 0.0272265 7.74644 0.0261374C7.8235 0.0239593 7.90082 0.0242316 7.97787 0.0215089C7.99851 0.0186245 8.0189 0.0141645 8.03886 0.00816794C8.05615 0.00370389 8.07384 0.00096782 8.09168 0C8.23216 0 8.37293 0 8.51341 0H8.51314Z" fill="#343A40"/>
<path d="M13.7028 2.60997C13.7028 2.589 13.7028 2.56776 13.7028 2.5468C13.7028 2.52584 13.699 2.50324 13.7246 2.49235C13.7276 2.49235 13.7295 2.485 13.73 2.48091C13.7333 2.4428 13.76 2.42156 13.7864 2.39923C13.7989 2.38834 13.8003 2.36574 13.8229 2.36547C13.8452 2.32899 13.8923 2.33825 13.9211 2.31102C13.9296 2.30367 13.9484 2.30612 13.9609 2.30585C13.9941 2.30585 14.0273 2.30585 14.0605 2.30585C14.0793 2.30585 14.1006 2.30585 14.1125 2.32572C14.1139 2.32751 14.1155 2.32902 14.1175 2.33014C14.1194 2.33126 14.1215 2.33198 14.1237 2.33226C14.1711 2.33362 14.195 2.37255 14.2272 2.39733C14.2519 2.41639 14.2609 2.45178 14.2879 2.46866C14.2885 2.46916 14.289 2.46978 14.2894 2.47048C14.2898 2.47118 14.29 2.47195 14.2901 2.47274C14.2901 2.52965 14.3353 2.57838 14.3216 2.63774C14.3172 2.65297 14.3118 2.66789 14.3053 2.68239C14.3029 2.68919 14.2971 2.69655 14.298 2.70281C14.3031 2.74038 14.277 2.7657 14.2618 2.79456C14.2508 2.8092 14.2383 2.82262 14.2245 2.83458C14.2046 2.8538 14.1838 2.87197 14.1621 2.88904C14.1508 2.89608 14.1378 2.89993 14.1245 2.9002C14.1071 2.90319 14.0889 2.9002 14.0758 2.91844C14.0691 2.92423 14.0604 2.92725 14.0516 2.92688C14.02 2.92688 13.9881 2.92852 13.9565 2.92688C13.9441 2.924 13.9323 2.91883 13.9217 2.91163C13.9179 2.90973 13.9141 2.90347 13.9113 2.90401C13.8708 2.91163 13.8482 2.87678 13.818 2.8629C13.8062 2.85823 13.7955 2.85129 13.7864 2.84245C13.7773 2.83362 13.7701 2.82308 13.7651 2.81144C13.7575 2.78884 13.7284 2.7785 13.7306 2.75073C13.6884 2.71125 13.7069 2.65679 13.7028 2.60997Z" fill="#343A40"/>
<path d="M7.57187 9.76548V9.30753C7.57091 9.29848 7.57091 9.28936 7.57187 9.28031C7.58058 9.23593 7.55199 9.20843 7.52722 9.17903C7.5234 9.17467 7.51633 9.17195 7.51496 9.16732C7.50379 9.13309 7.48423 9.1022 7.45806 9.07747C7.45376 9.07135 7.45114 9.06422 7.45044 9.05678C7.44744 9.04044 7.44663 9.02356 7.42838 9.0154C7.42593 9.0154 7.42457 9.01077 7.42375 9.00777C7.41041 8.96966 7.39653 8.93127 7.384 8.89288C7.38155 8.8858 7.38401 8.87545 7.37856 8.87164C7.34997 8.84795 7.35433 8.81528 7.35133 8.78424C7.34943 8.76682 7.35133 8.74912 7.33445 8.73496C7.32628 8.72816 7.3252 8.70991 7.3252 8.69685C7.3252 8.56071 7.3252 8.42458 7.3252 8.28845C7.32876 8.27298 7.33416 8.25799 7.34126 8.2438C7.34601 8.22844 7.34929 8.21267 7.35106 8.1967C7.34924 8.16935 7.35779 8.14232 7.37502 8.12101C7.37996 8.11363 7.38287 8.10509 7.38346 8.09623C7.38727 8.07772 7.38346 8.05593 7.40579 8.04613C7.40705 8.04531 7.40809 8.04418 7.40881 8.04285C7.40952 8.04151 7.40989 8.04002 7.40987 8.03851C7.40497 7.99876 7.43846 7.97426 7.45044 7.94131C7.458 7.91162 7.47443 7.88493 7.49754 7.8648C7.5019 7.86086 7.50486 7.8556 7.50598 7.84983C7.51672 7.81918 7.53553 7.792 7.56043 7.77115C7.58766 7.74229 7.6089 7.70825 7.63503 7.67885C7.65545 7.65598 7.67968 7.63637 7.70201 7.61541C7.73196 7.58818 7.76436 7.56096 7.79349 7.53373C7.81501 7.51722 7.83819 7.50298 7.86265 7.49126C7.87544 7.48336 7.88606 7.4722 7.89886 7.46403C7.91262 7.4562 7.9268 7.44911 7.94133 7.44279C7.94895 7.43898 7.95685 7.43517 7.96502 7.4319C7.97319 7.42864 7.99088 7.42591 7.99715 7.41775C8.00192 7.41214 8.00779 7.40756 8.01439 7.40428C8.02098 7.40101 8.02818 7.3991 8.03553 7.39869C8.0477 7.3949 8.05919 7.3892 8.06957 7.38181C8.07202 7.38045 8.07365 7.37555 8.07556 7.37555C8.12538 7.37827 8.16186 7.33634 8.21169 7.33607C8.22601 7.33857 8.2407 7.338 8.25479 7.33439C8.26887 7.33077 8.28202 7.3242 8.29337 7.3151C8.30045 7.3083 8.31624 7.30911 8.32822 7.30911C8.4491 7.30911 8.56999 7.30911 8.69115 7.30911C8.70657 7.31233 8.72155 7.31736 8.7358 7.32409C8.75603 7.32926 8.77659 7.33308 8.79733 7.33552C8.82238 7.33852 8.84743 7.33552 8.86812 7.35703C8.87683 7.36602 8.89535 7.36493 8.91087 7.36847C8.92638 7.37201 8.94544 7.36847 8.95198 7.38943C8.95318 7.39129 8.95483 7.39282 8.95678 7.39387C8.95874 7.39492 8.96092 7.39545 8.96314 7.39542C8.98114 7.39446 8.99913 7.39748 9.01584 7.40425C9.03254 7.41103 9.04755 7.4214 9.05979 7.43463C9.08539 7.45668 9.12105 7.45559 9.14311 7.48472C9.16052 7.49969 9.1803 7.51165 9.20164 7.52012C9.23595 7.53972 9.25773 7.57158 9.29095 7.59145C9.31587 7.60935 9.33854 7.63019 9.35847 7.65353C9.37998 7.67585 9.39985 7.69927 9.41973 7.72296C9.44396 7.75018 9.46765 7.7804 9.49188 7.80899C9.49542 7.81335 9.5025 7.81607 9.5044 7.8207C9.50938 7.84178 9.51991 7.86114 9.5349 7.87678C9.54775 7.89431 9.55862 7.91321 9.56729 7.93314C9.58299 7.96285 9.59593 7.99392 9.60596 8.02599C9.60922 8.03415 9.61412 8.04178 9.61766 8.04994C9.6251 8.06209 9.63087 8.07519 9.63482 8.08888C9.63634 8.10981 9.6437 8.1299 9.65605 8.14687C9.66319 8.16151 9.66656 8.1777 9.66585 8.19397C9.66553 8.21494 9.67151 8.23552 9.68301 8.25305C9.69241 8.2686 9.69678 8.28666 9.69553 8.30478C9.69662 8.43311 9.69662 8.56153 9.69553 8.69004C9.69655 8.70207 9.69389 8.71413 9.68791 8.72462C9.66504 8.7532 9.6664 8.78615 9.66395 8.81909C9.66395 8.83706 9.66232 8.85558 9.64407 8.86701C9.64229 8.86825 9.6408 8.86987 9.63972 8.87175C9.63864 8.87364 9.63799 8.87574 9.63781 8.8779C9.63352 8.9034 9.62516 8.92804 9.61303 8.95087C9.60187 8.98735 9.58254 9.01948 9.56947 9.0546C9.56214 9.07829 9.54893 9.09974 9.53108 9.11695C9.52052 9.12867 9.51237 9.14236 9.50712 9.15725C9.49837 9.17836 9.48464 9.19704 9.4671 9.2117C9.46076 9.21526 9.45557 9.22056 9.45215 9.22698C9.44872 9.2334 9.4472 9.24066 9.44777 9.24791C9.44641 9.26288 9.44777 9.27813 9.44777 9.29338C9.44777 9.60449 9.44777 9.91587 9.44777 10.2275C9.44777 10.2515 9.44777 10.2757 9.44559 10.2999C9.44559 10.3089 9.44559 10.3212 9.44124 10.3272C9.41564 10.3528 9.42191 10.3857 9.41782 10.4162C9.41835 10.4259 9.41677 10.4356 9.4132 10.4446C9.40963 10.4536 9.40415 10.4618 9.39713 10.4685C9.38787 10.4761 9.38814 10.4957 9.38515 10.5101C9.38215 10.5246 9.38515 10.5474 9.36391 10.5561C9.36206 10.5572 9.36047 10.5587 9.35929 10.5605C9.35811 10.5623 9.35736 10.5644 9.35711 10.5665C9.35493 10.6079 9.32335 10.6324 9.30265 10.6637C9.29901 10.6685 9.29633 10.6739 9.29476 10.6797C9.2885 10.7113 9.26209 10.7279 9.24303 10.75C9.22785 10.7658 9.21452 10.7832 9.20328 10.802C9.17877 10.8483 9.13085 10.8684 9.09437 10.9027C9.08192 10.9134 9.06892 10.9234 9.05544 10.9327C9.0434 10.944 9.03016 10.9539 9.01596 10.9624C9.00184 10.969 8.98843 10.977 8.97594 10.9863C8.94706 11.0031 8.91671 11.0172 8.88527 11.0285C8.87494 11.0335 8.86494 11.0391 8.85532 11.0454C8.85178 11.0476 8.84852 11.0536 8.84552 11.0533C8.78562 11.0503 8.73798 11.1009 8.67617 11.092C8.66654 11.0901 8.65659 11.0905 8.64714 11.0931C8.63768 11.0958 8.62898 11.1006 8.62172 11.1072C8.61017 11.1141 8.59675 11.1173 8.58333 11.1162C8.53351 11.1162 8.48341 11.1178 8.43359 11.1162C8.41658 11.1129 8.39997 11.1078 8.38403 11.1009C8.36831 11.0967 8.35229 11.0937 8.33611 11.092C8.30181 11.0887 8.26669 11.092 8.23755 11.0666C8.23002 11.0617 8.22125 11.059 8.21223 11.0587C8.19045 11.0563 8.16785 11.0587 8.15288 11.0356C8.1488 11.0291 8.13328 11.0304 8.12293 11.0274C8.11449 11.0253 8.10629 11.0224 8.09843 11.0187C8.06358 10.9997 8.03444 10.9705 7.99333 10.9615C7.98163 10.9588 7.97373 10.9425 7.96284 10.9343C7.919 10.9 7.87354 10.8673 7.83106 10.8317C7.81718 10.8164 7.80495 10.7997 7.79458 10.7818C7.77738 10.7561 7.75778 10.732 7.73604 10.71C7.71927 10.6896 7.7056 10.6668 7.69548 10.6424C7.68387 10.627 7.67469 10.6098 7.66825 10.5915C7.6643 10.5731 7.65479 10.5564 7.64102 10.5436C7.63606 10.536 7.63324 10.5271 7.63285 10.518C7.62986 10.4965 7.63285 10.4745 7.60998 10.4581C7.60209 10.4527 7.60372 10.4331 7.60263 10.4197C7.60225 10.3896 7.59528 10.36 7.58221 10.3329C7.57294 10.309 7.56922 10.2833 7.57132 10.2577C7.56969 10.1837 7.56996 10.1096 7.56969 10.0356C7.5716 9.94382 7.57187 9.85479 7.57187 9.76548ZM8.19808 9.64433C8.19808 9.80142 8.19644 9.95852 8.19808 10.1156C8.19808 10.1736 8.18283 10.2343 8.2253 10.2888C8.2381 10.3048 8.2381 10.3326 8.2577 10.3506C8.28329 10.3743 8.30235 10.405 8.32876 10.4276C8.34833 10.445 8.37222 10.4568 8.39792 10.4617C8.42514 10.466 8.44693 10.4851 8.47143 10.4875C8.50655 10.4911 8.54685 10.505 8.57789 10.4706C8.58115 10.4671 8.58905 10.4674 8.59504 10.4666C8.62477 10.4645 8.6532 10.4536 8.67672 10.4353C8.70258 10.4154 8.72409 10.392 8.74832 10.3713C8.76772 10.344 8.78389 10.3146 8.79651 10.2836C8.79775 10.2794 8.80033 10.2758 8.80386 10.2733C8.8232 10.2643 8.82047 10.246 8.82156 10.2302C8.82347 10.2046 8.82347 10.1788 8.82347 10.1532V9.21034C8.82347 9.1665 8.82347 9.12267 8.82347 9.07883C8.82347 9.06549 8.82211 9.04752 8.82973 9.03936C8.85696 9.01213 8.85505 8.96966 8.88255 8.94134C8.91005 8.91302 8.93265 8.87491 8.95878 8.84251C8.98002 8.81528 9.01106 8.79731 9.01324 8.75892C9.01324 8.75484 9.01569 8.74803 9.01841 8.74694C9.04319 8.73877 9.03828 8.71672 9.0421 8.69848C9.04455 8.68677 9.04482 8.67125 9.05244 8.66472C9.06126 8.65451 9.06773 8.64249 9.0714 8.6295C9.07507 8.61652 9.07585 8.60289 9.07368 8.58957C9.07368 8.52151 9.07368 8.45353 9.07368 8.38565C9.07525 8.37216 9.07308 8.35851 9.06742 8.34617C9.05196 8.32963 9.04297 8.30808 9.0421 8.28545C9.04346 8.26041 9.01923 8.2487 9.01487 8.22937C9.00207 8.18227 8.96641 8.1515 8.93727 8.11801C8.91394 8.09199 8.88824 8.0682 8.8605 8.04695C8.83616 8.02608 8.8097 8.00783 8.78154 7.9925C8.75131 7.97206 8.71614 7.96011 8.67971 7.95792C8.67822 7.95773 8.6768 7.95721 8.67553 7.95641C8.67426 7.95561 8.67318 7.95455 8.67236 7.95329C8.66419 7.93369 8.64513 7.9345 8.62989 7.9345C8.54984 7.9345 8.4698 7.9345 8.38975 7.9345C8.37968 7.9345 8.36497 7.9345 8.36035 7.94158C8.3451 7.96173 8.32441 7.96064 8.30371 7.96255C8.29337 7.96255 8.27649 7.96391 8.27377 7.9699C8.25607 8.00148 8.21931 8.00012 8.19209 8.02136C8.16012 8.04717 8.12975 8.0749 8.10115 8.1044C8.08604 8.119 8.07169 8.13436 8.05813 8.15041C8.04098 8.17274 8.02601 8.19697 8.01076 8.22066C8.00695 8.22664 8.00776 8.2389 8.00313 8.2408C7.97809 8.25142 7.98054 8.27347 7.97781 8.29526C7.97645 8.3056 7.97781 8.3203 7.97074 8.3252C7.94487 8.34562 7.9495 8.3734 7.94895 8.39953C7.94895 8.45998 7.94732 8.52042 7.94895 8.58086C7.94835 8.61159 7.95537 8.64199 7.96937 8.66935C7.98516 8.69957 7.9936 8.73578 8.00749 8.769C8.01762 8.79381 8.03241 8.81645 8.05105 8.8357C8.0797 8.86611 8.10617 8.8985 8.13028 8.93263C8.14716 8.95577 8.17548 8.97592 8.17112 9.01131C8.17098 9.01279 8.17115 9.01428 8.17162 9.01568C8.17209 9.01709 8.17285 9.01838 8.17384 9.01948C8.20543 9.04017 8.19671 9.07393 8.19699 9.10116C8.19726 9.28167 8.19699 9.46354 8.19699 9.64433H8.19808Z" fill="#343A40"/>
</svg>
