<svg width="13" height="16" viewBox="0 0 13 16" fill="none" xmlns="http://www.w3.org/2000/svg">
<path d="M6.11226 15.7064C5.27345 15.7064 4.59347 15.0264 4.59347 14.1876H7.63104C7.63104 15.0264 6.95106 15.7064 6.11226 15.7064ZM12.1874 13.4282H0.0371094V11.9095L1.5559 11.1501V6.9734C1.5559 4.34438 2.63499 2.63954 4.59347 2.17403V0.518555H6.87165C6.37649 1.17462 6.10977 1.97478 6.11226 2.79674C6.11223 2.98763 6.12644 3.17826 6.15478 3.36704H6.11226C5.18569 3.30703 4.292 3.72141 3.73915 4.4674C3.26646 5.21507 3.03454 6.08976 3.07468 6.9734V11.9095H9.14983V6.9734C9.14983 6.81317 9.14452 6.65901 9.13388 6.51776C9.63619 6.62153 10.1542 6.62334 10.6572 6.52308C10.6656 6.68331 10.6686 6.83595 10.6686 6.97872V11.1501L12.1874 11.9095V13.4282ZM9.90922 5.07492C9.45039 5.07547 9.00215 4.937 8.62357 4.67775C7.72884 4.06612 7.38886 2.90883 7.81062 1.91045C8.23239 0.912075 9.29912 0.349045 10.3614 0.564147C11.4236 0.779249 12.1873 1.71293 12.1874 2.79674C12.1874 4.05494 11.1674 5.07492 9.90922 5.07492Z" fill="#343A40"/>
</svg>
