<?xml version="1.0" encoding="utf-8"?>
<!-- Generator: Adobe Illustrator 26.0.1, SVG Export Plug-In . SVG Version: 6.00 Build 0)  -->
<svg version="1.1" id="Layer_1" xmlns="http://www.w3.org/2000/svg" xmlns:xlink="http://www.w3.org/1999/xlink" x="0px" y="0px"
	 viewBox="0 0 595.28 841.89" style="enable-background:new 0 0 595.28 841.89;" xml:space="preserve">
<style type="text/css">
	.st0{fill:#0C9548;}
</style>
<path class="st0" d="M284.97,299.78c-0.08-1.05-0.18-2.02-0.22-2.99c-0.11-2.85-0.21-5.71-0.3-8.56
	c-0.25-8.05-2.07-15.66-6.38-22.56c-3.18-5.08-7.39-9.11-12.48-12.25c-0.32-0.2-0.67-0.35-1.19-0.61c-0.32,0.54-0.63,1.03-0.89,1.54
	c-2.79,5.36-7.32,8-13.23,8.5c-6.3,0.53-12.35-0.8-18.35-2.5c-5.92-1.68-11.68-3.84-17.36-6.2c-8.7-3.63-17.63-6.48-26.95-7.99
	c-10.7-1.73-21.34-1.72-31.82,1.49c-1.15,0.35-2.29,0.77-3.41,1.22c-1.12,0.45-2.2,0.97-3.54,1.58c0.27-0.77,0.44-1.37,0.69-1.93
	c3.18-7.21,7.48-13.68,12.91-19.39c10.7-11.26,23.89-17.74,39.13-20.15c7.8-1.23,15.64-1.28,23.5-0.51
	c5.49,0.54,10.88,1.49,16.07,3.39c6.28,2.3,11.91,5.62,16.56,10.5c4.78,5.02,7.75,10.9,8.39,17.84c0.09,0.95,0.59,1.29,1.29,1.69
	c2.47,1.42,5.02,2.75,7.36,4.37c4.65,3.23,8.52,7.27,11.65,12c0.29,0.45,0.62,0.87,1.05,1.47c1.31-3.86,2.43-7.55,3.83-11.14
	c1.39-3.57,3.07-7.04,4.61-10.55c-1.35-2.06-2.79-4.08-4.03-6.21c-4.4-7.56-6.61-15.75-6.9-24.48c-0.41-12.62,3.09-24.19,9.28-35.06
	c5-8.78,11.44-16.4,18.92-23.14c11.36-10.23,23.67-19.14,37.18-26.34c12.54-6.69,25.74-11.55,39.74-14.12
	c8.96-1.65,17.99-2.21,27.08-1.8c12.84,0.57,25.26,3.22,37.26,7.77c9.91,3.76,19.26,8.6,27.83,14.87c0.48,0.35,0.93,0.73,1.56,1.22
	c-0.41,0.17-0.63,0.33-0.86,0.34c-8.66,0.52-16.85,2.96-24.83,6.19c-13,5.27-24.65,12.78-35.43,21.7
	c-12.22,10.11-22.89,21.7-32.45,34.31c-4.28,5.65-8.33,11.48-12.56,17.17c-6.53,8.79-13.41,17.3-21.22,25
	c-4.71,4.64-9.72,8.92-15.46,12.27c-3.68,2.14-7.55,3.78-11.76,4.6c-6.91,1.34-13.31-0.08-19.35-3.49
	c-1.67-0.94-3.26-2.02-5.05-3.14c-3.8,7.84-6.21,16.01-7.63,24.49c-1.6,9.58-1.93,19.2-0.86,29.01c0.8,0.04,1.38,0.1,1.97,0.09
	c7.48-0.1,14.95,0.31,22.39,1.06c15.19,1.53,30.06,4.62,44.59,9.31c10.47,3.38,20.64,7.51,30.48,12.45
	c19.44,9.76,37.06,22.12,52.83,37.12c17.52,16.66,31.94,35.68,43.18,57.08c9.61,18.31,16.47,37.6,20.54,57.88
	c2.08,10.36,3.41,20.81,3.97,31.36c0.38,7.09,0.47,14.18,0.03,21.26c-0.36,5.81-0.81,11.62-1.51,17.4
	c-1.32,10.87-3.56,21.56-6.62,32.07c-9.84,33.81-26.84,63.53-50.97,89.17c-18.67,19.83-40.34,35.6-64.93,47.31
	c-16.64,7.93-34.04,13.59-52.17,17.02c-9.68,1.83-19.43,3.01-29.27,3.52c-4.17,0.22-8.35,0.35-12.53,0.31
	c-8.08-0.08-16.14-0.56-24.17-1.5c-16.83-1.95-33.2-5.83-49.09-11.67c-27.28-10.01-51.62-24.87-72.94-44.61
	c-26.1-24.15-45.22-52.96-57.3-86.42c-4.45-12.33-7.67-24.98-9.76-37.92c-1.62-10-2.48-20.05-2.76-30.18
	c-0.27-9.69,0.16-19.35,1.25-28.96c4.43-38.87,18.32-74.05,41.69-105.41c19.38-26.01,43.45-46.65,72.06-61.98
	c17.78-9.53,36.56-16.38,56.27-20.66c8-1.73,16.08-3.05,24.24-3.76c1.97-0.17,3.94-0.37,5.91-0.57
	C284.13,299.96,284.5,299.87,284.97,299.78z M299.34,318.27c-109.01,0.13-197.4,88.51-198.06,197.49
	c-0.67,110.62,89.32,198.27,197.2,198.79c110.11,0.53,198.57-88.72,199.1-197.2C498.12,407.34,408.7,318.37,299.34,318.27z"/>
<path class="st0" d="M437.28,410.59c-2.68-0.92-5.35-1.91-8.06-2.75c-7.68-2.4-15.51-4.03-23.52-4.85
	c-6.7-0.69-13.39-0.75-20.07,0.11c-8.72,1.13-16.98,3.63-24.22,8.81c-8.52,6.09-13.76,14.39-16.06,24.54
	c-2.49,11-1.43,21.84,1.84,32.54c1.55,5.07,3.72,9.85,6.5,14.37c6.1,9.91,14.76,16.1,26.26,18.19c5.08,0.92,10.19,1.66,15.25,2.68
	c3.43,0.69,6.85,1.59,10.19,2.65c6.72,2.14,11.34,6.74,14.42,12.97c2.56,5.19,3.8,10.74,4.39,16.47c0.51,4.89,0.56,9.79-0.13,14.64
	c-0.69,4.89-1.6,9.76-2.7,14.57c-1.63,7.12-3.56,14.17-5.25,21.27c-1.05,4.44-1.79,8.94-1.99,13.51c-0.12,2.75,0.03,5.49,0.76,8.17
	c0.09,0.32,0.18,0.64,0.28,0.95c1.72,4.92,5.46,7.12,10.57,6.12c5.58-1.1,10.46-3.6,14.62-7.48c4.21-3.92,7.72-8.42,11.07-13.07
	c1.8-2.5,3.5-5.06,5.25-7.6c0.4-0.58,0.79-1.17,1.4-1.67c-0.16,0.41-0.3,0.83-0.48,1.23c-8.16,18.29-19.13,34.71-32.9,49.26
	c-14.24,15.05-30.64,27.2-49.25,36.31c-14.15,6.92-29,11.72-44.54,14.35c-10.88,1.84-21.83,2.42-32.85,2.27
	c-17.72-0.25-34.98-3.17-51.79-8.76c-18.31-6.09-35.14-15.01-50.45-26.76c-21.02-16.13-37.54-36.01-49.49-59.65
	c-7.58-15-12.8-30.81-15.7-47.37c-1.73-9.88-2.66-19.82-2.6-29.85c0.03-5.22,0.08-10.45,0.44-15.65c0.58-8.4,1.98-16.69,3.95-24.87
	c4.09-17,10.62-33.02,19.5-48.08c0.2-0.33,0.39-0.66,0.6-0.99c0.05-0.08,0.17-0.13,0.43-0.33c-0.11,0.48-0.16,0.81-0.26,1.11
	c-2.21,6.35-3.85,12.84-4.56,19.53c-0.55,5.15-0.46,10.3,0.13,15.46c0.9,7.92,3.76,15.1,7.79,21.86c1.03,1.73,2.39,3.29,3.73,4.81
	c0.75,0.85,1.71,1.55,2.67,2.18c4.8,3.11,10.04,0.71,12-3.64c1.9-4.24,0.88-10.23-4.14-12.81c-1.97-1.01-2.58-2.32-2.08-4.5
	c0.37-1.6,0.97-3.14,1.51-4.69c0.41-1.19,0.92-2.35,1.31-3.55c0.18-0.56,0.27-1.19,0.26-1.78c-0.01-2.13-1.8-3.18-3.63-2.07
	c-0.83,0.5-1.51,1.26-2.2,1.97c-0.81,0.82-1.5,1.76-2.33,2.55c-0.55,0.52-1.2,0.99-1.89,1.29c-2.13,0.91-4.28-0.17-4.58-2.44
	c-0.19-1.49-0.12-3.09,0.21-4.56c1.24-5.51,3.73-10.43,7.44-14.7c1.23-1.42,2.64-2.65,4.33-3.51c2.16-1.11,4.37-1.21,6.45,0.07
	c1.44,0.89,2.73,2.02,4.04,3.09c1.1,0.9,2.08,1.97,3.22,2.82c2.34,1.75,4.4,1.75,6.86,0.18c1.66-1.05,2.92-2.49,4.05-4.06
	c2.05-2.83,3.42-6.01,4.68-9.24c0.66-1.69,1.33-3.38,1.92-5.09c1.75-5.05,4.44-9.54,7.7-13.74c3.73-4.81,8-9.04,12.86-12.72
	c3.97-3.01,8.43-4.67,13.3-5.34c4.24-0.58,8.5-1.06,12.74-1.67c2.72-0.39,5.38-1.1,7.9-2.24c2.39-1.09,4.47-2.58,6.15-4.6
	c2.65-3.16,4.73-6.64,5.53-10.73c0.28-1.43,0.35-2.98,0.13-4.41c-0.52-3.47-3.59-6.01-7.13-6.21c-2.43-0.13-4.72,0.47-6.84,1.53
	c-2.65,1.33-5.23,2.79-7.78,4.31c-3.75,2.23-7.61,4.19-11.89,5.15c-1.22,0.27-2.5,0.47-3.74,0.47c-2.57-0.02-3.62-1.28-3.13-3.83
	c0.53-2.76,1.87-5.19,3.8-7.2c1.63-1.7,3.34-3.38,5.25-4.75c4.96-3.55,10.08-6.87,15.07-10.38c2.3-1.62,4.81-2.57,7.48-3.29
	c6.22-1.67,12.54-2.78,18.91-3.64c1.2-0.16,2.39-0.36,3.59-0.52c0.53-0.07,1.07-0.08,1.82-0.14c-0.16,1.56-0.3,2.96-0.44,4.36
	c-0.28,2.84-0.68,5.68-0.79,8.53c-0.06,1.67,0.17,3.42,0.61,5.04c0.73,2.72,2.65,4.05,5.46,4.15c2.61,0.09,4.99-0.74,7.21-2.01
	c5.83-3.33,10.29-8.04,13.57-13.85c1.21-2.14,2.1-4.46,3.24-6.93c20.93,1.29,41.12,6.29,60.36,15.03
	C397.42,369.56,419.6,387.22,437.28,410.59z M192.3,488.64c-3.61,0.32-7.23,0.53-10.82,1.01c-1.99,0.27-4,0.8-5.88,1.52
	c-4.36,1.69-6.49,5.6-5.54,10.18c0.43,2.08,1.11,4.13,1.86,6.13c1.1,2.92,1.83,5.88,1.48,9.01c-0.45,4.09-0.83,8.2-1.45,12.27
	c-1.13,7.4-0.31,14.56,2.26,21.56c2.14,5.82,5.17,11.16,8.72,16.21c3.61,5.12,7.3,10.18,11.04,15.21
	c5.71,7.67,10.02,16.01,12.33,25.31c1.41,5.7,2.7,11.43,4.04,17.15c1.39,5.94,2.95,11.84,5.57,17.37
	c3.77,7.96,8.99,14.97,14.85,21.49c1.63,1.82,3.65,3.33,5.63,4.78c2.2,1.61,4.82,2.02,7.51,2.06c1.28,0.02,2.3-0.52,2.88-1.59
	c0.49-0.89,0.85-1.91,1.02-2.91c0.37-2.25,0.11-4.52-0.51-6.69c-1.21-4.27-2.49-8.53-3.92-12.74c-2.83-8.32-2.49-16.41,1.42-24.31
	c2.07-4.18,4.8-7.91,8.04-11.21c4.82-4.89,9.8-9.63,14.73-14.41c5.22-5.07,10.26-10.3,13.63-16.84c2.42-4.69,4.54-9.52,6.28-14.5
	c1.38-3.96,2.43-7.99,2.76-12.18c0.53-6.71-1.12-12.75-5.72-17.82c-2.73-3.01-6.07-5.23-9.57-7.21c-4.41-2.49-9.1-4.38-13.79-6.26
	c-5.61-2.25-11.29-4.36-16.44-7.56c-3.54-2.2-6.9-4.69-10.33-7.09c-6.4-4.48-12.82-8.9-19.89-12.29
	C207.48,490.93,200.18,488.72,192.3,488.64z"/>
</svg>
