<svg width="384" height="220" viewBox="0 0 384 220" fill="none" xmlns="http://www.w3.org/2000/svg">
<path d="M240.917 210.648C240.483 211.473 240.305 212.408 240.405 213.334C240.456 213.808 241.201 213.808 241.149 213.334C241.052 212.54 241.195 211.735 241.56 211.024C241.779 210.598 241.136 210.22 240.917 210.648Z" fill="#50AA50"/>
<path d="M242.921 209.734C243.394 209.734 243.4 208.988 242.921 208.988C242.442 208.988 242.44 209.734 242.921 209.734Z" fill="#50AA50"/>
<path d="M257.604 214.49V214.821C257.604 215.295 258.348 215.295 258.348 214.821V214.49C258.348 214.016 257.604 214.01 257.604 214.49Z" fill="#50AA50"/>
<path d="M44.6769 197.171H19.4768C19.3436 197.176 19.2108 197.154 19.0864 197.106C18.9619 197.058 18.8484 196.985 18.7525 196.893C18.6567 196.8 18.5804 196.689 18.5284 196.566C18.4763 196.443 18.4495 196.311 18.4495 196.178C18.4495 196.044 18.4763 195.912 18.5284 195.789C18.5804 195.667 18.6567 195.555 18.7525 195.463C18.8484 195.37 18.9619 195.298 19.0864 195.25C19.2108 195.202 19.3436 195.18 19.4768 195.184H44.6769C44.8101 195.18 44.9429 195.202 45.0673 195.25C45.1918 195.298 45.3053 195.37 45.4012 195.463C45.497 195.555 45.5732 195.667 45.6253 195.789C45.6774 195.912 45.7042 196.044 45.7042 196.178C45.7042 196.311 45.6774 196.443 45.6253 196.566C45.5732 196.689 45.497 196.8 45.4012 196.893C45.3053 196.985 45.1918 197.058 45.0673 197.106C44.9429 197.154 44.8101 197.176 44.6769 197.171Z" fill="#405B91"/>
<path d="M266.585 109.675H265.865C265.865 109.388 265.752 109.113 265.549 108.91C265.347 108.708 265.072 108.594 264.786 108.594C264.5 108.594 264.225 108.708 264.023 108.91C263.82 109.113 263.706 109.388 263.706 109.675H262.981C262.975 109.434 263.017 109.195 263.104 108.971C263.192 108.747 263.324 108.543 263.491 108.37C263.659 108.198 263.86 108.061 264.081 107.968C264.302 107.874 264.54 107.826 264.781 107.826C265.021 107.826 265.259 107.874 265.48 107.968C265.701 108.061 265.902 108.198 266.07 108.37C266.237 108.543 266.369 108.747 266.457 108.971C266.544 109.195 266.586 109.434 266.58 109.675H266.585Z" fill="white"/>
<path d="M269.159 67.7196H268.438C268.438 67.4329 268.325 67.1581 268.122 66.9554C267.92 66.7528 267.645 66.6389 267.359 66.6389C267.073 66.6389 266.798 66.7528 266.596 66.9554C266.393 67.1581 266.279 67.4329 266.279 67.7196H265.56C265.554 67.4791 265.596 67.2398 265.683 67.0158C265.771 66.7918 265.903 66.5877 266.07 66.4154C266.238 66.2431 266.438 66.1062 266.66 66.0127C266.881 65.9193 267.119 65.8711 267.359 65.8711C267.6 65.8711 267.838 65.9193 268.059 66.0127C268.28 66.1062 268.481 66.2431 268.649 66.4154C268.816 66.5877 268.948 66.7918 269.036 67.0158C269.123 67.2398 269.165 67.4791 269.159 67.7196Z" fill="white"/>
<path d="M233.14 212.04H189.627L190.366 210.288C193.218 203.513 193.513 197.71 193.078 191.083L192.991 189.741L229.682 189.629L229.692 190.885C229.723 195.17 230.876 204.899 232.623 210.396L233.14 212.04ZM193.385 209.513H229.742C228.341 204.214 227.39 196.555 227.2 192.158L195.676 192.255C195.972 198.138 195.614 203.483 193.385 209.513Z" fill="#0D1840"/>
<path d="M177.116 192.138C144.081 192.138 117.321 191.958 116.145 191.537C113.319 190.529 109.622 186.605 109.573 183.823C109.465 177.797 109.207 169.591 108.908 160.087C108.002 131.435 106.764 92.1919 108.37 70.4808C108.664 66.5244 111.928 63.4673 115.827 63.4673H115.952L306.409 63.7505C310.433 63.8204 313.666 67.0753 313.76 71.1597C313.905 77.5025 314.115 83.9852 314.32 90.5555C315.192 118.063 316.095 146.509 313.05 173.409C312.931 174.47 312.877 175.64 312.822 176.854C312.566 182.497 312.247 189.521 304.981 190.954C301.431 191.658 230.947 192.138 177.116 192.138ZM115.846 65.497C112.986 65.497 110.607 67.7353 110.392 70.6313C108.793 92.2381 110.03 131.417 110.933 160.023C111.233 169.533 111.493 177.747 111.6 183.788C111.631 185.544 114.559 188.818 116.827 189.627C120.882 190.456 299.937 189.843 304.592 188.967C310.298 187.839 310.554 182.213 310.801 176.762C310.859 175.502 310.919 174.284 311.038 173.18C314.065 146.429 313.168 118.057 312.296 90.6195C312.087 84.0456 311.882 77.5582 311.735 71.2095C311.667 68.2176 309.315 65.8347 306.382 65.7814L115.941 65.4982L115.846 65.497Z" fill="#0D1840"/>
<path fill-rule="evenodd" clip-rule="evenodd" d="M301.083 70.3144L121.638 70.0774C118.412 70.0289 115.703 72.2446 115.46 75.1394C113.448 99.1835 116.19 149.35 116.595 169.541C116.635 171.509 119.843 174.46 122.158 175.191C124.88 176.05 295.408 175.4 299.58 174.672C307.064 173.368 305.791 165.69 306.419 160.78C309.97 133.01 307.789 102.825 307.082 75.6631C306.997 72.7222 304.354 70.363 301.083 70.3144Z" fill="#AFAFAF"/>
<path d="M248.706 218.952H174.042C171.083 218.952 169.529 216.619 169.529 214.315C169.529 212.01 171.08 209.671 174.042 209.671H248.706C251.666 209.671 253.22 212.004 253.22 214.309C253.22 216.613 251.669 218.952 248.706 218.952ZM174.042 211.701C172.08 211.701 171.557 213.343 171.557 214.315C171.557 215.286 172.08 216.921 174.042 216.921H248.706C250.669 216.921 251.192 215.279 251.192 214.307C251.192 213.336 250.669 211.701 248.706 211.701H174.042Z" fill="#0D1840"/>
<path d="M92.1145 192.277C94.7539 192.277 94.7586 188.171 92.1145 188.171C89.4703 188.171 89.4703 192.277 92.1145 192.277Z" fill="#415B91"/>
<path d="M100.385 192.277C103.024 192.277 103.028 188.171 100.385 188.171C97.7416 188.171 97.7404 192.277 100.385 192.277Z" fill="#415B91"/>
<path d="M108.653 192.277C111.293 192.277 111.297 188.171 108.653 188.171C106.009 188.171 106.01 192.277 108.653 192.277Z" fill="#415B91"/>
<path d="M328.183 215.05H307.932L315.721 189.439H320.395L328.183 215.05Z" fill="#B6D0FB"/>
<path d="M329.857 215.05H306.258V217.976H329.857V215.05Z" fill="#B6D0FB"/>
<path d="M309.879 208.646L307.932 215.05H328.183L326.236 208.646H309.879Z" fill="#415B91"/>
<path d="M311.827 202.245H324.289L322.342 195.842H313.774L311.827 202.245Z" fill="#415B91"/>
<path d="M336.465 217.807H340.963V200.389H364.031V217.807H368.529V200.389H373.288V186.483H369.492V185.197H362.943V186.483H342.499V185.197H335.951V186.483H331.784V200.389H336.465V217.807ZM371.827 187.932V187.99L369.058 198.935H364.114L366.901 187.936L371.827 187.932ZM358.936 198.935H353.993L356.778 187.932H361.721L358.936 198.935ZM348.815 198.935H343.872L346.662 187.936H351.604L348.815 198.935ZM336.535 187.932H341.477L338.694 198.935H333.75L336.535 187.932Z" fill="#AFAFAF"/>
<path d="M115.437 47.5289L116.783 46.1817C116.848 46.1169 116.9 46.0398 116.936 45.9549C116.971 45.87 116.989 45.779 116.989 45.687C116.989 45.595 116.971 45.5039 116.936 45.419C116.9 45.3341 116.848 45.257 116.783 45.1923L115.61 44.0192C115.476 43.8719 115.389 43.6875 115.361 43.49C115.333 43.2926 115.366 43.0913 115.454 42.9125L116.409 40.5889C116.474 40.3994 116.594 40.2338 116.754 40.1137C116.914 39.9936 117.107 39.9247 117.306 39.9159H118.963C119.148 39.9159 119.325 39.8427 119.456 39.7124C119.587 39.582 119.661 39.4051 119.662 39.2203V37.3091C119.662 37.2173 119.644 37.1264 119.609 37.0415C119.574 36.9567 119.522 36.8797 119.457 36.8148C119.393 36.75 119.315 36.6986 119.231 36.6636C119.146 36.6287 119.055 36.6108 118.963 36.6112H117.306C117.107 36.6024 116.914 36.5336 116.754 36.4138C116.594 36.294 116.474 36.1286 116.409 35.9393L115.454 33.6181C115.366 33.4385 115.333 33.2365 115.361 33.0383C115.389 32.8401 115.476 32.6548 115.61 32.5066L116.783 31.3348C116.848 31.2704 116.9 31.1936 116.936 31.109C116.971 31.0244 116.989 30.9336 116.989 30.8418C116.989 30.7501 116.971 30.6593 116.936 30.5747C116.9 30.49 116.848 30.4133 116.783 30.3489L115.437 28.9958C115.306 28.8648 115.129 28.7912 114.944 28.7912C114.759 28.7912 114.581 28.8648 114.45 28.9958L113.276 30.17C113.129 30.3045 112.945 30.3917 112.748 30.4205C112.551 30.4492 112.35 30.4181 112.171 30.3311L109.848 29.3726C109.659 29.3078 109.494 29.1874 109.375 29.0272C109.255 28.8669 109.187 28.6742 109.179 28.4744V26.8155C109.178 26.6302 109.104 26.4526 108.973 26.3215C108.843 26.1903 108.665 26.1162 108.48 26.1152H106.576C106.39 26.1159 106.213 26.1898 106.082 26.321C105.951 26.4522 105.877 26.63 105.876 26.8155V28.4744C105.868 28.6743 105.799 28.867 105.679 29.0273C105.56 29.1875 105.394 29.3079 105.205 29.3726L102.883 30.3311C102.704 30.4183 102.503 30.4495 102.306 30.4208C102.109 30.3921 101.925 30.3047 101.779 30.17L100.603 28.9969C100.539 28.9319 100.462 28.8803 100.378 28.8451C100.293 28.8099 100.203 28.7917 100.112 28.7917C100.02 28.7917 99.9295 28.8099 99.8451 28.8451C99.7607 28.8803 99.6841 28.9319 99.6197 28.9969L98.268 30.3548C98.2033 30.4195 98.152 30.4964 98.117 30.581C98.082 30.6655 98.0639 30.7562 98.0639 30.8478C98.0639 30.9393 98.082 31.03 98.117 31.1146C98.152 31.1991 98.2033 31.276 98.268 31.3407L99.441 32.5126C99.5762 32.6603 99.6637 32.8454 99.692 33.0437C99.7203 33.2421 99.6881 33.4443 99.5996 33.624L98.6444 35.9452C98.5797 36.1345 98.4594 36.2999 98.2994 36.4197C98.1393 36.5396 97.9469 36.6083 97.7472 36.6171H96.0902C95.9053 36.6171 95.728 36.6906 95.5972 36.8215C95.4665 36.9524 95.3931 37.1299 95.3931 37.315V39.2263C95.3943 39.4107 95.4682 39.5873 95.5988 39.7175C95.7293 39.8478 95.9059 39.9212 96.0902 39.9218H97.7472C97.9471 39.9306 98.1396 39.9996 98.2996 40.1196C98.4597 40.2397 98.5799 40.4053 98.6444 40.5948L99.5996 42.9184C99.688 43.0973 99.7202 43.2989 99.6919 43.4964C99.6636 43.694 99.5761 43.8784 99.441 44.0251L98.268 45.1982C98.1371 45.3295 98.0636 45.5074 98.0636 45.6929C98.0636 45.8784 98.1371 46.0563 98.268 46.1876L99.6197 47.5348C99.6838 47.6004 99.7603 47.6526 99.8447 47.6882C99.9292 47.7237 100.02 47.7421 100.112 47.7421C100.203 47.7421 100.294 47.7237 100.378 47.6882C100.463 47.6526 100.539 47.6004 100.603 47.5348L101.779 46.363C101.926 46.2279 102.11 46.1406 102.308 46.1125C102.505 46.0844 102.706 46.1167 102.885 46.2054L105.205 47.1616C105.394 47.2259 105.56 47.346 105.679 47.5061C105.799 47.6662 105.868 47.8587 105.876 48.0586V49.7174C105.877 49.9028 105.951 50.0803 106.082 50.2111C106.213 50.3419 106.391 50.4153 106.576 50.4153H108.48C108.665 50.4147 108.842 50.341 108.973 50.2103C109.104 50.0796 109.178 49.9025 109.179 49.7174V48.0586C109.187 47.8588 109.255 47.6663 109.375 47.5062C109.494 47.3461 109.659 47.226 109.848 47.1616L112.171 46.2054C112.349 46.117 112.55 46.0848 112.748 46.1129C112.945 46.141 113.129 46.2282 113.276 46.363L114.45 47.5348C114.515 47.6 114.592 47.6516 114.677 47.6867C114.762 47.7217 114.853 47.7394 114.945 47.7389C115.037 47.7383 115.128 47.7195 115.212 47.6834C115.297 47.6474 115.373 47.5949 115.437 47.5289ZM107.527 43.8391C106.426 43.8391 105.349 43.5121 104.433 42.8993C103.517 42.2866 102.803 41.4158 102.381 40.3968C101.96 39.3779 101.849 38.2567 102.064 37.1751C102.279 36.0934 102.81 35.0998 103.589 34.32C104.368 33.5401 105.36 33.009 106.441 32.7939C107.521 32.5787 108.641 32.6892 109.659 33.1112C110.677 33.5332 111.547 34.248 112.159 35.165C112.771 36.082 113.097 37.1601 113.097 38.2629C113.097 39.7417 112.51 41.1599 111.466 42.2055C110.421 43.2512 109.005 43.8388 107.527 43.8391Z" fill="#AFAFAF"/>
<path d="M128.316 52.7997L127.977 51.6669C127.943 51.557 127.867 51.4649 127.766 51.4106C127.664 51.3563 127.546 51.344 127.436 51.3766L126.454 51.6752C126.334 51.7067 126.208 51.7009 126.091 51.6586C125.974 51.6162 125.873 51.5394 125.801 51.4382L124.812 50.2379C124.728 50.1464 124.674 50.0321 124.656 49.9097C124.638 49.7872 124.657 49.6622 124.711 49.5507L125.195 48.6442C125.223 48.5939 125.24 48.5386 125.246 48.4816C125.252 48.4245 125.247 48.3669 125.231 48.3118C125.215 48.2568 125.188 48.2055 125.152 48.1609C125.116 48.1162 125.071 48.0791 125.021 48.0517L123.98 47.4937C123.929 47.4659 123.874 47.4485 123.817 47.4424C123.759 47.4364 123.702 47.4418 123.646 47.4583C123.591 47.4749 123.54 47.5022 123.496 47.5388C123.451 47.5754 123.415 47.6205 123.388 47.6714L122.901 48.5778C122.838 48.6843 122.745 48.7693 122.633 48.8217C122.521 48.8741 122.396 48.8916 122.274 48.8717L120.725 48.7153C120.601 48.7116 120.482 48.6702 120.382 48.5967C120.283 48.5233 120.208 48.4212 120.168 48.3041L119.869 47.3195C119.853 47.2651 119.826 47.2144 119.79 47.1705C119.754 47.1265 119.71 47.0901 119.66 47.0635C119.61 47.0368 119.555 47.0203 119.499 47.015C119.443 47.0098 119.386 47.0158 119.332 47.0327L118.2 47.3704C118.09 47.4043 117.997 47.4806 117.943 47.5825C117.889 47.6844 117.877 47.8037 117.91 47.9143L118.209 48.8966C118.241 49.0166 118.235 49.1433 118.193 49.2599C118.15 49.3766 118.074 49.4775 117.973 49.5495L116.771 50.54C116.681 50.6238 116.567 50.6784 116.445 50.6965C116.323 50.7147 116.198 50.6957 116.087 50.642L115.179 50.155C115.13 50.128 115.075 50.1113 115.018 50.1057C114.962 50.1001 114.905 50.1057 114.851 50.1222C114.796 50.1387 114.746 50.1658 114.702 50.2019C114.659 50.2381 114.622 50.2825 114.596 50.3327L114.036 51.3719C113.981 51.4738 113.969 51.5935 114.002 51.7046C114.035 51.8157 114.111 51.9091 114.212 51.9643L115.12 52.4549C115.227 52.517 115.312 52.6101 115.365 52.7218C115.417 52.8336 115.434 52.9587 115.414 53.0805L115.26 54.6292C115.256 54.7532 115.214 54.873 115.14 54.9726C115.066 55.0723 114.964 55.1472 114.847 55.1873L113.863 55.4882C113.809 55.5044 113.758 55.5312 113.714 55.5671C113.67 55.603 113.633 55.6473 113.606 55.6974C113.58 55.7476 113.563 55.8026 113.557 55.8592C113.552 55.9158 113.558 55.973 113.574 56.0274L113.917 57.1578C113.933 57.2125 113.959 57.2634 113.995 57.3076C114.031 57.3519 114.076 57.3885 114.126 57.4154C114.176 57.4423 114.231 57.459 114.288 57.4644C114.345 57.4698 114.402 57.4638 114.456 57.4469L115.441 57.1495C115.56 57.1198 115.686 57.1266 115.801 57.1688C115.917 57.211 116.017 57.2868 116.09 57.3865L117.078 58.5903C117.162 58.6813 117.217 58.7955 117.235 58.9181C117.254 59.0406 117.235 59.1659 117.181 59.2776L116.694 60.184C116.64 60.2864 116.628 60.4062 116.662 60.5172C116.695 60.6282 116.771 60.7215 116.873 60.7765L117.912 61.3322C117.963 61.3597 118.018 61.377 118.075 61.383C118.132 61.3891 118.19 61.3838 118.245 61.3676C118.3 61.3513 118.351 61.3243 118.395 61.2881C118.44 61.2519 118.477 61.2073 118.504 61.1568L118.991 60.248C119.054 60.1414 119.147 60.0563 119.259 60.0037C119.371 59.9511 119.496 59.9334 119.618 59.953L121.164 60.1106C121.288 60.1146 121.408 60.1563 121.508 60.2301C121.608 60.304 121.683 60.4065 121.724 60.5241L122.021 61.5064C122.037 61.561 122.064 61.6118 122.1 61.656C122.136 61.7001 122.18 61.7367 122.23 61.7636C122.281 61.7905 122.336 61.8071 122.392 61.8126C122.449 61.8181 122.506 61.8123 122.56 61.7955L123.691 61.4542C123.8 61.4205 123.892 61.3453 123.946 61.2448C124.001 61.1443 124.014 61.0264 123.983 60.9163L123.685 59.9316C123.653 59.8116 123.659 59.6848 123.701 59.5682C123.744 59.4515 123.82 59.3506 123.922 59.2787L125.123 58.2894C125.214 58.2053 125.328 58.1505 125.451 58.1319C125.573 58.1133 125.699 58.1318 125.811 58.1851L126.715 58.6709C126.765 58.699 126.82 58.7168 126.878 58.7232C126.935 58.7296 126.993 58.7245 127.048 58.7082C127.103 58.6918 127.154 58.6646 127.199 58.6281C127.243 58.5916 127.28 58.5465 127.307 58.4955L127.864 57.4528C127.892 57.4022 127.909 57.3467 127.915 57.2894C127.921 57.2322 127.915 57.1743 127.898 57.1192C127.882 57.0641 127.854 57.0128 127.818 56.9684C127.781 56.9239 127.736 56.8872 127.685 56.8603L126.779 56.3722C126.673 56.31 126.588 56.217 126.536 56.1055C126.483 55.994 126.466 55.8692 126.486 55.7477L126.644 54.1943C126.649 54.0709 126.69 53.9519 126.763 53.8524C126.836 53.7529 126.937 53.6776 127.053 53.6362L128.038 53.3388C128.146 53.3035 128.235 53.2271 128.287 53.1263C128.34 53.0254 128.35 52.9081 128.316 52.7997ZM123.989 56.0416C123.667 56.644 123.173 57.1371 122.571 57.4586C121.968 57.7801 121.284 57.9156 120.605 57.8478C119.925 57.78 119.281 57.5121 118.754 57.0779C118.227 56.6437 117.84 56.0628 117.643 55.4086C117.445 54.7543 117.446 54.0562 117.645 53.4024C117.844 52.7487 118.233 52.1687 118.761 51.7358C119.289 51.303 119.934 51.0367 120.613 50.9706C121.293 50.9046 121.977 51.0417 122.578 51.3648C122.978 51.579 123.331 51.87 123.618 52.221C123.905 52.5721 124.12 52.9763 124.251 53.4106C124.382 53.8449 124.427 54.3008 124.382 54.7522C124.337 55.2036 124.203 55.6418 123.989 56.0416Z" fill="#AFAFAF"/>
<path d="M87.7425 81.0946H37.3423C37.209 81.0992 37.0763 81.0769 36.9518 81.0291C36.8274 80.9812 36.7139 80.9088 36.618 80.8161C36.5222 80.7234 36.4459 80.6123 36.3938 80.4894C36.3418 80.3666 36.3149 80.2345 36.3149 80.1011C36.3149 79.9676 36.3418 79.8356 36.3938 79.7127C36.4459 79.5899 36.5222 79.4788 36.618 79.3861C36.7139 79.2934 36.8274 79.2209 36.9518 79.1731C37.0763 79.1252 37.209 79.1029 37.3423 79.1075H87.7425C87.8757 79.1029 88.0085 79.1252 88.1329 79.1731C88.2573 79.2209 88.3709 79.2934 88.4667 79.3861C88.5626 79.4788 88.6388 79.5899 88.6909 79.7127C88.743 79.8356 88.7698 79.9676 88.7698 80.1011C88.7698 80.2345 88.743 80.3666 88.6909 80.4894C88.6388 80.6123 88.5626 80.7234 88.4667 80.8161C88.3709 80.9088 88.2573 80.9812 88.1329 81.0291C88.0085 81.0769 87.8757 81.0992 87.7425 81.0946Z" fill="#405B91"/>
<path d="M362.814 115.683H312.414C312.281 115.688 312.148 115.666 312.024 115.618C311.899 115.57 311.786 115.498 311.69 115.405C311.594 115.312 311.518 115.201 311.466 115.078C311.414 114.955 311.387 114.823 311.387 114.69C311.387 114.557 311.414 114.424 311.466 114.302C311.518 114.179 311.594 114.068 311.69 113.975C311.786 113.882 311.899 113.81 312.024 113.762C312.148 113.714 312.281 113.692 312.414 113.696H362.814C363.072 113.705 363.315 113.814 363.494 113.999C363.673 114.185 363.773 114.432 363.773 114.69C363.773 114.948 363.673 115.195 363.494 115.381C363.315 115.566 363.072 115.675 362.814 115.683Z" fill="#0D1840"/>
<path d="M382.628 219.946H1.30252C1.04524 219.937 0.801468 219.829 0.622602 219.643C0.443736 219.458 0.34375 219.21 0.34375 218.953C0.34375 218.695 0.443736 218.447 0.622602 218.262C0.801468 218.077 1.04524 217.968 1.30252 217.959H382.628C382.761 217.954 382.894 217.977 383.018 218.025C383.143 218.072 383.256 218.145 383.352 218.238C383.448 218.33 383.524 218.441 383.576 218.564C383.628 218.687 383.655 218.819 383.655 218.953C383.655 219.086 383.628 219.218 383.576 219.341C383.524 219.464 383.448 219.575 383.352 219.668C383.256 219.76 383.143 219.833 383.018 219.881C382.894 219.929 382.761 219.951 382.628 219.946Z" fill="#0D1840"/>
<path d="M239.782 71.3328H245.582V69.8481H239.782V71.3328Z" fill="#B6D0FB"/>
<path d="M69.8994 144.29C69.6363 144.29 69.384 144.185 69.198 143.999C69.012 143.812 68.9076 143.56 68.9076 143.296V139.427C68.903 139.294 68.9252 139.161 68.9731 139.037C69.0209 138.912 69.0932 138.798 69.1858 138.702C69.2784 138.606 69.3894 138.53 69.5121 138.478C69.6348 138.426 69.7667 138.399 69.9 138.399C70.0333 138.399 70.1653 138.426 70.288 138.478C70.4107 138.53 70.5216 138.606 70.6142 138.702C70.7068 138.798 70.7792 138.912 70.827 139.037C70.8748 139.161 70.8971 139.294 70.8925 139.427V143.296C70.8925 143.56 70.7878 143.813 70.6016 143.999C70.4154 144.186 70.1628 144.29 69.8994 144.29Z" fill="#405B91"/>
<path d="M71.8288 142.354H67.9643C67.8311 142.359 67.6983 142.337 67.5739 142.289C67.4495 142.241 67.336 142.169 67.2401 142.076C67.1442 141.983 67.068 141.872 67.0159 141.749C66.9638 141.626 66.937 141.494 66.937 141.361C66.937 141.227 66.9638 141.095 67.0159 140.972C67.068 140.85 67.1442 140.739 67.2401 140.646C67.336 140.553 67.4495 140.481 67.5739 140.433C67.6983 140.385 67.8311 140.363 67.9643 140.367H71.8288C71.962 140.363 72.0948 140.385 72.2192 140.433C72.3436 140.481 72.4572 140.553 72.553 140.646C72.6489 140.739 72.7251 140.85 72.7772 140.972C72.8293 141.095 72.8561 141.227 72.8561 141.361C72.8561 141.494 72.8293 141.626 72.7772 141.749C72.7251 141.872 72.6489 141.983 72.553 142.076C72.4572 142.169 72.3436 142.241 72.2192 142.289C72.0948 142.337 71.962 142.359 71.8288 142.354Z" fill="#405B91"/>
<path d="M159.169 5.89132C158.906 5.89101 158.654 5.78613 158.468 5.59973C158.282 5.41333 158.177 5.16064 158.177 4.89719V1.02846C158.173 0.895095 158.195 0.762169 158.243 0.637605C158.291 0.51304 158.363 0.399388 158.456 0.303416C158.548 0.207444 158.659 0.131124 158.782 0.0789963C158.905 0.0268686 159.037 0 159.17 0C159.303 0 159.435 0.0268686 159.558 0.0789963C159.68 0.131124 159.791 0.207444 159.884 0.303416C159.977 0.399388 160.049 0.51304 160.097 0.637605C160.145 0.762169 160.167 0.895095 160.162 1.02846V4.89719C160.162 5.16085 160.058 5.41371 159.871 5.60015C159.685 5.78659 159.433 5.89132 159.169 5.89132Z" fill="#405B91"/>
<path d="M161.102 3.95644H157.238C156.98 3.94754 156.737 3.83897 156.558 3.65361C156.379 3.46826 156.279 3.22061 156.279 2.96289C156.279 2.70517 156.379 2.45752 156.558 2.27217C156.737 2.08681 156.98 1.97824 157.238 1.96934H161.102C161.235 1.96474 161.368 1.98702 161.492 2.03488C161.617 2.08274 161.73 2.15518 161.826 2.24789C161.922 2.34061 161.998 2.45169 162.05 2.57453C162.103 2.69737 162.129 2.82945 162.129 2.96289C162.129 3.09633 162.103 3.2284 162.05 3.35124C161.998 3.47408 161.922 3.58516 161.826 3.67788C161.73 3.77059 161.617 3.84304 161.492 3.89089C161.368 3.93875 161.235 3.96104 161.102 3.95644Z" fill="#405B91"/>
<path d="M67.7417 114.691H74.1379V108.288H67.7417V114.691Z" fill="white"/>
<path d="M74.6337 115.187H67.2456V107.791H74.6337V115.187ZM68.2422 114.193H73.6442V108.785H68.2422V114.193Z" fill="#415B91"/>
<path d="M59.6471 109.695H65.4373C65.4916 109.698 65.546 109.69 65.597 109.671C65.648 109.653 65.6947 109.624 65.7342 109.586C65.7737 109.549 65.8051 109.504 65.8266 109.454C65.8481 109.404 65.8592 109.35 65.8592 109.296C65.8592 109.241 65.8481 109.187 65.8266 109.137C65.8051 109.087 65.7737 109.042 65.7342 109.005C65.6947 108.967 65.648 108.938 65.597 108.92C65.546 108.901 65.4916 108.893 65.4373 108.896H59.6471C59.5929 108.893 59.5385 108.901 59.4875 108.92C59.4365 108.938 59.3898 108.967 59.3503 109.005C59.3108 109.042 59.2794 109.087 59.2579 109.137C59.2364 109.187 59.2253 109.241 59.2253 109.296C59.2253 109.35 59.2364 109.404 59.2579 109.454C59.2794 109.504 59.3108 109.549 59.3503 109.586C59.3898 109.624 59.4365 109.653 59.4875 109.671C59.5385 109.69 59.5929 109.698 59.6471 109.695Z" fill="#405B91"/>
<path d="M57.4714 114.083H65.2962C65.5944 114.083 65.8371 113.904 65.8371 113.682C65.8371 113.46 65.5944 113.283 65.2962 113.283H57.4714C57.1731 113.283 56.9316 113.462 56.9316 113.682C56.9316 113.902 57.1731 114.083 57.4714 114.083Z" fill="#405B91"/>
<path d="M54.6227 111.765H65.4373C65.4916 111.768 65.5459 111.76 65.597 111.741C65.648 111.723 65.6947 111.694 65.7342 111.656C65.7737 111.619 65.8051 111.574 65.8266 111.524C65.8481 111.474 65.8591 111.42 65.8591 111.365C65.8591 111.311 65.8481 111.257 65.8266 111.207C65.8051 111.157 65.7737 111.112 65.7342 111.075C65.6947 111.037 65.648 111.008 65.597 110.989C65.5459 110.971 65.4916 110.962 65.4373 110.965H54.6227C54.5685 110.962 54.5141 110.971 54.4631 110.989C54.4121 111.008 54.3654 111.037 54.3259 111.075C54.2864 111.112 54.255 111.157 54.2335 111.207C54.212 111.257 54.2009 111.311 54.2009 111.365C54.2009 111.42 54.212 111.474 54.2335 111.524C54.255 111.574 54.2864 111.619 54.3259 111.656C54.3654 111.694 54.4121 111.723 54.4631 111.741C54.5141 111.76 54.5685 111.768 54.6227 111.765Z" fill="#405B91"/>
<path d="M54.1515 175.638L55.4747 175.807C55.9482 175.868 55.9482 175.123 55.4747 175.062L54.1515 174.893C53.678 174.832 53.678 175.579 54.1515 175.638Z" fill="#50AA50"/>
<path d="M56.0986 169.777V170.439C56.0986 170.913 56.8431 170.913 56.8431 170.439V169.777C56.8431 169.297 56.0986 169.297 56.0986 169.777Z" fill="#50AA50"/>
<path d="M58.673 176.612L59.6424 176.071C60.0602 175.834 59.6862 175.194 59.266 175.428L58.2978 175.968C57.8788 176.205 58.254 176.845 58.673 176.612Z" fill="#50AA50"/>
<path d="M54.8497 185.187L56.0156 184.371C56.4062 184.097 56.0345 183.451 55.6404 183.726L54.4745 184.542C54.0839 184.816 54.4556 185.462 54.8497 185.187Z" fill="#50AA50"/>
<path d="M52.0627 178.778L52.8912 179.104C53.3374 179.278 53.5304 178.558 53.0889 178.385L52.2603 178.059C51.8141 177.885 51.6212 178.605 52.0627 178.778Z" fill="#50AA50"/>
<path d="M57.4632 182.238C57.5414 182.244 57.6172 182.268 57.685 182.308C57.7528 182.347 57.8108 182.401 57.855 182.466C58.1604 182.837 58.6835 182.308 58.3817 181.94C58.2691 181.805 58.129 181.695 57.9706 181.617C57.8123 181.54 57.6393 181.498 57.4632 181.492C56.9898 181.458 56.9898 182.203 57.4632 182.238Z" fill="#50AA50"/>
<path d="M59.0965 185.745C59.0129 186.236 59.0759 186.741 59.2776 187.196C59.4646 187.637 60.1061 187.258 59.9203 186.821C59.8021 186.544 59.7651 186.239 59.8138 185.943C59.8872 185.469 59.1699 185.271 59.0965 185.745Z" fill="#50AA50"/>
<path d="M62.9861 185.881L63.6453 186.058C64.1081 186.176 64.3058 185.466 63.843 185.339L63.1837 185.163C62.7209 185.039 62.5233 185.756 62.9861 185.881Z" fill="#50AA50"/>
<path d="M65.3626 178.555C65.3419 178.758 65.3717 178.964 65.4493 179.153C65.5269 179.342 65.65 179.509 65.8076 179.639C66.1722 179.946 66.7012 179.422 66.3343 179.112C66.2484 179.049 66.1817 178.964 66.1415 178.866C66.1014 178.767 66.0895 178.659 66.1071 178.555C66.1509 178.081 65.4064 178.081 65.3626 178.555Z" fill="#50AA50"/>
<path d="M64.4182 173.23C64.3194 173.365 64.251 173.519 64.2179 173.683C64.1848 173.846 64.1877 174.015 64.2265 174.178C64.3093 174.652 65.0266 174.449 64.9438 173.98C64.9302 173.912 64.9339 173.842 64.9546 173.776C64.9753 173.71 65.0123 173.651 65.0621 173.603C65.3462 173.217 64.6999 172.845 64.4194 173.228L64.4182 173.23Z" fill="#50AA50"/>
<path d="M68.5066 175.408V176.07C68.5066 176.544 69.2511 176.551 69.2511 176.07V175.408C69.2511 174.934 68.5066 174.928 68.5066 175.408Z" fill="#50AA50"/>
<path d="M61.5762 174.239L62.0733 174.57C62.4722 174.838 62.8462 174.192 62.4485 173.927L61.9526 173.596C61.5525 173.329 61.1796 173.974 61.5762 174.239Z" fill="#50AA50"/>
<path d="M62.8227 168.055C62.9627 168.21 63.0462 168.408 63.0594 168.617C63.0961 169.091 63.8405 169.097 63.8038 168.617C63.7802 168.214 63.6213 167.83 63.3529 167.528C63.0416 167.163 62.5173 167.693 62.8274 168.055H62.8227Z" fill="#50AA50"/>
<path d="M64.7009 165.802V166.796C64.7009 167.27 65.4454 167.27 65.4454 166.796V165.802C65.4454 165.328 64.7009 165.328 64.7009 165.802Z" fill="#50AA50"/>
<path d="M69.3041 170.18C69.4118 170.298 69.5195 170.406 69.6261 170.52C69.9575 170.867 70.483 170.34 70.1528 169.993L69.8308 169.654C69.4994 169.305 68.9739 169.833 69.3041 170.18Z" fill="#50AA50"/>
<path d="M70.0428 165.739L71.0323 165.796C71.5058 165.823 71.5058 165.078 71.0323 165.051L70.0428 164.994C69.5694 164.967 69.5694 165.712 70.0428 165.739Z" fill="#50AA50"/>
<path d="M71.0973 159.772C71.3174 159.993 71.538 160.214 71.7589 160.434C72.0974 160.774 72.6241 160.247 72.2856 159.908L71.624 159.245C71.2843 158.906 70.7576 159.432 71.0973 159.772Z" fill="#50AA50"/>
<path d="M73.9663 157.851V159.011C73.9663 159.485 74.7108 159.485 74.7108 159.011V157.851C74.7108 157.377 73.9663 157.377 73.9663 157.851Z" fill="#50AA50"/>
<path d="M75.3158 164.827L75.6436 164.328C75.9076 163.926 75.2637 163.553 75.001 163.952L74.6719 164.451C74.408 164.853 75.0518 165.226 75.3158 164.827Z" fill="#50AA50"/>
<path d="M72.7909 172.146L73.6194 171.822C74.0609 171.65 73.8692 170.93 73.4206 171.104L72.5921 171.428C72.1506 171.599 72.3423 172.32 72.7897 172.146H72.7909Z" fill="#50AA50"/>
<path d="M76.0896 171.106L76.9181 170.935C77.3915 170.837 77.1891 170.119 76.7204 170.217L75.8919 170.387C75.4185 170.484 75.6221 171.204 76.0896 171.106Z" fill="#50AA50"/>
<path d="M73.9663 174.58V174.745C73.9663 175.225 74.7108 175.227 74.7108 174.745V174.58C74.7108 174.106 73.9663 174.106 73.9663 174.58Z" fill="#50AA50"/>
<path d="M67.5676 185.991L68.0647 185.66C68.4612 185.395 68.0884 184.749 67.6883 185.016L67.1924 185.348C66.7959 185.612 67.1675 186.258 67.5676 185.991Z" fill="#50AA50"/>
<path d="M67.1392 188.738C67.4186 188.465 67.7695 188.277 68.1512 188.195C68.6175 188.086 68.4199 187.366 67.9535 187.476C67.4477 187.594 66.9839 187.848 66.6125 188.212C66.2657 188.543 66.7924 189.069 67.1392 188.738Z" fill="#50AA50"/>
<path d="M64.0725 189.186C64.1281 189.296 64.1837 189.406 64.2406 189.517C64.4572 189.944 65.0998 189.568 64.8832 189.14C64.8264 189.031 64.7649 188.921 64.7152 188.81C64.4974 188.383 63.8547 188.759 64.0725 189.186Z" fill="#50AA50"/>
<path d="M61.2367 189.988C61.6301 190.201 62.087 190.264 62.5232 190.166C62.9967 190.071 62.7931 189.353 62.3244 189.448C62.0831 189.502 61.8302 189.465 61.6142 189.345C61.1893 189.123 60.8129 189.766 61.2379 189.988H61.2367Z" fill="#50AA50"/>
<path d="M67.3915 182.919L68.8781 182.733C69.3515 182.673 69.3515 181.928 68.8781 181.987L67.3915 182.173C66.918 182.233 66.918 182.978 67.3915 182.919Z" fill="#50AA50"/>
<path d="M98.989 73.8626C100.905 73.8626 100.908 70.8813 98.989 70.8813C97.0703 70.8813 97.0692 73.8626 98.989 73.8626Z" fill="#405B91"/>
<path d="M327.294 149.386H327.961C328.739 149.386 329.486 148.7 329.45 147.895C329.413 147.091 328.789 146.405 327.961 146.405H327.299C326.52 146.405 325.775 147.09 325.81 147.895C325.846 148.701 326.465 149.386 327.299 149.386H327.294Z" fill="#405B91"/>
<path d="M40.0927 171.247C42.0078 171.247 42.0114 168.266 40.0927 168.266C38.1741 168.266 38.1729 171.247 40.0927 171.247Z" fill="#405B91"/>
<path d="M182.37 28.1507C184.286 28.1507 184.289 25.1694 182.37 25.1694C180.452 25.1694 180.45 28.1507 182.37 28.1507Z" fill="#405B91"/>
<path d="M211.974 49.1642C210.485 48.3798 208.833 48.5196 207.315 48.7768C204.735 49.2152 201.345 49.1796 199.888 51.7011C199.663 52.0827 199.527 52.5099 199.49 52.9512C199.444 53.5294 199.645 54.0354 199.819 54.5935C199.9 54.8248 199.933 55.07 199.916 55.3144C199.899 55.5588 199.833 55.7972 199.722 56.0154C199.625 56.205 197.812 56.1742 197.532 56.2038C196.739 56.2879 195.951 56.391 195.165 56.5036C193.863 56.6908 192.585 56.9657 191.292 57.2074C188.842 57.666 184.268 57.9811 183.037 60.4209C182.606 61.2752 182.881 62.5122 182.119 63.1734C181.283 63.8998 179.656 64.0135 178.596 64.2683C177.434 64.5479 176.281 64.9105 175.29 65.548C173.876 66.458 172.516 68.2733 173.231 70.1691C173.857 71.828 175.669 72.0389 177.088 71.7699C179.297 71.3528 181.216 70.1703 182.703 68.5612C183.724 67.4557 184.264 65.792 185.571 64.978C186.499 64.3986 187.779 64.7256 188.849 64.7872C190.18 64.8631 191.507 64.9057 192.831 64.8832C198.421 64.7777 203.943 63.6359 209.117 61.5157C209.901 61.1934 210.721 60.8048 211.13 60.0606C212.142 58.2134 209.955 56.7204 208.881 55.4312C208.367 54.8162 207.67 53.796 208.213 53.0898C208.781 52.3481 210.334 52.5732 211.158 52.2971C211.917 52.0424 212.727 51.5139 212.874 50.6726C212.996 49.9794 212.539 49.4616 211.974 49.1642Z" fill="#BCC0C4"/>
<path d="M241.969 32.7804C240.479 31.996 238.829 32.1359 237.31 32.393C234.73 32.8302 231.341 32.7958 229.882 35.3173C229.658 35.699 229.522 36.1262 229.485 36.5674C229.44 37.1456 229.64 37.6516 229.815 38.2097C229.895 38.4411 229.928 38.6863 229.911 38.9307C229.894 39.175 229.828 39.4134 229.717 39.6316C229.62 39.8212 227.808 39.7904 227.527 39.82C226.735 39.9029 225.947 40.006 225.16 40.1198C223.858 40.307 222.58 40.5819 221.287 40.8236C218.838 41.281 214.264 41.5973 213.031 44.0371C212.601 44.8914 212.876 46.1273 212.114 46.7896C211.277 47.516 209.651 47.6297 208.591 47.8845C207.428 48.1641 206.277 48.5267 205.286 49.1642C203.866 50.073 202.51 51.8895 203.226 53.7853C203.853 55.4442 205.663 55.6551 207.084 55.3873C209.291 54.9702 211.211 53.7865 212.699 52.1774C213.719 51.0731 214.26 49.4095 215.565 48.5954C216.493 48.016 217.775 48.343 218.844 48.4047C220.174 48.4793 221.502 48.5231 222.826 48.5006C228.416 48.395 233.938 47.2533 239.112 45.1331C239.897 44.8096 240.716 44.4222 241.124 43.678C242.135 41.8296 239.949 40.3378 238.875 39.0486C238.363 38.4336 237.666 37.4134 238.208 36.706C238.777 35.9655 240.33 36.1894 241.153 35.9145C241.911 35.6598 242.722 35.1313 242.869 34.29C242.991 33.5957 242.534 33.0802 241.969 32.7804Z" fill="#BCC0C4"/>
<path d="M234.472 64.8996C233.788 64.5062 232.895 64.7349 231.974 64.9517C230.762 65.2373 228.712 64.8889 227.866 66.216C227.565 66.69 227.489 67.2445 227.789 67.6462C228.137 68.1202 228.804 68.1996 229.397 68.2197C230.386 68.2541 231.393 68.2197 232.392 68.1948C233.102 68.177 233.919 68.2007 234.574 67.7375C235.458 67.113 235.477 66.0691 234.981 65.3676C234.847 65.1768 234.674 65.0171 234.472 64.8996Z" fill="#BCC0C4"/>
<path d="M233.174 59.9771C232.683 59.6038 232.003 59.496 231.357 59.4723C228.727 59.3752 226.256 60.3148 223.634 60.7911C221.596 61.162 219.555 60.6146 217.533 60.9795C216.36 61.1904 215.202 61.7616 214.539 62.7569C214.112 63.3956 213.918 64.161 213.569 64.8471C212.186 67.5652 209.234 65.0923 206.893 65.084C205.268 65.084 203.602 65.462 202 66.0498C200.669 66.5391 198.923 67.1648 198.02 68.3935C197.31 69.3521 197.355 70.5263 198.343 70.9896C199.595 71.5821 201.193 70.8202 202.571 70.8901C204.076 70.9671 205.411 71.6413 206.832 72.0643C211.405 73.4294 217.213 72.6461 221.177 69.9825C221.697 69.627 222.242 69.1779 222.301 68.5606C222.375 67.8425 221.779 67.1813 221.854 66.4621C221.955 65.5011 223.016 65.3388 223.782 65.2405C225.558 65.0118 227.333 64.7665 229.115 64.5188C230.465 64.334 232.022 64.0781 233.036 62.9109C233.846 61.976 234.077 60.662 233.174 59.9771Z" fill="#BCC0C4"/>
<path d="M263.111 49.4224C262.62 49.0492 261.94 48.9413 261.294 48.9176C258.664 48.8205 256.193 49.7601 253.571 50.2364C251.533 50.6061 249.491 50.0599 247.468 50.4248C246.297 50.6358 245.139 51.2069 244.476 52.2022C244.049 52.8421 243.855 53.6075 243.506 54.2936C242.123 57.0118 239.171 54.5388 236.829 54.5306C235.205 54.5306 233.537 54.9085 231.937 55.4963C230.606 55.9856 228.86 56.6112 227.957 57.84C227.247 58.7986 227.292 59.9728 228.28 60.4361C229.532 61.0286 231.13 60.2667 232.508 60.3366C234.013 60.4136 235.348 61.0878 236.769 61.5108C241.342 62.8759 247.15 62.0926 251.114 59.429C251.634 59.0735 252.179 58.6244 252.237 58.0011C252.311 57.2831 251.716 56.6219 251.791 55.9027C251.892 54.9405 252.953 54.7794 253.719 54.681C255.494 54.4524 257.27 54.2071 259.052 53.9594C260.402 53.7746 261.959 53.5186 262.972 52.3515C263.783 51.4237 264.014 50.1097 263.111 49.4224Z" fill="#BCC0C4"/>
<path d="M286.867 155.836C286.355 155.836 285.845 155.902 285.35 156.034C285.35 155.968 285.35 155.903 285.35 155.836C285.351 155.124 285.196 154.42 284.896 153.774C284.596 153.128 284.158 152.556 283.613 152.097C283.068 151.639 282.43 151.305 281.743 151.121C281.056 150.936 280.336 150.904 279.635 151.027C280.104 149.356 279.999 147.576 279.338 145.971C278.678 144.366 277.499 143.029 275.991 142.174C274.482 141.318 272.731 140.993 271.016 141.251C269.302 141.509 267.723 142.334 266.532 143.595C264.917 143.239 263.239 143.297 261.653 143.764C260.067 144.23 258.624 145.089 257.458 146.262C256.291 147.435 255.44 148.884 254.982 150.474C254.523 152.064 254.473 153.744 254.836 155.359C255.199 156.973 255.963 158.47 257.057 159.711C258.152 160.951 259.541 161.895 261.097 162.455C262.652 163.015 264.324 163.173 265.957 162.914C267.59 162.655 269.131 161.988 270.438 160.974C270.952 161.579 271.602 162.053 272.336 162.356C273.069 162.66 273.864 162.784 274.655 162.719C275.446 162.654 276.21 162.401 276.884 161.982C277.558 161.563 278.122 160.989 278.531 160.308C279.147 160.577 279.811 160.716 280.483 160.716C280.678 160.715 280.872 160.704 281.065 160.68C280.847 161.875 281.001 163.109 281.508 164.212C282.015 165.316 282.849 166.237 283.897 166.85C284.945 167.462 286.156 167.736 287.365 167.635C288.574 167.534 289.723 167.063 290.655 166.285C291.587 165.507 292.257 164.46 292.574 163.288C292.891 162.115 292.839 160.873 292.426 159.731C292.012 158.589 291.258 157.602 290.264 156.904C289.271 156.207 288.087 155.833 286.873 155.833L286.867 155.836Z" fill="#77B679"/>
<path d="M276.161 154.178C276.418 153.448 276.87 152.801 277.467 152.309C278.065 151.816 278.785 151.497 279.551 151.384C279.879 151.335 279.739 150.835 279.414 150.885C278.561 151.02 277.761 151.385 277.101 151.941C276.44 152.497 275.943 153.222 275.663 154.04C275.553 154.356 276.052 154.491 276.161 154.178Z" fill="#2B293F"/>
<path d="M271.542 153.783C272.913 153.431 274.366 153.606 275.614 154.272C276.863 154.939 277.817 156.05 278.289 157.386C278.4 157.699 278.899 157.564 278.788 157.248C278.277 155.782 277.235 154.561 275.868 153.827C274.501 153.093 272.909 152.899 271.406 153.284C271.083 153.364 271.219 153.863 271.543 153.783H271.542Z" fill="#2B293F"/>
<path d="M158.187 148.598H149.049L124.626 161.227V170.773H158.187V148.598Z" fill="#EBE2D6"/>
<path d="M124.826 169.427H165.254C165.587 169.427 165.587 168.91 165.254 168.91H124.826C124.493 168.91 124.492 169.427 124.826 169.427Z" fill="#2B293F"/>
<path d="M124.626 161.227V158.983L149.049 146.355H158.187V148.598H149.049L124.626 161.227Z" fill="#C59A80"/>
<path d="M145.684 163.125H127.56C127.494 163.125 127.441 163.178 127.441 163.243V167.292C127.441 167.358 127.494 167.411 127.56 167.411H145.684C145.75 167.411 145.803 167.358 145.803 167.292V163.243C145.803 163.178 145.75 163.125 145.684 163.125Z" fill="#2B293F"/>
<path d="M155.223 153.466H152.3C152.234 153.466 152.181 153.519 152.181 153.584V163.645C152.181 163.711 152.234 163.764 152.3 163.764H155.223C155.288 163.764 155.341 163.711 155.341 163.645V153.584C155.341 153.519 155.288 153.466 155.223 153.466Z" fill="#2B293F"/>
<path d="M148.79 146.728V170.5C148.79 170.833 149.308 170.833 149.308 170.5V146.728C149.308 146.395 148.79 146.395 148.79 146.728Z" fill="#2B293F"/>
<path d="M136.364 162.828V167.704C136.364 168.037 136.881 168.038 136.881 167.704V162.828C136.881 162.495 136.364 162.494 136.364 162.828Z" fill="#EBE2D6"/>
<path d="M131.652 162.828V167.704C131.652 168.037 132.168 168.038 132.168 167.704V162.828C132.168 162.495 131.652 162.494 131.652 162.828Z" fill="#EBE2D6"/>
<path d="M141.003 162.828V167.704C141.003 168.037 141.521 168.038 141.521 167.704V162.828C141.521 162.495 141.003 162.494 141.003 162.828Z" fill="#EBE2D6"/>
<path d="M199.463 70.4048C197.059 70.4048 195.842 70.9498 195.842 70.9498V117.953H203.083V70.9463C203.083 70.9463 201.944 70.4048 199.463 70.4048Z" fill="#EBE2D6"/>
<path d="M203.083 81.4884C203.083 81.4884 202.353 80.9422 199.463 80.9422C196.68 80.9422 195.842 81.4884 195.842 81.4884V78.6849C195.842 78.6849 197.059 78.1387 199.463 78.1387C201.948 78.1387 203.083 78.6849 203.083 78.6849V81.4884Z" fill="#C1543B"/>
<path d="M203.083 90.8089C203.083 90.8089 202.353 90.2627 199.463 90.2627C196.68 90.2627 195.842 90.8089 195.842 90.8089V88.0042C195.842 88.0042 197.059 87.458 199.463 87.458C201.948 87.458 203.083 88.0042 203.083 88.0042V90.8089Z" fill="#C1543B"/>
<path d="M202.907 72.5235C200.637 72.1823 198.354 72.2356 196.08 72.5141C195.753 72.5544 195.75 73.0722 196.08 73.0319C198.303 72.7593 200.548 72.6894 202.77 73.0224C203.095 73.0722 203.236 72.5733 202.907 72.5235Z" fill="#2B293F"/>
<path d="M199.463 111.379C196.592 111.379 195.139 112.031 195.139 112.031V117.955H203.779V112.031C203.779 112.031 202.425 111.379 199.463 111.379Z" fill="#8C9FB7"/>
<path d="M231.852 86.2827C230.212 86.2827 229.382 86.6548 229.382 86.6548V110.383H234.323V86.6488C234.323 86.6488 233.546 86.2827 231.852 86.2827Z" fill="#EBE2D6"/>
<path d="M234.225 88.2572C232.672 88.0444 231.098 88.0412 229.544 88.2477C229.217 88.288 229.214 88.8058 229.544 88.7655C231.054 88.5819 232.578 88.5286 234.088 88.7573C234.413 88.8047 234.554 88.3058 234.225 88.2572Z" fill="#2B293F"/>
<path d="M234.323 102.397C234.323 102.397 233.546 102.029 231.852 102.029C230.211 102.029 229.382 102.397 229.382 102.397L228.333 110.373H235.617L234.323 102.397Z" fill="#C59A80"/>
<path d="M176.174 70.4048C173.77 70.4048 172.553 70.9498 172.553 70.9498V117.953H179.795V70.9463C179.795 70.9463 178.655 70.4048 176.174 70.4048Z" fill="#EBE2D6"/>
<path d="M179.795 81.4884C179.795 81.4884 179.064 80.9422 176.174 80.9422C173.391 80.9422 172.553 81.4884 172.553 81.4884V78.6849C172.553 78.6849 173.77 78.1387 176.174 78.1387C178.659 78.1387 179.795 78.6849 179.795 78.6849V81.4884Z" fill="#C1543B"/>
<path d="M179.795 90.8089C179.795 90.8089 179.064 90.2627 176.174 90.2627C173.391 90.2627 172.553 90.8089 172.553 90.8089V88.0042C172.553 88.0042 173.77 87.458 176.174 87.458C178.659 87.458 179.795 88.0042 179.795 88.0042V90.8089Z" fill="#C1543B"/>
<path d="M179.618 72.5235C177.348 72.1823 175.065 72.2356 172.791 72.5141C172.465 72.5544 172.461 73.0722 172.791 73.0319C175.014 72.7593 177.259 72.6894 179.481 73.0224C179.806 73.0722 179.947 72.5733 179.618 72.5235Z" fill="#2B293F"/>
<path d="M222.838 86.2827C221.196 86.2827 220.366 86.6548 220.366 86.6548V110.383H225.309V86.6488C225.309 86.6488 224.532 86.2827 222.838 86.2827Z" fill="#EBE2D6"/>
<path d="M225.211 88.2573C223.658 88.0444 222.083 88.0412 220.529 88.2478C220.202 88.2881 220.198 88.8059 220.529 88.7656C222.04 88.582 223.563 88.5287 225.074 88.7573C225.399 88.8047 225.539 88.3059 225.211 88.2573Z" fill="#2B293F"/>
<path d="M225.309 102.397C225.309 102.397 224.531 102.029 222.838 102.029C221.196 102.029 220.366 102.397 220.366 102.397L219.318 110.373H226.602L225.309 102.397Z" fill="#C59A80"/>
<path d="M240.308 117.949V110.376H214.447V117.949H158.187V170.772H246.859V117.949H240.308Z" fill="#8C9FB7"/>
<path d="M185.605 124.997H164.859V164.261H185.605V124.997Z" fill="#2B293F"/>
<path d="M174.973 124.349V164.866C174.973 165.199 175.49 165.199 175.49 164.866V124.349C175.49 124.016 174.973 124.016 174.973 124.349Z" fill="#8C9FB7"/>
<path d="M169.769 124.349V164.866C169.769 165.199 170.286 165.199 170.286 164.866V124.349C170.286 124.016 169.769 124.016 169.769 124.349Z" fill="#8C9FB7"/>
<path d="M180.141 124.349V164.866C180.141 165.199 180.659 165.199 180.659 164.866V124.349C180.659 124.016 180.141 124.016 180.141 124.349Z" fill="#8C9FB7"/>
<path d="M186.03 144.349H164.015C163.682 144.349 163.681 144.866 164.015 144.866H186.03C186.362 144.866 186.362 144.349 186.03 144.349Z" fill="#8C9FB7"/>
<path d="M208.88 124.997H188.133V164.261H208.88V124.997Z" fill="#2B293F"/>
<path d="M198.247 124.349V164.866C198.247 165.199 198.764 165.199 198.764 164.866V124.349C198.764 124.016 198.247 124.016 198.247 124.349Z" fill="#8C9FB7"/>
<path d="M193.043 124.349V164.866C193.043 165.199 193.56 165.199 193.56 164.866V124.349C193.56 124.016 193.043 124.016 193.043 124.349Z" fill="#8C9FB7"/>
<path d="M203.416 124.349V164.866C203.416 165.199 203.933 165.199 203.933 164.866V124.349C203.933 124.016 203.416 124.016 203.416 124.349Z" fill="#8C9FB7"/>
<path d="M209.304 144.349H187.289C186.957 144.349 186.956 144.866 187.289 144.866H209.304C209.637 144.866 209.637 144.349 209.304 144.349Z" fill="#8C9FB7"/>
<path d="M158.416 164.772H242.623C242.955 164.772 242.957 164.254 242.623 164.254H158.416C158.084 164.254 158.083 164.772 158.416 164.772Z" fill="#2B293F"/>
<path d="M214.677 117.963H231.97C232.303 117.963 232.303 117.445 231.97 117.445H214.677C214.344 117.445 214.344 117.963 214.677 117.963Z" fill="#2B293F"/>
<path d="M231.716 110.412V117.704C231.716 118.038 232.233 118.038 232.233 117.704V110.412C232.233 110.079 231.716 110.079 231.716 110.412Z" fill="#2B293F"/>
<path d="M222.55 117.704V170.529C222.55 170.862 223.067 170.864 223.067 170.529V117.704C223.067 117.371 222.55 117.371 222.55 117.704Z" fill="#2B293F"/>
<path d="M232.065 112.297H240.034C240.367 112.297 240.368 111.779 240.034 111.779H232.065C231.731 111.779 231.731 112.297 232.065 112.297Z" fill="#2B293F"/>
<path d="M176.174 111.379C173.304 111.379 171.85 112.031 171.85 112.031V117.955H180.497V112.031C180.497 112.031 179.137 111.379 176.174 111.379Z" fill="#8C9FB7"/>
<path d="M158.433 119.805H222.751C223.084 119.805 223.085 119.287 222.751 119.287H158.433C158.099 119.287 158.099 119.805 158.433 119.805Z" fill="#2B293F"/>
<path d="M172.104 117.981H180.247C180.581 117.981 180.581 117.463 180.247 117.463H172.104C171.771 117.463 171.771 117.981 172.104 117.981Z" fill="#2B293F"/>
<path d="M219.598 110.383H226.289C226.622 110.383 226.623 109.865 226.289 109.865H219.595C219.261 109.865 219.261 110.383 219.595 110.383H219.598Z" fill="#2B293F"/>
<path d="M228.613 110.383H235.308C235.641 110.383 235.641 109.865 235.308 109.865H228.613C228.28 109.865 228.28 110.383 228.613 110.383Z" fill="#2B293F"/>
<path d="M195.397 117.981H203.537C203.87 117.981 203.87 117.463 203.537 117.463H195.397C195.064 117.463 195.064 117.981 195.397 117.981Z" fill="#2B293F"/>
<path d="M300.217 162.985H246.019V170.773H300.217V162.985Z" fill="#C1543B"/>
<path d="M300.217 162.985L294.529 158.207H243.497V162.985H300.217Z" fill="#2B293F"/>
<path d="M282.138 165.083H279.788V168.41H282.138V165.083Z" fill="#2B293F"/>
<path d="M278.388 165.083H276.038V168.41H278.388V165.083Z" fill="#2B293F"/>
<path d="M274.638 165.083H272.289V168.41H274.638V165.083Z" fill="#2B293F"/>
<path d="M285.216 162.985V170.516C285.216 170.849 285.733 170.85 285.733 170.516V162.985C285.733 162.652 285.216 162.652 285.216 162.985Z" fill="#2B293F"/>
<path d="M290.71 158.263L285.292 162.803C285.036 163.017 285.404 163.381 285.658 163.169L291.076 158.629C291.332 158.415 290.964 158.05 290.71 158.263Z" fill="#817E9F"/>
<path d="M248.324 163.505V141.389C248.324 141.389 246.082 136.672 239.1 136.672C232.118 136.672 229.877 141.389 229.877 141.389V166.674C229.877 166.674 232.398 165.79 239.155 165.79C242.232 165.79 244.399 165.97 245.852 166.168C246.518 165.146 247.354 164.245 248.324 163.505Z" fill="#EBE2D6"/>
<path d="M248.387 141.198C242.319 140.266 236.188 140.44 230.11 141.189C229.784 141.229 229.781 141.747 230.11 141.707C236.137 140.964 242.23 140.772 248.25 141.697C248.575 141.747 248.716 141.248 248.387 141.198Z" fill="#2B293F"/>
<path d="M248.387 143.221C242.319 142.288 236.188 142.462 230.11 143.211C229.784 143.252 229.781 143.769 230.11 143.729C236.137 142.986 242.23 142.795 248.25 143.72C248.575 143.769 248.716 143.271 248.387 143.221Z" fill="#2B293F"/>
<path d="M248.387 158.958C242.319 158.025 236.188 158.199 230.11 158.948C229.784 158.988 229.781 159.506 230.11 159.466C236.137 158.723 242.23 158.532 248.25 159.456C248.575 159.506 248.716 159.007 248.387 158.958Z" fill="#2B293F"/>
<path d="M248.387 160.947C242.319 160.014 236.188 160.188 230.11 160.937C229.784 160.978 229.781 161.495 230.11 161.455C236.137 160.712 242.23 160.521 248.25 161.446C248.575 161.495 248.716 160.997 248.387 160.947Z" fill="#2B293F"/>
<path d="M254.531 136.672C247.548 136.672 245.307 141.389 245.307 141.389V166.674C245.307 166.674 247.827 165.79 254.584 165.79C261.404 165.79 263.754 166.674 263.754 166.674V141.389C263.754 141.389 261.513 136.672 254.531 136.672Z" fill="#EBE2D6"/>
<path d="M254.128 165.659V170.504C254.128 170.837 254.645 170.838 254.645 170.504V165.659C254.645 165.326 254.128 165.326 254.128 165.659Z" fill="#EBE2D6"/>
<path d="M245.048 165.659V170.504C245.048 170.837 245.565 170.838 245.565 170.504V165.659C245.565 165.326 245.048 165.326 245.048 165.659Z" fill="#EBE2D6"/>
<path d="M254.265 165.928L263.343 170.727C263.638 170.882 263.899 170.436 263.604 170.279L254.525 165.481C254.232 165.326 253.97 165.773 254.265 165.928Z" fill="#EBE2D6"/>
<path d="M245.185 165.928L254.265 170.727C254.558 170.882 254.82 170.436 254.525 170.279L245.446 165.481C245.152 165.326 244.891 165.773 245.185 165.928Z" fill="#EBE2D6"/>
<path d="M263.628 141.198C257.56 140.266 251.429 140.44 245.352 141.189C245.025 141.229 245.022 141.747 245.352 141.707C251.378 140.964 257.471 140.772 263.491 141.697C263.816 141.747 263.957 141.248 263.628 141.198Z" fill="#2B293F"/>
<path d="M263.628 143.221C257.56 142.288 251.429 142.462 245.352 143.211C245.025 143.252 245.022 143.769 245.352 143.729C251.378 142.986 257.471 142.795 263.491 143.72C263.816 143.769 263.957 143.271 263.628 143.221Z" fill="#2B293F"/>
<path d="M263.628 158.958C257.56 158.025 251.429 158.199 245.352 158.948C245.025 158.988 245.022 159.506 245.352 159.466C251.378 158.723 257.471 158.532 263.491 159.456C263.816 159.506 263.957 159.007 263.628 158.958Z" fill="#2B293F"/>
<path d="M263.628 160.947C257.56 160.014 251.429 160.188 245.352 160.937C245.025 160.978 245.022 161.495 245.352 161.455C251.378 160.712 257.471 160.521 263.491 161.446C263.816 161.495 263.957 160.997 263.628 160.947Z" fill="#2B293F"/>
<path d="M245.575 141.262C245.949 140.717 246.382 140.215 246.867 139.766C247.113 139.541 246.749 139.173 246.501 139.4C245.986 139.88 245.525 140.417 245.128 141C244.938 141.274 245.386 141.534 245.575 141.262Z" fill="#2B293F"/>
<path d="M245.048 141.232V166.404C245.048 166.738 245.565 166.738 245.565 166.404V141.232C245.565 140.899 245.048 140.897 245.048 141.232Z" fill="#2B293F"/>
<path d="M229.866 166.433V170.503C229.866 170.836 230.383 170.838 230.383 170.503V166.433C230.383 166.1 229.866 166.099 229.866 166.433Z" fill="#EBE2D6"/>
<path d="M263.218 166.433V170.503C263.218 170.836 263.735 170.838 263.735 170.503V166.433C263.735 166.1 263.218 166.099 263.218 166.433Z" fill="#EBE2D6"/>
<path d="M238.202 165.659V170.504C238.202 170.837 238.719 170.838 238.719 170.504V165.659C238.719 165.326 238.202 165.326 238.202 165.659Z" fill="#EBE2D6"/>
<path d="M269.616 126.507V170.489C269.616 170.822 270.133 170.822 270.133 170.489V126.507C270.133 126.174 269.616 126.172 269.616 126.507Z" fill="#2B293F"/>
<path d="M265.833 169.463L270.025 165.266C270.262 165.029 269.895 164.664 269.66 164.9L265.466 169.098C265.23 169.335 265.596 169.7 265.832 169.464L265.833 169.463Z" fill="#2B293F"/>
<path d="M265.467 161.07L269.659 165.267C269.896 165.504 270.26 165.137 270.025 164.901L265.832 160.704C265.596 160.467 265.231 160.834 265.467 161.07Z" fill="#2B293F"/>
<path d="M265.833 161.07L270.025 156.874C270.262 156.637 269.895 156.272 269.66 156.507L265.466 160.704C265.23 160.941 265.596 161.306 265.832 161.07H265.833Z" fill="#2B293F"/>
<path d="M265.467 152.677L269.659 156.874C269.896 157.111 270.26 156.743 270.025 156.507L265.832 152.31C265.596 152.073 265.231 152.441 265.467 152.677Z" fill="#2B293F"/>
<path d="M265.833 152.676L270.025 148.479C270.262 148.243 269.895 147.878 269.66 148.113L265.466 152.31C265.23 152.547 265.596 152.912 265.832 152.676H265.833Z" fill="#2B293F"/>
<path d="M265.467 144.283L269.659 148.48C269.896 148.716 270.26 148.349 270.025 148.113L265.832 143.916C265.596 143.679 265.231 144.047 265.467 144.283Z" fill="#2B293F"/>
<path d="M265.833 144.282L270.025 140.085C270.262 139.848 269.895 139.484 269.66 139.719L265.466 143.916C265.23 144.153 265.596 144.518 265.832 144.282H265.833Z" fill="#2B293F"/>
<path d="M265.467 135.889L269.659 140.086C269.896 140.323 270.26 139.956 270.025 139.72L265.832 135.523C265.596 135.286 265.231 135.653 265.467 135.889Z" fill="#2B293F"/>
<path d="M265.833 135.889L270.025 131.692C270.262 131.455 269.895 131.09 269.66 131.326L265.466 135.523C265.23 135.76 265.596 136.125 265.832 135.889H265.833Z" fill="#2B293F"/>
<path d="M265.467 127.495L269.659 131.692C269.896 131.929 270.26 131.562 270.025 131.326L265.832 127.129C265.596 126.892 265.231 127.259 265.467 127.495Z" fill="#2B293F"/>
<path d="M265.651 169.541H269.874C270.207 169.541 270.208 169.023 269.874 169.023H265.651C265.317 169.023 265.317 169.541 265.651 169.541Z" fill="#2B293F"/>
<path d="M265.392 126.507V170.489C265.392 170.822 265.909 170.822 265.909 170.489V126.507C265.909 126.174 265.392 126.172 265.392 126.507Z" fill="#2B293F"/>
<path d="M265.162 126.177L259.875 133.537H240.937C240.48 133.537 240.031 133.653 239.63 133.873C239.23 134.094 238.892 134.412 238.647 134.799L237.75 136.221H259.871L265.159 129.144H270.158V126.182L265.162 126.177Z" fill="#DBB059"/>
<path d="M259.458 133.781V135.96C259.458 136.293 259.976 136.294 259.976 135.96V133.781C259.976 133.448 259.458 133.447 259.458 133.781Z" fill="#2B293F"/>
<path d="M253.307 136.721H255.748C256.082 136.721 256.082 136.204 255.748 136.204H253.307C252.975 136.204 252.975 136.721 253.307 136.721Z" fill="#2B293F"/>
<path d="M237.88 136.721H240.321C240.653 136.721 240.654 136.204 240.321 136.204H237.88C237.547 136.204 237.547 136.721 237.88 136.721Z" fill="#2B293F"/>
<path d="M238.33 165.929C240.612 167.243 242.894 168.556 245.177 169.87C245.466 170.037 245.726 169.589 245.438 169.423L238.59 165.482C238.302 165.316 238.041 165.763 238.33 165.929Z" fill="#EBE2D6"/>
<path d="M229.995 165.929L238.33 170.728C238.619 170.894 238.879 170.447 238.59 170.28L230.255 165.482C229.967 165.316 229.706 165.763 229.995 165.929Z" fill="#EBE2D6"/>
</svg>
