<?xml version="1.0" encoding="utf-8"?>
<!-- Generator: Adobe Illustrator 26.0.1, SVG Export Plug-In . SVG Version: 6.00 Build 0)  -->
<svg version="1.1" id="Layer_1" xmlns="http://www.w3.org/2000/svg" xmlns:xlink="http://www.w3.org/1999/xlink" x="0px" y="0px"
	 viewBox="0 0 841.89 303.32" style="enable-background:new 0 0 841.89 303.32;" xml:space="preserve">
<style type="text/css">
	.st0{fill:#50535A;}
	.st1{fill-rule:evenodd;clip-rule:evenodd;fill:#1B1E3F;}
	.st2{fill:#1B1E3F;}
	.st3{fill-rule:evenodd;clip-rule:evenodd;fill:#50535A;}
</style>
<g>
	<path class="st0" d="M11.57,16.61v272.92h818.75V16.61H11.57z M816.28,275.89H24.82V30.26h791.46V275.89z"/>
	<g>
		<polygon class="st1" points="251.64,50.66 279.74,50.66 337.94,169.15 395.74,50.66 423.88,50.66 453.11,255.48 401.59,255.48 
			390.61,174.87 350.78,255.48 325.23,255.48 284.74,173.87 273.72,255.48 222.68,255.48 		"/>
		<polygon class="st2" points="52.33,50.66 183.12,50.66 194.09,50.66 232.97,50.66 230.41,67.98 210.14,67.98 207.49,87.57 
			227.53,87.57 202.89,255.07 154.19,255.48 175.78,102.6 156.35,102.6 134.31,255.48 82.76,255.48 104.8,102.6 45.27,102.6 		"/>
	</g>
	<g>
		<path class="st0" d="M755.09,50.66h39.5v13.57h-22.13v10.88h20.74v13.02h-20.74v12.66h22.98v13.57h-40.35V50.66z M718.01,89.3
			l-16.73-38.64h18.78l6.54,22.23l6.73-22.23h19.05L735.36,89.3v25.08h-17.35V89.3z M628.67,50.66h17.37v24.46l13.08-24.46h18.49
			l-16.82,27.85l18.88,35.86h-19.8l-10.18-22.22l-3.65,5.34v16.88h-17.37V50.66z M576.68,50.66h27.18c3.3,0,6.1,0.42,8.41,1.25
			c2.37,0.84,4.27,2.03,5.69,3.57c1.49,1.5,2.56,3.27,3.18,5.36c0.7,2.08,1.02,4.35,1.02,6.79c0,4.28-0.9,7.74-2.71,10.35
			c-1.81,2.61-4.7,4.22-8.68,4.82c4.17,0.52,7.03,1.93,8.59,4.37c1.56,2.43,2.35,5.79,2.35,10.07v5.44v2.59
			c0,0.9,0.03,1.76,0.08,2.59c0.07,0.77,0.16,1.48,0.29,2.14c0.12,0.65,0.28,1.15,0.47,1.52l0.74,1.06c0.25,0.29,0.65,0.6,1.22,0.89
			v0.9h-18.5c-0.45-0.84-0.78-1.82-1.03-2.95c-0.19-1.14-0.35-2.26-0.47-3.39l-0.2-3.22v-2.59v-4.28c0-1.78-0.09-3.26-0.27-4.46
			c-0.19-1.19-0.53-2.12-1.04-2.77c-0.43-0.7-1.02-1.18-1.77-1.43c-0.69-0.3-1.55-0.44-2.6-0.44h-4.58v25.53h-17.38V50.66z
			 M594.05,77.62h3.46c2.48,0,4.32-0.68,5.5-2.06c1.19-1.43,1.79-3.27,1.79-5.53c0-2.68-0.6-4.58-1.79-5.72
			c-1.11-1.12-2.97-1.69-5.6-1.69h-3.36V77.62z M490.37,64.77h-12.88V50.66h43.34v14.11h-13.08v49.61h-17.37V64.77z"/>
		<polygon class="st3" points="490.37,64.77 490.37,114.38 507.74,114.38 507.74,64.77 520.83,64.77 520.83,50.66 477.49,50.66 
			477.49,64.77 		"/>
		<path class="st3" d="M576.68,50.66v63.72h17.38V88.86h4.57c1.06,0,1.91,0.15,2.61,0.44c0.76,0.25,1.34,0.73,1.78,1.43
			c0.5,0.65,0.84,1.58,1.03,2.77c0.18,1.2,0.27,2.67,0.27,4.46v4.28v2.59c0.09,1.02,0.14,2.09,0.2,3.22
			c0.13,1.13,0.28,2.25,0.47,3.39c0.26,1.14,0.59,2.11,1.04,2.95h18.5v-0.9c-0.57-0.29-0.97-0.6-1.22-0.89l-0.75-1.06
			c-0.19-0.36-0.35-0.86-0.47-1.52c-0.12-0.66-0.22-1.37-0.29-2.14c-0.05-0.83-0.07-1.7-0.07-2.59v-2.59v-5.44
			c0-4.28-0.79-7.64-2.35-10.07c-1.56-2.44-4.42-3.85-8.58-4.21V82.8c3.98-0.61,6.88-2.22,8.68-4.82c1.8-2.62,2.71-6.07,2.71-10.35
			c0-2.44-0.33-4.7-1.03-6.79c-0.61-2.08-1.68-3.86-3.18-5.36c-1.42-1.54-3.33-2.73-5.69-3.57c-2.31-0.83-5.11-1.25-8.41-1.25
			H576.68z M594.06,77.62v-15h3.35c2.63,0,4.48,0.57,5.6,1.69c1.19,1.14,1.78,3.04,1.78,5.72c0,2.26-0.6,4.11-1.78,5.53
			c-1.17,1.38-3.03,2.06-5.5,2.06H594.06z"/>
		<polygon class="st3" points="628.66,50.66 628.66,114.38 646.04,114.38 646.04,97.5 649.68,92.16 659.86,114.38 679.67,114.38 
			660.79,78.52 677.6,50.66 659.12,50.66 646.23,75.12 646.04,75.12 646.04,50.66 		"/>
		<polygon class="st3" points="718.01,89.3 718.01,114.38 735.37,114.38 735.37,89.3 752.38,50.66 733.32,50.66 726.79,72.89 
			726.6,72.89 720.05,50.66 701.27,50.66 		"/>
		<polygon class="st3" points="755.09,50.66 755.09,114.38 795.44,114.38 795.44,100.81 772.46,100.81 772.46,88.15 793.2,88.15 
			793.2,75.12 772.46,75.12 772.46,64.24 794.59,64.24 794.59,50.66 		"/>
		<path class="st0" d="M541.37,50.66v5.58h-7.1v6.48h7.1v33.9c0,3.1,0.46,5.16,1.41,6.25c0.92,1,2.2,1.51,3.82,1.51
			c1.62,0,2.89-0.5,3.83-1.51c0.94-1.09,1.39-3.16,1.39-6.25V50.66h17.37v5.58h-6.92v6.48h6.92v29.71c0,4.47-0.49,8.17-1.49,11.15
			c-0.98,2.98-2.45,5.36-4.39,7.14c-1.86,1.79-4.21,3-6.99,3.67c-2.81,0.65-6.06,0.97-9.72,0.97c-3.62,0-6.86-0.32-9.72-0.97
			c-2.79-0.67-5.17-1.88-7.1-3.67c-1.88-1.78-3.3-4.16-4.29-7.14c-1-2.98-1.49-6.68-1.49-11.15V50.66H541.37z"/>
		<polygon class="st3" points="681.57,50.66 698.94,50.66 698.94,56.25 691.88,56.25 691.88,62.72 698.94,62.72 698.94,114.38 
			681.57,114.38 		"/>
		<polygon class="st3" points="556.01,189.93 556.01,255.57 597.59,255.57 597.59,241.59 573.91,241.59 573.91,228.54 
			595.28,228.54 595.28,215.11 573.91,215.11 573.91,203.89 596.73,203.89 596.73,189.93 		"/>
		<path class="st3" d="M631.57,209.88v3.68h17.32v-4.14c0-3.2-0.41-6.04-1.25-8.54c-0.78-2.58-2.06-4.76-3.85-6.53
			c-1.73-1.83-4.02-3.25-6.84-4.23c-2.8-0.97-6.25-1.48-10.28-1.48c-4.62,0-8.51,0.62-11.66,1.84c-3.13,1.17-5.67,3.1-7.59,5.8
			c-1.92,2.7-3.3,6.22-4.14,10.58c-0.77,4.35-1.15,9.64-1.15,15.89c0,6.13,0.32,11.37,0.96,15.73c0.71,4.28,1.96,7.8,3.76,10.55
			c1.8,2.71,4.29,4.64,7.5,5.81c3.21,1.16,7.33,1.74,12.33,1.74c2.88,0,5.68-0.3,8.36-0.91c2.77-0.57,5.19-1.67,7.31-3.31
			c2.13-1.72,3.82-4.05,5.1-7c1.3-2.95,1.94-6.71,1.94-11.32v-4.86h-17.33c0,3.12-0.1,5.73-0.29,7.81c-0.12,2.03-0.4,3.65-0.77,4.88
			c-0.39,1.23-0.94,2.13-1.62,2.67c-0.73,0.5-1.61,0.74-2.7,0.74c-1.35,0-2.44-0.34-3.27-1c-0.78-0.68-1.38-1.88-1.84-3.6
			c-0.38-1.7-0.65-4.01-0.75-6.88c-0.14-2.96-0.19-6.62-0.19-11.04c0-4.41,0.06-8.06,0.19-10.94c0.11-2.93,0.37-5.27,0.75-6.98
			c0.46-1.71,1.06-2.9,1.84-3.59c0.83-0.67,1.92-1.02,3.27-1.02c1.72,0,2.99,0.68,3.74,2.03
			C631.18,203.59,631.57,206.13,631.57,209.88z"/>
		<polygon class="st3" points="655.81,189.93 655.81,255.57 695.75,255.57 695.75,241.59 673.7,241.59 673.7,189.93 		"/>
		<path class="st3" d="M752.14,208.87h16.75c0-7.05-1.77-12.16-5.28-15.36c-3.48-3.24-9.12-4.87-16.96-4.87
			c-7.57,0-13.21,1.75-16.94,5.25c-3.71,3.49-5.56,8.57-5.56,15.24c0,3.87,0.66,7,2.01,9.39c1.4,2.41,3.16,4.32,5.2,5.81
			c2.11,1.47,4.39,2.65,6.82,3.57c2.46,0.92,4.68,1.83,6.75,2.76c2.12,0.85,3.84,1.92,5.19,3.21c1.42,1.22,2.13,2.91,2.13,5.05
			c0,1.79-0.53,3.29-1.55,4.5c-0.96,1.24-2.38,1.85-4.24,1.85c-1.73,0-3.15-0.55-4.23-1.65c-1.09-1.16-1.64-3.16-1.64-5.98v-1.57
			h-17.32v2.31c0,3.43,0.53,6.31,1.54,8.64c1.03,2.34,2.51,4.24,4.42,5.7c2,1.41,4.39,2.38,7.22,2.95c2.88,0.61,6.19,0.91,9.91,0.91
			c7.89,0,13.93-1.57,18.1-4.69c4.17-3.18,6.25-8.27,6.25-15.26c0-3.98-0.73-7.2-2.21-9.65c-1.41-2.51-3.22-4.52-5.38-6.05
			c-2.18-1.54-4.52-2.76-7.03-3.69c-2.51-0.98-4.85-1.92-7.02-2.86c-2.17-0.9-4.01-1.96-5.49-3.2c-1.42-1.29-2.12-3-2.12-5.16
			c0-1.47,0.47-2.78,1.36-3.95c0.89-1.24,2.3-1.84,4.23-1.84c1.72,0,3.01,0.71,3.82,2.12c0.85,1.34,1.26,3.01,1.26,4.97V208.87z"/>
		<polygon class="st3" points="486.71,189.51 495.7,189.51 514.29,227.33 532.75,189.51 541.72,189.51 551.06,254.91 534.6,254.91 
			531.11,229.17 518.39,254.91 510.23,254.91 497.29,228.84 493.77,254.91 477.49,254.91 		"/>
		<polygon class="st3" points="699.68,189.94 717.55,189.94 717.55,195.69 710.27,195.69 710.27,202.35 717.55,202.35 
			717.55,255.48 699.68,255.48 		"/>
		<polygon class="st3" points="776.3,189.94 794.14,189.94 794.14,195.69 786.89,195.69 786.89,202.35 794.14,202.35 794.14,255.48 
			776.3,255.48 		"/>
		<path class="st0" d="M676.46,172.62h7.77v3.29h-7.77V172.62z M683.44,144.4c0-2.25-0.24-3.8-0.7-4.6
			c-0.47-0.81-1.22-1.21-2.26-1.21c-0.81,0-1.49,0.19-1.97,0.61c-0.47,0.4-0.84,1.13-1.11,2.15c-0.23,1.03-0.39,2.45-0.46,4.21
			c-0.07,1.73-0.12,3.95-0.12,6.59c0,2.67,0.05,4.88,0.12,6.66c0.07,1.74,0.23,3.12,0.46,4.17c0.27,1.03,0.64,1.75,1.11,2.17
			c0.48,0.39,1.16,0.59,1.97,0.59c0.65,0,1.19-0.14,1.62-0.43c0.42-0.34,0.76-0.87,0.99-1.6c0.23-0.75,0.39-1.74,0.45-2.95
			c0.13-1.26,0.17-2.83,0.17-4.72h10.46v2.93c0,2.79-0.39,5.06-1.17,6.83c-0.77,1.78-1.79,3.19-3.06,4.22
			c-1.28,1-2.75,1.66-4.42,2.01c-1.62,0.36-3.31,0.54-5.05,0.54c-3.02,0-5.5-0.35-7.43-1.06c-1.92-0.69-3.45-1.86-4.52-3.5
			c-1.09-1.66-1.85-3.77-2.27-6.35c-0.39-2.64-0.6-5.81-0.6-9.5c0-3.76,0.24-6.96,0.71-9.6c0.08-0.49,0.19-0.97,0.32-1.43h-7.06
			v30.83h-10.8v-30.83h-8v-8.76h26.91v5.75c0.35-0.71,0.72-1.36,1.13-1.92c1.15-1.62,2.69-2.8,4.59-3.5
			c1.9-0.74,4.24-1.11,7.03-1.11c2.44,0,4.51,0.29,6.2,0.89c1.72,0.59,3.08,1.44,4.12,2.55c1.08,1.08,1.85,2.38,2.32,3.93
			c0.51,1.51,0.75,3.23,0.75,5.15v2.51h-10.43V144.4z M766.1,132.37h16.88c2.06,0,3.79,0.25,5.23,0.77
			c1.47,0.52,2.66,1.27,3.54,2.23c0.94,0.91,1.6,2.02,1.98,3.31c0.43,1.31,0.64,2.7,0.64,4.21c0,2.67-0.55,4.82-1.68,6.45
			c-1.12,1.64-2.92,2.63-5.4,2.99c2.6,0.33,4.38,1.2,5.35,2.71c0.96,1.52,1.44,3.62,1.44,6.28v3.37v1.63c0,0.53,0.03,1.08,0.07,1.6
			c0.04,0.48,0.09,0.92,0.16,1.32l0.3,0.95l0.46,0.66l0.76,0.55v0.55h-11.5c-0.26-0.51-0.47-1.13-0.62-1.83
			c-0.14-0.69-0.23-1.4-0.32-2.12l-0.1-1.98v-1.61v-2.66c0-1.11-0.07-2.04-0.18-2.79c-0.12-0.73-0.33-1.29-0.64-1.71l-1.11-0.87
			c-0.42-0.2-0.96-0.28-1.61-0.28h-2.85v15.86h-10.12h-0.67h-10.83l-1.08-6.94h-8.6l-1.1,6.94h-8.48h-2.83H711.9v-39.59h10.79v31.15
			h12.58l7.81-31.15h13.57l9.44,36.94V132.37z M776.9,149.12h2.14c1.54,0,2.7-0.43,3.43-1.28c0.74-0.88,1.09-2.05,1.09-3.44
			c0-1.66-0.36-2.85-1.09-3.55c-0.7-0.7-1.87-1.06-3.48-1.06h-2.09V149.12z M749.83,140.46l-2.96,16.8h6.03l-2.93-16.8H749.83z
			 M696.4,132.37h10.8v39.59h-10.8V132.37z M635.9,132.37l10.11,39.59h-11.5l-1.11-6.94h-8.59l-1.1,6.94h-11.32l9.92-39.59H635.9z
			 M629.05,140.46l-2.95,16.8h6.03l-2.95-16.8H629.05z M603.38,144.4c0-2.25-0.24-3.8-0.7-4.6c-0.47-0.81-1.22-1.21-2.26-1.21
			c-0.82,0-1.48,0.19-1.98,0.61c-0.47,0.4-0.84,1.13-1.1,2.15c-0.23,1.03-0.38,2.45-0.47,4.21c-0.09,1.73-0.11,3.95-0.11,6.59
			c0,2.67,0.02,4.88,0.11,6.66c0.09,1.74,0.24,3.12,0.47,4.17c0.26,1.03,0.63,1.75,1.1,2.17c0.5,0.39,1.15,0.59,1.98,0.59
			c0.67,0,1.19-0.14,1.63-0.43c0.42-0.34,0.75-0.87,0.99-1.6c0.23-0.75,0.37-1.74,0.45-2.95c0.13-1.26,0.17-2.83,0.17-4.72h10.45
			v2.93c0,2.79-0.39,5.06-1.16,6.83c-0.77,1.78-1.79,3.19-3.08,4.22c-1.27,1-2.75,1.66-4.4,2.01c-1.62,0.36-3.32,0.54-5.05,0.54
			c-3.03,0-5.5-0.35-7.43-1.06c-1.95-0.69-3.43-1.86-4.53-3.5c-1.07-1.66-1.84-3.77-2.26-6.35c-0.39-2.64-0.59-5.81-0.59-9.5
			c0-3.76,0.24-6.96,0.68-9.6c0.51-2.61,1.36-4.74,2.51-6.37c1.17-1.62,2.7-2.8,4.58-3.5c1.9-0.74,4.23-1.11,7.03-1.11
			c2.43,0,4.51,0.29,6.22,0.89c1.69,0.59,3.07,1.44,4.12,2.55c1.08,1.08,1.86,2.38,2.31,3.93c0.52,1.51,0.75,3.23,0.75,5.15v2.51
			h-10.43V144.4z M576.17,132.37l10.08,39.59h-11.49l-1.09-6.94h-8.6l-1.11,6.94h-11.32l9.93-39.59H576.17z M569.32,140.46
			l-2.95,16.8h6.02l-2.96-16.8H569.32z M522.47,132.37h16.88c2.07,0,3.82,0.25,5.24,0.77c1.46,0.52,2.65,1.27,3.55,2.23
			c0.93,0.91,1.58,2.02,1.97,3.31c0.43,1.31,0.64,2.7,0.64,4.21c0,2.67-0.56,4.82-1.68,6.45c-1.13,1.64-2.92,2.63-5.4,2.99
			c2.58,0.33,4.38,1.2,5.34,2.71c0.97,1.52,1.45,3.62,1.45,6.28v3.37v1.63c0,0.53,0.02,1.08,0.06,1.6c0.03,0.48,0.09,0.92,0.17,1.32
			l0.29,0.95l0.47,0.66l0.75,0.55v0.55h-11.49c-0.26-0.51-0.48-1.13-0.64-1.83c-0.12-0.69-0.21-1.4-0.28-2.12l-0.13-1.98v-1.61
			v-2.66c0-1.11-0.05-2.04-0.16-2.79c-0.14-0.73-0.34-1.29-0.64-1.71l-1.1-0.87c-0.44-0.2-0.98-0.28-1.64-0.28h-2.84v15.86h-10.8
			V132.37z M533.27,149.12h2.15c1.55,0,2.68-0.43,3.43-1.28c0.74-0.88,1.09-2.05,1.09-3.44c0-1.66-0.36-2.85-1.09-3.55
			c-0.71-0.7-1.86-1.06-3.48-1.06h-2.09V149.12z M491.63,132.37h10.79v14.52h6.62v-14.52h10.8v39.59h-10.8v-16.3h-6.62v16.3h-10.79
			V132.37z"/>
		<polygon class="st3" points="491.63,132.37 491.63,171.96 502.42,171.96 502.42,155.66 509.04,155.66 509.04,171.96 
			519.85,171.96 519.85,132.37 509.04,132.37 509.04,146.9 502.42,146.9 502.42,132.37 		"/>
		<path class="st3" d="M522.47,132.37v39.59h10.8v-15.86h2.84c0.67,0,1.2,0.08,1.64,0.28l1.11,0.88c0.29,0.41,0.5,0.98,0.63,1.71
			c0.12,0.74,0.16,1.67,0.16,2.79v2.65v1.61c0.04,0.63,0.07,1.29,0.13,1.99c0.07,0.71,0.17,1.42,0.29,2.11
			c0.15,0.7,0.37,1.32,0.63,1.83h11.49v-0.56l-0.75-0.54l-0.47-0.66l-0.28-0.95c-0.09-0.41-0.14-0.85-0.18-1.33
			c-0.04-0.52-0.06-1.06-0.06-1.6v-1.63v-3.36c0-2.67-0.48-4.76-1.46-6.28c-0.96-1.52-2.76-2.38-5.34-2.61v-0.1
			c2.48-0.36,4.28-1.36,5.41-3c1.12-1.62,1.67-3.77,1.67-6.45c0-1.52-0.21-2.91-0.63-4.21c-0.39-1.29-1.04-2.4-1.97-3.31
			c-0.9-0.97-2.09-1.71-3.55-2.23c-1.42-0.53-3.17-0.78-5.23-0.78H522.47z M533.27,149.12v-9.32h2.1c1.63,0,2.77,0.35,3.49,1.05
			c0.74,0.7,1.09,1.89,1.09,3.55c0,1.4-0.35,2.55-1.09,3.44c-0.75,0.85-1.88,1.28-3.43,1.28H533.27z"/>
		<path class="st3" d="M576.17,132.37l10.08,39.59h-11.49l-1.08-6.94h-8.6l-1.11,6.94h-11.32l9.93-39.59H576.17z M569.32,140.47
			l-2.95,16.8h6.02l-2.96-16.8H569.32z"/>
		<path class="st3" d="M603.38,144.4v2.22h10.44v-2.51c0-1.92-0.24-3.63-0.76-5.15c-0.45-1.55-1.23-2.85-2.31-3.93
			c-1.06-1.11-2.44-1.96-4.13-2.55c-1.71-0.6-3.79-0.88-6.21-0.88c-2.8,0-5.13,0.36-7.03,1.11c-1.88,0.7-3.41,1.88-4.58,3.5
			c-1.15,1.63-2,3.75-2.52,6.36c-0.45,2.64-0.68,5.84-0.68,9.6c0,3.7,0.2,6.87,0.59,9.5c0.42,2.58,1.19,4.7,2.25,6.36
			c1.11,1.63,2.59,2.8,4.54,3.49c1.93,0.7,4.4,1.06,7.43,1.06c1.72,0,3.43-0.18,5.05-0.54c1.65-0.34,3.14-1.01,4.41-2
			c1.28-1.03,2.31-2.44,3.08-4.22c0.77-1.76,1.16-4.04,1.16-6.83v-2.93h-10.45c0,1.88-0.05,3.46-0.17,4.71
			c-0.09,1.22-0.23,2.2-0.46,2.95c-0.24,0.73-0.56,1.27-0.98,1.61c-0.44,0.29-0.96,0.43-1.63,0.43c-0.83,0-1.48-0.19-1.98-0.59
			c-0.46-0.42-0.85-1.14-1.1-2.17c-0.23-1.05-0.39-2.43-0.47-4.17c-0.09-1.78-0.11-3.99-0.11-6.66c0-2.66,0.03-4.87,0.11-6.6
			c0.08-1.76,0.24-3.18,0.47-4.22c0.25-1.03,0.63-1.75,1.1-2.15c0.5-0.43,1.15-0.61,1.98-0.61c1.04,0,1.79,0.4,2.26,1.21
			C603.14,140.61,603.38,142.15,603.38,144.4z"/>
		<path class="st3" d="M635.9,132.37l10.11,39.59h-11.5l-1.11-6.94h-8.59l-1.1,6.94h-11.32l9.92-39.59H635.9z M629.05,140.47
			l-2.95,16.8h6.03l-2.95-16.8H629.05z"/>
		<polygon class="st3" points="648.83,141.13 648.83,171.96 659.62,171.96 659.62,141.13 667.74,141.13 667.74,132.37 
			640.83,132.37 640.83,141.13 		"/>
		<rect x="696.4" y="132.37" class="st3" width="10.8" height="39.59"/>
		<polygon class="st3" points="711.9,132.37 711.9,171.96 736,171.96 736,163.53 722.69,163.53 722.69,132.37 		"/>
		<path class="st3" d="M756.66,132.37l10.11,39.59h-11.5l-1.09-6.94h-8.6l-1.11,6.94h-11.32l9.92-39.59H756.66z M749.83,140.47
			l-2.97,16.8h6.03l-2.94-16.8H749.83z"/>
		<path class="st3" d="M766.11,132.37v39.59h10.79v-15.86h2.85c0.67,0,1.2,0.08,1.62,0.28l1.11,0.88c0.31,0.41,0.52,0.98,0.64,1.71
			c0.11,0.74,0.17,1.67,0.17,2.79v2.65v1.61c0.06,0.63,0.08,1.29,0.1,1.99c0.09,0.71,0.18,1.42,0.32,2.11
			c0.15,0.7,0.36,1.32,0.62,1.83h11.5v-0.56l-0.75-0.54l-0.46-0.66l-0.3-0.95c-0.07-0.41-0.12-0.85-0.16-1.33
			c-0.04-0.52-0.07-1.06-0.07-1.6v-1.63v-3.36c0-2.67-0.48-4.76-1.44-6.28c-0.97-1.52-2.75-2.38-5.35-2.61v-0.1
			c2.49-0.36,4.28-1.36,5.41-3c1.12-1.62,1.67-3.77,1.67-6.45c0-1.52-0.22-2.91-0.64-4.21c-0.38-1.29-1.03-2.4-1.98-3.31
			c-0.88-0.97-2.07-1.71-3.54-2.23c-1.44-0.53-3.17-0.78-5.23-0.78H766.11z M776.89,149.12v-9.32h2.1c1.61,0,2.78,0.35,3.48,1.05
			c0.74,0.7,1.09,1.89,1.09,3.55c0,1.4-0.35,2.55-1.09,3.44c-0.73,0.85-1.89,1.28-3.43,1.28H776.89z"/>
		<path class="st3" d="M683.44,144.4v2.22h10.43v-2.51c0-1.92-0.24-3.63-0.75-5.15c-0.47-1.55-1.24-2.85-2.32-3.93
			c-1.05-1.11-2.4-1.96-4.13-2.55c-1.7-0.6-3.77-0.88-6.2-0.88c-2.79,0-5.14,0.36-7.04,1.11c-1.9,0.7-3.43,1.88-4.58,3.5
			c-1.17,1.63-1.99,3.75-2.49,6.36c-0.47,2.64-0.71,5.84-0.71,9.6c0,3.7,0.21,6.87,0.6,9.5c0.42,2.58,1.17,4.7,2.27,6.36
			c1.07,1.63,2.59,2.8,4.52,3.49c1.93,0.7,4.41,1.06,7.44,1.06c1.73,0,3.42-0.18,5.04-0.54c1.67-0.34,3.13-1.01,4.42-2
			c1.27-1.03,2.29-2.44,3.07-4.22c0.78-1.76,1.17-4.04,1.17-6.83v-2.93h-10.46c0,1.88-0.05,3.46-0.17,4.71
			c-0.07,1.22-0.22,2.2-0.45,2.95c-0.23,0.73-0.57,1.27-0.99,1.61c-0.43,0.29-0.97,0.43-1.61,0.43c-0.81,0-1.49-0.19-1.98-0.59
			c-0.47-0.42-0.84-1.14-1.11-2.17c-0.24-1.05-0.4-2.43-0.47-4.17c-0.07-1.78-0.12-3.99-0.12-6.66c0-2.66,0.05-4.87,0.12-6.6
			c0.07-1.76,0.23-3.18,0.47-4.22c0.27-1.03,0.63-1.75,1.11-2.15c0.48-0.43,1.16-0.61,1.98-0.61c1.04,0,1.79,0.4,2.26,1.21
			C683.2,140.61,683.44,142.15,683.44,144.4z"/>
		<rect x="676.46" y="172.62" class="st3" width="7.77" height="3.29"/>
		<polygon class="st3" points="477.41,132.35 488.21,132.35 488.21,135.81 483.83,135.81 483.83,139.84 488.21,139.84 
			488.21,171.98 477.41,171.98 		"/>
	</g>
</g>
</svg>
