<svg width="18" height="20" viewBox="0 0 18 20" fill="none" xmlns="http://www.w3.org/2000/svg">
<path d="M7.15381 16.1539C7.23052 16.04 7.33257 15.9478 7.45097 15.8853C7.56938 15.8228 7.70052 15.792 7.83285 15.7956H12.5862C12.963 15.7956 15.0375 13.5991 15.3024 13.2874C15.9478 12.387 16.516 11.4277 17 10.4209C16.8258 10.2366 16.6073 10.106 16.368 10.0428C16.1288 9.9797 15.8777 9.98652 15.6419 10.0626C15.0409 10.2095 14.6878 10.6645 14.2838 11.4958L12.7288 12.3486" stroke="#343A40" stroke-width="0.8" stroke-linejoin="round"/>
<path d="M8.97527 13.6923H12.126C13.7014 13.6923 13.7014 11.9341 12.126 11.9341H10.0465C9.7157 11.9341 9.1013 11.2308 8.58143 11.2308H6.6122C6.01506 11.3051 5.46168 11.5522 5.03681 11.9341L3.46143 13.3407" stroke="#343A40" stroke-width="0.8" stroke-linejoin="round"/>
<path d="M2.8728 12.2473L1 14.1201L5.49526 18.6154L7.36806 16.7426L2.8728 12.2473Z" stroke="#343A40" stroke-width="0.8" stroke-linejoin="round"/>
<path d="M2.23071 14.9231H3.46148" stroke="#343A40" stroke-width="0.8" stroke-linejoin="round"/>
<path d="M7.15381 10V3.84618H9.61535" stroke="#343A40" stroke-width="0.8" stroke-linejoin="round"/>
<path d="M9.61548 10.837V1.38464H12.077V11.2308" stroke="#343A40" stroke-width="0.8" stroke-linejoin="round"/>
<path d="M12.0769 6.30772H15.7692V8.76926" stroke="#343A40" stroke-width="0.8" stroke-linejoin="round"/>
</svg>
