<svg width="16" height="17" viewBox="0 0 16 17" fill="none" xmlns="http://www.w3.org/2000/svg">
<path d="M5.375 9.75L9.75 5.08333L8.40385 2.75H2.34615L1 5.08333L5.375 9.75Z" stroke="#343A40" stroke-width="0.7" stroke-miterlimit="10"/>
<path d="M1 5.375H9.75" stroke="#343A40" stroke-width="0.7" stroke-miterlimit="10"/>
<path d="M5.375 2.75L7.125 5.08333L5.375 9.75" stroke="#343A40" stroke-width="0.7" stroke-miterlimit="10"/>
<path d="M5.375 2.75L3.625 5.08333L5.375 9.75" stroke="#343A40" stroke-width="0.7" stroke-miterlimit="10"/>
<path d="M8 2.75L7.125 5.375" stroke="#343A40" stroke-width="0.7" stroke-miterlimit="10"/>
<path d="M2.75 2.75L3.625 5.375" stroke="#343A40" stroke-width="0.7" stroke-miterlimit="10"/>
<path d="M5.375 1.67021C6.20404 1.20727 7.13346 0.976995 8.07274 1.00181C9.01203 1.02663 9.92917 1.3057 10.7349 1.81183C11.5405 2.31797 12.2073 3.03393 12.6702 3.88999C13.1332 4.74606 13.3765 5.71305 13.3765 6.69681L14.948 9.9909C14.9852 10.0673 15.003 10.1525 14.9996 10.2382C14.9962 10.3239 14.9718 10.4072 14.9288 10.4802C14.8854 10.5529 14.825 10.613 14.7533 10.6546C14.6817 10.6962 14.6011 10.718 14.5191 10.7181H13.3765V12.7287C13.3765 12.9954 13.2753 13.2511 13.0953 13.4396C12.9152 13.6281 12.671 13.734 12.4163 13.734H10.816V16.75" stroke="#343A40" stroke-width="0.7" stroke-miterlimit="10"/>
<path d="M2.75 8.875C2.84964 9.58563 3.0257 10.2488 3.26695 10.8223C3.50074 11.3702 3.62732 12.0566 3.62497 12.7634V16.75" stroke="#343A40" stroke-width="0.7" stroke-miterlimit="10"/>
</svg>
