<svg width="9" height="12" viewBox="0 0 9 12" fill="none" xmlns="http://www.w3.org/2000/svg">
<path d="M0.466439 1.11773C1.14595 1.17376 1.82998 1.11033 2.4878 0.930305C3.13401 0.753184 3.75529 0.464431 4.35462 0.0772075L4.45138 0.0147315C4.46579 0.00512417 4.4827 0 4.5 0C4.51729 0 4.53421 0.00512417 4.54862 0.0147315L4.64537 0.0772075C5.24518 0.464431 5.86599 0.753184 6.5122 0.930305C7.17002 1.11033 7.85405 1.17376 8.53356 1.11773L8.70356 1.10425C8.72668 1.10241 8.74961 1.10964 8.76753 1.12443C8.78546 1.13921 8.79698 1.1604 8.79969 1.18354L8.82131 1.35463C9.05571 3.20703 9.13242 5.01836 8.59102 6.66667C7.90534 8.75248 6.43296 10.0353 4.54135 11.0218C4.52864 11.0286 4.51443 11.0322 4.5 11.0322C4.48557 11.0322 4.47136 11.0286 4.45864 11.0218C2.56703 10.0353 1.09466 8.75248 0.408984 6.66572C-0.132423 5.01756 -0.0557107 3.20624 0.178689 1.35368L0.200313 1.18259C0.203017 1.15945 0.214542 1.13826 0.232466 1.12348C0.250391 1.10869 0.273321 1.10146 0.29644 1.1033L0.466439 1.11678V1.11773ZM2.62891 1.45073C1.99485 1.62506 1.33778 1.69994 0.68095 1.67272C0.480329 3.36734 0.434239 5.01439 0.921032 6.49605C1.41619 8.00245 2.47264 9.35393 4.49984 10.4336C6.52704 9.35393 7.58349 8.00325 8.07865 6.49605C8.56544 5.01439 8.51935 3.36734 8.31873 1.67272C7.66191 1.69994 7.00484 1.62506 6.37077 1.45073C5.72077 1.27297 5.09807 0.993574 4.5 0.624268C3.90193 0.993574 3.27923 1.27297 2.62907 1.4512L2.62891 1.45073Z" fill="#343A40"/>
<path fill-rule="evenodd" clip-rule="evenodd" d="M3.34619 4.50036H5.65388V3.3046C5.65388 2.82382 5.36502 2.51588 4.99519 2.38078C4.67563 2.26693 4.32681 2.26693 4.00724 2.38078C3.63631 2.51636 3.34619 2.82477 3.34619 3.30444V4.50021V4.50036ZM6.29031 4.53208C6.46183 4.58149 6.61275 4.68551 6.72037 4.82848C6.828 4.97146 6.88651 5.14567 6.88712 5.32492V7.58389C6.88649 7.80238 6.79982 8.01174 6.64602 8.16624C6.49223 8.32074 6.28382 8.40781 6.06633 8.40844H2.93358C2.71609 8.40781 2.50768 8.32074 2.35389 8.16624C2.20009 8.01174 2.11342 7.80238 2.11279 7.58389V5.32476C2.1134 5.14551 2.17191 4.9713 2.27954 4.82832C2.38716 4.68535 2.53808 4.58133 2.7096 4.53192V3.3046C2.7096 2.51176 3.18393 2.00323 3.79084 1.78234C4.25032 1.61845 4.75196 1.61845 5.21144 1.78234C5.81725 2.00434 6.29031 2.51176 6.29031 3.30571V4.53287V4.53208ZM4.50003 5.4597C4.62695 5.45979 4.75008 5.50322 4.84919 5.58287C4.9483 5.66252 5.01751 5.77365 5.04546 5.89802C5.07342 6.02239 5.05845 6.15261 5.00303 6.26732C4.9476 6.38202 4.855 6.47438 4.74043 6.52925L4.95699 7.44894H4.04307L4.25964 6.52925C4.14507 6.47438 4.05247 6.38202 3.99704 6.26732C3.94161 6.15261 3.92665 6.02239 3.9546 5.89802C3.98256 5.77365 4.05177 5.66252 4.15088 5.58287C4.24999 5.50322 4.37311 5.45979 4.50003 5.4597Z" fill="#343A40"/>
</svg>
