<svg width="9" height="8" viewBox="0 0 9 8" fill="none" xmlns="http://www.w3.org/2000/svg">
<path d="M2.09411 1.00415C2.05755 1.02377 2.02898 1.03981 1.99992 1.05488C1.37969 1.37555 0.759382 1.69589 0.138994 2.01592C0.0619902 2.05541 0.0009686 2.10159 0 2.19588C0 2.29471 0.0627169 2.34209 0.143837 2.38182C0.507062 2.55938 0.866897 2.73933 1.22794 2.91881C1.25603 2.93269 1.28291 2.94872 1.31996 2.96906C1.28073 2.99084 1.25531 3.00616 1.22915 3.0198C0.868027 3.20613 0.506981 3.39231 0.146016 3.57833C0.0670755 3.61877 0.000726421 3.664 0.000726421 3.76355C0.000726421 3.86741 0.0714343 3.9124 0.154007 3.95284C0.488901 4.11724 0.822826 4.28379 1.15699 4.44987C1.18484 4.46375 1.21172 4.47907 1.24731 4.49773C1.21172 4.51783 1.18871 4.53147 1.16498 4.54416C0.817741 4.73081 0.470659 4.91715 0.123739 5.10317C0.0523044 5.14122 0.00266367 5.19075 0.00266367 5.27618C0.00266367 5.36568 0.0547258 5.41641 0.130761 5.45375C0.557187 5.66409 0.982887 5.87611 1.40907 6.08646C1.52603 6.14437 1.63306 6.11685 1.68101 6.02041C1.72895 5.92397 1.68682 5.82443 1.56937 5.76532C1.41077 5.68539 1.25119 5.60762 1.0921 5.52865L0.573411 5.27116C0.910968 5.08977 1.23763 4.91627 1.56187 4.73823C1.58749 4.72137 1.61743 4.71204 1.6482 4.71132C1.67898 4.7106 1.70933 4.71852 1.73573 4.73416C2.47598 5.10436 3.21914 5.46858 3.95843 5.8407C4.07417 5.89885 4.16789 5.89574 4.28097 5.83902C5.0234 5.46643 5.7685 5.09958 6.51166 4.72866C6.53436 4.71498 6.56053 4.70797 6.58711 4.70844C6.61369 4.7089 6.63959 4.71683 6.66179 4.73129C6.85914 4.84089 7.05916 4.94666 7.25772 5.05243C7.38872 5.12303 7.519 5.19434 7.66066 5.2714L7.41439 5.3944C6.34167 5.92709 5.26919 6.46025 4.19695 6.9939C4.17297 7.00834 4.14539 7.01585 4.11731 7.0156C4.08924 7.01535 4.0618 7.00733 4.03809 6.99246C3.94123 6.93838 3.83953 6.89171 3.73977 6.84218C3.51069 6.72827 3.28154 6.6146 3.0523 6.50117C2.98305 6.46695 2.90507 6.45331 2.84938 6.50979C2.80842 6.55454 2.78297 6.61105 2.77673 6.67108C2.76899 6.75148 2.83437 6.7948 2.90265 6.82878C3.29009 7.02197 3.67689 7.21565 4.06304 7.40981H4.17176C4.17771 7.40365 4.18428 7.39812 4.19138 7.39329L7.02284 5.9905C7.38412 5.8115 7.74533 5.63227 8.10646 5.45279C8.22293 5.39464 8.26773 5.2915 8.21131 5.19745C8.1829 5.15593 8.14433 5.12219 8.09919 5.09934C7.73234 4.89928 7.36378 4.70233 6.9853 4.49845C7.02308 4.47883 7.05117 4.46351 7.07974 4.44939C7.41875 4.28044 7.75825 4.11173 8.09822 3.94327C8.17353 3.90617 8.22971 3.85903 8.23238 3.76929C8.23528 3.67501 8.17765 3.62404 8.10016 3.58455C7.89918 3.48189 7.69892 3.37779 7.49842 3.27346L6.90878 2.97098C6.94995 2.94825 6.97731 2.93173 7.00564 2.91738C7.36403 2.73933 7.72192 2.56034 8.08103 2.38397C8.16143 2.34472 8.22753 2.2995 8.22898 2.20066C8.23044 2.10183 8.16603 2.05445 8.08636 2.01353C7.64032 1.78412 7.19404 1.55351 6.74751 1.3217L6.13608 1.00511L5.96149 1.32027L7.64855 2.19157C7.61659 2.21 7.59479 2.22364 7.57179 2.23512C6.44289 2.79557 5.31366 3.3553 4.18411 3.91431C4.16541 3.92335 4.14507 3.92862 4.12428 3.92981C4.10349 3.931 4.08267 3.92809 4.06304 3.92125C2.91686 3.3557 1.77149 2.78823 0.626926 2.21885C0.616514 2.21383 0.606828 2.20736 0.582129 2.19253L2.28081 1.31453L2.09411 1.00415ZM4.19016 5.48174C4.16901 5.4948 4.14467 5.50197 4.11974 5.50247C4.0948 5.50298 4.07019 5.49681 4.04851 5.48461C2.91169 4.91842 1.77456 4.35399 0.637097 3.79131C0.621599 3.78341 0.606828 3.77432 0.580434 3.75948L0.980465 3.55272C1.2047 3.43666 1.43014 3.32228 1.65292 3.2031C1.67538 3.18942 1.70124 3.18218 1.72762 3.18218C1.754 3.18218 1.77986 3.18942 1.80232 3.2031C2.52635 3.56421 3.25207 3.92101 3.97538 4.28475C4.01804 4.30909 4.06644 4.32191 4.1157 4.32191C4.16497 4.32191 4.21337 4.30909 4.25603 4.28475C4.97691 3.92364 5.70021 3.56684 6.42133 3.20789C6.44634 3.19288 6.47507 3.18505 6.50432 3.18526C6.53357 3.18547 6.56219 3.19372 6.58697 3.20909C6.91411 3.38186 7.24343 3.55033 7.57179 3.72071C7.59601 3.73268 7.6178 3.7468 7.64952 3.76499C7.411 3.88464 7.18266 3.99783 6.95431 4.11102C6.03236 4.56713 5.11066 5.02404 4.1892 5.48174H4.19016Z" fill="#343A40"/>
<path d="M6.23076 1.46022L4.11606 0.402028L2.12244 1.39298L1.95923 1.07232L4.11654 0L6.39493 1.14004L6.23076 1.46022Z" fill="#343A40"/>
</svg>
