<svg width="12" height="16" viewBox="0 0 12 16" fill="none" xmlns="http://www.w3.org/2000/svg">
<path d="M11 4.85243V13.9298C11 14.0502 10.9768 14.1693 10.9317 14.2805C10.8867 14.3917 10.8206 14.4927 10.7374 14.5778C10.6541 14.6629 10.5552 14.7304 10.4464 14.7764C10.3377 14.8225 10.221 14.8462 10.1033 14.8462H1.89687C1.65903 14.8462 1.43094 14.7496 1.26275 14.5778C1.09455 14.4059 1.00004 14.1729 1 13.9298V1.91631C1.00004 1.67328 1.09455 1.44021 1.26275 1.26837C1.43094 1.09653 1.65903 1 1.89687 1H7.09801" stroke="#343A40" stroke-width="0.8" stroke-miterlimit="10"/>
<path d="M6.69996 5.61385L10.7436 5.19391C10.7973 5.18831 10.8483 5.1676 10.8908 5.13419C10.9332 5.10077 10.9654 5.05602 10.9834 5.00511C11.0015 4.9542 11.0048 4.89921 10.9929 4.84651C10.981 4.79381 10.9544 4.74556 10.9162 4.70734L7.15727 1.08366C7.11905 1.04548 7.0708 1.01891 7.0181 1.00701C6.9654 0.995123 6.91041 0.998401 6.8595 1.01647C6.80858 1.03454 6.76383 1.06666 6.73042 1.10911C6.697 1.15156 6.6763 1.20261 6.6707 1.25634L6.38606 5.29995C6.38165 5.34225 6.38674 5.38501 6.40096 5.4251C6.41518 5.46518 6.43816 5.50159 6.46824 5.53167C6.49831 5.56175 6.53472 5.58473 6.57481 5.59895C6.6149 5.61316 6.65765 5.61825 6.69996 5.61385V5.61385Z" stroke="#343A40" stroke-width="0.8" stroke-miterlimit="10"/>
</svg>
