<svg width="14" height="14" viewBox="0 0 14 14" fill="none" xmlns="http://www.w3.org/2000/svg">
<path d="M5.78189 7.61373C5.78823 7.44284 5.79444 7.29155 5.79986 7.18214C5.82879 7.19555 6.05083 7.34649 6.0787 7.36504C6.13682 7.03434 6.14355 7.00192 6.18067 6.75532C6.26917 6.16882 6.25042 6.29014 7.50395 4.85584L7.68716 5.24334L7.86086 4.89748C7.86839 4.88267 8.60835 3.44966 10.6917 2.68002L10.8092 3.05189C11.3707 2.69029 11.8846 2.25193 13.634 2.33463C13.6087 3.08362 13.1116 3.3757 12.0015 3.75003L11.5674 3.89583L12.1222 4.09752C11.2957 4.92501 10.9519 5.07304 9.42057 5.80477L10.4171 5.86111C9.0881 8.07192 8.29398 8.13048 7.45455 8.1923C7.15074 8.2147 6.83544 8.23791 6.49029 8.35339L6.15359 8.46619C6.42676 8.62541 6.48382 8.65282 6.5352 8.69948C6.32597 8.70252 6.02124 8.71675 5.73698 8.76586C6.52424 7.6219 7.43843 6.51013 8.45962 5.55922C9.94365 4.16401 11.9856 3.04443 12.5676 2.78932C11.4845 3.04396 10.2151 3.43356 8.19201 5.33549C6.76543 6.66352 5.88043 7.92168 4.88091 9.39249C4.80046 9.51427 4.13249 10.4466 4 11C4.50524 10.6267 5.11788 9.67652 5.45431 9.18112C5.80356 9.02645 6.51658 9.01851 6.91047 9.0303C6.9501 8.92531 7.03133 8.78464 6.89845 8.58517C7.09447 8.54609 7.286 8.53198 7.48519 8.51728C8.41378 8.44893 9.37408 8.37824 10.8754 5.78937L11.0035 5.56856L10.7081 5.55188C11.6779 5.05297 11.9736 4.74818 12.7371 3.96991L12.5567 3.90423C13.7943 3.43484 14.0337 2.93058 13.9964 2.03018C12.9159 1.96019 11.9094 1.97185 11.0226 2.51368L10.9379 2.24539C9.59427 2.6981 8.4686 3.37372 7.7149 4.45551L7.59958 4.21113C5.82205 6.25934 5.93221 5.96411 5.79669 6.83569C5.70092 6.81551 5.64703 6.81633 5.47016 6.80898C5.44374 6.97987 5.43265 6.93216 5.39566 8.15252L5.78189 7.61373Z" fill="#343A40"/>
<path d="M13 6.99962V11.7328C13 11.8992 12.9673 12.0639 12.9036 12.2177C12.84 12.3714 12.7467 12.5111 12.6291 12.6288C12.5114 12.7465 12.3718 12.8398 12.218 12.9035C12.0643 12.9672 11.8996 13 11.7332 13H2.26694C1.93093 13 1.60868 12.8665 1.37108 12.6289C1.13348 12.3913 1 12.0691 1 11.733V2.26697C1 1.93095 1.13348 1.60869 1.37108 1.37109C1.60868 1.13348 1.93093 1 2.26694 1H7" stroke="#343A40" stroke-width="0.8" stroke-miterlimit="10"/>
</svg>
